<svg xmlns="http://www.w3.org/2000/svg"  width="120.65mm" height="603.25mm" style="fill-rule:evenodd" viewBox="0 0 9956 49779">
<!--by TreedBox.com.br-->
 <defs>
  <style type="text/css">
   <![CDATA[
    .fil0 {fill:none}
    .fil3 {fill:#30719E}
    .fil2 {fill:#ccc}
    .fil1 {fill:#fff}
   ]]>
  </style>
 </defs>
 <g id="geo">
  <polygon class="fil0" points="0,0 9956,0 9956,49779 0,49779 "/>
  <path class="fil1" d="M6002 2887l720 0 0 4182 -720 0 0 793 -2590 -793 0 -4182 2590 -794 0 794zm0 192l0 3798 510 0 0 -3798 -510 0z"/>
  <path class="fil2" d="M6002 22798l720 0 0 4183 -720 0 0 793 -2590 -793 0 -4183 2590 -793 0 793zm0 193l0 3797 510 0 0 -3797 -510 0z"/>
  <path class="fil3" d="M6002 42722l720 0 0 4182 -720 0 0 793 -2590 -793 0 -4182 2590 -794 0 794zm0 192l0 3798 510 0 0 -3798 -510 0z"/>
 </g>
</svg>