<svg xmlns="http://www.w3.org/2000/svg" width="120.65mm" height="603.25mm" viewBox="0 0 9956 49779">
 <defs>
  <style type="text/css">
   <![CDATA[
    .fil0 {fill:none}
    .fil3 {fill:#30719E}
    .fil2 {fill:#CCCBCB}
    .fil1 {fill:white}
   ]]>
  </style>
 </defs>
 <g id="geo">
  <polygon class="fil0" points="0,0 9956,0 9956,49779 0,49779 "/>
  <path class="fil1" d="M5519 4000l732 -1268 -2546 0 739 1280 523 223 552 -235zm-501 1316l0 1030 1201 823 -1135 -1967 -9 15 -57 99zm-80 1048l0 -1048 -57 -99 -9 -15 -1129 1956 1195 -794zm275 -1386l1329 2303 98 168 -195 0 -2935 0 -194 0 97 -168 1330 -2303 -1330 -2303 -97 -168 194 0 2935 0 195 0 -98 168 -1329 2303z"/>
  <path class="fil2" d="M5519 23911l732 -1268 -2546 0 739 1281 523 223 552 -236zm-501 1317l0 1030 1201 823 -1135 -1968 -9 15 -57 100zm-80 1048l0 -1048 -57 -100 -9 -15 -1129 1956 1195 -793zm275 -1387l1329 2303 98 169 -195 0 -2935 0 -194 0 97 -169 1330 -2303 -1330 -2302 -97 -169 194 0 2935 0 195 0 -98 169 -1329 2302z"/>
  <path class="fil3" d="M5519 43823l732 -1268 -2546 0 739 1280 523 223 552 -235zm-501 1316l0 1030 1201 823 -1135 -1967 -9 15 -57 99zm-80 1048l0 -1048 -57 -99 -9 -15 -1129 1956 1195 -794zm275 -1386l1329 2303 98 168 -195 0 -2935 0 -194 0 97 -168 1330 -2303 -1330 -2303 -97 -168 194 0 2935 0 195 0 -98 168 -1329 2303z"/>
 </g>
</svg>