<svg xmlns="http://www.w3.org/2000/svg" width="120.65mm" height="603.25mm" style="fill-rule:evenodd" viewBox="0 0 9956 49779">
<!--by TreedBox.com.br-->
 <defs>
  <style type="text/css">
   <![CDATA[
    .fil0 {fill:none}
    .fil1 {fill:#fff}
    .fil2 {fill:#ccc}
    .fil3 {fill:#000}
   ]]>
  </style>
 </defs>
 <g id="geo">
<rect class="fil0" width="9956" height="49779"/>
  <g id="_792659456">
   <path class="fil1" d="M5069 5674l-178 0c-20,-254 -83,-562 -190,-923l-213 -731c-130,-438 -195,-751 -195,-939 0,-174 63,-312 190,-417 126,-105 290,-157 494,-157 197,0 360,53 490,158 130,106 195,241 195,405 0,168 -69,485 -205,950l-219 731c-77,258 -133,566 -169,923z"/>
   <circle class="fil1" cx="4978" cy="6809" r="640"/>
  </g>
  <g id="_792649024">
   <path class="fil2" d="M5069 25585l-178 0c-20,-254 -83,-562 -190,-922l-213 -732c-130,-438 -195,-750 -195,-939 0,-173 63,-311 190,-416 126,-106 290,-158 494,-158 197,0 360,53 490,159 130,105 195,240 195,404 0,169 -69,486 -205,950l-219 732c-77,257 -133,565 -169,922z"/>
   <circle class="fil2" cx="4978" cy="26721" r="640"/>
  </g>
  <g id="_792660736">
   <path class="fil3" d="M5069 45497l-178 0c-20,-254 -83,-562 -190,-923l-213 -731c-130,-438 -195,-751 -195,-939 0,-174 63,-312 190,-417 126,-105 290,-157 494,-157 197,0 360,52 490,158 130,106 195,241 195,405 0,168 -69,485 -205,950l-219 731c-77,258 -133,566 -169,923z"/>
   <circle class="fil3" cx="4978" cy="46632" r="640"/>
  </g>
 </g>
</svg>