<svg xmlns="http://www.w3.org/2000/svg" width="120.65mm" height="603.25mm" style="fill-rule:evenodd" viewBox="0 0 9956 49779">
<!--by TreedBox.com.br-->
 <defs>
  <style type="text/css">
   <![CDATA[
    .fil0 {fill:none}
    .fil1 {fill:#fff}
    .fil2 {fill:#ccc}
    .fil3 {fill:#30719E}
   ]]>
  </style>
 </defs>
 <g id="geo">
<rect class="fil0" width="9956" height="49779"/>
  <g id="_863421456">
   <path class="fil1" d="M4978 2507c1365,0 2471,1106 2471,2471 0,1365 -1106,2471 -2471,2471 -1365,0 -2471,-1106 -2471,-2471 0,-1365 1106,-2471 2471,-2471zm0 300c1199,0 2171,972 2171,2171 0,1199 -972,2171 -2171,2171 -1199,0 -2171,-972 -2171,-2171 0,-1199 972,-2171 2171,-2171z"/>
   <g>
    <path class="fil1" d="M5042 5467l-125 0c-14,-179 -58,-395 -133,-648l-150 -514c-91,-308 -137,-527 -137,-660 0,-121 44,-218 133,-292 88,-74 204,-111 347,-111 139,0 253,37 345,112 91,74 137,168 137,284 0,118 -49,341 -145,667l-153 514c-54,181 -94,397 -119,648z"/>
    <circle class="fil1" cx="4978" cy="6264" r="449"/>
   </g>
  </g>
  <g id="_863448624">
   <path class="fil2" d="M4978 22418c1365,0 2471,1107 2471,2471 0,1365 -1106,2472 -2471,2472 -1365,0 -2471,-1107 -2471,-2472 0,-1364 1106,-2471 2471,-2471zm0 300c1199,0 2171,972 2171,2171 0,1199 -972,2171 -2171,2171 -1199,0 -2171,-972 -2171,-2171 0,-1199 972,-2171 2171,-2171z"/>
   <g>
    <path class="fil2" d="M5042 25378l-125 0c-14,-178 -58,-395 -133,-648l-150 -514c-91,-307 -137,-527 -137,-659 0,-122 44,-219 133,-293 88,-74 204,-110 347,-110 139,0 253,37 345,111 91,74 137,169 137,284 0,118 -49,341 -145,667l-153 514c-54,181 -94,397 -119,648z"/>
    <circle class="fil2" cx="4978" cy="26176" r="449"/>
   </g>
  </g>
  <g id="_863425360">
   <path class="fil3" d="M4978 42330c1365,0 2471,1106 2471,2471 0,1365 -1106,2471 -2471,2471 -1365,0 -2471,-1106 -2471,-2471 0,-1365 1106,-2471 2471,-2471zm0 300c1199,0 2171,972 2171,2171 0,1199 -972,2171 -2171,2171 -1199,0 -2171,-972 -2171,-2171 0,-1199 972,-2171 2171,-2171z"/>
   <g>
    <path class="fil3" d="M5042 45290l-125 0c-14,-179 -58,-395 -133,-648l-150 -514c-91,-308 -137,-527 -137,-660 0,-121 44,-219 133,-292 88,-74 204,-111 347,-111 139,0 253,37 345,112 91,74 137,168 137,284 0,118 -49,341 -145,667l-153 514c-54,181 -94,397 -119,648z"/>
    <circle class="fil3" cx="4978" cy="46087" r="449"/>
   </g>
  </g>
 </g>
</svg>