<svg xmlns="http://www.w3.org/2000/svg" width="120.65mm" height="603.25mm" style="fill-rule:evenodd" viewBox="0 0 9956 49779">
<!--by TreedBox.com.br-->
 <defs>
  <style type="text/css">
   <![CDATA[
    .fil0 {fill:none}
    .fil3 {fill:#30719E}
    .fil2 {fill:#ccc}
    .fil1 {fill:#fff}
   ]]>
  </style>
 </defs>
 <g id="geo">
<rect class="fil0" width="9956" height="49779"/>
  <path class="fil1" d="M5932 2729c-49,-300 -98,-600 -147,-901 794,560 1588,1119 2383,1678 -1103,538 -1922,1312 -2467,2311 14,-510 29,-1021 43,-1531 -2135,-134 -3256,1057 -3364,3571 -501,-3205 1100,-4544 3552,-5128l0 0z"/>
  <path class="fil2" d="M5932 22641c-49,-301 -98,-601 -147,-901 794,560 1588,1118 2383,1678 -1103,538 -1922,1311 -2467,2310 14,-510 29,-1020 43,-1531 -2135,-134 -3256,1057 -3364,3572 -501,-3206 1100,-4545 3552,-5128l0 0z"/>
  <path class="fil3" d="M5932 42552c-49,-300 -98,-600 -147,-901 794,560 1588,1119 2383,1678 -1103,538 -1922,1312 -2467,2311 14,-510 29,-1021 43,-1531 -2135,-134 -3256,1057 -3364,3571 -501,-3205 1100,-4544 3552,-5128l0 0z"/>
 </g>
</svg>