<svg xmlns="http://www.w3.org/2000/svg" width="120.65mm" height="603.25mm" style="fill-rule:evenodd" viewBox="0 0 9956 49779">
 <!--by TreedBox.com.br-->
 <defs>
  <style type="text/css">
   <![CDATA[
    .fil0 {fill:none}
    .fil3 {fill:#30719E}
    .fil2 {fill:#CCCBCB}
    .fil1 {fill:white}
   ]]>
  </style>
 </defs>
 <g id="geo">
  <polygon class="fil0" points="0,0 9956,0 9956,49779 0,49779 "/>
  <path class="fil1" d="M7141 3953l-892 432c85,180 132,381 132,593 0,212 -47,413 -132,593l892 432c147,-311 230,-658 230,-1025 0,-367 -83,-714 -230,-1025zm-988 479l0 0 -9 -19c-64,-130 -149,-249 -251,-351 -101,-101 -220,-186 -351,-250l-18 -9 0 0c-166,-78 -351,-121 -546,-121 -195,0 -380,43 -546,121l0 0 -19 9c-130,64 -249,149 -351,250 -102,102 -186,221 -250,351l-9 19 0 0c-78,166 -121,351 -121,546 0,195 43,380 121,546l0 0 9 18c64,131 149,250 250,351 102,102 221,187 351,251l19 9 0 0c166,78 351,121 546,121 195,0 380,-43 546,-121l0 0 18 -9c131,-64 250,-149 351,-251 102,-101 187,-220 251,-351l9 -18 0 0c78,-166 121,-351 121,-546 0,-195 -43,-380 -121,-546zm-582 -726l432 -891c-311,-148 -658,-230 -1025,-230 -367,0 -714,82 -1025,230l432 891c180,-84 381,-131 593,-131 212,0 413,47 593,131zm-2756 247c-148,311 -230,658 -230,1025 0,367 82,714 230,1025l891 -432c-84,-180 -131,-381 -131,-593 0,-212 47,-413 131,-593l-891 -432zm1138 3188c311,147 658,230 1025,230 367,0 714,-83 1025,-230l-432 -892c-180,85 -381,132 -593,132 -212,0 -413,-47 -593,-132l-432 892zm1025 -4664c1381,0 2501,1120 2501,2501 0,1381 -1120,2501 -2501,2501 -1381,0 -2501,-1120 -2501,-2501 0,-1381 1120,-2501 2501,-2501z"/>
  <path class="fil2" d="M7141 23865l-892 431c85,181 132,381 132,593 0,212 -47,413 -132,593l892 432c147,-311 230,-658 230,-1025 0,-366 -83,-714 -230,-1024zm-988 478l0 0 -9 -18c-64,-131 -149,-249 -251,-351 -101,-102 -220,-187 -351,-250l-18 -9 0 -1c-166,-77 -351,-121 -546,-121 -195,0 -380,44 -546,121l0 1 -19 9c-130,63 -249,148 -351,250 -102,102 -186,220 -250,351l-9 18 0 0c-78,166 -121,351 -121,546 0,196 43,381 121,547l0 -1 9 19c64,131 149,249 250,351 102,102 221,187 351,250l19 9 0 1c166,77 351,120 546,120 195,0 380,-43 546,-120l0 -1 18 -9c131,-63 250,-148 351,-250 102,-102 187,-220 251,-351l9 -19 0 1c78,-166 121,-351 121,-547 0,-195 -43,-380 -121,-546zm-582 -725l432 -892c-311,-147 -658,-230 -1025,-230 -367,0 -714,83 -1025,230l432 892c180,-84 381,-131 593,-131 212,0 413,47 593,131zm-2756 247c-148,310 -230,658 -230,1024 0,367 82,714 230,1025l891 -432c-84,-180 -131,-381 -131,-593 0,-212 47,-412 131,-593l-891 -431zm1138 3187c311,148 658,230 1025,230 367,0 714,-82 1025,-230l-432 -891c-180,84 -381,131 -593,131 -212,0 -413,-47 -593,-131l-432 891zm1025 -4663c1381,0 2501,1119 2501,2500 0,1381 -1120,2501 -2501,2501 -1381,0 -2501,-1120 -2501,-2501 0,-1381 1120,-2500 2501,-2500z"/>
  <path class="fil3" d="M7141 43776l-892 432c85,180 132,381 132,593 0,212 -47,413 -132,593l892 431c147,-310 230,-658 230,-1024 0,-367 -83,-714 -230,-1025zm-988 478l0 1 -9 -19c-64,-130 -149,-249 -251,-351 -101,-102 -220,-186 -351,-250l-18 -9 0 -1c-166,-77 -351,-120 -546,-120 -195,0 -380,43 -546,120l0 1 -19 9c-130,64 -249,148 -351,250 -102,102 -186,221 -250,351l-9 19 0 0c-78,166 -121,351 -121,546 0,195 43,380 121,546l0 0 9 18c64,131 149,250 250,351 102,102 221,187 351,251l19 9 0 0c166,78 351,121 546,121 195,0 380,-44 546,-121l0 0 18 -9c131,-64 250,-149 351,-251 102,-101 187,-220 251,-351l9 -18 0 0c78,-166 121,-351 121,-546 0,-195 -43,-380 -121,-547zm-582 -725l432 -891c-311,-148 -658,-230 -1025,-230 -367,0 -714,82 -1025,230l432 891c180,-84 381,-131 593,-131 212,0 413,47 593,131zm-2756 247c-148,311 -230,658 -230,1025 0,366 82,714 230,1024l891 -431c-84,-180 -131,-381 -131,-593 0,-212 47,-413 131,-593l-891 -432zm1138 3188c311,147 658,230 1025,230 367,0 714,-83 1025,-230l-432 -892c-180,85 -381,132 -593,132 -212,0 -413,-47 -593,-132l-432 892zm1025 -4664c1381,0 2501,1120 2501,2501 0,1381 -1120,2501 -2501,2501 -1381,0 -2501,-1120 -2501,-2501 0,-1381 1120,-2501 2501,-2501z"/>
 </g>
</svg>