<svg xmlns="http://www.w3.org/2000/svg" xml:space="preserve" width="120.65mm" height="603.25mm" version="1.1" style="shape-rendering:geometricPrecision; text-rendering:geometricPrecision; image-rendering:optimizeQuality; fill-rule:evenodd; clip-rule:evenodd"
viewBox="0 0 9956 49779"
 xmlns:xlink="http://www.w3.org/1999/xlink">
 <!-- Created by: Treedbox, treedbox.com.br -->
 <defs>
  <style type="text/css">
   <![CDATA[
    .fil0 {fill:none}
    .fil3 {fill:#30719E}
    .fil2 {fill:#ccc}
    .fil1 {fill:#fff}
   ]]>
  </style>
 </defs>
 <g id="geo">
<rect class="fil0" width="9956" height="49779"/>
  <path class="fil1" d="M3353 4614l0 -638c0,-803 657,-1461 1461,-1461l328 0c803,0 1461,658 1461,1461l0 638c195,0 355,160 355,355l0 2117c0,195 -160,355 -355,355l-3250 0c-195,0 -355,-160 -355,-355l0 -2117c0,-195 160,-355 355,-355zm635 0l1980 0 0 -620c0,-490 -401,-891 -890,-891l-200 0c-489,0 -890,401 -890,891l0 620zm990 807c171,0 310,139 310,310 0,94 -42,178 -108,235l108 945 -620 0 107 -945c-65,-57 -107,-141 -107,-235 0,-171 139,-310 310,-310z"/>
  <path class="fil2" d="M3353 24526l0 -638c0,-804 657,-1462 1461,-1462l328 0c803,0 1461,658 1461,1462l0 638c195,0 355,159 355,354l0 2118c0,195 -160,354 -355,354l-3250 0c-195,0 -355,-159 -355,-354l0 -2118c0,-195 160,-354 355,-354zm635 0l1980 0 0 -621c0,-490 -401,-890 -890,-890l-200 0c-489,0 -890,400 -890,890l0 621zm990 806c171,0 310,139 310,310 0,94 -42,178 -108,235l108 946 -620 0 107 -946c-65,-57 -107,-141 -107,-235 0,-171 139,-310 310,-310z"/>
  <path class="fil3" d="M3353 44437l0 -638c0,-803 657,-1461 1461,-1461l328 0c803,0 1461,658 1461,1461l0 638c195,0 355,160 355,355l0 2117c0,195 -160,355 -355,355l-3250 0c-195,0 -355,-160 -355,-355l0 -2117c0,-195 160,-355 355,-355zm635 0l1980 0 0 -620c0,-490 -401,-891 -890,-891l-200 0c-489,0 -890,401 -890,891l0 620zm990 807c171,0 310,139 310,310 0,94 -42,178 -108,235l108 945 -620 0 107 -945c-65,-57 -107,-141 -107,-235 0,-171 139,-310 310,-310z"/>
 </g>
</svg>