<svg xmlns="http://www.w3.org/2000/svg" width="120.65mm" height="603.25mm" style="fill-rule:evenodd" viewBox="0 0 9956 49779">
 <!--by TreedBox.com.br-->
 <defs>
  <style type="text/css">
   <![CDATA[
    .fil0 {fill:none}
    .fil3 {fill:#30719E}
    .fil2 {fill:#CCCBCB}
    .fil1 {fill:white}
   ]]>
  </style>
 </defs>
 <g id="geo">
  <polygon class="fil0" points="0,0 9956,0 9956,49779 0,49779 "/>
  <g id="_594875908928">
   <g>
    <path class="fil1" d="M6554 3832c0,92 -5,182 -14,271 222,-104 405,-148 552,-152 189,-5 375,57 486,218 54,80 81,173 83,269 31,1139 -1568,1567 -2464,1603 -16,1 -32,0 -48,-4 -257,110 -537,170 -830,170 -1235,0 -2236,-1063 -2236,-2375l4471 0zm-116 759c-122,385 -335,725 -611,994 355,-72 662,-189 903,-338 353,-218 559,-501 551,-800 -2,-44 -20,-78 -61,-97 -201,-90 -621,142 -782,241z"/>
    <path class="fil1" d="M6554 6207c0,269 -1001,488 -2235,488 -1235,0 -2236,-219 -2236,-488l4471 0z"/>
   </g>
   <g>
    <path class="fil1" d="M3745 3554c56,-129 162,-355 39,-469 -141,-130 -377,-131 -542,-339 -126,-158 -149,-382 -101,-591 20,88 11,36 20,124 47,457 243,467 537,580 360,139 335,416 189,793 -21,50 -70,68 -110,41 -39,-27 -54,-89 -32,-139z"/>
    <path class="fil1" d="M4883 3572c323,-302 596,-875 -10,-1108 -449,-172 -1214,-452 -906,-880 15,-21 175,-191 211,-204l28 -6 0 0c-16,18 -31,32 -42,52 -29,53 -27,44 -69,96 -353,444 377,668 861,835 753,261 517,932 136,1313 -41,38 -121,47 -178,20 -58,-27 -71,-80 -31,-118z"/>
   </g>
  </g>
  <g id="_594875910656">
   <g>
    <path class="fil2" d="M6554 23744c0,91 -5,181 -14,270 222,-103 405,-148 552,-152 189,-5 375,57 486,219 54,79 81,173 83,268 31,1140 -1568,1568 -2464,1604 -16,1 -32,-1 -48,-4 -257,109 -537,169 -830,169 -1235,0 -2236,-1063 -2236,-2374l4471 0zm-116 758c-122,385 -335,726 -611,994 355,-72 662,-189 903,-338 353,-218 559,-500 551,-800 -2,-44 -20,-78 -61,-96 -201,-90 -621,141 -782,240z"/>
    <path class="fil2" d="M6554 26118c0,270 -1001,489 -2235,489 -1235,0 -2236,-219 -2236,-489l4471 0z"/>
   </g>
   <g>
    <path class="fil2" d="M3745 23466c56,-129 162,-355 39,-470 -141,-130 -377,-130 -542,-338 -126,-158 -149,-382 -101,-591 20,87 11,35 20,124 47,456 243,467 537,580 360,138 335,415 189,792 -21,50 -70,69 -110,42 -39,-27 -54,-89 -32,-139z"/>
    <path class="fil2" d="M4883 23483c323,-302 596,-875 -10,-1107 -449,-172 -1214,-453 -906,-880 15,-22 175,-191 211,-205l28 -6 0 0c-16,19 -31,32 -42,53 -29,53 -27,43 -69,95 -353,445 377,668 861,836 753,260 517,931 136,1313 -41,38 -121,47 -178,20 -58,-28 -71,-81 -31,-119z"/>
   </g>
  </g>
  <g id="_594875913536">
   <g>
    <path class="fil3" d="M6554 43655c0,92 -5,182 -14,271 222,-104 405,-148 552,-152 189,-5 375,57 486,218 54,80 81,173 83,269 31,1139 -1568,1567 -2464,1603 -16,1 -32,0 -48,-4 -257,109 -537,170 -830,170 -1235,0 -2236,-1063 -2236,-2375l4471 0zm-116 759c-122,385 -335,725 -611,994 355,-72 662,-189 903,-338 353,-218 559,-501 551,-801 -2,-44 -20,-77 -61,-96 -201,-90 -621,142 -782,241z"/>
    <path class="fil3" d="M6554 46030c0,269 -1001,488 -2235,488 -1235,0 -2236,-219 -2236,-488l4471 0z"/>
   </g>
   <g>
    <path class="fil3" d="M3745 43377c56,-129 162,-355 39,-470 -141,-130 -377,-130 -542,-338 -126,-158 -149,-382 -101,-591 20,88 11,35 20,124 47,457 243,467 537,580 360,139 335,416 189,793 -21,50 -70,68 -110,41 -39,-27 -54,-89 -32,-139z"/>
    <path class="fil3" d="M4883 43395c323,-303 596,-875 -10,-1108 -449,-172 -1214,-452 -906,-880 15,-21 175,-191 211,-204l28 -6 0 0c-16,18 -31,32 -42,52 -29,53 -27,44 -69,96 -353,444 377,668 861,835 753,261 517,932 136,1313 -41,38 -121,47 -178,20 -58,-27 -71,-80 -31,-118z"/>
   </g>
  </g>
 </g>
</svg>