<svg xmlns="http://www.w3.org/2000/svg" xml:space="preserve" width="120.65mm" height="603.25mm" version="1.1" style="shape-rendering:geometricPrecision; text-rendering:geometricPrecision; image-rendering:optimizeQuality; fill-rule:evenodd; clip-rule:evenodd"
viewBox="0 0 9956 49779"
 xmlns:xlink="http://www.w3.org/1999/xlink">
 <!-- Created by: Treedbox, treedbox.com.br -->
 <defs>
  <style type="text/css">
   <![CDATA[
    .fil0 {fill:none}
    .fil3 {fill:#30719E}
    .fil2 {fill:#CCCBCB}
    .fil1 {fill:white}
   ]]>
  </style>
 </defs>
 <g id="g">
  <rect class="fil0" width="9956" height="49779"/>
  <g id="_596679008">
   <path class="fil1" d="M7179 6261c0,363 -985,658 -2201,658 -1216,0 -2201,-295 -2201,-658l0 -1012 2201 717 2201 -717 0 1012z"/>
   <polygon class="fil1" points="4978,3037 9022,4353 4978,5670 934,4353 "/>
  </g>
  <g id="_594751840">
   <path class="fil2" d="M7179 26172c0,363 -985,658 -2201,658 -1216,0 -2201,-295 -2201,-658l0 -1011 2201 716 2201 -716 0 1011z"/>
   <polygon class="fil2" points="4978,22949 9022,24265 4978,25581 934,24265 "/>
  </g>
  <g id="_595110256">
   <path class="fil3" d="M7179 46084c0,363 -985,658 -2201,658 -1216,0 -2201,-295 -2201,-658l0 -1012 2201 716 2201 -716 0 1012z"/>
   <polygon class="fil3" points="4978,42860 9022,44176 4978,45493 934,44176 "/>
  </g>
 </g>
</svg>