<svg xmlns="http://www.w3.org/2000/svg" xml:space="preserve" width="120.65mm" height="603.25mm" version="1.1" style="shape-rendering:geometricPrecision; text-rendering:geometricPrecision; image-rendering:optimizeQuality; fill-rule:evenodd; clip-rule:evenodd"
viewBox="0 0 9956 49779"
 xmlns:xlink="http://www.w3.org/1999/xlink">
 <!-- Created by: Treedbox, treedbox.com.br -->
 <defs>
  <style type="text/css">
   <![CDATA[
    .fil0 {fill:none}
    .fil3 {fill:#30719E}
    .fil2 {fill:#ccc}
    .fil1 {fill:#fff}
   ]]>
  </style>
 </defs>
 <g id="geo">
<rect class="fil0" width="9956" height="49779"/>
  <path class="fil1" d="M2623 4880l-36 1661 2306 908 2982 -1225 0 -1606 -20 -8 282 -86 -1612 -2003 -2850 -14 -1857 2204 805 169 0 0zm4520 191l-560 204 0 359 578 -204 -18 -359 0 0zm-745 271l-605 219 -15 357 620 -219 0 -357zm-627 742l-15 356 642 -266 0 -311 -627 221 0 0zm812 14l598 -248 -13 -258 -585 206 0 300zm-3353 696l884 348 11 -1609 -750 -202 -145 1463z"/>
  <path class="fil2" d="M2623 24791l-36 1662 2306 908 2982 -1225 0 -1607 -20 -8 282 -86 -1612 -2002 -2850 -15 -1857 2205 805 168 0 0zm4520 192l-560 203 0 359 578 -203 -18 -359 0 0zm-745 270l-605 220 -15 356 620 -219 0 -357zm-627 743l-15 356 642 -266 0 -311 -627 221 0 0zm812 13l598 -248 -13 -258 -585 206 0 300zm-3353 697l884 348 11 -1610 -750 -202 -145 1464z"/>
  <path class="fil3" d="M2623 44703l-36 1661 2306 908 2982 -1225 0 -1607 -20 -7 282 -86 -1612 -2003 -2850 -14 -1857 2204 805 169 0 0zm4520 191l-560 204 0 359 578 -204 -18 -359 0 0zm-745 271l-605 219 -15 357 620 -219 0 -357zm-627 742l-15 356 642 -266 0 -311 -627 221 0 0zm812 14l598 -248 -13 -258 -585 206 0 300zm-3353 696l884 348 11 -1609 -750 -202 -145 1463z"/>
 </g>
</svg>