<svg xmlns="http://www.w3.org/2000/svg" width="120.65mm" height="603.25mm" style="fill-rule:evenodd" viewBox="0 0 9956 49779">
<!--by TreedBox.com.br-->
 <defs>
  <style type="text/css">
   <![CDATA[
    .fil0 {fill:none}
    .fil1 {fill:#fff}
    .fil2 {fill:#ccc}
    .fil3 {fill:#30719E}
   ]]>
  </style>
 </defs>
 <g id="geo">
<rect class="fil0" width="9956" height="49779"/>
  <path class="fil1" d="M4603 4596l-33 33 -1988 1987c-59,135 -119,269 -179,403 80,293 17,219 319,430l190 -45 290 -167 213 -112 139 -140 90 -313 140 -162 195 -184 50 -263 107 -84 357 90 168 -134 201 -67 101 -112 39 -185 50 -72 168 22 16 -151 115 31c588,314 1312,241 1782,-229 584,-583 554,-1560 -66,-2180 -620,-620 -1596,-650 -2180,-66 -441,440 -532,1104 -284,1670zm237 304l88 88 -597 597 -88 -88 597 -597zm1927 -1608c-334,-334 -811,-429 -1206,-278l1484 1484c151,-395 56,-872 -278,-1206z"/>
  <path class="fil2" d="M4603 24507l-33 33 -1988 1988c-59,134 -119,268 -179,402 80,294 17,219 319,431l190 -45 290 -168 213 -112 139 -139 90 -313 140 -162 195 -185 50 -262 107 -84 357 89 168 -134 201 -67 101 -112 39 -184 50 -73 168 23 16 -151 115 31c588,313 1312,241 1782,-229 584,-584 554,-1560 -66,-2181 -620,-620 -1596,-649 -2180,-66 -441,441 -532,1104 -284,1670zm237 304l88 88 -597 597 -88 -88 597 -597zm1927 -1608c-334,-334 -811,-429 -1206,-278l1484 1484c151,-394 56,-872 -278,-1206z"/>
  <path class="fil3" d="M4603 44418l-33 34 -1988 1987c-59,134 -119,269 -179,403 80,293 17,219 319,430l190 -45 290 -167 213 -112 139 -140 90 -313 140 -162 195 -184 50 -263 107 -84 357 90 168 -134 201 -67 101 -112 39 -185 50 -72 168 22 16 -151 115 31c588,314 1312,241 1782,-229 584,-584 554,-1560 -66,-2180 -620,-620 -1596,-650 -2180,-66 -441,440 -532,1104 -284,1669zm237 305l88 88 -597 597 -88 -88 597 -597zm1927 -1608c-334,-334 -811,-429 -1206,-278l1484 1484c151,-395 56,-872 -278,-1206z"/>
 </g>
</svg>