<svg xmlns="http://www.w3.org/2000/svg" xml:space="preserve" width="120.65mm" height="603.25mm" version="1.1" style="shape-rendering:geometricPrecision; text-rendering:geometricPrecision; image-rendering:optimizeQuality; fill-rule:evenodd; clip-rule:evenodd"
viewBox="0 0 9956 49779"
 xmlns:xlink="http://www.w3.org/1999/xlink">
 <!-- Created by: Treedbox, treedbox.com.br -->
 <defs>
  <style type="text/css">
   <![CDATA[
    .fil0 {fill:none}
    .fil3 {fill:#30719E}
    .fil2 {fill:#CCCBCB}
    .fil1 {fill:white}
   ]]>
  </style>
 </defs>
 <g id="geo">
  <polygon class="fil0" points="0,0 9956,0 9956,49779 0,49779 "/>
  <g id="_133112512">
   <path class="fil1" d="M6270 2507c386,0 699,313 699,698 0,386 -313,699 -699,699 -386,0 -699,-313 -699,-699 0,-385 313,-698 699,-698z"/>
   <path class="fil1" d="M5857 4059l825 0c478,0 868,391 868,868l0 95 0 96 0 331 0 92 0 776 -868 0 -523 0 -267 0 0 -434 0 -280c0,-516 -309,-962 -751,-1165 157,-228 419,-379 716,-379l0 0z"/>
   <path class="fil1" d="M4003 2694c-482,0 -872,391 -872,872 0,482 390,873 872,873 483,0 873,-391 873,-873 0,-481 -390,-872 -873,-872z"/>
   <path class="fil1" d="M4519 4632l-1030 0c-597,0 -1084,488 -1084,1083l0 119 0 119 0 413 0 115 0 968 1084 0 653 0 377 0c556,0 1019,-425 1077,-968l7 0 0 -115 0 -413 0 -238c0,-595 -488,-1083 -1084,-1083l0 0z"/>
  </g>
  <g id="_133102720">
   <path class="fil2" d="M6270 22418c386,0 699,313 699,699 0,386 -313,699 -699,699 -386,0 -699,-313 -699,-699 0,-386 313,-699 699,-699z"/>
   <path class="fil2" d="M5857 23971l825 0c478,0 868,391 868,868l0 95 0 95 0 331 0 93 0 775 -868 0 -523 0 -267 0 0 -433 0 -281c0,-515 -309,-962 -751,-1164 157,-229 419,-379 716,-379l0 0z"/>
   <path class="fil2" d="M4003 22606c-482,0 -872,390 -872,871 0,482 390,873 872,873 483,0 873,-391 873,-873 0,-481 -390,-871 -873,-871z"/>
   <path class="fil2" d="M4519 24543l-1030 0c-597,0 -1084,488 -1084,1084l0 118 0 119 0 413 0 116 0 968 1084 0 653 0 377 0c556,0 1019,-426 1077,-968l7 0 0 -116 0 -413 0 -237c0,-596 -488,-1084 -1084,-1084l0 0z"/>
  </g>
  <g id="_133111744">
   <path class="fil3" d="M6270 42330c386,0 699,313 699,698 0,386 -313,699 -699,699 -386,0 -699,-313 -699,-699 0,-385 313,-698 699,-698z"/>
   <path class="fil3" d="M5857 43882l825 0c478,0 868,391 868,868l0 95 0 96 0 331 0 92 0 776 -868 0 -523 0 -267 0 0 -434 0 -280c0,-516 -309,-962 -751,-1165 157,-228 419,-379 716,-379l0 0z"/>
   <path class="fil3" d="M4003 42517c-482,0 -872,391 -872,872 0,482 390,873 872,873 483,0 873,-391 873,-873 0,-481 -390,-872 -873,-872z"/>
   <path class="fil3" d="M4519 44455l-1030 0c-597,0 -1084,488 -1084,1083l0 119 0 119 0 413 0 115 0 968 1084 0 653 0 377 0c556,0 1019,-425 1077,-968l7 0 0 -115 0 -413 0 -238c0,-595 -488,-1083 -1084,-1083l0 0z"/>
  </g>
 </g>
</svg>