<svg xmlns="http://www.w3.org/2000/svg" width="120.65mm" height="603.25mm" style="fill-rule:evenodd" viewBox="0 0 9956 49779">
 <defs>
  <style type="text/css">
   <![CDATA[
    .fil0 {fill:none}
    .fil2 {fill:black}
    .fil1 {fill:#FFDD00}
   ]]>
  </style>
 </defs>
 <g id="geo">
  <polygon class="fil0" points="0,0 9956,0 9956,49779 0,49779 "/>
  <polygon class="fil1" points="4978,2252 5729,3830 7576,4140 6308,5342 6584,7194 5048,6359 3372,7194 3692,5476 2380,4140 4113,3913 "/>
  <path class="fil1" d="M3329 22719l1553 802 1658 -871 -283 1725 1340 1308 -1727 264 -830 1679 -785 -1562 -1853 -270 1242 -1229 -315 -1846zm1136 1495c373,-284 905,-211 1188,162 284,373 211,905 -162,1189 -373,283 -905,211 -1189,-162 -283,-373 -211,-906 163,-1189z"/>
  <path class="fil2" d="M4978 42075l751 1578 1847 310 -1268 1202 276 1852 -1536 -835 -1676 835 320 -1718 -1312 -1336 1733 -227 865 -1661zm379 1755l-396 -831 -483 927 -98 189 -214 28 -915 120 734 747 150 153 -39 210 -169 907 938 -467 190 -95 190 103 809 440 -154 -1036 -32 -211 156 -147 670 -635 -1032 -173 -213 -36 -92 -193z"/>
 </g>
</svg>