<svg xmlns="http://www.w3.org/2000/svg" width="120.65mm" height="603.25mm" style="fill-rule:evenodd" viewBox="0 0 9956 49779">
 <defs>
  <style type="text/css">
   <![CDATA[
    .fil0 {fill:none}
    .fil2 {fill:#000}
    .fil1 {fill:#fd0}
   ]]>
  </style>
 </defs>
 <g id="geo">
  <polygon class="fil0" points="0,0 9956,0 9956,49779 0,49779 "/>
  <polygon class="fil1" points="4978,2252 5729,3830 7576,4140 6308,5342 6584,7194 5048,6359 3372,7194 3692,5476 2380,4140 4113,3913 "/>
  <path class="fil2" d="M4978 42075l751 1578 1847 310 -1268 1202 276 1852 -1536 -835 -1676 835 320 -1718 -1312 -1336 1733 -227 865 -1661zm379 1755l-396 -831 -483 927 -98 189 -214 28 -915 120 734 747 150 153 -39 210 -169 907 938 -467 190 -95 190 103 809 440 -154 -1036 -32 -211 156 -147 670 -635 -1032 -173 -213 -36 -92 -193z"/>
  <path class="fil1" d="M4978 22154l751 1578 1847 310 -1268 1202 276 1852 -1536 -835 -1676 835 320 -1718 -1312 -1336 1733 -227 865 -1661zm7 1933l-40 -84 -101 192 -197 379 -428 56 -96 13 155 158 301 306 -78 419 -18 96 198 -99 381 -190 380 206 83 46 -33 -222 -63 -420 311 -295 71 -67 -217 -37 -425 -71 -184 -386z"/>
 </g>
</svg>