<svg xmlns="http://www.w3.org/2000/svg" width="120.65mm" height="603.25mm" style="fill-rule:evenodd" viewBox="0 0 9956 49779">
 <defs>
  <style type="text/css">
   <![CDATA[
    .fil0 {fill:none}
    .fil1 {fill:#30719E}
    .fil2 {fill:#CCCBCB}
    .fil3 {fill:#fff}
   ]]>
  </style>
 </defs>
 <g id="geo">
  <polygon class="fil0" points="0,0 9956,0 9956,49779 0,49779 "/>
  <path class="fil1" d="M4978 42075l751 1578 1847 310 -1268 1202 276 1852 -1536 -835 -1676 835 320 -1718 -1312 -1336 1733 -227 865 -1661zm379 1755l-396 -831 -483 927 -98 189 -214 28 -915 120 734 747 150 153 -39 210 -169 907 938 -467 190 -95 190 103 809 440 -154 -1036 -32 -211 156 -147 670 -635 -1032 -173 -213 -36 -92 -193z"/>
  <path class="fil2" d="M4978 22154l751 1578 1847 310 -1268 1202 276 1852 -1536 -835 -1676 835 320 -1718 -1312 -1336 1733 -227 865 -1661zm379 1755l-396 -831 -483 927 -98 190 -214 28 -915 119 734 748 150 153 -39 209 -169 907 938 -467 190 -95 190 103 809 441 -154 -1037 -31 -211 155 -147 670 -635 -1032 -173 -213 -35 -92 -194z"/>
  <path class="fil3" d="M4978 2252l751 1578 1847 310 -1268 1202 276 1852 -1536 -835 -1676 835 320 -1718 -1312 -1336 1733 -227 865 -1661zm379 1755l-396 -831 -483 927 -98 189 -214 28 -915 120 734 747 150 153 -39 210 -169 907 938 -467 190 -95 190 103 809 440 -154 -1036 -32 -211 156 -147 670 -635 -1032 -173 -213 -36 -92 -193z"/>
 </g>
</svg>