<svg xmlns="http://www.w3.org/2000/svg" xml:space="preserve" width="120.65mm" height="603.25mm" version="1.1" style="shape-rendering:geometricPrecision; text-rendering:geometricPrecision; image-rendering:optimizeQuality; fill-rule:evenodd; clip-rule:evenodd"
viewBox="0 0 9956 49779"
 xmlns:xlink="http://www.w3.org/1999/xlink">
 <!-- Created by: Treedbox, treedbox.com.br -->
 <defs>
  <style type="text/css">
   <![CDATA[
    .fil0 {fill:none}
    .fil3 {fill:#30719E}
    .fil2 {fill:#CCCBCB}
    .fil1 {fill:white}
   ]]>
  </style>
 </defs>
 <g id="geo">
  <polygon class="fil0" points="0,0 9956,0 9956,49779 0,49779 "/>
  <polygon class="fil1" points="7449,2507 5509,2507 5509,3365 5928,3365 4978,4315 4028,3365 4447,3365 4447,2507 2507,2507 2507,4447 3365,4447 3365,4028 4315,4978 3365,5928 3365,5509 2507,5509 2507,7449 4447,7449 4447,6591 4028,6591 4978,5640 5928,6591 5509,6591 5509,7449 7449,7449 7449,5509 6591,5509 6591,5928 5640,4978 6591,4028 6591,4447 7449,4447 "/>
  <polygon class="fil2" points="7449,22418 5509,22418 5509,23277 5928,23277 4978,24227 4028,23277 4447,23277 4447,22418 2507,22418 2507,24358 3365,24358 3365,23939 4315,24889 3365,25840 3365,25421 2507,25421 2507,27361 4447,27361 4447,26502 4028,26502 4978,25552 5928,26502 5509,26502 5509,27361 7449,27361 7449,25421 6591,25421 6591,25840 5640,24889 6591,23939 6591,24358 7449,24358 "/>
  <polygon class="fil3" points="7449,42330 5509,42330 5509,43188 5928,43188 4978,44138 4028,43188 4447,43188 4447,42330 2507,42330 2507,44270 3365,44270 3365,43851 4315,44801 3365,45751 3365,45332 2507,45332 2507,47272 4447,47272 4447,46414 4028,46414 4978,45463 5928,46414 5509,46414 5509,47272 7449,47272 7449,45332 6591,45332 6591,45751 5640,44801 6591,43851 6591,44270 7449,44270 "/>
 </g>
</svg>