<svg xmlns="http://www.w3.org/2000/svg" width="120.65mm" height="603.25mm" viewBox="0 0 9956 49779">
 <defs>
  <style type="text/css">
   <![CDATA[
    .fil0 {fill:none}
    .fil3 {fill:#30719E}
    .fil2 {fill:#CCCBCB}
    .fil1 {fill:white}
   ]]>
  </style>
 </defs>
 <g id="geo">
  <polygon class="fil0" points="0,0 9956,0 9956,49779 0,49779 "/>
  <path class="fil1" d="M6103 4170c-352,-653 -943,-1306 -1590,-1960 -121,814 -383,1569 -567,2290 -178,-262 -387,-546 -625,-862 -291,1661 -716,3103 1150,4086 -849,-460 -652,-1131 -516,-1902 111,148 209,281 292,404 86,-338 209,-692 266,-1073 303,306 580,612 744,918 113,-78 237,-153 370,-228 -32,833 -147,1618 -1114,1903 2065,-609 2310,-2284 2380,-4062 -285,159 -549,321 -790,486z"/>
  <path class="fil2" d="M6103 24081c-352,-653 -943,-1306 -1590,-1959 -121,814 -383,1568 -567,2290 -178,-262 -387,-547 -625,-862 -291,1661 -716,3102 1150,4085 -849,-460 -652,-1130 -516,-1902 111,148 209,281 292,404 86,-338 209,-691 266,-1073 303,306 580,612 744,918 113,-77 237,-153 370,-227 -32,833 -147,1617 -1114,1902 2065,-608 2310,-2283 2380,-4061 -285,159 -549,320 -790,485z"/>
  <path class="fil3" d="M6103 43993c-352,-653 -943,-1307 -1590,-1960 -121,814 -383,1569 -567,2290 -178,-262 -387,-546 -625,-862 -291,1661 -716,3103 1150,4086 -849,-460 -652,-1131 -516,-1902 111,148 209,281 292,403 86,-337 209,-691 266,-1072 303,306 580,612 744,918 113,-78 237,-153 370,-228 -32,833 -147,1618 -1114,1902 2065,-608 2310,-2283 2380,-4061 -285,159 -549,321 -790,486z"/>
 </g>
</svg>