<svg xmlns="http://www.w3.org/2000/svg" width="120.65mm" height="603.25mm" viewBox="0 0 9956 49779">
 <defs>
  <style type="text/css">
   <![CDATA[
    .fil0 {fill:none}
    .fil3 {fill:#30719E}
    .fil2 {fill:#CCCBCB}
    .fil1 {fill:white}
   ]]>
  </style>
 </defs>
 <g id="geo">
  <polygon class="fil0" points="0,0 9956,0 9956,49779 0,49779 "/>
  <path class="fil1" d="M4925 7558c3937,-983 3166,-3114 -6,-5830l3 2876 297 -268 339 -307 -326 320 -310 305 1 656 478 -432 536 -484 -515 506 -499 490 1 584 552 -499 617 -559 -593 584 -576 566 0 579 692 -626 770 -696 -740 728 -722 709 1 632 920 -832 1018 -920 -978 961 -960 943 0 14zm-44 -5827c-2434,2541 -4180,4914 6,5828l0 -15 -959 -943 -979 -961 1018 920 920 832 -1 -634 -720 -707 -739 -728 769 696 690 624 0 -580 -573 -563 -594 -584 617 559 549 496 0 -585 -494 -486 -515 -506 536 484 473 428 -1 -658 -304 -299 -326 -320 339 307 291 262 -3 -2867zm25 5832l-46 664 123 0 -77 -664z"/>
  <path class="fil2" d="M4925 27470c3937,-984 3166,-3114 -6,-5830l3 2875 297 -268 339 -307 -326 321 -310 304 1 657 478 -432 536 -485 -515 507 -499 490 1 584 552 -500 617 -558 -593 583 -576 567 0 578 692 -625 770 -696 -740 727 -722 709 1 632 920 -832 1018 -920 -978 962 -960 943 0 14zm-44 -5827c-2434,2541 -4180,4913 6,5827l0 -14 -959 -943 -979 -962 1018 920 920 832 -1 -633 -720 -708 -739 -727 769 696 690 624 0 -580 -573 -564 -594 -583 617 558 549 497 0 -586 -494 -485 -515 -507 536 485 473 428 -1 -659 -304 -298 -326 -321 339 307 291 263 -3 -2867zm25 5832l-46 664 123 0 -77 -664z"/>
  <path class="fil3" d="M4925 47381c3937,-983 3166,-3114 -6,-5830l3 2876 297 -269 339 -306 -326 320 -310 305 1 656 478 -432 536 -484 -515 506 -499 490 1 584 552 -499 617 -559 -593 584 -576 566 0 579 692 -626 770 -696 -740 728 -722 709 1 632 920 -832 1018 -920 -978 961 -960 943 0 14zm-44 -5827c-2434,2541 -4180,4914 6,5828l0 -15 -959 -943 -979 -961 1018 920 920 832 -1 -634 -720 -707 -739 -728 769 696 690 624 0 -580 -573 -563 -594 -584 617 559 549 496 0 -585 -494 -486 -515 -506 536 484 473 428 -1 -658 -304 -299 -326 -320 339 306 291 263 -3 -2867zm25 5832l-46 664 123 0 -77 -664z"/>
 </g>
</svg>