<svg xmlns="http://www.w3.org/2000/svg" xml:space="preserve" width="120.65mm" height="603.25mm" version="1.1" style="shape-rendering:geometricPrecision; text-rendering:geometricPrecision; image-rendering:optimizeQuality; fill-rule:evenodd; clip-rule:evenodd" viewBox="0 0 9956 49779" xmlns:xlink="http://www.w3.org/1999/xlink">
 <!-- Created by: Treedbox, treedbox.com.br -->
 <defs>
  <style type="text/css">
   <![CDATA[
    .fil0 {fill:none}
    .fil3 {fill:#30719E}
    .fil1 {fill:#fff}
    .fil2 {fill:#ccc}
   ]]>
  </style>
 </defs>
 <g id="geo">
<rect class="fil0" width="9956" height="49779"/>
  <path class="fil1" d="M914 6822c1430,-7 3246,1282 5196,184 1653,-930 1507,-1257 2017,-2897 221,-712 360,-489 915,-741 -691,62 -665,332 -1322,-158 -430,-321 -435,-498 -1099,-630 -1780,-353 -3565,595 -4439,2214 -195,362 -153,296 -234,640 -131,554 -156,749 -597,1131 -93,81 -365,237 -437,257z"/>
  <path class="fil2" d="M914 26734c1430,-7 3246,1281 5196,183 1653,-930 1507,-1256 2017,-2896 221,-712 360,-489 915,-741 -691,61 -665,332 -1322,-158 -430,-322 -435,-499 -1099,-630 -1780,-353 -3565,595 -4439,2213 -195,362 -153,296 -234,640 -131,554 -156,749 -597,1132 -93,80 -365,237 -437,257z"/>
  <path class="fil3" d="M914 46645c1430,-7 3246,1282 5196,184 1653,-930 1507,-1257 2017,-2897 221,-712 360,-489 915,-741 -691,62 -665,332 -1322,-158 -430,-321 -435,-498 -1099,-630 -1780,-353 -3565,595 -4439,2214 -195,362 -153,296 -234,640 -131,554 -156,749 -597,1131 -93,81 -365,237 -437,257z"/>
 </g>
</svg>