<svg xmlns="http://www.w3.org/2000/svg" xml:space="preserve" width="120.65mm" height="603.25mm" version="1.1" style="shape-rendering:geometricPrecision; text-rendering:geometricPrecision; image-rendering:optimizeQuality; fill-rule:evenodd; clip-rule:evenodd"
viewBox="0 0 9956 49779"
 xmlns:xlink="http://www.w3.org/1999/xlink">
 <!-- Created by: Treedbox, treedbox.com.br -->
 <defs>
  <style type="text/css">
   <![CDATA[
    .fil0 {fill:none}
    .fil3 {fill:#30719E}
    .fil2 {fill:#CCCBCB}
    .fil1 {fill:white}
   ]]>
  </style>
 </defs>
 <g id="geo">
  <polygon class="fil0" points="0,0 9956,0 9956,49779 0,49779 "/>
  <path class="fil1" d="M4647 4235l901 1560 1420 -2460c-35,-74 -54,-157 -54,-245 0,-322 261,-583 583,-583 322,0 583,261 583,583 0,306 -236,557 -536,581l-1464 2535c37,77 57,162 57,252 0,322 -261,583 -583,583 -322,0 -583,-261 -583,-583 0,-85 18,-167 52,-240l-904 -1565 -1133 1963c36,76 56,161 56,250 0,322 -261,583 -583,583 -322,0 -583,-261 -583,-583 0,-305 233,-555 531,-581l1184 -2050c-35,-75 -55,-159 -55,-247 0,-322 261,-583 583,-583 322,0 583,261 583,583 0,88 -19,172 -55,247zm-2188 2427c112,0 203,92 203,204 0,112 -91,204 -203,204 -113,0 -204,-92 -204,-204 0,-112 91,-204 204,-204zm1660 -2878c113,0 204,91 204,204 0,112 -91,203 -204,203 -112,0 -203,-91 -203,-203 0,-113 91,-204 203,-204zm1435 2471c112,0 204,91 204,203 0,113 -92,204 -204,204 -112,0 -204,-91 -204,-204 0,-112 92,-203 204,-203zm1943 -3369c113,0 204,91 204,204 0,112 -91,203 -204,203 -112,0 -203,-91 -203,-203 0,-113 91,-204 203,-204z"/>
  <path class="fil2" d="M4647 24147l901 1560 1420 -2460c-35,-75 -54,-158 -54,-246 0,-322 261,-583 583,-583 322,0 583,261 583,583 0,307 -236,558 -536,582l-1464 2535c37,76 57,162 57,252 0,322 -261,583 -583,583 -322,0 -583,-261 -583,-583 0,-86 18,-167 52,-241l-904 -1565 -1133 1964c36,75 56,160 56,249 0,323 -261,584 -583,584 -322,0 -583,-261 -583,-584 0,-304 233,-555 531,-580l1184 -2050c-35,-76 -55,-159 -55,-248 0,-322 261,-583 583,-583 322,0 583,261 583,583 0,89 -19,172 -55,248zm-2188 2427c112,0 203,91 203,203 0,113 -91,204 -203,204 -113,0 -204,-91 -204,-204 0,-112 91,-203 204,-203zm1660 -2878c113,0 204,91 204,203 0,113 -91,204 -204,204 -112,0 -203,-91 -203,-204 0,-112 91,-203 203,-203zm1435 2470c112,0 204,91 204,204 0,112 -92,203 -204,203 -112,0 -204,-91 -204,-203 0,-113 92,-204 204,-204zm1943 -3368c113,0 204,91 204,203 0,113 -91,204 -204,204 -112,0 -203,-91 -203,-204 0,-112 91,-203 203,-203z"/>
  <path class="fil3" d="M4647 44058l901 1560 1420 -2460c-35,-74 -54,-157 -54,-245 0,-322 261,-583 583,-583 322,0 583,261 583,583 0,306 -236,557 -536,581l-1464 2535c37,77 57,162 57,252 0,322 -261,583 -583,583 -322,0 -583,-261 -583,-583 0,-85 18,-167 52,-240l-904 -1565 -1133 1963c36,76 56,161 56,250 0,322 -261,583 -583,583 -322,0 -583,-261 -583,-583 0,-305 233,-555 531,-581l1184 -2050c-35,-75 -55,-159 -55,-247 0,-322 261,-583 583,-583 322,0 583,261 583,583 0,88 -19,172 -55,247zm-2188 2427c112,0 203,92 203,204 0,112 -91,204 -203,204 -113,0 -204,-92 -204,-204 0,-112 91,-204 204,-204zm1660 -2878c113,0 204,91 204,204 0,112 -91,203 -204,203 -112,0 -203,-91 -203,-203 0,-113 91,-204 203,-204zm1435 2471c112,0 204,91 204,203 0,113 -92,204 -204,204 -112,0 -204,-91 -204,-204 0,-112 92,-203 204,-203zm1943 -3369c113,0 204,91 204,204 0,112 -91,203 -204,203 -112,0 -203,-91 -203,-203 0,-113 91,-204 203,-204z"/>
 </g>
</svg>