<svg xmlns="http://www.w3.org/2000/svg" width="120.65mm" height="603.25mm" style="fill-rule:evenodd" viewBox="0 0 9956 49779">
<!--by TreedBox.com.br-->
 <defs>
  <style type="text/css">
   <![CDATA[
    .fil0 {fill:none}
    .fil3 {fill:#30719E}
    .fil2 {fill:#CCCBCB}
    .fil1 {fill:white}
   ]]>
  </style>
 </defs>
 <g id="geo">
  <polygon class="fil0" points="0,0 9956,0 9956,49779 0,49779 "/>
  <path class="fil1" d="M3804 6902l-1 -1 -9 -11c-269,-327 -380,-732 -342,-1122 9,-93 27,-185 52,-274 -260,-87 -500,-244 -689,-469l0 -1 -10 -11c-268,-327 -379,-732 -341,-1122 38,-386 221,-757 540,-1025l1 -1 11 -9c327,-269 732,-380 1122,-342 303,30 598,149 840,354 1,-1 2,-2 3,-2l1 -1 11 -9c327,-269 732,-380 1122,-342 386,38 757,221 1025,540l1 1 9 11c269,327 380,732 342,1122 -38,386 -221,757 -540,1026l-1 0 -11 9c-150,123 -315,213 -488,271 53,186 70,380 51,571 -37,386 -220,757 -540,1025l-1 1 -11 9c-327,269 -731,380 -1122,342 -385,-38 -757,-221 -1025,-540zm1408 -3787c241,318 339,702 303,1073 -9,93 -27,184 -52,274 260,87 500,244 689,469l1 1 9 11c61,75 115,154 160,236 143,-45 279,-117 402,-218l0 0c254,-209 400,-501 430,-805 29,-304 -57,-620 -266,-874l0 0c-209,-254 -502,-400 -805,-430 -303,-29 -617,56 -871,263zm-719 1347c-54,-187 -71,-381 -52,-571 27,-277 129,-547 303,-776 -186,-152 -409,-240 -638,-263 -304,-29 -620,57 -874,266l0 0c-255,209 -400,502 -430,805 -29,304 57,620 266,874l0 0c153,187 352,315 566,381 89,-162 209,-310 359,-436l0 0 12 -10c149,-123 314,-212 488,-270zm1625 1103c-100,10 -200,10 -300,0 -303,-30 -598,-149 -840,-354l-3 3 -1 0 -11 9c-327,269 -732,380 -1122,342 -1,0 -2,0 -3,0 -24,76 -40,155 -47,235 -30,304 56,619 265,874l0 0c210,254 502,400 805,429 305,30 620,-56 874,-265l0 0c255,-209 400,-502 430,-805 15,-157 0,-316 -47,-468z"/>
  <path class="fil2" d="M3804 26813l-1 -1 -9 -11c-269,-327 -380,-732 -342,-1122 9,-92 27,-184 52,-274 -260,-86 -500,-244 -689,-469l0 0 -10 -12c-268,-327 -379,-731 -341,-1121 38,-386 221,-758 540,-1026l1 -1 11 -9c327,-269 732,-380 1122,-342 303,30 598,150 840,355 1,-1 2,-2 3,-3l1 -1 11 -9c327,-269 732,-380 1122,-342 386,38 757,221 1025,541l1 0 9 12c269,327 380,731 342,1121 -38,386 -221,758 -540,1026l-1 1 -11 9c-150,123 -315,213 -488,270 53,187 70,381 51,571 -37,386 -220,758 -540,1026l-1 0 -11 10c-327,268 -731,379 -1122,341 -385,-37 -757,-220 -1025,-540zm1408 -3786c241,318 339,702 303,1072 -9,93 -27,185 -52,275 260,86 500,243 689,468l1 1 9 11c61,75 115,154 160,236 143,-44 279,-117 402,-217l0 0c254,-210 400,-502 430,-806 29,-304 -57,-619 -266,-873l0 -1c-209,-254 -502,-399 -805,-429 -303,-30 -617,56 -871,263zm-719 1346c-54,-186 -71,-380 -52,-570 27,-277 129,-547 303,-777 -186,-151 -409,-240 -638,-262 -304,-30 -620,56 -874,265l0 1c-255,209 -400,501 -430,805 -29,304 57,619 266,874l0 0c153,186 352,314 566,381 89,-162 209,-311 359,-436l0 -1 12 -9c149,-123 314,-213 488,-271zm1625 1103c-100,10 -200,10 -300,1 -303,-30 -598,-149 -840,-354l-3 2 -1 1 -11 9c-327,269 -732,380 -1122,342 -1,-1 -2,-1 -3,-1 -24,77 -40,156 -47,235 -30,304 56,620 265,874l0 0c210,255 502,400 805,430 305,30 620,-57 874,-266l0 0c255,-209 400,-501 430,-805 15,-156 0,-315 -47,-468z"/>
  <path class="fil3" d="M3804 46725l-1 -1 -9 -11c-269,-327 -380,-732 -342,-1122 9,-93 27,-185 52,-274 -260,-87 -500,-244 -689,-469l0 -1 -10 -11c-268,-327 -379,-732 -341,-1122 38,-386 221,-757 540,-1025l1 -1 11 -9c327,-269 732,-380 1122,-342 303,30 598,149 840,354 1,-1 2,-2 3,-2l1 -1 11 -9c327,-269 732,-380 1122,-342 386,38 757,221 1025,540l1 1 9 11c269,327 380,732 342,1122 -38,386 -221,757 -540,1026l-1 0 -11 9c-150,123 -315,213 -488,271 53,186 70,380 51,571 -37,386 -220,757 -540,1025l-1 1 -11 9c-327,269 -731,380 -1122,342 -385,-38 -757,-221 -1025,-540zm1408 -3787c241,318 339,702 303,1073 -9,93 -27,184 -52,274 260,87 500,244 689,469l1 1 9 11c61,75 115,154 160,236 143,-45 279,-117 402,-218l0 0c254,-209 400,-501 430,-805 29,-304 -57,-620 -266,-874l0 0c-209,-254 -502,-400 -805,-430 -303,-29 -617,56 -871,263zm-719 1347c-54,-187 -71,-381 -52,-571 27,-277 129,-547 303,-776 -186,-152 -409,-240 -638,-263 -304,-29 -620,57 -874,266l0 0c-255,209 -400,502 -430,805 -29,304 57,620 266,874l0 0c153,187 352,315 566,381 89,-162 209,-310 359,-436l0 0 12 -10c149,-123 314,-212 488,-270zm1625 1103c-100,10 -200,10 -300,0 -303,-30 -598,-149 -840,-354l-3 3 -1 0 -11 9c-327,269 -732,380 -1122,342 -1,0 -2,0 -3,0 -24,76 -40,155 -47,235 -30,304 56,619 265,874l0 0c210,254 502,400 805,429 305,30 620,-56 874,-265l0 0c255,-209 400,-502 430,-805 15,-157 0,-316 -47,-468z"/>
 </g>
</svg>