<svg xmlns="http://www.w3.org/2000/svg" xml:space="preserve" width="120.65mm" height="603.25mm" version="1.1" style="shape-rendering:geometricPrecision; text-rendering:geometricPrecision; image-rendering:optimizeQuality; fill-rule:evenodd; clip-rule:evenodd"
viewBox="0 0 9956 49779"
 xmlns:xlink="http://www.w3.org/1999/xlink">
 <!-- Created by: Treedbox, treedbox.com.br -->
 <defs>
  <style type="text/css">
   <![CDATA[
    .fil0 {fill:none}
    .fil3 {fill:#30719E}
    .fil2 {fill:#CCCBCB}
    .fil1 {fill:white}
   ]]>
  </style>
 </defs>
 <g id="geo">
  <polygon class="fil0" points="0,0 9956,0 9956,49779 0,49779 "/>
  <g id="_771473728">
   <g id="_589537712_3">
    <path class="fil1" d="M7182 2759c347,0 628,281 628,627 0,347 -281,628 -628,628 -347,0 -628,-281 -628,-628 0,-346 281,-627 628,-627z"/>
    <path class="fil1" d="M6811 4153l741 0c429,0 780,351 780,780l0 85 0 86 0 297 0 83 0 696 -780 0 -470 0 -240 0 0 -389 0 -252c0,-463 -277,-864 -674,-1046 141,-205 377,-340 643,-340l0 0z"/>
   </g>
   <g id="_589537712_3_0">
    <path class="fil1" d="M2774 3146c-347,0 -628,281 -628,627 0,347 281,628 628,628 347,0 628,-281 628,-628 0,-346 -281,-627 -628,-627z"/>
    <path class="fil1" d="M3145 4540l-741 0c-430,0 -780,351 -780,780l0 85 0 86 0 296 0 84 0 696 780 0 470 0 271 0c109,0 212,-23 307,-63l0 -153 0 -122 0 -438 0 -127 0 -125c0,-281 102,-540 272,-740 -143,-159 -350,-259 -579,-259l0 0z"/>
   </g>
   <g id="_589537712_3_1">
    <path class="fil1" d="M5147 2927c-433,0 -784,351 -784,783 0,433 351,784 784,784 432,0 783,-351 783,-784 0,-432 -351,-783 -783,-783z"/>
    <path class="fil1" d="M5610 4667l-926 0c-535,0 -972,438 -972,973l0 106 0 107 0 371 0 104 0 869 972 0 587 0 339 0c499,0 915,-382 966,-869l7 0 0 -104 0 -371 0 -213c0,-535 -439,-973 -973,-973l0 0z"/>
   </g>
  </g>
  <g id="_771475488">
   <g id="_589537712_3_2">
    <path class="fil2" d="M7182 22670c347,0 628,281 628,628 0,346 -281,627 -628,627 -347,0 -628,-281 -628,-627 0,-347 281,-628 628,-628z"/>
    <path class="fil2" d="M6811 24065l741 0c429,0 780,351 780,779l0 85 0 86 0 297 0 83 0 697 -780 0 -470 0 -240 0 0 -390 0 -252c0,-462 -277,-864 -674,-1045 141,-205 377,-340 643,-340l0 0z"/>
   </g>
   <g id="_589537712_3_3">
    <path class="fil2" d="M2774 23057c-347,0 -628,281 -628,627 0,347 281,628 628,628 347,0 628,-281 628,-628 0,-346 -281,-627 -628,-627z"/>
    <path class="fil2" d="M3145 24452l-741 0c-430,0 -780,350 -780,779l0 85 0 86 0 297 0 83 0 696 780 0 470 0 271 0c109,0 212,-22 307,-63l0 -152 0 -123 0 -438 0 -126 0 -126c0,-281 102,-539 272,-740 -143,-158 -350,-258 -579,-258l0 0z"/>
   </g>
   <g id="_589537712_3_4">
    <path class="fil2" d="M5147 22839c-433,0 -784,350 -784,782 0,433 351,784 784,784 432,0 783,-351 783,-784 0,-432 -351,-782 -783,-782z"/>
    <path class="fil2" d="M5610 24579l-926 0c-535,0 -972,438 -972,973l0 106 0 107 0 371 0 103 0 869 972 0 587 0 339 0c499,0 915,-381 966,-869l7 0 0 -103 0 -371 0 -213c0,-535 -439,-973 -973,-973l0 0z"/>
   </g>
  </g>
  <g id="_771472480">
   <g id="_589537712_3_5">
    <path class="fil3" d="M7182 42582c347,0 628,281 628,627 0,347 -281,628 -628,628 -347,0 -628,-281 -628,-628 0,-346 281,-627 628,-627z"/>
    <path class="fil3" d="M6811 43976l741 0c429,0 780,351 780,780l0 85 0 86 0 297 0 83 0 696 -780 0 -470 0 -240 0 0 -389 0 -252c0,-463 -277,-864 -674,-1046 141,-205 377,-340 643,-340l0 0z"/>
   </g>
   <g id="_589537712_3_6">
    <path class="fil3" d="M2774 42969c-347,0 -628,281 -628,627 0,347 281,628 628,628 347,0 628,-281 628,-628 0,-346 -281,-627 -628,-627z"/>
    <path class="fil3" d="M3145 44363l-741 0c-430,0 -780,351 -780,780l0 85 0 86 0 296 0 84 0 696 780 0 470 0 271 0c109,0 212,-23 307,-63l0 -153 0 -122 0 -438 0 -127 0 -125c0,-281 102,-540 272,-740 -143,-159 -350,-259 -579,-259l0 0z"/>
   </g>
   <g id="_589537712_3_7">
    <path class="fil3" d="M5147 42750c-433,0 -784,351 -784,783 0,433 351,784 784,784 432,0 783,-351 783,-784 0,-432 -351,-783 -783,-783z"/>
    <path class="fil3" d="M5610 44490l-926 0c-535,0 -972,438 -972,973l0 106 0 107 0 371 0 104 0 869 972 0 587 0 339 0c499,0 915,-382 966,-869l7 0 0 -104 0 -371 0 -213c0,-535 -439,-973 -973,-973l0 0z"/>
   </g>
  </g>
 </g>
</svg>