<svg xmlns="http://www.w3.org/2000/svg" xml:space="preserve" width="120.65mm" height="603.25mm" version="1.1" style="shape-rendering:geometricPrecision; text-rendering:geometricPrecision; image-rendering:optimizeQuality; fill-rule:evenodd; clip-rule:evenodd"
viewBox="0 0 9956 49779"
 xmlns:xlink="http://www.w3.org/1999/xlink">
 <!-- Created by: Treedbox, treedbox.com.br -->
 <defs>
  <style type="text/css">
   <![CDATA[
    .fil0 {fill:none}
    .fil3 {fill:#30719E}
    .fil2 {fill:#CCCBCB}
    .fil1 {fill:#fff}
   ]]>
  </style>
 </defs>
 <g id="geo">
  <polygon class="fil0" points="0,0 9956,0 9956,49779 0,49779 "/>
  <g id="_773327312">
   <path class="fil1" d="M5571 6855c0,327 -267,594 -594,594l0 0c-327,0 -595,-267 -595,-594 0,-1007 -1,-2010 -1,-3016 -95,0 -187,-28 -187,-144 0,-79 65,-144 144,-144l1280 0c79,0 144,65 144,144 0,114 -89,144 -187,144 0,1008 -4,2007 -4,3016zm-1090 -2152l994 0 0 -963 100 0c38,0 87,3 87,-45 0,-24 -20,-44 -44,-44l-1280 0c-24,0 -45,20 -45,44 0,48 50,45 88,45l100 0 0 963zm311 1031c64,0 117,52 117,117 0,65 -53,117 -117,117 -65,0 -117,-52 -117,-117 0,-65 52,-117 117,-117zm388 -501c35,0 64,29 64,65 0,35 -29,64 -64,64 -36,0 -64,-29 -64,-64 0,-36 28,-65 64,-65z"/>
   <circle class="fil1" cx="4675" cy="3180" r="117"/>
   <circle class="fil1" cx="5252" cy="2731" r="224"/>
   <circle class="fil1" cx="5027" cy="4216" r="64"/>
  </g>
  <g id="_773351888">
   <path class="fil2" d="M5571 26766c0,327 -267,595 -594,595l0 0c-327,0 -595,-268 -595,-595 0,-1006 -1,-2009 -1,-3015 -95,0 -187,-28 -187,-144 0,-79 65,-144 144,-144l1280 0c79,0 144,65 144,144 0,114 -89,144 -187,144 0,1007 -4,2006 -4,3015zm-1090 -2152l994 0 0 -962 100 0c38,0 87,2 87,-45 0,-24 -20,-45 -44,-45l-1280 0c-24,0 -45,21 -45,45 0,47 50,45 88,45l100 0 0 962zm311 1032c64,0 117,52 117,116 0,65 -53,117 -117,117 -65,0 -117,-52 -117,-117 0,-64 52,-116 117,-116zm388 -501c35,0 64,29 64,64 0,35 -29,64 -64,64 -36,0 -64,-29 -64,-64 0,-35 28,-64 64,-64z"/>
   <circle class="fil2" cx="4675" cy="23091" r="117"/>
   <circle class="fil2" cx="5252" cy="22643" r="224"/>
   <circle class="fil2" cx="5027" cy="24127" r="64"/>
  </g>
  <g id="_773332176">
   <path class="fil3" d="M5571 46678c0,327 -267,594 -594,594l0 0c-327,0 -595,-267 -595,-594 0,-1007 -1,-2010 -1,-3016 -95,0 -187,-28 -187,-144 0,-79 65,-144 144,-144l1280 0c79,0 144,65 144,144 0,114 -89,144 -187,144 0,1008 -4,2007 -4,3016zm-1090 -2152l994 0 0 -963 100 0c38,0 87,3 87,-45 0,-24 -20,-44 -44,-44l-1280 0c-24,0 -45,20 -45,44 0,48 50,45 88,45l100 0 0 963zm311 1031c64,0 117,52 117,117 0,65 -53,117 -117,117 -65,0 -117,-52 -117,-117 0,-65 52,-117 117,-117zm388 -501c35,0 64,29 64,65 0,35 -29,64 -64,64 -36,0 -64,-29 -64,-64 0,-36 28,-65 64,-65z"/>
   <circle class="fil3" cx="4675" cy="43003" r="117"/>
   <circle class="fil3" cx="5252" cy="42554" r="224"/>
   <circle class="fil3" cx="5027" cy="44039" r="64"/>
  </g>
 </g>
</svg>