<svg xmlns="http://www.w3.org/2000/svg" width="120.65mm" height="603.25mm" style="fill-rule:evenodd" viewBox="0 0 9956 49779">
<!--by TreedBox.com.br-->
 <defs>
  <style type="text/css">
   <![CDATA[
    .fil0 {fill:none}
    .fil3 {fill:#30719E}
    .fil2 {fill:#CCCBCB}
    .fil1 {fill:white}
   ]]>
  </style>
 </defs>
 <g id="geo">
  <polygon class="fil0" points="0,0 9956,0 9956,49779 0,49779 "/>
  <path class="fil1" d="M3465 3918c146,-19 254,-66 343,-123 233,-445 501,-766 750,-1031 205,-217 170,-552 181,-830l2 0c20,-190 180,-337 374,-337 739,0 459,1711 205,1849 605,-49 1143,-32 1666,0 231,0 417,187 417,417 0,211 -156,386 -360,413 164,109 360,102 360,422 0,201 -143,370 -333,408 109,67 183,188 183,326 0,202 -156,366 -353,381 -28,17 -59,32 -93,46 117,50 199,166 199,302 0,420 -698,351 -1025,368 -287,15 -568,14 -844,-1 -686,-38 -1064,-174 -1672,-285l0 193c-304,0 -609,0 -913,0l0 -2715c304,0 609,0 913,0l0 197z"/>
  <path class="fil2" d="M3465 23829c146,-18 254,-65 343,-122 233,-445 501,-767 750,-1031 205,-218 170,-553 181,-831l2 0c20,-189 180,-336 374,-336 739,0 459,1711 205,1849 605,-49 1143,-33 1666,0 231,0 417,186 417,417 0,211 -156,385 -360,413 164,108 360,101 360,421 0,202 -143,370 -333,409 109,67 183,188 183,326 0,201 -156,366 -353,381 -28,16 -59,31 -93,45 117,51 199,167 199,302 0,421 -698,351 -1025,368 -287,15 -568,14 -844,-1 -686,-37 -1064,-173 -1672,-284l0 193c-304,0 -609,0 -913,0l0 -2716c304,0 609,0 913,0l0 197z"/>
  <path class="fil3" d="M3465 43741c146,-19 254,-66 343,-123 233,-445 501,-766 750,-1031 205,-217 170,-552 181,-830l2 0c20,-190 180,-337 374,-337 739,0 459,1711 205,1849 605,-49 1143,-32 1666,0 231,0 417,187 417,417 0,211 -156,386 -360,413 164,109 360,101 360,422 0,201 -143,370 -333,408 109,67 183,188 183,326 0,202 -156,366 -353,381 -28,17 -59,32 -93,46 117,50 199,166 199,302 0,420 -698,351 -1025,368 -287,15 -568,14 -844,-1 -686,-38 -1064,-174 -1672,-285l0 193c-304,0 -609,0 -913,0l0 -2715c304,0 609,0 913,0l0 197z"/>
 </g>
</svg>