<svg xmlns="http://www.w3.org/2000/svg" xml:space="preserve" width="120.65mm" height="603.25mm" version="1.1" style="shape-rendering:geometricPrecision; text-rendering:geometricPrecision; image-rendering:optimizeQuality; fill-rule:evenodd; clip-rule:evenodd"
viewBox="0 0 9956 49779"
 xmlns:xlink="http://www.w3.org/1999/xlink">
 <!-- Created by: Treedbox, treedbox.com.br -->
 <defs>
  <style type="text/css">
   <![CDATA[
    .fil0 {fill:none}
    .fil3 {fill:#30719E}
    .fil2 {fill:#017CC2}
    .fil1 {fill:#fff}
   ]]>
  </style>
 </defs>
 <g id="geo">
<rect class="fil0" width="9956" height="49779"/>
  <g id="_681796368">
   <circle class="fil1" cx="2313" cy="2925" r="322"/>
   <rect class="fil1" x="3175" y="2656" width="4789" height="539"/>
   <circle class="fil1" cx="2313" cy="3952" r="322"/>
   <rect class="fil1" x="3175" y="3682" width="4789" height="539"/>
   <circle class="fil1" cx="2313" cy="4978" r="322"/>
   <rect class="fil1" x="3175" y="4708" width="4789" height="539"/>
   <circle class="fil1" cx="2313" cy="6004" r="322"/>
   <rect class="fil1" x="3175" y="5734" width="4789" height="539"/>
   <circle class="fil1" cx="2313" cy="7030" r="322"/>
   <rect class="fil1" x="3175" y="6761" width="4789" height="539"/>
  </g>
  <g id="_681795024">
   <circle class="fil2" cx="2313" cy="22837" r="322"/>
   <rect class="fil2" x="3175" y="22567" width="4789" height="539"/>
   <circle class="fil2" cx="2313" cy="23863" r="322"/>
   <rect class="fil2" x="3175" y="23593" width="4789" height="539"/>
   <circle class="fil2" cx="2313" cy="24889" r="322"/>
   <rect class="fil2" x="3175" y="24620" width="4789" height="539"/>
   <circle class="fil2" cx="2313" cy="25916" r="322"/>
   <rect class="fil2" x="3175" y="25646" width="4789" height="539"/>
   <circle class="fil2" cx="2313" cy="26942" r="322"/>
   <rect class="fil2" x="3175" y="26672" width="4789" height="539"/>
  </g>
  <g id="_681796912">
   <circle class="fil3" cx="2313" cy="42748" r="322"/>
   <rect class="fil3" x="3175" y="42478" width="4789" height="539"/>
   <circle class="fil3" cx="2313" cy="43775" r="322"/>
   <rect class="fil3" x="3175" y="43505" width="4789" height="539"/>
   <circle class="fil3" cx="2313" cy="44801" r="322"/>
   <rect class="fil3" x="3175" y="44531" width="4789" height="539"/>
   <circle class="fil3" cx="2313" cy="45827" r="322"/>
   <rect class="fil3" x="3175" y="45557" width="4789" height="539"/>
   <circle class="fil3" cx="2313" cy="46853" r="322"/>
   <rect class="fil3" x="3175" y="46584" width="4789" height="539"/>
  </g>
 </g>
</svg>