<svg xmlns="http://www.w3.org/2000/svg" xml:space="preserve" width="120.65mm" height="603.25mm" version="1.1" style="shape-rendering:geometricPrecision; text-rendering:geometricPrecision; image-rendering:optimizeQuality; fill-rule:evenodd; clip-rule:evenodd"
viewBox="0 0 9956 49779"
 xmlns:xlink="http://www.w3.org/1999/xlink">
 <!-- Created by: Treedbox, treedbox.com.br -->
 <defs>
  <style type="text/css">
   <![CDATA[
    .fil0 {fill:none}
    .fil5 {fill:#373435}
    .fil8 {fill:#30719E}
    .fil7 {fill:white}
    .fil3 {fill:url(#id0)}
    .fil6 {fill:url(#id1)}
    .fil4 {fill:url(#id2)}
    .fil2 {fill:url(#id3)}
    .fil1 {fill:url(#id4)}
   ]]>
  </style>
  <linearGradient id="id0" gradientUnits="userSpaceOnUse" x1="7686.07" y1="2272.79" x2="5327.03" y2="5000.78">
   <stop offset="0" style="stop-opacity:1; stop-color:#222121"/>
   <stop offset="1" style="stop-opacity:1; stop-color:#ED3237"/>
  </linearGradient>
  <linearGradient id="id1" gradientUnits="userSpaceOnUse" xlink:href="#id0" x1="3860.21" y1="1122.66" x2="5980.73" y2="4512.94">
  </linearGradient>
  <linearGradient id="id2" gradientUnits="userSpaceOnUse" x1="7954.31" y1="4914.85" x2="6571.78" y2="5926.21">
   <stop offset="0" style="stop-opacity:1; stop-color:#344787"/>
   <stop offset="1" style="stop-opacity:1; stop-color:#00AFEF"/>
  </linearGradient>
  <linearGradient id="id3" gradientUnits="userSpaceOnUse" xlink:href="#id0" x1="4560.33" y1="2812.27" x2="3215.88" y2="4366.99">
  </linearGradient>
  <linearGradient id="id4" gradientUnits="userSpaceOnUse" xlink:href="#id2" x1="1663.96" y1="4370.82" x2="6721.53" y2="7217.46">
  </linearGradient>
 </defs>
 <g id="geo">
  <rect class="fil0" width="9956" height="49779"/>
  <g id="_594295792">
   <path class="fil1" d="M4264 4956l-200 -239 -249 210 -143 1013 191 230 258 -239 143 -975zm2011 -1097l-9 -208 -218 10 -489 478 8 200 234 -22 474 -458zm-1389 2569l-192 -210 249 -239 1070 0 153 219 -258 230 -1022 0zm210 -1529l-191 -210 248 -239 1070 0 153 219 -258 230 -1022 0zm1299 1548l-200 -201 -258 220 -144 994 192 220 267 -230 143 -1003zm211 -1491l-201 -239 -248 210 -144 1013 191 230 258 -239 144 -975zm-1749 1491l-201 -201 -258 220 -143 994 191 220 268 -230 143 -1003zm210 -1491l-201 -239 -248 210 -143 1013 191 230 258 -239 143 -975zm-2685 1491l-201 -201 -258 220 -143 994 191 220 267 -230 144 -1003zm-382 1252l181 239 1166 0 268 -220 -182 -220 -1185 0 -248 201zm2054 -1252l-200 -201 -259 220 -143 994 191 220 268 -230 143 -1003z"/>
   <path class="fil2" d="M2542 4167l193 -928 453 0 -29 148 -286 0 -48 226 279 0 -29 143 -279 0 -56 262 305 0 -29 149 -474 0zm415 -1015l-66 0 106 -140 139 0 -179 140zm606 1015l-173 0 194 -928 221 0c97,0 166,19 207,56 42,37 63,98 63,182 0,42 -6,81 -18,117 -12,36 -30,68 -53,95 -26,32 -59,54 -98,67 -40,13 -99,20 -177,20 -14,0 -38,-1 -73,-3 -5,0 -9,0 -12,0l-81 394zm110 -527l75 0c55,0 95,-14 119,-41 24,-27 36,-72 36,-134 0,-36 -8,-62 -25,-77 -16,-15 -44,-23 -84,-23l-63 0 -58 275zm582 -6l88 0c63,0 109,-13 136,-40 28,-26 42,-69 42,-129 0,-36 -10,-62 -29,-77 -19,-15 -51,-23 -97,-23l-84 0 -56 269zm-108 533l-171 0 193 -928 237 0c108,0 184,18 229,53 45,35 67,94 67,177 0,64 -17,119 -52,164 -35,46 -81,73 -137,81 32,8 56,23 71,45 16,22 23,53 23,92 0,8 0,17 -2,27 -1,9 -3,24 -6,42l-21 121c-2,7 -3,14 -3,21 -1,7 -1,16 -1,27 0,12 1,24 4,35 3,12 7,26 14,43l-186 0c-3,-8 -6,-17 -7,-27 -2,-10 -3,-21 -3,-34 0,-12 1,-24 2,-38 1,-13 3,-27 6,-41l17 -111c2,-9 3,-19 4,-30 1,-11 1,-22 1,-35 0,-34 -11,-58 -33,-72 -22,-15 -61,-22 -115,-22 -10,0 -18,1 -25,1 -6,0 -13,1 -20,2l-86 407zm778 -371l143 0 14 -446 -157 446zm-146 371l-177 0 391 -928 221 0 21 928 -169 0 0 -238 -193 0 -94 238z"/>
   <path class="fil3" d="M5314 1612c1481,401 2768,1986 1422,2868l-145 1182c2286,-1576 623,-3592 -1277,-4050z"/>
   <path class="fil4" d="M7821 3372c702,1191 438,2994 -1471,4097l217 -1325c619,-364 1791,-1067 1254,-2772z"/>
   <path class="fil5" d="M3983 8147l42 -4 -1 11c0,12 3,23 9,33 5,11 15,18 28,24 13,6 28,8 46,8 25,0 44,-5 58,-16 13,-12 20,-24 20,-39 0,-9 -4,-19 -11,-27 -7,-8 -27,-19 -59,-33 -25,-11 -42,-19 -51,-25 -14,-9 -25,-19 -31,-30 -7,-11 -10,-24 -10,-38 0,-16 4,-31 13,-44 9,-13 22,-23 39,-30 17,-7 37,-10 58,-10 26,0 48,4 66,12 17,9 30,21 38,35 8,14 12,28 12,41 0,2 0,4 0,7l-41 3c0,-9 -1,-16 -2,-21 -3,-9 -8,-16 -14,-22 -6,-6 -14,-11 -24,-15 -11,-4 -23,-5 -36,-5 -23,0 -41,5 -54,15 -9,8 -14,19 -14,32 0,8 2,15 6,21 4,6 11,12 22,18 7,4 25,12 53,25 23,10 38,18 47,23 11,8 20,17 26,28 7,11 10,23 10,37 0,17 -6,33 -16,48 -10,14 -25,26 -43,33 -19,8 -40,12 -64,12 -36,0 -65,-8 -88,-23 -22,-16 -34,-44 -34,-84zm466 102l67 -317 230 0 -7 36 -189 0 -21 99 185 0 -8 36 -184 0 -23 110 201 0 -8 36 -243 0zm481 0l66 -317 133 0c26,0 46,2 60,6 13,5 24,13 32,25 7,12 11,28 11,46 0,26 -8,47 -25,64 -17,17 -44,28 -82,33 12,9 20,17 26,25 13,19 24,38 32,58l24 60 -47 0 -23 -59c-8,-21 -18,-40 -28,-55 -7,-11 -14,-18 -22,-22 -7,-3 -19,-5 -36,-5l-50 0 -29 141 -42 0zm79 -175l58 0c27,0 45,-1 53,-1 16,-2 29,-5 40,-11 10,-6 18,-13 23,-23 6,-9 9,-20 9,-30 0,-10 -2,-18 -6,-25 -5,-6 -10,-11 -17,-13 -7,-3 -18,-4 -35,-4l-103 0 -22 107zm510 175l-61 -317 41 0 36 189c7,34 12,62 14,83 13,-27 24,-48 33,-64l113 -208 43 0 -173 317 -46 0zm388 0l66 -317 42 0 -66 317 -42 0zm547 -112l43 6c-14,37 -33,64 -59,83 -25,19 -53,28 -85,28 -39,0 -69,-11 -92,-35 -22,-23 -34,-57 -34,-101 0,-57 17,-104 52,-142 30,-33 68,-49 114,-49 33,0 61,9 81,27 21,18 33,42 37,72l-40 4c-4,-23 -13,-40 -26,-51 -13,-12 -30,-17 -50,-17 -39,0 -71,17 -95,51 -20,30 -31,65 -31,106 0,33 8,57 24,75 16,17 37,25 63,25 22,0 42,-7 60,-21 17,-14 30,-35 38,-61zm-140 147l9 -35 30 0 -5 20c13,1 23,6 30,13 7,7 10,15 10,23 0,11 -4,19 -14,25 -13,9 -33,14 -62,14 -14,0 -27,-1 -38,-3l5 -24c9,0 20,1 33,1 15,0 26,-2 31,-5 5,-3 7,-7 7,-11 0,-4 -2,-8 -6,-11 -6,-5 -16,-7 -30,-7zm416 -168c0,-56 16,-102 49,-137 33,-35 72,-52 119,-52 39,0 72,12 97,38 24,26 37,60 37,104 0,30 -6,59 -19,85 -9,20 -21,37 -35,52 -15,14 -30,25 -46,33 -22,10 -45,15 -69,15 -26,0 -49,-6 -70,-18 -21,-12 -36,-29 -47,-51 -11,-21 -16,-44 -16,-69zm41 2c0,19 4,36 12,52 7,15 19,27 34,36 16,9 32,13 49,13 16,0 32,-4 46,-11 15,-8 28,-19 40,-33 12,-13 21,-30 28,-50 6,-20 10,-40 10,-60 0,-31 -9,-57 -27,-75 -18,-19 -39,-28 -66,-28 -33,0 -62,14 -88,42 -25,28 -38,66 -38,114zm477 29l41 -4 0 11c0,12 3,23 8,33 6,11 15,18 28,24 13,6 29,8 46,8 26,0 45,-5 58,-16 14,-12 20,-24 20,-39 0,-9 -3,-19 -10,-27 -7,-8 -27,-19 -59,-33 -25,-11 -42,-19 -51,-25 -14,-9 -25,-19 -32,-30 -6,-11 -10,-24 -10,-38 0,-16 5,-31 14,-44 9,-13 22,-23 39,-30 17,-7 36,-10 58,-10 26,0 48,4 65,12 18,9 31,21 39,35 8,14 12,28 12,41 0,2 0,4 0,7l-41 3c0,-9 -1,-16 -3,-21 -2,-9 -7,-16 -13,-22 -6,-6 -14,-11 -25,-15 -10,-4 -22,-5 -35,-5 -23,0 -41,5 -54,15 -10,8 -15,19 -15,32 0,8 2,15 6,21 4,6 12,12 22,18 8,4 25,12 53,25 23,10 39,18 47,23 12,8 21,17 27,28 6,11 9,23 9,37 0,17 -5,33 -15,48 -11,14 -25,26 -44,33 -18,8 -39,12 -63,12 -36,0 -65,-8 -88,-23 -23,-16 -34,-44 -34,-84z"/>
   <path class="fil6" d="M2848 2042c2481,-940 4455,638 4105,1838 3,-1502 -1960,-2468 -4105,-1838z"/>
  </g>
  <g id="_594288368">
   <path class="fil7" d="M4264 24868l-200 -239 -249 210 -143 1013 191 229 258 -239 143 -974zm2011 -1097l-9 -209 -218 10 -489 479 8 199 234 -21 474 -458zm-1389 2568l-192 -210 249 -239 1070 0 153 220 -258 229 -1022 0zm210 -1529l-191 -210 248 -239 1070 0 153 220 -258 229 -1022 0zm1299 1548l-200 -200 -258 219 -144 994 192 220 267 -229 143 -1004zm211 -1490l-201 -239 -248 210 -144 1013 191 229 258 -239 144 -974zm-1749 1490l-201 -200 -258 219 -143 994 191 220 268 -229 143 -1004zm210 -1490l-201 -239 -248 210 -143 1013 191 229 258 -239 143 -974zm-2685 1490l-201 -200 -258 219 -143 994 191 220 267 -229 144 -1004zm-382 1252l181 239 1166 0 268 -220 -182 -219 -1185 0 -248 200zm2054 -1252l-200 -200 -259 219 -143 994 191 220 268 -229 143 -1004z"/>
   <path class="fil7" d="M2542 24079l193 -928 453 0 -29 148 -286 0 -48 226 279 0 -29 143 -279 0 -56 261 305 0 -29 150 -474 0zm415 -1016l-66 0 106 -139 139 0 -179 139zm606 1016l-173 0 194 -928 221 0c97,0 166,18 207,55 42,38 63,98 63,183 0,41 -6,80 -18,116 -12,37 -30,68 -53,96 -26,31 -59,54 -98,67 -40,13 -99,19 -177,19 -14,0 -38,0 -73,-2 -5,0 -9,0 -12,0l-81 394zm110 -527l75 0c55,0 95,-14 119,-42 24,-27 36,-72 36,-133 0,-37 -8,-62 -25,-78 -16,-15 -44,-22 -84,-22l-63 0 -58 275zm582 -6l88 0c63,0 109,-14 136,-40 28,-27 42,-70 42,-129 0,-36 -10,-62 -29,-78 -19,-15 -51,-22 -97,-22l-84 0 -56 269zm-108 533l-171 0 193 -928 237 0c108,0 184,17 229,52 45,35 67,94 67,177 0,65 -17,119 -52,165 -35,45 -81,72 -137,81 32,7 56,22 71,44 16,23 23,54 23,93 0,8 0,16 -2,26 -1,10 -3,24 -6,43l-21 121c-2,6 -3,13 -3,20 -1,7 -1,17 -1,28 0,12 1,23 4,35 3,12 7,26 14,43l-186 0c-3,-8 -6,-17 -7,-27 -2,-10 -3,-22 -3,-35 0,-11 1,-24 2,-37 1,-14 3,-27 6,-42l17 -110c2,-10 3,-20 4,-31 1,-11 1,-22 1,-34 0,-35 -11,-59 -33,-73 -22,-14 -61,-21 -115,-21 -10,0 -18,0 -25,1 -6,0 -13,1 -20,1l-86 408zm778 -372l143 0 14 -445 -157 445zm-146 372l-177 0 391 -928 221 0 21 928 -169 0 0 -239 -193 0 -94 239z"/>
   <path class="fil7" d="M5314 21523c1481,401 2768,1986 1422,2869l-145 1181c2286,-1575 623,-3591 -1277,-4050z"/>
   <path class="fil7" d="M7821 23283c702,1192 438,2994 -1471,4098l217 -1326c619,-363 1791,-1067 1254,-2772z"/>
   <path class="fil7" d="M3983 28058l42 -4 -1 11c0,13 3,24 9,34 5,10 15,18 28,23 13,6 28,9 46,9 25,0 44,-6 58,-17 13,-11 20,-24 20,-38 0,-10 -4,-19 -11,-27 -7,-8 -27,-19 -59,-33 -25,-11 -42,-19 -51,-25 -14,-9 -25,-20 -31,-31 -7,-11 -10,-23 -10,-37 0,-17 4,-31 13,-45 9,-13 22,-23 39,-30 17,-7 37,-10 58,-10 26,0 48,4 66,13 17,9 30,20 38,34 8,15 12,29 12,42 0,1 0,3 0,6l-41 4c0,-9 -1,-16 -2,-22 -3,-8 -8,-16 -14,-22 -6,-6 -14,-11 -24,-14 -11,-4 -23,-6 -36,-6 -23,0 -41,5 -54,16 -9,8 -14,18 -14,31 0,8 2,15 6,21 4,6 11,12 22,18 7,5 25,13 53,25 23,10 38,18 47,24 11,8 20,17 26,28 7,11 10,23 10,37 0,17 -6,33 -16,47 -10,15 -25,26 -43,34 -19,8 -40,12 -64,12 -36,0 -65,-8 -88,-24 -22,-15 -34,-43 -34,-84zm466 103l67 -318 230 0 -7 36 -189 0 -21 99 185 0 -8 36 -184 0 -23 111 201 0 -8 36 -243 0zm481 0l66 -318 133 0c26,0 46,3 60,7 13,4 24,13 32,25 7,12 11,27 11,46 0,25 -8,47 -25,64 -17,17 -44,28 -82,33 12,8 20,17 26,25 13,19 24,38 32,58l24 60 -47 0 -23 -60c-8,-21 -18,-39 -28,-55 -7,-11 -14,-18 -22,-21 -7,-4 -19,-5 -36,-5l-50 0 -29 141 -42 0zm79 -176l58 0c27,0 45,0 53,-1 16,-1 29,-5 40,-11 10,-5 18,-13 23,-22 6,-10 9,-20 9,-31 0,-9 -2,-17 -6,-24 -5,-7 -10,-12 -17,-14 -7,-2 -18,-4 -35,-4l-103 0 -22 107zm510 176l-61 -318 41 0 36 189c7,35 12,62 14,83 13,-26 24,-48 33,-64l113 -208 43 0 -173 318 -46 0zm388 0l66 -318 42 0 -66 318 -42 0zm547 -112l43 6c-14,36 -33,64 -59,83 -25,18 -53,28 -85,28 -39,0 -69,-12 -92,-35 -22,-24 -34,-58 -34,-101 0,-57 17,-105 52,-142 30,-33 68,-50 114,-50 33,0 61,9 81,27 21,18 33,42 37,73l-40 3c-4,-23 -13,-40 -26,-51 -13,-11 -30,-17 -50,-17 -39,0 -71,17 -95,52 -20,29 -31,65 -31,105 0,33 8,58 24,75 16,17 37,26 63,26 22,0 42,-7 60,-22 17,-14 30,-34 38,-60zm-140 146l9 -34 30 0 -5 19c13,2 23,6 30,13 7,7 10,15 10,24 0,10 -4,19 -14,25 -13,9 -33,13 -62,13 -14,0 -27,-1 -38,-2l5 -25c9,1 20,1 33,1 15,0 26,-1 31,-5 5,-3 7,-6 7,-10 0,-5 -2,-9 -6,-12 -6,-4 -16,-6 -30,-7zm416 -167c0,-57 16,-103 49,-138 33,-34 72,-52 119,-52 39,0 72,13 97,39 24,25 37,60 37,103 0,31 -6,60 -19,86 -9,20 -21,37 -35,51 -15,14 -30,25 -46,33 -22,11 -45,16 -69,16 -26,0 -49,-6 -70,-18 -21,-12 -36,-29 -47,-51 -11,-22 -16,-45 -16,-69zm41 2c0,18 4,35 12,51 7,16 19,28 34,37 16,8 32,13 49,13 16,0 32,-4 46,-12 15,-7 28,-18 40,-32 12,-14 21,-31 28,-51 6,-20 10,-40 10,-59 0,-32 -9,-57 -27,-76 -18,-19 -39,-28 -66,-28 -33,0 -62,14 -88,43 -25,28 -38,66 -38,114zm477 28l41 -4 0 11c0,13 3,24 8,34 6,10 15,18 28,23 13,6 29,9 46,9 26,0 45,-6 58,-17 14,-11 20,-24 20,-38 0,-10 -3,-19 -10,-27 -7,-8 -27,-19 -59,-33 -25,-11 -42,-19 -51,-25 -14,-9 -25,-20 -32,-31 -6,-11 -10,-23 -10,-37 0,-17 5,-31 14,-45 9,-13 22,-23 39,-30 17,-7 36,-10 58,-10 26,0 48,4 65,13 18,9 31,20 39,34 8,15 12,29 12,42 0,1 0,3 0,6l-41 4c0,-9 -1,-16 -3,-22 -2,-8 -7,-16 -13,-22 -6,-6 -14,-11 -25,-14 -10,-4 -22,-6 -35,-6 -23,0 -41,5 -54,16 -10,8 -15,18 -15,31 0,8 2,15 6,21 4,6 12,12 22,18 8,5 25,13 53,25 23,10 39,18 47,24 12,8 21,17 27,28 6,11 9,23 9,37 0,17 -5,33 -15,47 -11,15 -25,26 -44,34 -18,8 -39,12 -63,12 -36,0 -65,-8 -88,-24 -23,-15 -34,-43 -34,-84z"/>
   <path class="fil7" d="M2848 21953c2481,-940 4455,638 4105,1838 3,-1502 -1960,-2468 -4105,-1838z"/>
  </g>
  <g id="_594293200">
   <path class="fil8" d="M4264 44779l-200 -239 -249 210 -143 1013 191 230 258 -239 143 -975zm2011 -1097l-9 -208 -218 10 -489 478 8 200 234 -22 474 -458zm-1389 2569l-192 -210 249 -239 1070 0 153 219 -258 230 -1022 0zm210 -1529l-191 -210 248 -239 1070 0 153 219 -258 230 -1022 0zm1299 1548l-200 -201 -258 220 -144 994 192 220 267 -230 143 -1003zm211 -1491l-201 -239 -248 210 -144 1013 191 230 258 -239 144 -975zm-1749 1491l-201 -201 -258 220 -143 994 191 220 268 -230 143 -1003zm210 -1491l-201 -239 -248 210 -143 1013 191 230 258 -239 143 -975zm-2685 1491l-201 -201 -258 220 -143 994 191 220 267 -230 144 -1003zm-382 1252l181 239 1166 0 268 -220 -182 -220 -1185 0 -248 201zm2054 -1252l-200 -201 -259 220 -143 994 191 220 268 -230 143 -1003z"/>
   <path class="fil8" d="M2542 43990l193 -928 453 0 -29 148 -286 0 -48 226 279 0 -29 143 -279 0 -56 262 305 0 -29 149 -474 0zm415 -1015l-66 0 106 -140 139 0 -179 140zm606 1015l-173 0 194 -928 221 0c97,0 166,19 207,56 42,37 63,98 63,182 0,42 -6,81 -18,117 -12,36 -30,68 -53,95 -26,32 -59,54 -98,67 -40,13 -99,20 -177,20 -14,0 -38,-1 -73,-3 -5,0 -9,0 -12,0l-81 394zm110 -527l75 0c55,0 95,-14 119,-41 24,-27 36,-72 36,-134 0,-36 -8,-62 -25,-77 -16,-15 -44,-23 -84,-23l-63 0 -58 275zm582 -6l88 0c63,0 109,-13 136,-40 28,-26 42,-69 42,-129 0,-36 -10,-62 -29,-77 -19,-15 -51,-23 -97,-23l-84 0 -56 269zm-108 533l-171 0 193 -928 237 0c108,0 184,18 229,53 45,35 67,94 67,177 0,64 -17,119 -52,164 -35,46 -81,73 -137,81 32,8 56,23 71,45 16,22 23,53 23,92 0,8 0,17 -2,27 -1,9 -3,24 -6,42l-21 121c-2,7 -3,14 -3,21 -1,7 -1,16 -1,27 0,12 1,24 4,35 3,12 7,26 14,43l-186 0c-3,-8 -6,-17 -7,-27 -2,-10 -3,-21 -3,-34 0,-12 1,-24 2,-38 1,-13 3,-27 6,-41l17 -111c2,-9 3,-19 4,-30 1,-11 1,-22 1,-35 0,-34 -11,-58 -33,-72 -22,-15 -61,-22 -115,-22 -10,0 -18,1 -25,1 -6,0 -13,1 -20,2l-86 407zm778 -371l143 0 14 -446 -157 446zm-146 371l-177 0 391 -928 221 0 21 928 -169 0 0 -238 -193 0 -94 238z"/>
   <path class="fil8" d="M5314 41435c1481,401 2768,1986 1422,2868l-145 1182c2286,-1576 623,-3592 -1277,-4050z"/>
   <path class="fil8" d="M7821 43195c702,1191 438,2994 -1471,4097l217 -1325c619,-364 1791,-1067 1254,-2772z"/>
   <path class="fil8" d="M3983 47970l42 -4 -1 11c0,12 3,23 9,33 5,11 15,18 28,24 13,6 28,8 46,8 25,0 44,-5 58,-16 13,-11 20,-24 20,-39 0,-9 -4,-19 -11,-27 -7,-8 -27,-19 -59,-33 -25,-11 -42,-19 -51,-25 -14,-9 -25,-19 -31,-30 -7,-11 -10,-24 -10,-38 0,-16 4,-31 13,-44 9,-13 22,-23 39,-30 17,-7 37,-10 58,-10 26,0 48,4 66,12 17,9 30,21 38,35 8,14 12,28 12,41 0,2 0,4 0,7l-41 3c0,-9 -1,-16 -2,-21 -3,-9 -8,-16 -14,-22 -6,-6 -14,-11 -24,-15 -11,-4 -23,-5 -36,-5 -23,0 -41,5 -54,15 -9,8 -14,19 -14,32 0,8 2,15 6,21 4,6 11,12 22,18 7,4 25,12 53,25 23,10 38,18 47,23 11,8 20,17 26,28 7,11 10,23 10,37 0,18 -6,33 -16,48 -10,14 -25,26 -43,33 -19,8 -40,12 -64,12 -36,0 -65,-8 -88,-23 -22,-16 -34,-44 -34,-84zm466 102l67 -317 230 0 -7 36 -189 0 -21 99 185 0 -8 36 -184 0 -23 110 201 0 -8 36 -243 0zm481 0l66 -317 133 0c26,0 46,2 60,6 13,5 24,13 32,25 7,12 11,28 11,46 0,26 -8,47 -25,64 -17,17 -44,28 -82,33 12,9 20,17 26,25 13,19 24,38 32,58l24 60 -47 0 -23 -59c-8,-21 -18,-40 -28,-55 -7,-11 -14,-18 -22,-22 -7,-3 -19,-5 -36,-5l-50 0 -29 141 -42 0zm79 -175l58 0c27,0 45,-1 53,-1 16,-2 29,-5 40,-11 10,-6 18,-13 23,-23 6,-9 9,-20 9,-30 0,-10 -2,-18 -6,-25 -5,-6 -10,-11 -17,-13 -7,-3 -18,-4 -35,-4l-103 0 -22 107zm510 175l-61 -317 41 0 36 189c7,34 12,62 14,83 13,-27 24,-48 33,-64l113 -208 43 0 -173 317 -46 0zm388 0l66 -317 42 0 -66 317 -42 0zm547 -112l43 6c-14,37 -33,64 -59,83 -25,19 -53,28 -85,28 -39,0 -69,-11 -92,-35 -22,-23 -34,-57 -34,-101 0,-57 17,-104 52,-142 30,-33 68,-49 114,-49 33,0 61,9 81,27 21,18 33,42 37,72l-40 4c-4,-23 -13,-40 -26,-51 -13,-12 -30,-17 -50,-17 -39,0 -71,17 -95,51 -20,30 -31,65 -31,106 0,33 8,57 24,75 16,17 37,25 63,25 22,0 42,-7 60,-21 17,-14 30,-35 38,-61zm-140 147l9 -35 30 0 -5 20c13,1 23,6 30,13 7,7 10,15 10,23 0,11 -4,19 -14,25 -13,9 -33,14 -62,14 -14,0 -27,-1 -38,-3l5 -24c9,0 20,1 33,1 15,0 26,-2 31,-5 5,-3 7,-7 7,-11 0,-4 -2,-8 -6,-11 -6,-5 -16,-7 -30,-7zm416 -168c0,-56 16,-102 49,-137 33,-35 72,-52 119,-52 39,0 72,12 97,38 24,26 37,60 37,104 0,30 -6,59 -19,85 -9,20 -21,37 -35,52 -15,14 -30,25 -46,33 -22,10 -45,15 -69,15 -26,0 -49,-6 -70,-18 -21,-12 -36,-29 -47,-51 -11,-21 -16,-44 -16,-69zm41 2c0,19 4,36 12,52 7,15 19,27 34,36 16,9 32,13 49,13 16,0 32,-4 46,-11 15,-8 28,-19 40,-33 12,-13 21,-30 28,-50 6,-20 10,-40 10,-60 0,-31 -9,-57 -27,-75 -18,-19 -39,-28 -66,-28 -33,0 -62,14 -88,42 -25,28 -38,66 -38,114zm477 29l41 -4 0 11c0,12 3,23 8,33 6,11 15,18 28,24 13,6 29,8 46,8 26,0 45,-5 58,-16 14,-11 20,-24 20,-39 0,-9 -3,-19 -10,-27 -7,-8 -27,-19 -59,-33 -25,-11 -42,-19 -51,-25 -14,-9 -25,-19 -32,-30 -6,-11 -10,-24 -10,-38 0,-16 5,-31 14,-44 9,-13 22,-23 39,-30 17,-7 36,-10 58,-10 26,0 48,4 65,12 18,9 31,21 39,35 8,14 12,28 12,41 0,2 0,4 0,7l-41 3c0,-9 -1,-16 -3,-21 -2,-9 -7,-16 -13,-22 -6,-6 -14,-11 -25,-15 -10,-4 -22,-5 -35,-5 -23,0 -41,5 -54,15 -10,8 -15,19 -15,32 0,8 2,15 6,21 4,6 12,12 22,18 8,4 25,12 53,25 23,10 39,18 47,23 12,8 21,17 27,28 6,11 9,23 9,37 0,18 -5,33 -15,48 -11,14 -25,26 -44,33 -18,8 -39,12 -63,12 -36,0 -65,-8 -88,-23 -23,-16 -34,-44 -34,-84z"/>
   <path class="fil8" d="M2848 41865c2481,-940 4455,638 4105,1838 3,-1502 -1960,-2468 -4105,-1838z"/>
  </g>
 </g>
</svg>