<svg xmlns="http://www.w3.org/2000/svg" xml:space="preserve" width="120.65mm" height="603.25mm" version="1.1" style="shape-rendering:geometricPrecision; text-rendering:geometricPrecision; image-rendering:optimizeQuality; fill-rule:evenodd; clip-rule:evenodd"
viewBox="0 0 9956 49779"
 xmlns:xlink="http://www.w3.org/1999/xlink">
 <!-- Created by: Treedbox, treedbox.com.br -->
 <defs>
  <style type="text/css">
   <![CDATA[
    .fil0 {fill:none}
    .fil3 {fill:#30719E}
    .fil2 {fill:#CCCBCB}
    .fil1 {fill:white}
   ]]>
  </style>
 </defs>
 <g id="geo">
  <polygon class="fil0" points="0,0 9956,0 9956,49779 0,49779 "/>
  <g id="_133093696">
   <rect class="fil1" transform="matrix(2.3604E-014 0.428736 -0.891236 1.13549E-014 7666.1 2506.72)" width="2882" height="6033"/>
   <rect class="fil1" transform="matrix(2.3604E-014 0.428736 -0.891236 1.13549E-014 7666.1 4360.1)" width="2882" height="6033"/>
   <rect class="fil1" transform="matrix(2.3604E-014 0.428736 -0.891236 1.13549E-014 7666.1 6213.47)" width="2882" height="6033"/>
  </g>
  <g id="_133090176">
   <rect class="fil2" transform="matrix(2.3604E-014 0.428736 -0.891236 1.13549E-014 7666.1 22418.2)" width="2882" height="6033"/>
   <rect class="fil2" transform="matrix(2.3604E-014 0.428736 -0.891236 1.13549E-014 7666.1 24271.6)" width="2882" height="6033"/>
   <rect class="fil2" transform="matrix(2.3604E-014 0.428736 -0.891236 1.13549E-014 7666.1 26125)" width="2882" height="6033"/>
  </g>
  <g id="_133093472">
   <rect class="fil3" transform="matrix(2.3604E-014 0.428736 -0.891236 1.13549E-014 7666.1 42329.7)" width="2882" height="6033"/>
   <rect class="fil3" transform="matrix(2.3604E-014 0.428736 -0.891236 1.13549E-014 7666.1 44183.1)" width="2882" height="6033"/>
   <rect class="fil3" transform="matrix(2.3604E-014 0.428736 -0.891236 1.13549E-014 7666.1 46036.5)" width="2882" height="6033"/>
  </g>
 </g>
</svg>