<svg xmlns="http://www.w3.org/2000/svg" xml:space="preserve" width="120.65mm" height="603.25mm" version="1.1" style="shape-rendering:geometricPrecision; text-rendering:geometricPrecision; image-rendering:optimizeQuality; fill-rule:evenodd; clip-rule:evenodd"
viewBox="0 0 9956 49779"
 xmlns:xlink="http://www.w3.org/1999/xlink">
 <!-- Created by: Treedbox, treedbox.com.br -->
 <defs>
  <style type="text/css">
   <![CDATA[
    .fil0 {fill:none}
    .fil1 {fill:#fff}
    .fil2 {fill:#ccc}
    .fil3 {fill:#30719E}
   ]]>
  </style>
 </defs>
 <g id="geo">
  <g id="_665776592">
   <rect class="fil0" width="9956" height="49779"/>
   <path class="fil1" d="M4978 2507c1365,0 2471,1106 2471,2471 0,1365 -1106,2471 -2471,2471 -1365,0 -2471,-1106 -2471,-2471 0,-1365 1106,-2471 2471,-2471zm-198 1153l0 -350 392 0 0 342c438,49 725,258 859,626l-638 200c-66,-173 -198,-259 -398,-259 -169,0 -253,54 -253,163 0,39 15,73 43,100 29,28 107,56 237,84 294,64 506,121 633,171 128,52 235,138 319,260 85,121 128,264 128,431 0,232 -83,426 -248,583 -165,157 -392,252 -682,285l0 350 -392 0 0 -350c-491,-59 -799,-318 -926,-777l713 -132c61,208 215,312 462,312 192,0 289,-53 289,-158 0,-56 -23,-100 -68,-130 -44,-31 -124,-59 -238,-82 -448,-90 -733,-207 -853,-348 -120,-141 -180,-303 -180,-486 0,-202 66,-382 198,-539 132,-156 332,-255 603,-296zm198 -933c1243,0 2250,1008 2250,2251 0,1243 -1007,2250 -2250,2250 -1243,0 -2251,-1007 -2251,-2250 0,-1243 1008,-2251 2251,-2251zm0 83c1197,0 2168,971 2168,2168 0,1197 -971,2168 -2168,2168 -1197,0 -2168,-971 -2168,-2168 0,-1197 971,-2168 2168,-2168z"/>
   <path class="fil2" d="M4978 22418c1365,0 2471,1107 2471,2471 0,1365 -1106,2472 -2471,2472 -1365,0 -2471,-1107 -2471,-2472 0,-1364 1106,-2471 2471,-2471zm-198 1154l0 -351 392 0 0 342c438,49 725,258 859,627l-638 199c-66,-172 -198,-259 -398,-259 -169,0 -253,55 -253,163 0,40 15,73 43,101 29,28 107,55 237,84 294,63 506,120 633,171 128,51 235,138 319,259 85,122 128,265 128,431 0,232 -83,427 -248,584 -165,157 -392,251 -682,284l0 350 -392 0 0 -350c-491,-58 -799,-318 -926,-776l713 -133c61,209 215,313 462,313 192,0 289,-53 289,-159 0,-55 -23,-99 -68,-130 -44,-31 -124,-58 -238,-82 -448,-90 -733,-206 -853,-347 -120,-141 -180,-304 -180,-487 0,-202 66,-381 198,-538 132,-157 332,-255 603,-296zm198 -933c1243,0 2250,1007 2250,2250 0,1243 -1007,2251 -2250,2251 -1243,0 -2251,-1008 -2251,-2251 0,-1243 1008,-2250 2251,-2250zm0 82c1197,0 2168,971 2168,2168 0,1198 -971,2168 -2168,2168 -1197,0 -2168,-970 -2168,-2168 0,-1197 971,-2168 2168,-2168z"/>
   <path class="fil3" d="M4978 42330c1365,0 2471,1106 2471,2471 0,1365 -1106,2471 -2471,2471 -1365,0 -2471,-1106 -2471,-2471 0,-1365 1106,-2471 2471,-2471zm-198 1153l0 -350 392 0 0 342c438,49 725,258 859,626l-638 200c-66,-173 -198,-259 -398,-259 -169,0 -253,54 -253,163 0,39 15,73 43,100 29,28 107,56 237,84 294,64 506,121 633,171 128,52 235,138 319,260 85,121 128,264 128,431 0,232 -83,426 -248,583 -165,157 -392,252 -682,285l0 350 -392 0 0 -350c-491,-59 -799,-318 -926,-777l713 -132c61,208 215,312 462,312 192,0 289,-53 289,-158 0,-56 -23,-100 -68,-130 -44,-31 -124,-59 -238,-82 -448,-90 -733,-207 -853,-348 -120,-141 -180,-303 -180,-486 0,-202 66,-382 198,-539 132,-156 332,-255 603,-296zm198 -933c1243,0 2250,1008 2250,2251 0,1243 -1007,2250 -2250,2250 -1243,0 -2251,-1007 -2251,-2250 0,-1243 1008,-2251 2251,-2251zm0 83c1197,0 2168,971 2168,2168 0,1197 -971,2168 -2168,2168 -1197,0 -2168,-971 -2168,-2168 0,-1197 971,-2168 2168,-2168z"/>
  </g>
 </g>
</svg>