<svg xmlns="http://www.w3.org/2000/svg" xml:space="preserve" width="120.65mm" height="603.25mm" version="1.1" style="shape-rendering:geometricPrecision; text-rendering:geometricPrecision; image-rendering:optimizeQuality; fill-rule:evenodd; clip-rule:evenodd"
viewBox="0 0 9956 49779"
 xmlns:xlink="http://www.w3.org/1999/xlink">
 <!-- Created by: Treedbox, treedbox.com.br -->
 <defs>
  <style type="text/css">
   <![CDATA[
    .fil0 {fill:none}
    .fil1 {fill:#fff}
    .fil2 {fill:#ccc}
    .fil3 {fill:#30719E}
   ]]>
  </style>
 </defs>
 <g id="geo">
  <polygon class="fil0" points="0,0 9956,0 9956,49779 0,49779 "/>
  <path class="fil1" d="M3911 7206c-615,-294 -1053,-810 -1263,-1406 -208,-589 -194,-1257 91,-1866l0 -2 10 -21c295,-615 811,-1053 1407,-1263 589,-208 1257,-194 1866,91l1 0 22 10c615,295 1053,811 1263,1407 210,596 193,1273 -102,1889 -294,615 -810,1053 -1406,1263 -597,210 -1273,193 -1889,-102zm448 -935c-314,-150 -548,-400 -683,-693 868,0 1736,0 2604,0 -3,7 -6,13 -9,19 -171,357 -470,611 -816,733 -346,122 -739,112 -1096,-59zm-136 -1621c147,0 266,119 266,266 0,147 -119,266 -266,266 -147,0 -266,-119 -266,-266 0,-147 119,-266 266,-266zm1510 0c146,0 265,119 265,266 0,147 -119,266 -265,266 -147,0 -266,-119 -266,-266 0,-147 119,-266 266,-266zm-1460 -989c-147,-71 -285,-154 -412,-248 -36,25 -70,51 -104,79l0 0c-410,338 -645,809 -693,1298 -48,491 91,999 428,1409 338,410 809,645 1298,693 491,47 999,-92 1409,-429 410,-337 645,-808 693,-1297 47,-491 -92,-999 -429,-1409l0 0c-19,-24 -40,-47 -60,-70 -656,294 -1431,308 -2130,-26z"/>
  <path class="fil2" d="M3911 27118c-615,-295 -1053,-811 -1263,-1406 -208,-590 -194,-1257 91,-1867l0 -1 10 -21c295,-616 811,-1053 1407,-1263 589,-208 1257,-194 1866,90l1 1 22 10c615,294 1053,810 1263,1406 210,597 193,1274 -102,1889 -294,616 -810,1053 -1406,1263 -597,211 -1273,193 -1889,-101zm448 -936c-314,-150 -548,-399 -683,-692 868,0 1736,0 2604,0 -3,6 -6,12 -9,18 -171,357 -470,611 -816,733 -346,122 -739,112 -1096,-59zm-136 -1620c147,0 266,119 266,266 0,146 -119,265 -266,265 -147,0 -266,-119 -266,-265 0,-147 119,-266 266,-266zm1510 0c146,0 265,119 265,266 0,146 -119,265 -265,265 -147,0 -266,-119 -266,-265 0,-147 119,-266 266,-266zm-1460 -990c-147,-71 -285,-154 -412,-248 -36,25 -70,52 -104,80l0 0c-410,337 -645,808 -693,1298 -48,490 91,998 428,1409 338,410 809,644 1298,692 491,48 999,-91 1409,-428 410,-337 645,-809 693,-1298 47,-490 -92,-999 -429,-1409l0 0c-19,-24 -40,-47 -60,-70 -656,294 -1431,309 -2130,-26z"/>
  <path class="fil3" d="M3911 47029c-615,-294 -1053,-810 -1263,-1406 -208,-589 -194,-1257 91,-1866l0 -2 10 -21c295,-615 811,-1053 1407,-1263 589,-208 1257,-194 1866,91l1 0 22 10c615,295 1053,811 1263,1407 210,596 193,1273 -102,1889 -294,615 -810,1053 -1406,1263 -597,210 -1273,193 -1889,-102zm448 -935c-314,-150 -548,-400 -683,-693 868,0 1736,0 2604,0 -3,7 -6,13 -9,19 -171,357 -470,611 -816,733 -346,122 -739,112 -1096,-59zm-136 -1621c147,0 266,119 266,266 0,147 -119,266 -266,266 -147,0 -266,-119 -266,-266 0,-147 119,-266 266,-266zm1510 0c146,0 265,119 265,266 0,147 -119,266 -265,266 -147,0 -266,-119 -266,-266 0,-147 119,-266 266,-266zm-1460 -989c-147,-71 -285,-154 -412,-248 -36,25 -70,51 -104,79l0 0c-410,338 -645,809 -693,1298 -48,491 91,999 428,1409 338,410 809,645 1298,693 491,47 999,-92 1409,-429 410,-337 645,-808 693,-1297 47,-491 -92,-999 -429,-1409l0 0c-19,-24 -40,-47 -60,-70 -656,294 -1431,308 -2130,-26z"/>
 </g>
</svg>