<svg xmlns="http://www.w3.org/2000/svg" xml:space="preserve" width="120.65mm" height="603.25mm" version="1.1" style="shape-rendering:geometricPrecision; text-rendering:geometricPrecision; image-rendering:optimizeQuality; fill-rule:evenodd; clip-rule:evenodd"
viewBox="0 0 9956 49779"
 xmlns:xlink="http://www.w3.org/1999/xlink">
 <!-- Created by: Treedbox, treedbox.com.br -->
 <defs>
  <style type="text/css">
   <![CDATA[
    .fil0 {fill:none}
    .fil1 {fill:#fff}
    .fil2 {fill:#ccc}
    .fil3 {fill:#30719E}
   ]]>
  </style>
 </defs>
 <g id="geo">
<rect class="fil0" width="9956" height="49779"/>
  <path class="fil1" d="M4978 2507c501,0 907,406 907,907 0,501 -406,907 -907,907 -501,0 -907,-406 -907,-907 0,-501 406,-907 907,-907zm-1689 4942l565 0 0 -2157c0,-45 37,-81 81,-81l0 0c45,0 82,36 82,81l0 2157 1922 0 0 -2157c0,-45 37,-81 81,-81l0 0c45,0 82,36 82,81l0 2157 564 0c0,-905 0,-1810 0,-2715 0,-169 -138,-307 -307,-307l-2763 0c-168,0 -307,138 -307,307 0,905 0,1810 0,2715z"/>
  <path class="fil2" d="M4978 22418c501,0 907,406 907,907 0,501 -406,907 -907,907 -501,0 -907,-406 -907,-907 0,-501 406,-907 907,-907zm-1689 4943l565 0 0 -2158c0,-44 37,-81 81,-81l0 0c45,0 82,37 82,81l0 2158 1922 0 0 -2158c0,-44 37,-81 81,-81l0 0c45,0 82,37 82,81l0 2158 564 0c0,-905 0,-1810 0,-2716 0,-168 -138,-307 -307,-307l-2763 0c-168,0 -307,139 -307,307 0,906 0,1811 0,2716z"/>
  <path class="fil3" d="M4978 42330c501,0 907,406 907,907 0,501 -406,907 -907,907 -501,0 -907,-406 -907,-907 0,-501 406,-907 907,-907zm-1689 4942l565 0 0 -2157c0,-45 37,-82 81,-82l0 0c45,0 82,37 82,82l0 2157 1922 0 0 -2157c0,-45 37,-82 81,-82l0 0c45,0 82,37 82,82l0 2157 564 0c0,-905 0,-1810 0,-2715 0,-169 -138,-307 -307,-307l-2763 0c-168,0 -307,138 -307,307 0,905 0,1810 0,2715z"/>
 </g>
</svg>