<svg xmlns="http://www.w3.org/2000/svg" xml:space="preserve" width="120.65mm" height="603.25mm" version="1.1" style="shape-rendering:geometricPrecision; text-rendering:geometricPrecision; image-rendering:optimizeQuality; fill-rule:evenodd; clip-rule:evenodd"
viewBox="0 0 9956 49779"
 xmlns:xlink="http://www.w3.org/1999/xlink">
 <!-- Created by: Treedbox, treedbox.com.br -->
 <defs>
  <style type="text/css">
   <![CDATA[
    .fil0 {fill:none}
    .fil1 {fill:#fff}
    .fil2 {fill:#ccc}
    .fil3 {fill:#30719E}
   ]]>
  </style>
 </defs>
 <g id="geo">
<rect class="fil0" width="9956" height="49779"/>
  <g id="_683516864">
   <path class="fil1" d="M6295 5889l441 0 0 441 -441 0 0 -441zm-782 0l441 0 0 441 -441 0 0 -441zm782 -702l441 0 0 441 -441 0 0 -441zm-782 0l441 0 0 441 -441 0 0 -441zm782 -782l441 0 0 441 -441 0 0 -441zm-782 0l441 0 0 441 -441 0 0 -441zm782 -783l441 0 0 441 -441 0 0 -441zm-782 0l441 0 0 441 -441 0 0 -441zm-333 -330l1883 0 0 4157 -1883 0 0 -4157z"/>
   <path class="fil1" d="M4008 5889l441 0 0 441 -441 0 0 -441zm-782 0l441 0 0 441 -441 0 0 -441zm782 -702l441 0 0 441 -441 0 0 -441zm-782 0l441 0 0 441 -441 0 0 -441zm782 -782l441 0 0 441 -441 0 0 -441zm-782 0l441 0 0 441 -441 0 0 -441zm782 -783l441 0 0 441 -441 0 0 -441zm-782 0l441 0 0 441 -441 0 0 -441zm782 -766l441 0 0 442 -441 0 0 -442zm-782 0l441 0 0 442 -441 0 0 -442zm-333 -349l1883 0 0 4942 -1883 0 0 -4942z"/>
  </g>
  <g id="_683515232">
   <path class="fil2" d="M6295 25801l441 0 0 441 -441 0 0 -441zm-782 0l441 0 0 441 -441 0 0 -441zm782 -703l441 0 0 442 -441 0 0 -442zm-782 0l441 0 0 442 -441 0 0 -442zm782 -782l441 0 0 441 -441 0 0 -441zm-782 0l441 0 0 441 -441 0 0 -441zm782 -782l441 0 0 441 -441 0 0 -441zm-782 0l441 0 0 441 -441 0 0 -441zm-333 -330l1883 0 0 4157 -1883 0 0 -4157z"/>
   <path class="fil2" d="M4008 25801l441 0 0 441 -441 0 0 -441zm-782 0l441 0 0 441 -441 0 0 -441zm782 -703l441 0 0 442 -441 0 0 -442zm-782 0l441 0 0 442 -441 0 0 -442zm782 -782l441 0 0 441 -441 0 0 -441zm-782 0l441 0 0 441 -441 0 0 -441zm782 -782l441 0 0 441 -441 0 0 -441zm-782 0l441 0 0 441 -441 0 0 -441zm782 -766l441 0 0 441 -441 0 0 -441zm-782 0l441 0 0 441 -441 0 0 -441zm-333 -350l1883 0 0 4943 -1883 0 0 -4943z"/>
  </g>
  <g id="_683510528">
   <path class="fil3" d="M6295 45712l441 0 0 441 -441 0 0 -441zm-782 0l441 0 0 441 -441 0 0 -441zm782 -702l441 0 0 441 -441 0 0 -441zm-782 0l441 0 0 441 -441 0 0 -441zm782 -783l441 0 0 442 -441 0 0 -442zm-782 0l441 0 0 442 -441 0 0 -442zm782 -782l441 0 0 441 -441 0 0 -441zm-782 0l441 0 0 441 -441 0 0 -441zm-333 -330l1883 0 0 4157 -1883 0 0 -4157z"/>
   <path class="fil3" d="M4008 45712l441 0 0 441 -441 0 0 -441zm-782 0l441 0 0 441 -441 0 0 -441zm782 -702l441 0 0 441 -441 0 0 -441zm-782 0l441 0 0 441 -441 0 0 -441zm782 -783l441 0 0 442 -441 0 0 -442zm-782 0l441 0 0 442 -441 0 0 -442zm782 -782l441 0 0 441 -441 0 0 -441zm-782 0l441 0 0 441 -441 0 0 -441zm782 -766l441 0 0 442 -441 0 0 -442zm-782 0l441 0 0 442 -441 0 0 -442zm-333 -349l1883 0 0 4942 -1883 0 0 -4942z"/>
  </g>
 </g>
</svg>