<svg xmlns="http://www.w3.org/2000/svg" width="120.65mm" height="603.25mm" viewBox="0 0 9956 49779"
 xmlns:xlink="http://www.w3.org/1999/xlink">
<!--by TreedBox.com.br-->
 <defs>
  <style type="text/css">
   <![CDATA[
    .fil0 {fill:none}
    .fil3 {fill:#30719E}
    .fil2 {fill:#CCCBCB}
    .fil1 {fill:white}
   ]]>
  </style>
 </defs>
 <g id="geo">
  <polygon class="fil0" points="0,0 9956,0 9956,49779 0,49779 "/>
  <path class="fil1" d="M3351 4116l1627 -722 1627 722 0 781 -1627 -722 -1627 722 0 -781zm0 943l1627 722 1627 -722 0 781 -1627 722 -1627 -722 0 -781zm1627 -199c146,0 264,53 264,118 0,65 -118,118 -264,118 -146,0 -265,-53 -265,-118 0,-65 119,-118 265,-118zm-1627 -1631l1627 -722 1627 722 0 789 -1627 -722 -1627 722 0 -789zm0 2708l1627 722 1627 -722 0 790 -1627 722 -1627 -722 0 -790z"/>
  <path class="fil2" d="M3351 24028l1627 -722 1627 722 0 780 -1627 -722 -1627 722 0 -780zm0 942l1627 722 1627 -722 0 781 -1627 722 -1627 -722 0 -781zm1627 -198c146,0 264,52 264,117 0,65 -118,118 -264,118 -146,0 -265,-53 -265,-118 0,-65 119,-117 265,-117zm-1627 -1632l1627 -722 1627 722 0 790 -1627 -722 -1627 722 0 -790zm0 2709l1627 722 1627 -722 0 789 -1627 723 -1627 -723 0 -789z"/>
  <path class="fil3" d="M3351 43939l1627 -722 1627 722 0 781 -1627 -722 -1627 722 0 -781zm0 943l1627 722 1627 -722 0 781 -1627 722 -1627 -722 0 -781zm1627 -199c146,0 264,53 264,118 0,65 -118,118 -264,118 -146,0 -265,-53 -265,-118 0,-65 119,-118 265,-118zm-1627 -1631l1627 -722 1627 722 0 789 -1627 -722 -1627 722 0 -789zm0 2708l1627 722 1627 -722 0 790 -1627 722 -1627 -722 0 -790z"/>
 </g>
</svg>