<svg xmlns="http://www.w3.org/2000/svg" xml:space="preserve" width="120.65mm" height="603.25mm" version="1.1" style="shape-rendering:geometricPrecision; text-rendering:geometricPrecision; image-rendering:optimizeQuality; fill-rule:evenodd; clip-rule:evenodd"
viewBox="0 0 9956 49779"
 xmlns:xlink="http://www.w3.org/1999/xlink">
 <!-- Created by: Treedbox, treedbox.com.br -->
 <defs>
  <style type="text/css">
   <![CDATA[
    .fil0 {fill:none}
    .fil3 {fill:#30719E}
    .fil2 {fill:#CCCBCB}
    .fil1 {fill:white}
   ]]>
  </style>
 </defs>
 <g id="geo">
  <polygon class="fil0" points="0,0 9956,0 9956,49779 0,49779 "/>
  <path class="fil1" d="M7837 3267c0,1333 -951,2449 -2224,2732l0 0 -228 765 0 1c574,43 993,159 993,334 0,176 -627,350 -1400,350 -773,0 -1400,-174 -1400,-350 0,-175 418,-291 993,-334l0 -1 -228 -765 0 0c-1273,-283 -2224,-1399 -2224,-2732l895 0c-5,-88 -7,-178 -7,-268 0,-272 882,-492 1971,-492 1089,0 1971,220 1971,492 0,90 -3,180 -7,268l895 0zm-923 312c-98,801 -397,1492 -812,1941 805,-360 1356,-1094 1356,-1941l-544 0zm-3060 1941c-415,-449 -714,-1140 -812,-1941l-544 0c0,847 551,1581 1356,1941zm1124 -2870c773,0 1400,156 1400,349 0,194 -627,350 -1400,350 -773,0 -1400,-156 -1400,-350 0,-193 627,-349 1400,-349z"/>
  <path class="fil2" d="M7837 23178c0,1334 -951,2449 -2224,2732l0 0 -228 766 0 0c574,44 993,159 993,335 0,175 -627,350 -1400,350 -773,0 -1400,-175 -1400,-350 0,-176 418,-291 993,-335l0 0 -228 -766 0 0c-1273,-283 -2224,-1398 -2224,-2732l895 0c-5,-88 -7,-177 -7,-267 0,-272 882,-493 1971,-493 1089,0 1971,221 1971,493 0,90 -3,179 -7,267l895 0zm-923 312c-98,801 -397,1492 -812,1941 805,-360 1356,-1094 1356,-1941l-544 0zm-3060 1941c-415,-449 -714,-1140 -812,-1941l-544 0c0,847 551,1581 1356,1941zm1124 -2870c773,0 1400,157 1400,350 0,193 -627,350 -1400,350 -773,0 -1400,-157 -1400,-350 0,-193 627,-350 1400,-350z"/>
  <path class="fil3" d="M7837 43090c0,1333 -951,2449 -2224,2732l0 0 -228 765 0 1c574,43 993,159 993,334 0,176 -627,350 -1400,350 -773,0 -1400,-174 -1400,-350 0,-175 418,-291 993,-334l0 -1 -228 -765 0 0c-1273,-283 -2224,-1399 -2224,-2732l895 0c-5,-88 -7,-178 -7,-268 0,-272 882,-492 1971,-492 1089,0 1971,220 1971,492 0,90 -3,180 -7,268l895 0zm-923 312c-98,801 -397,1492 -812,1941 805,-360 1356,-1094 1356,-1941l-544 0zm-3060 1941c-415,-449 -714,-1140 -812,-1941l-544 0c0,847 551,1581 1356,1941zm1124 -2870c773,0 1400,156 1400,349 0,194 -627,350 -1400,350 -773,0 -1400,-156 -1400,-350 0,-193 627,-349 1400,-349z"/>
 </g>
</svg>