<svg xmlns="http://www.w3.org/2000/svg" width="120.65mm" height="120.65mm" style="fill-rule:evenodd" viewBox="0 0 839 839">
  <!--by TreedBox.com.br-->
 <defs>
  <style type="text/css">
   <![CDATA[
    .fil0 {fill:none}
    .fil3 {fill:#FFCC29}
    .fil2 {fill:#ed3237}
    .fil4 {fill:#00a859}
    .fil5 {fill:#008cc8}
    .fil1 {fill:#2f4d8b}
   ]]>
  </style>
 </defs>
 <g id="geo">
  <polygon class="fil0" points="839,839 839,839 839,0 0,0 0,838 0,839 "/>
  <g id="_626465296">
   <path class="fil1" d="M216 217l0 274c0,112 92,203 204,203l0 0c112,0 203,-91 203,-203l0 -280 -126 0 0 280c0,43 -35,78 -77,78l0 0c-43,0 -78,-35 -78,-78l0 -346 -126 72z"/>
   <polygon class="fil2" points="216,216 342,145 342,288 "/>
   <polygon class="fil3" points="342,288 216,216 216,359 "/>
   <polygon class="fil4" points="342,430 216,359 216,501 "/>
   <polygon class="fil5" points="216,359 342,288 342,430 "/>
  </g>
 </g>
</svg>