<svg xmlns="http://www.w3.org/2000/svg" xml:space="preserve" width="120.65mm" height="603.25mm" version="1.1" style="shape-rendering:geometricPrecision; text-rendering:geometricPrecision; image-rendering:optimizeQuality; fill-rule:evenodd; clip-rule:evenodd"
viewBox="0 0 9956 49779"
 xmlns:xlink="http://www.w3.org/1999/xlink">
 <!-- Created by: Treedbox, treedbox.com.br -->
 <defs>
  <style type="text/css">
   <![CDATA[
    .fil0 {fill:none}
    .fil3 {fill:#30719E}
    .fil2 {fill:#CCCBCB}
    .fil1 {fill:white}
   ]]>
  </style>
 </defs>
 <g id="geo">
  <polygon class="fil0" points="0,0 9956,0 9956,49779 0,49779 "/>
  <path class="fil1" d="M3236 7449l3484 0 0 -3785 -1306 -1157 -2178 0 0 4942zm1742 -3568c-223,0 -403,180 -403,402 0,223 180,403 403,403 222,0 402,-180 402,-403 0,-222 -180,-402 -402,-402zm238 894l-476 0c-275,0 -500,225 -500,500l0 54 0 55 0 191 0 53 0 447 500 0 302 0 174 0c256,0 470,-196 496,-447l3 0 0 -53 0 -191 0 -109c0,-275 -225,-500 -499,-500l0 0z"/>
  <path class="fil2" d="M3236 27360l3484 0 0 -3785 -1306 -1157 -2178 0 0 4942zm1742 -3567c-223,0 -403,180 -403,402 0,222 180,402 403,402 222,0 402,-180 402,-402 0,-222 -180,-402 -402,-402zm238 894l-476 0c-275,0 -500,225 -500,499l0 55 0 55 0 190 0 54 0 446 500 0 302 0 174 0c256,0 470,-196 496,-446l3 0 0 -54 0 -190 0 -110c0,-274 -225,-499 -499,-499l0 0z"/>
  <path class="fil3" d="M3236 47272l3484 0 0 -3785 -1306 -1157 -2178 0 0 4942zm1742 -3568c-223,0 -403,180 -403,402 0,223 180,403 403,403 222,0 402,-180 402,-403 0,-222 -180,-402 -402,-402zm238 894l-476 0c-275,0 -500,225 -500,500l0 54 0 56 0 190 0 53 0 447 500 0 302 0 174 0c256,0 470,-196 496,-447l3 0 0 -53 0 -190 0 -110c0,-275 -225,-500 -499,-500l0 0z"/>
 </g>
</svg>