<svg xmlns="http://www.w3.org/2000/svg" xml:space="preserve" width="120.65mm" height="603.25mm" version="1.1" style="shape-rendering:geometricPrecision; text-rendering:geometricPrecision; image-rendering:optimizeQuality; fill-rule:evenodd; clip-rule:evenodd"
viewBox="0 0 9956 49779"
 xmlns:xlink="http://www.w3.org/1999/xlink">
 <!-- Created by: Treedbox, treedbox.com.br -->
 <defs>
  <style type="text/css">
   <![CDATA[
    .fil0 {fill:none}
    .fil1 {fill:#fff}
    .fil2 {fill:#ccc}
    .fil3 {fill:#30719E}
   ]]>
  </style>
 </defs>
 <g id="geo">
<rect class="fil0" width="9956" height="49779"/>
  <path class="fil1" d="M2682 2858l848 0 0 -12c0,-186 153,-339 340,-339l0 0c186,0 339,153 339,339l0 12 1538 0 0 -12c0,-186 152,-339 339,-339l0 0c187,0 340,153 340,339l0 12 847 0 0 4591 -4591 0 0 -4591zm3742 422c-18,170 -163,304 -338,304l0 0c-175,0 -320,-134 -338,-304l-1541 0c-17,170 -163,304 -337,304l0 0c-175,0 -321,-134 -338,-304l-428 0 0 3747 3748 0 0 -3747 -428 0zm-515 2401l632 0 0 632 -632 0 0 -632zm-515 0l0 0c174,0 316,142 316,316l0 0c0,174 -142,316 -316,316l0 0c-174,0 -317,-142 -317,-316l0 0c0,-174 143,-316 317,-316zm-1148 0l632 0 0 632 -632 0 0 -632zm-832 0l633 0 0 632 -633 0 0 -632zm2495 -844l632 0 0 633 -632 0 0 -633zm-832 0l633 0 0 633 -633 0 0 -633zm-831 0l632 0 0 633 -632 0 0 -633zm-832 0l633 0 0 633 -633 0 0 -633zm2495 -843l632 0 0 633 -632 0 0 -633zm-832 0l633 0 0 633 -633 0 0 -633zm-831 0l632 0 0 633 -632 0 0 -633zm-832 0l633 0 0 633 -633 0 0 -633z"/>
  <path class="fil2" d="M2682 22770l848 0 0 -12c0,-187 153,-340 340,-340l0 0c186,0 339,153 339,340l0 12 1538 0 0 -12c0,-187 152,-340 339,-340l0 0c187,0 340,153 340,340l0 12 847 0 0 4591 -4591 0 0 -4591zm3742 421c-18,171 -163,305 -338,305l0 0c-175,0 -320,-134 -338,-305l-1541 0c-17,171 -163,305 -337,305l0 0c-175,0 -321,-134 -338,-305l-428 0 0 3748 3748 0 0 -3748 -428 0zm-515 2401l632 0 0 632 -632 0 0 -632zm-515 0l0 0c174,0 316,142 316,316l0 0c0,174 -142,316 -316,316l0 0c-174,0 -317,-142 -317,-316l0 0c0,-174 143,-316 317,-316zm-1148 0l632 0 0 632 -632 0 0 -632zm-832 0l633 0 0 632 -633 0 0 -632zm2495 -843l632 0 0 632 -632 0 0 -632zm-832 0l633 0 0 632 -633 0 0 -632zm-831 0l632 0 0 632 -632 0 0 -632zm-832 0l633 0 0 632 -633 0 0 -632zm2495 -843l632 0 0 632 -632 0 0 -632zm-832 0l633 0 0 632 -633 0 0 -632zm-831 0l632 0 0 632 -632 0 0 -632zm-832 0l633 0 0 632 -633 0 0 -632z"/>
  <path class="fil3" d="M2682 42681l848 0 0 -12c0,-187 153,-339 340,-339l0 0c186,0 339,152 339,339l0 12 1538 0 0 -12c0,-187 152,-339 339,-339l0 0c187,0 340,152 340,339l0 12 847 0 0 4591 -4591 0 0 -4591zm3742 422c-18,170 -163,304 -338,304l0 0c-175,0 -320,-134 -338,-304l-1541 0c-17,170 -163,304 -337,304l0 0c-175,0 -321,-134 -338,-304l-428 0 0 3747 3748 0 0 -3747 -428 0zm-515 2401l632 0 0 632 -632 0 0 -632zm-515 0l0 0c174,0 316,142 316,316l0 0c0,174 -142,316 -316,316l0 0c-174,0 -317,-142 -317,-316l0 0c0,-174 143,-316 317,-316zm-1148 0l632 0 0 632 -632 0 0 -632zm-832 0l633 0 0 632 -633 0 0 -632zm2495 -844l632 0 0 633 -632 0 0 -633zm-832 0l633 0 0 633 -633 0 0 -633zm-831 0l632 0 0 633 -632 0 0 -633zm-832 0l633 0 0 633 -633 0 0 -633zm2495 -843l632 0 0 632 -632 0 0 -632zm-832 0l633 0 0 632 -633 0 0 -632zm-831 0l632 0 0 632 -632 0 0 -632zm-832 0l633 0 0 632 -633 0 0 -632z"/>
 </g>
</svg>