<svg xmlns="http://www.w3.org/2000/svg" width="120.65mm" height="603.25mm" style="fill-rule:evenodd" viewBox="0 0 9956 49779">
<!--by TreedBox.com.br-->
 <defs>
  <style type="text/css">
   <![CDATA[
    .fil0 {fill:none}
    .fil3 {fill:#30719E}
    .fil2 {fill:#CCC}
    .fil1 {fill:#fff}
   ]]>
  </style>
 </defs>
 <g id="geo">
<rect class="fil0" width="9956" height="49779"/>
  <g id="_704469168">
   <g id="_648088192">
    <path class="fil1" d="M2942 6576c-143,161 -285,321 -428,481 -47,-683 -94,-1366 -142,-2048 785,363 1571,467 2360,320 -285,220 -571,439 -856,658 876,1226 2025,1309 3448,250 -1530,1699 -2973,1420 -4382,339l0 0z"/>
    <path class="fil1" d="M7014 3380c143,-160 285,-321 427,-481 48,683 95,1366 143,2048 -785,-363 -1571,-467 -2360,-321 285,-219 571,-438 856,-657 -876,-1226 -2025,-1310 -3448,-250 1530,-1699 2973,-1420 4382,-339l0 0z"/>
   </g>
  </g>
  <g id="_704469904">
   <g id="_648088192_0">
    <path class="fil2" d="M2942 26488c-143,160 -285,320 -428,480 -47,-683 -94,-1365 -142,-2048 785,363 1571,467 2360,321 -285,219 -571,438 -856,657 876,1227 2025,1310 3448,250 -1530,1700 -2973,1420 -4382,340l0 0z"/>
    <path class="fil2" d="M7014 23291c143,-160 285,-320 427,-480 48,683 95,1365 143,2048 -785,-364 -1571,-467 -2360,-321 285,-219 571,-438 856,-657 -876,-1227 -2025,-1310 -3448,-251 1530,-1699 2973,-1419 4382,-339l0 0z"/>
   </g>
  </g>
  <g id="_704476528">
   <g id="_648088192_1">
    <path class="fil3" d="M2942 46399c-143,161 -285,321 -428,481 -47,-683 -94,-1366 -142,-2048 785,363 1571,467 2360,320 -285,220 -571,439 -856,658 876,1226 2025,1309 3448,250 -1530,1699 -2973,1420 -4382,339l0 0z"/>
    <path class="fil3" d="M7014 43203c143,-161 285,-321 427,-481 48,683 95,1366 143,2048 -785,-363 -1571,-467 -2360,-321 285,-219 571,-438 856,-657 -876,-1226 -2025,-1310 -3448,-250 1530,-1699 2973,-1420 4382,-339l0 0z"/>
   </g>
  </g>
 </g>
</svg>