<svg xmlns="http://www.w3.org/2000/svg" xml:space="preserve" width="120.65mm" height="603.25mm" version="1.1" style="shape-rendering:geometricPrecision; text-rendering:geometricPrecision; image-rendering:optimizeQuality; fill-rule:evenodd; clip-rule:evenodd" viewBox="0 0 9956 49779" xmlns:xlink="http://www.w3.org/1999/xlink">
 <!-- Created by: Treedbox, treedbox.com.br -->
 <defs>
  <style type="text/css">
   <![CDATA[
    .fil0 {fill:none}
    .fil1 {fill:#fff}
    .fil2 {fill:#ccc}
    .fil3 {fill:#30719E}
    .fil4 {fill:#fff}
   ]]>
  </style>
 </defs>
 <g id="geo">
<rect class="fil0" width="9956" height="49779"/>
  <g id="_1226592560">
   <path class="fil1" d="M3938 2733c273,-127 573,-206 889,-225l0 619c-213,17 -415,70 -602,153l-287 -547z"/>
   <path class="fil1" d="M3016 3472c187,-244 418,-451 681,-611l288 548c-176,112 -332,252 -461,415l-508 -352z"/>
   <path class="fil1" d="M2536 4584c52,-321 164,-621 326,-887l509 352c-106,183 -182,386 -220,603l-615 -68z"/>
   <path class="fil1" d="M2625 5738c-78,-240 -120,-496 -120,-762 0,-41 1,-81 3,-122l615 69c0,17 0,35 0,53 0,189 28,371 80,543l-578 219z"/>
   <path class="fil1" d="M3219 6714c-206,-208 -375,-452 -496,-722l579 -219c85,179 199,343 335,485l-418 456z"/>
   <path class="fil1" d="M4240 7337c-302,-94 -580,-245 -820,-440l419 -456c165,129 353,230 556,297l-155 599z"/>
   <path class="fil1" d="M5410 7411c-141,25 -285,38 -432,38 -162,0 -320,-16 -474,-45l156 -600c103,18 209,28 318,28 100,0 198,-8 294,-24l138 603z"/>
   <path class="fil1" d="M6465 6952c-234,177 -501,313 -790,397l-138 -603c193,-61 372,-153 532,-269l396 475z"/>
   <path class="fil1" d="M7230 5998c-134,295 -324,559 -557,778l-396 -475c155,-153 284,-332 378,-530l575 227z"/>
   <path class="fil1" d="M7448 4857c2,39 3,79 3,119 0,269 -43,527 -122,768l-576 -227c52,-171 80,-353 80,-541 0,-19 0,-39 -1,-59l616 -60z"/>
   <path class="fil1" d="M7113 3728c152,260 258,549 307,858l-616 60c-37,-207 -109,-402 -209,-580l518 -338z"/>
   <path class="fil1" d="M6261 2862c273,166 511,384 701,639l-518 339c-133,-171 -294,-318 -478,-434l295 -544z"/>
   <path class="fil1" d="M5100 2507c328,16 639,95 921,227l-295 544c-194,-85 -405,-138 -626,-153l0 -618z"/>
  </g>
  <g id="_1226582320">
   <path class="fil2" d="M3938 22644c273,-127 573,-205 889,-224l0 619c-213,17 -415,70 -602,153l-287 -548z"/>
   <path class="fil2" d="M3016 23383c187,-243 418,-451 681,-611l288 549c-176,111 -332,252 -461,414l-508 -352z"/>
   <path class="fil2" d="M2536 24495c52,-320 164,-620 326,-887l509 352c-106,184 -182,387 -220,603l-615 -68z"/>
   <path class="fil2" d="M2625 25649c-78,-240 -120,-495 -120,-761 0,-41 1,-82 3,-122l615 68c0,18 0,36 0,54 0,189 28,371 80,542l-578 219z"/>
   <path class="fil2" d="M3219 26625c-206,-208 -375,-452 -496,-722l579 -219c85,180 199,343 335,486l-418 455z"/>
   <path class="fil2" d="M4240 27249c-302,-95 -580,-246 -820,-441l419 -456c165,129 353,231 556,298l-155 599z"/>
   <path class="fil2" d="M5410 27323c-141,25 -285,38 -432,38 -162,0 -320,-16 -474,-46l156 -599c103,18 209,27 318,27 100,0 198,-8 294,-23l138 603z"/>
   <path class="fil2" d="M6465 26863c-234,177 -501,313 -790,398l-138 -604c193,-61 372,-152 532,-269l396 475z"/>
   <path class="fil2" d="M7230 25910c-134,295 -324,558 -557,778l-396 -476c155,-152 284,-331 378,-530l575 228z"/>
   <path class="fil2" d="M7448 24768c2,40 3,80 3,120 0,268 -43,526 -122,768l-576 -228c52,-171 80,-352 80,-540 0,-20 0,-40 -1,-59l616 -61z"/>
   <path class="fil2" d="M7113 23640c152,259 258,549 307,857l-616 61c-37,-208 -109,-403 -209,-580l518 -338z"/>
   <path class="fil2" d="M6261 22774c273,166 511,383 701,639l-518 338c-133,-171 -294,-318 -478,-433l295 -544z"/>
   <path class="fil2" d="M5100 22418c328,16 639,96 921,227l-295 545c-194,-86 -405,-139 -626,-153l0 -619z"/>
  </g>
  <g id="_1226550192">
   <path class="fil3" d="M3938 42556c273,-127 573,-206 889,-225l0 619c-213,17 -415,70 -602,153l-287 -547z"/>
   <path class="fil3" d="M3016 43295c187,-244 418,-451 681,-611l288 548c-176,112 -332,252 -461,415l-508 -352z"/>
   <path class="fil3" d="M2536 44407c52,-321 164,-621 326,-887l509 352c-106,183 -182,386 -220,603l-615 -68z"/>
   <path class="fil3" d="M2625 45561c-78,-240 -120,-496 -120,-762 0,-41 1,-81 3,-122l615 69c0,17 0,35 0,53 0,189 28,371 80,543l-578 219z"/>
   <path class="fil3" d="M3219 46537c-206,-208 -375,-452 -496,-722l579 -219c85,179 199,343 335,485l-418 456z"/>
   <path class="fil3" d="M4240 47160c-302,-94 -580,-245 -820,-440l419 -456c165,129 353,230 556,297l-155 599z"/>
   <path class="fil3" d="M5410 47234c-141,25 -285,38 -432,38 -162,0 -320,-16 -474,-45l156 -600c103,18 209,28 318,28 100,0 198,-8 294,-24l138 603z"/>
   <path class="fil3" d="M6465 46775c-234,177 -501,313 -790,397l-138 -603c193,-61 372,-153 532,-269l396 475z"/>
   <path class="fil3" d="M7230 45821c-134,295 -324,559 -557,778l-396 -475c155,-153 284,-332 378,-530l575 227z"/>
   <path class="fil3" d="M7448 44680c2,39 3,79 3,119 0,269 -43,527 -122,768l-576 -227c52,-171 80,-353 80,-541 0,-19 0,-39 -1,-59l616 -60z"/>
   <path class="fil3" d="M7113 43551c152,260 258,549 307,858l-616 60c-37,-207 -109,-402 -209,-580l518 -338z"/>
   <path class="fil3" d="M6261 42685c273,166 511,384 701,639l-518 339c-133,-171 -294,-318 -478,-434l295 -544z"/>
   <path class="fil3" d="M5100 42330c328,16 639,95 921,227l-295 544c-194,-85 -405,-138 -626,-153l0 -618z"/>
  </g>
 </g>
</svg>