<svg xmlns="http://www.w3.org/2000/svg" width="120.65mm" height="603.25mm" style="fill-rule:evenodd" viewBox="0 0 9956 49779">
<!--by TreedBox.com.br-->
 <defs>
  <style type="text/css">
   <![CDATA[
    .fil0 {fill:none}
    .fil3 {fill:#30719E}
    .fil2 {fill:#CCCBCB}
    .fil1 {fill:white}
   ]]>
  </style>
 </defs>
 <g id="geo">
  <polygon class="fil0" points="0,0 9956,0 9956,49779 0,49779 "/>
  <g id="_76694000">
   <polygon class="fil1" points="2070,5872 2191,5791 4681,7295 7777,4395 7885,4448 4681,7449 "/>
   <path class="fil1" d="M2070 4990l3654 -2483 2161 1059 -3204 3001 -2611 -1577zm2577 -989c-33,-23 -67,-46 -100,-69 48,-31 95,-62 142,-93 33,22 65,43 98,65 85,-48 167,-78 247,-92 80,-14 160,-12 239,7 -26,31 -51,63 -77,94 -26,33 -53,66 -80,99 -77,-18 -151,-2 -223,48 -62,43 -77,77 -43,100 12,8 28,11 47,10 20,-2 57,-17 114,-44 63,-32 118,-58 165,-80 46,-21 84,-37 115,-48 60,-21 125,-30 193,-27 69,3 132,21 189,55 81,48 122,111 123,190 1,41 -10,83 -32,126 -22,44 -56,89 -102,137 44,29 88,58 133,87 -47,41 -96,82 -145,124 -45,-31 -89,-61 -134,-92 -104,70 -212,113 -321,128 -109,15 -217,2 -322,-39 40,-43 81,-86 121,-128 39,-41 78,-82 116,-123 96,33 190,13 282,-59 70,-55 86,-95 50,-119 -20,-12 -43,-16 -70,-10 -26,5 -65,21 -114,48 -99,52 -186,93 -260,120 -74,28 -135,42 -182,42 -94,1 -170,-20 -227,-63 -62,-47 -90,-106 -85,-177 3,-34 17,-70 41,-106 24,-36 58,-73 102,-111z"/>
   <polygon class="fil1" points="2070,5592 2191,5510 4681,7014 7777,4114 7885,4168 4681,7168 "/>
   <polygon class="fil1" points="2070,5311 2191,5229 4681,6733 7777,3834 7885,3887 4681,6887 "/>
  </g>
  <g id="_586360896">
   <polygon class="fil2" points="2070,25784 2191,25702 4681,27206 7777,24307 7885,24360 4681,27361 "/>
   <path class="fil2" d="M2070 24902l3654 -2484 2161 1060 -3204 3000 -2611 -1576zm2577 -989c-33,-24 -67,-46 -100,-69 48,-32 95,-63 142,-93 33,21 65,43 98,64 85,-47 167,-78 247,-92 80,-14 160,-11 239,7 -26,31 -51,63 -77,95 -26,32 -53,65 -80,98 -77,-18 -151,-2 -223,49 -62,43 -77,76 -43,99 12,9 28,12 47,10 20,-1 57,-16 114,-44 63,-32 118,-58 165,-79 46,-21 84,-37 115,-48 60,-22 125,-31 193,-28 69,3 132,22 189,55 81,49 122,112 123,191 1,40 -10,82 -32,125 -22,44 -56,90 -102,137 44,29 88,58 133,88 -47,41 -96,82 -145,124 -45,-31 -89,-62 -134,-92 -104,70 -212,112 -321,127 -109,15 -217,2 -322,-38 40,-44 81,-86 121,-128 39,-42 78,-83 116,-123 96,32 190,12 282,-60 70,-55 86,-94 50,-118 -20,-13 -43,-16 -70,-11 -26,6 -65,22 -114,48 -99,53 -186,93 -260,120 -74,28 -135,42 -182,43 -94,1 -170,-20 -227,-64 -62,-47 -90,-106 -85,-176 3,-35 17,-70 41,-107 24,-35 58,-72 102,-110z"/>
   <polygon class="fil2" points="2070,25503 2191,25421 4681,26925 7777,24026 7885,24079 4681,27080 "/>
   <polygon class="fil2" points="2070,25222 2191,25140 4681,26644 7777,23745 7885,23798 4681,26799 "/>
  </g>
  <g id="_657173504">
   <polygon class="fil3" points="2070,45695 2191,45614 4681,47118 7777,44218 7885,44271 4681,47272 "/>
   <path class="fil3" d="M2070 44813l3654 -2483 2161 1059 -3204 3001 -2611 -1577zm2577 -989c-33,-23 -67,-46 -100,-69 48,-31 95,-62 142,-93 33,22 65,43 98,65 85,-48 167,-78 247,-92 80,-14 160,-12 239,7 -26,31 -51,63 -77,94 -26,33 -53,66 -80,99 -77,-18 -151,-2 -223,48 -62,43 -77,77 -43,100 12,8 28,11 47,10 20,-2 57,-17 114,-45 63,-31 118,-57 165,-79 46,-21 84,-37 115,-48 60,-21 125,-30 193,-27 69,3 132,21 189,55 81,48 122,111 123,190 1,41 -10,83 -32,126 -22,44 -56,89 -102,137 44,29 88,58 133,87 -47,41 -96,82 -145,124 -45,-31 -89,-61 -134,-92 -104,70 -212,113 -321,128 -109,15 -217,2 -322,-39 40,-43 81,-86 121,-128 39,-41 78,-82 116,-123 96,33 190,13 282,-59 70,-55 86,-95 50,-119 -20,-12 -43,-16 -70,-10 -26,5 -65,21 -114,48 -99,52 -186,93 -260,120 -74,28 -135,42 -182,42 -94,1 -170,-20 -227,-63 -62,-47 -90,-106 -85,-177 3,-34 17,-70 41,-106 24,-36 58,-73 102,-111z"/>
   <polygon class="fil3" points="2070,45415 2191,45333 4681,46837 7777,43937 7885,43991 4681,46991 "/>
   <polygon class="fil3" points="2070,45134 2191,45052 4681,46556 7777,43657 7885,43710 4681,46710 "/>
  </g>
 </g>
</svg>