<svg xmlns="http://www.w3.org/2000/svg" width="120.65mm" height="603.25mm" style="fill-rule:evenodd" viewBox="0 0 9956 49779">
<!--by TreedBox.com.br-->
 <defs>
  <style type="text/css">
   <![CDATA[
    .fil0 {fill:none}
    .fil3 {fill:#30719E}
    .fil2 {fill:#CCCBCB}
    .fil1 {fill:white}
   ]]>
  </style>
 </defs>
 <g id="geo">
  <polygon class="fil0" points="0,0 9956,0 9956,49779 0,49779 "/>
  <path class="fil1" d="M6048 3542l978 979 -1070 1069 -978 979 -979 -979 -1069 -1069 978 -979 378 378 0 -1413 1384 0 0 1413 378 -378zm-2584 3907l0 -692 3027 0 0 692 -3027 0z"/>
  <path class="fil2" d="M6048 23453l978 979 -1070 1070 -978 978 -979 -978 -1069 -1070 978 -979 378 378 0 -1413 1384 0 0 1413 378 -378zm-2584 3908l0 -692 3027 0 0 692 -3027 0z"/>
  <path class="fil3" d="M6048 43365l978 979 -1070 1069 -978 979 -979 -979 -1069 -1069 978 -979 378 378 0 -1413 1384 0 0 1413 378 -378zm-2584 3907l0 -692 3027 0 0 692 -3027 0z"/>
 </g>
</svg>