<svg xmlns="http://www.w3.org/2000/svg" width="120.65mm" height="603.25mm" style="fill-rule:evenodd" viewBox="0 0 9956 49779">
 <!--by TreedBox.com.br-->
 <defs>
  <style type="text/css">
   <![CDATA[
    .fil0 {fill:none}
    .fil3 {fill:#30719E}
    .fil2 {fill:#CCCBCB}
    .fil1 {fill:white}
   ]]>
  </style>
 </defs>
 <g id="geo">
  <polygon class="fil0" points="0,0 9956,0 9956,49779 0,49779 "/>
  <g id="_516130494912">
   <polygon class="fil1" points="3044,2507 7412,2507 7412,7449 3044,7449 3044,6340 3869,6340 3869,6624 6587,6624 6587,3332 3869,3332 3869,3616 3044,3616 "/>
   <polygon class="fil1" points="2544,5641 4052,5641 4052,6305 5561,4978 4052,3651 4052,4314 2544,4314 "/>
  </g>
  <g id="_516130497408">
   <polygon class="fil2" points="3044,22418 7412,22418 7412,27361 3044,27361 3044,26251 3869,26251 3869,26535 6587,26535 6587,23243 3869,23243 3869,23528 3044,23528 "/>
   <polygon class="fil2" points="2544,25553 4052,25553 4052,26216 5561,24889 4052,23562 4052,24226 2544,24226 "/>
  </g>
  <g id="_516130497856">
   <polygon class="fil3" points="3044,42330 7412,42330 7412,47272 3044,47272 3044,46163 3869,46163 3869,46447 6587,46447 6587,43155 3869,43155 3869,43439 3044,43439 "/>
   <polygon class="fil3" points="2544,45464 4052,45464 4052,46128 5561,44801 4052,43474 4052,44137 2544,44137 "/>
  </g>
 </g>
</svg>