<svg xmlns="http://www.w3.org/2000/svg" width="120.65mm" height="603.25mm" style="fill-rule:evenodd" viewBox="0 0 9956 49779">
<!--by TreedBox.com.br-->
 <defs>
  <style type="text/css">
   <![CDATA[
    .fil0 {fill:none}
    .fil3 {fill:#30719E}
    .fil2 {fill:#CCCBCB}
    .fil1 {fill:white}
   ]]>
  </style>
 </defs>
 <g id="geo">
  <polygon class="fil0" points="0,0 9956,0 9956,49779 0,49779 "/>
  <path class="fil1" d="M3965 2690l0 929 0 1008 0 1008 0 965c-133,-11 -269,-14 -409,-12 -195,2 -396,17 -604,41l0 -856 0 -1011 0 -1011 0 -979c-280,40 -587,94 -920,162l0 927 920 -110 1013 -132 1013 253 0 -898c-20,-12 -41,-24 -61,-36 -387,-230 -512,-249 -952,-248zm1013 1182l1012 442 0 1022 0 1022 0 859c-343,-65 -680,-195 -1012,-373l0 -947 0 -1013 0 -1012zm1012 442l0 -941c181,37 360,56 538,57 159,0 318,-15 475,-45l0 909 -1013 20zm1013 -20l920 -384 0 1013 -920 391 0 -1020zm-1013 1042l1013 -22 0 1020 -1013 24 -1012 -461 -1013 -262 -1013 138 -920 112 0 -1012 920 -111 1013 -135 1013 257 1012 452zm1013 998l920 -398 0 920c-315,181 -622,297 -920,358l0 -880zm-475 -3088c626,1 1073,-222 1579,-558l0 4273c-536,317 -1075,507 -1704,487 -530,-17 -1039,-186 -1537,-456 -383,-162 -823,-228 -1308,-221 -583,8 -1145,118 -1710,254l0 -4240c668,-140 1396,-275 2080,-278 526,-2 894,89 1092,280 516,305 1019,459 1508,459z"/>
  <path class="fil2" d="M3965 22601l0 929 0 1008 0 1008 0 965c-133,-10 -269,-14 -409,-12 -195,3 -396,17 -604,42l0 -857 0 -1011 0 -1010 0 -980c-280,40 -587,94 -920,162l0 927 920 -109 1013 -133 1013 253 0 -898c-20,-12 -41,-23 -61,-36 -387,-230 -512,-249 -952,-248zm1013 1182l1012 443 0 1021 0 1022 0 860c-343,-66 -680,-196 -1012,-374l0 -947 0 -1012 0 -1013zm1012 443l0 -942c181,38 360,57 538,57 159,0 318,-15 475,-45l0 909 -1013 21zm1013 -21l920 -384 0 1014 -920 390 0 -1020zm-1013 1042l1013 -22 0 1020 -1013 24 -1012 -461 -1013 -262 -1013 138 -920 113 0 -1013 920 -111 1013 -135 1013 258 1012 451zm1013 998l920 -397 0 920c-315,180 -622,296 -920,357l0 -880zm-475 -3087c626,1 1073,-223 1579,-558l0 4273c-536,316 -1075,506 -1704,486 -530,-17 -1039,-186 -1537,-456 -383,-161 -823,-228 -1308,-221 -583,9 -1145,119 -1710,255l0 -4241c668,-139 1396,-275 2080,-278 526,-2 894,89 1092,280 516,305 1019,459 1508,460z"/>
  <path class="fil3" d="M3965 42513l0 929 0 1008 0 1008 0 965c-133,-11 -269,-14 -409,-12 -195,2 -396,17 -604,41l0 -856 0 -1011 0 -1011 0 -979c-280,40 -587,94 -920,162l0 927 920 -110 1013 -132 1013 253 0 -898c-20,-12 -41,-24 -61,-36 -387,-230 -512,-249 -952,-248zm1013 1182l1012 442 0 1022 0 1022 0 859c-343,-65 -680,-195 -1012,-373l0 -947 0 -1013 0 -1012zm1012 442l0 -941c181,37 360,56 538,57 159,0 318,-15 475,-45l0 909 -1013 20zm1013 -20l920 -384 0 1013 -920 391 0 -1020zm-1013 1042l1013 -22 0 1020 -1013 24 -1012 -461 -1013 -262 -1013 138 -920 112 0 -1012 920 -111 1013 -135 1013 257 1012 452zm1013 998l920 -398 0 920c-315,181 -622,297 -920,358l0 -880zm-475 -3088c626,1 1073,-222 1579,-558l0 4273c-536,317 -1075,507 -1704,487 -530,-17 -1039,-186 -1537,-456 -383,-162 -823,-228 -1308,-221 -583,8 -1145,118 -1710,254l0 -4240c668,-140 1396,-275 2080,-278 526,-2 894,89 1092,280 516,305 1019,459 1508,459z"/>
 </g>
</svg>