<svg xmlns="http://www.w3.org/2000/svg" xml:space="preserve" width="120.65mm" height="603.25mm" version="1.1" style="shape-rendering:geometricPrecision; text-rendering:geometricPrecision; image-rendering:optimizeQuality; fill-rule:evenodd; clip-rule:evenodd"
viewBox="0 0 9956 49779"
 xmlns:xlink="http://www.w3.org/1999/xlink">
 <!-- Created by: Treedbox, treedbox.com.br -->
 <defs>
  <style type="text/css">
   <![CDATA[
    .fil0 {fill:none}
    .fil3 {fill:#30719E}
    .fil1 {fill:#fff}
    .fil2 {fill:#ccc}
   ]]>
  </style>
 </defs>
 <g id="geo">
<rect class="fil0" width="9956" height="49779"/>
  <g id="_736421968">
   <path class="fil1" d="M2324 2507l5308 0c149,0 271,122 271,272l0 2935c0,149 -122,272 -271,272l-538 0 0 -1521c0,-149 -122,-272 -272,-272l-3688 0c-150,0 -272,123 -272,272l0 1521 -538 0c-149,0 -272,-123 -272,-272l0 -2935c0,-150 123,-272 272,-272zm4775 566c153,0 277,124 277,277 0,153 -124,277 -277,277 -153,0 -277,-124 -277,-277 0,-153 124,-277 277,-277z"/>
   <path class="fil1" d="M3370 4417l3215 0c131,0 237,107 237,237l0 2558c0,130 -106,237 -237,237l-3215 0c-130,0 -236,-107 -236,-237l0 -2558c0,-130 106,-237 236,-237z"/>
  </g>
  <g id="_735396960">
   <path class="fil2" d="M2324 22418l5308 0c149,0 271,123 271,272l0 2935c0,150 -122,272 -271,272l-538 0 0 -1520c0,-150 -122,-272 -272,-272l-3688 0c-150,0 -272,122 -272,272l0 1520 -538 0c-149,0 -272,-122 -272,-272l0 -2935c0,-149 123,-272 272,-272zm4775 567c153,0 277,124 277,277 0,153 -124,277 -277,277 -153,0 -277,-124 -277,-277 0,-153 124,-277 277,-277z"/>
   <path class="fil2" d="M3370 24328l3215 0c131,0 237,107 237,237l0 2559c0,130 -106,237 -237,237l-3215 0c-130,0 -236,-107 -236,-237l0 -2559c0,-130 106,-237 236,-237z"/>
  </g>
  <g id="_737659152">
   <path class="fil3" d="M2324 42330l5308 0c149,0 271,122 271,272l0 2935c0,149 -122,272 -271,272l-538 0 0 -1521c0,-149 -122,-272 -272,-272l-3688 0c-150,0 -272,123 -272,272l0 1521 -538 0c-149,0 -272,-123 -272,-272l0 -2935c0,-150 123,-272 272,-272zm4775 566c153,0 277,124 277,277 0,153 -124,277 -277,277 -153,0 -277,-124 -277,-277 0,-153 124,-277 277,-277z"/>
   <path class="fil3" d="M3370 44240l3215 0c131,0 237,107 237,237l0 2558c0,130 -106,237 -237,237l-3215 0c-130,0 -236,-107 -236,-237l0 -2558c0,-130 106,-237 236,-237z"/>
  </g>
 </g>
</svg>