<svg xmlns="http://www.w3.org/2000/svg" width="120.65mm" height="603.25mm" style="fill-rule:evenodd" viewBox="0 0 9956 49779">
<!--by TreedBox.com.br-->
 <defs>
  <style type="text/css">
   <![CDATA[
    .fil0 {fill:none}
    .fil3 {fill:#30719E}
    .fil2 {fill:#CCCBCB}
    .fil1 {fill:white}
   ]]>
  </style>
 </defs>
 <g id="geo">
  <polygon class="fil0" points="0,0 9956,0 9956,49779 0,49779 "/>
  <g id="_667769056">
   <path class="fil1" d="M6662 4188l0 2746c0,283 -232,515 -515,515l-2338 0c-283,0 -515,-232 -515,-515l0 -2746 3368 0z"/>
   <path class="fil1" d="M3090 4006l3776 0 -102 -963 -1033 0 -90 -536 -1326 0 -90 536 -1033 0 -102 963zm2435 -963l-1094 0 60 -332 973 0 61 332z"/>
  </g>
  <g id="_667768576">
   <path class="fil2" d="M6662 24100l0 2746c0,283 -232,515 -515,515l-2338 0c-283,0 -515,-232 -515,-515l0 -2746 3368 0z"/>
   <path class="fil2" d="M3090 23918l3776 0 -102 -964 -1033 0 -90 -536 -1326 0 -90 536 -1033 0 -102 964zm2435 -964l-1094 0 60 -332 973 0 61 332z"/>
  </g>
  <g id="_667755488">
   <path class="fil3" d="M6662 44011l0 2746c0,283 -232,515 -515,515l-2338 0c-283,0 -515,-232 -515,-515l0 -2746 3368 0z"/>
   <path class="fil3" d="M3090 43829l3776 0 -102 -963 -1033 0 -90 -536 -1326 0 -90 536 -1033 0 -102 963zm2435 -963l-1094 0 60 -332 973 0 61 332z"/>
  </g>
 </g>
</svg>