<svg xmlns="http://www.w3.org/2000/svg" xml:space="preserve" width="120.65mm" height="603.25mm" version="1.1" style="shape-rendering:geometricPrecision; text-rendering:geometricPrecision; image-rendering:optimizeQuality; fill-rule:evenodd; clip-rule:evenodd"
viewBox="0 0 9956 49779"
 xmlns:xlink="http://www.w3.org/1999/xlink">
 <!-- Created by: Treedbox.com - treedbox@gmail.com -->
 <defs>
  <style type="text/css">
   <![CDATA[
    .fil0 {fill:none}
    .fil3 {fill:#30719E}
    .fil2 {fill:#ccc}
    .fil1 {fill:#fff}
   ]]>
  </style>
 </defs>
 <g id="geo">
<rect class="fil0" width="9956" height="49779"/>
  <polygon class="fil1" points="4397,2073 5559,2073 5559,4397 7882,4397 7882,5559 5559,5559 5559,7882 4397,7882 4397,5559 2073,5559 2073,4397 4397,4397 "/>
  <polygon class="fil2" points="4397,21985 5559,21985 5559,24308 7882,24308 7882,25470 5559,25470 5559,27794 4397,27794 4397,25470 2073,25470 2073,24308 4397,24308 "/>
  <polygon class="fil3" points="4397,41896 5559,41896 5559,44220 7882,44220 7882,45382 5559,45382 5559,47705 4397,47705 4397,45382 2073,45382 2073,44220 4397,44220 "/>
 </g>
</svg>
