<svg xmlns="http://www.w3.org/2000/svg" xml:space="preserve" width="120.65mm" height="603.25mm" version="1.1" style="shape-rendering:geometricPrecision; text-rendering:geometricPrecision; image-rendering:optimizeQuality; fill-rule:evenodd; clip-rule:evenodd"
viewBox="0 0 9956 49779"
 xmlns:xlink="http://www.w3.org/1999/xlink">
 <!-- Created by: Treedbox, treedbox.com.br -->
 <defs>
  <style type="text/css">
   <![CDATA[
    .fil0 {fill:none}
    .fil3 {fill:#30719E}
    .fil2 {fill:#CCCBCB}
    .fil1 {fill:white}
   ]]>
  </style>
 </defs>
 <g id="geo">
  <polygon class="fil0" points="0,0 9956,0 9956,49779 0,49779 "/>
  <path class="fil1" d="M8539 4796c-2374,-1873 -4748,-2010 -7122,0 2374,2435 4748,2419 7122,0zm-3561 -1047c678,0 1228,550 1228,1229 0,678 -550,1228 -1228,1228 -679,0 -1229,-550 -1229,-1228 0,-679 550,-1229 1229,-1229zm0 605c344,0 623,279 623,624 0,344 -279,623 -623,623 -345,0 -624,-279 -624,-623 0,-345 279,-624 624,-624z"/>
  <path class="fil2" d="M8539 24708c-2374,-1874 -4748,-2010 -7122,0 2374,2434 4748,2419 7122,0zm-3561 -1047c678,0 1228,550 1228,1228 0,679 -550,1229 -1228,1229 -679,0 -1229,-550 -1229,-1229 0,-678 550,-1228 1229,-1228zm0 605c344,0 623,279 623,623 0,345 -279,624 -623,624 -345,0 -624,-279 -624,-624 0,-344 279,-623 624,-623z"/>
  <path class="fil3" d="M8539 44619c-2374,-1873 -4748,-2010 -7122,0 2374,2435 4748,2419 7122,0zm-3561 -1047c678,0 1228,550 1228,1229 0,678 -550,1228 -1228,1228 -679,0 -1229,-550 -1229,-1228 0,-679 550,-1229 1229,-1229zm0 605c344,0 623,279 623,624 0,344 -279,624 -623,624 -345,0 -624,-280 -624,-624 0,-345 279,-624 624,-624z"/>
 </g>
</svg>