<svg xmlns="http://www.w3.org/2000/svg" xml:space="preserve" width="120.65mm" height="603.25mm" version="1.1" style="shape-rendering:geometricPrecision; text-rendering:geometricPrecision; image-rendering:optimizeQuality; fill-rule:evenodd; clip-rule:evenodd"
viewBox="0 0 9956 49779"
 xmlns:xlink="http://www.w3.org/1999/xlink">
 <!-- Created by: Treedbox, treedbox.com.br -->
 <defs>
  <style type="text/css">
   <![CDATA[
    .fil0 {fill:none}
    .fil3 {fill:#30719E}
    .fil2 {fill:#ccc}
    .fil1 {fill:#fff}
   ]]>
  </style>
 </defs>
 <g id="geo">
<rect class="fil0" width="9956" height="49779"/>
  <g id="_703411104">
   <polygon class="fil1" points="3130,3728 3669,3728 3669,6910 6027,6910 6027,7449 3130,7449 "/>
   <polygon class="fil1" points="3916,6634 6826,6634 6826,3473 5735,2507 3916,2507 "/>
  </g>
  <g id="_703406944">
   <polygon class="fil2" points="3130,23639 3669,23639 3669,26821 6027,26821 6027,27361 3130,27361 "/>
   <polygon class="fil2" points="3916,26545 6826,26545 6826,23384 5735,22418 3916,22418 "/>
  </g>
  <g id="_703421024">
   <polygon class="fil3" points="3130,43551 3669,43551 3669,46733 6027,46733 6027,47272 3130,47272 "/>
   <polygon class="fil3" points="3916,46457 6826,46457 6826,43296 5735,42330 3916,42330 "/>
  </g>
 </g>
</svg>