<svg xmlns="http://www.w3.org/2000/svg" xml:space="preserve" width="120.65mm" height="603.25mm" version="1.1" style="shape-rendering:geometricPrecision; text-rendering:geometricPrecision; image-rendering:optimizeQuality; fill-rule:evenodd; clip-rule:evenodd"
viewBox="0 0 9956 49779"
 xmlns:xlink="http://www.w3.org/1999/xlink">
 <!-- Created by: Treedbox, treedbox.com.br -->
 <defs>
  <style type="text/css">
   <![CDATA[
    .fil0 {fill:none}
    .fil3 {fill:#30719E}
    .fil2 {fill:#CCCBCB}
    .fil1 {fill:white}
   ]]>
  </style>
 </defs>
 <g id="geo">
  <polygon class="fil0" points="0,0 9956,0 9956,49779 0,49779 "/>
  <path class="fil1" d="M3938 2828l4047 0c156,0 324,-73 294,293l-17 201 21 0c171,0 381,-57 322,241l-617 3119 -32 389c3,16 4,27 -3,34l-4 51c-13,161 -119,293 -264,293l-5414 0c-145,0 -251,-132 -264,-293l-4 -51c-7,-7 -6,-18 -3,-34l-19 -230 0 0 -13 -159 -617 -3119c-59,-298 151,-241 322,-241l20 0 -16 -201 -26 -315c-30,-366 138,-293 294,-293l1702 0c258,0 318,-17 291,315zm4155 494l0 -234 -6374 234 6374 0z"/>
  <path class="fil2" d="M3938 22739l4047 0c156,0 324,-73 294,294l-17 200 21 0c171,0 381,-57 322,241l-617 3119 -32 390c3,16 4,26 -3,33l-4 51c-13,161 -119,294 -264,294l-5414 0c-145,0 -251,-133 -264,-294l-4 -51c-7,-7 -6,-17 -3,-33l-19 -231 0 0 -13 -159 -617 -3119c-59,-298 151,-241 322,-241l20 0 -16 -200 -26 -316c-30,-366 138,-293 294,-293l1702 0c258,0 318,-16 291,315zm4155 494l0 -234 -6374 234 6374 0z"/>
  <path class="fil3" d="M3938 42651l4047 0c156,0 324,-73 294,293l-17 201 21 0c171,0 381,-57 322,241l-617 3119 -32 389c3,16 4,27 -3,34l-4 51c-13,161 -119,293 -264,293l-5414 0c-145,0 -251,-132 -264,-293l-4 -51c-7,-7 -6,-18 -3,-34l-19 -230 0 0 -13 -159 -617 -3119c-59,-298 151,-241 322,-241l20 0 -16 -201 -26 -315c-30,-366 138,-293 294,-293l1702 0c258,0 318,-17 291,315zm4155 494l0 -234 -6374 234 6374 0z"/>
 </g>
</svg>