<svg xmlns="http://www.w3.org/2000/svg" xml:space="preserve" width="120.65mm" height="603.25mm" version="1.1" style="shape-rendering:geometricPrecision; text-rendering:geometricPrecision; image-rendering:optimizeQuality; fill-rule:evenodd; clip-rule:evenodd"
viewBox="0 0 9956 49779"
 xmlns:xlink="http://www.w3.org/1999/xlink">
 <!-- Created by: Treedbox, treedbox.com.br -->
 <defs>
  <style type="text/css">
   <![CDATA[
    .fil0 {fill:none}
    .fil3 {fill:#30719E}
    .fil2 {fill:#ccc}
    .fil1 {fill:#fff}
   ]]>
  </style>
 </defs>
 <g id="geo">
<rect class="fil0" width="9956" height="49779"/>
  <g id="_705787872">
   <g id="geo2">

    <path class="fil1" d="M2436 2507l5083 0c201,0 365,164 365,364l0 3548c0,201 -164,365 -365,365l-1705 0 0 343 590 0 0 322 -2853 0 0 -322 590 0 0 -343 -1705 0c-200,0 -364,-164 -364,-365l0 -3548c0,-200 164,-364 364,-364l0 0zm32 502l5019 0 0 2724 -5019 0 0 -2724zm4751 3002c130,0 236,105 236,235 0,131 -106,237 -236,237 -130,0 -236,-106 -236,-237 0,-130 106,-235 236,-235z"/>
   </g>
  </g>
  <g id="_705788064">
   <g id="geo_0">
    <path class="fil2" d="M2436 22418l5083 0c201,0 365,164 365,365l0 3548c0,200 -164,364 -365,364l-1705 0 0 344 590 0 0 322 -2853 0 0 -322 590 0 0 -344 -1705 0c-200,0 -364,-164 -364,-364l0 -3548c0,-201 164,-365 364,-365l0 0zm32 503l5019 0 0 2724 -5019 0 0 -2724zm4751 3001c130,0 236,106 236,236 0,130 -106,236 -236,236 -130,0 -236,-106 -236,-236 0,-130 106,-236 236,-236z"/>
   </g>
  </g>
  <g id="_705794240">
   <g id="geo_1">
    <path class="fil3" d="M2436 42330l5083 0c201,0 365,164 365,364l0 3548c0,201 -164,365 -365,365l-1705 0 0 343 590 0 0 322 -2853 0 0 -322 590 0 0 -343 -1705 0c-200,0 -364,-164 -364,-365l0 -3548c0,-200 164,-364 364,-364l0 0zm32 502l5019 0 0 2724 -5019 0 0 -2724zm4751 3002c130,0 236,105 236,235 0,131 -106,237 -236,237 -130,0 -236,-106 -236,-237 0,-130 106,-235 236,-235z"/>
   </g>
  </g>
 </g>
</svg>