<svg xmlns="http://www.w3.org/2000/svg" width="120.65mm" height="603.25mm" style="fill-rule:evenodd" viewBox="0 0 9956 49779">
<!--by TreedBox.com.br-->
 <defs>
  <style type="text/css">
   <![CDATA[
    .fil0 {fill:none}
    .fil1 {fill:#fff}
    .fil2 {fill:#ccc}
    .fil3 {fill:#30719E}
   ]]>
  </style>
 </defs>
 <g id="geo">
<rect class="fil0" width="9956" height="49779"/>
  <path class="fil1" d="M2142 5970c-138,-161 -213,-336 -213,-520l0 -886c0,183 75,359 213,520l0 886zm2616 892c-1086,-36 -2014,-336 -2490,-763l0 -886c476,426 1404,726 2490,762l0 887zm1459 -118c-379,78 -798,121 -1239,121 -31,0 -62,0 -93,0l0 -887c31,1 62,1 93,1 441,0 860,-44 1239,-122l0 887zm1810 -2180l0 886c0,554 -685,1033 -1683,1266l0 -887c998,-232 1683,-712 1683,-1265zm-3269 1279c-1101,-38 -2035,-354 -2476,-797l2623 -558 -146 1323c0,4 -1,7 -1,11l0 21zm1459 -122c-377,81 -797,126 -1239,126 -31,0 -62,-1 -93,-1l0 -22 141 -1279 1191 1170 0 6zm-1239 -2631c1639,0 2968,617 2968,1378 0,533 -650,995 -1602,1224l0 -4 -1 0c0,-16 -6,-32 -18,-45l-1301 -1278 0 0 0 0 -1 -1 0 0 0 0 -1 -1 0 0 0 0 -1 -1 0 0 -1 -1 0 0 0 0 -1 0 0 -1 0 0 -1 0 0 -1 0 0 -1 0 0 -1 -1 0 0 0 0 0 -1 -1 0 0 -1 0 0 -1 0 0 -1 0 0 0 0 0 -1 -1 0 0 -1 0 0 -1 -1 0 0 0 0 0 -1 -1 0 0 0 0 -1 0 -1 -1 0 0 0 0 -1 0 0 0 -1 -1 0 0 0 0 -1 0 0 0 -1 -1 0 0 -1 0 0 0 0 0 -1 -1 -1 0 0 0 0 0 -1 0 0 0 0 0 -1 -1 -1 0 0 0 -1 0 0 0 -1 0 0 -1 -1 0 0 0 -1 0 0 0 0 0 -1 0 -1 0 0 0 0 -1 -1 0 0 0 -1 0 -1 0 0 0 0 0 -1 0 -1 0 0 0 0 0 -1 0 -1 -1 0 0 0 0 -1 0 0 0 0 0 0 0 -1 0 0 0 0 0 -1 0 0 0 -1 0 0 0 0 0 0 0 -1 0 0 0 0 0 -1 0 0 0 0 0 0 0 -1 0 0 0 0 0 0 0 -1 0 0 0 0 0 -1 0 0 0 0 0 0 0 0 0 -1 0 0 0 0 0 0 0 -1 0 0 0 0 0 -1 0 0 0 0 0 0 0 -1 0 0 0 0 1 -1 0 0 0 0 0 0 0 -1 0 0 0 0 0 0 0 -1 0 0 0 0 0 0 0 -1 0 0 0 -1 0 0 0 0 0 0 0 0 0 -1 0 0 0 0 1 -1 0 0 0 0 0 -2772 589c-2,0 -4,1 -6,1 -114,-146 -177,-304 -177,-469 0,-761 1329,-1378 2969,-1378z"/>
  <path class="fil2" d="M2142 25882c-138,-161 -213,-337 -213,-520l0 -887c0,184 75,359 213,520l0 887zm2616 891c-1086,-36 -2014,-336 -2490,-762l0 -887c476,427 1404,727 2490,763l0 886zm1459 -118c-379,78 -798,122 -1239,122 -31,0 -62,0 -93,-1l0 -886c31,0 62,0 93,0 441,0 860,-43 1239,-121l0 886zm1810 -2180l0 887c0,553 -685,1033 -1683,1265l0 -886c998,-233 1683,-712 1683,-1266zm-3269 1279c-1101,-37 -2035,-353 -2476,-797l2623 -557 -146 1323c0,3 -1,7 -1,10l0 21zm1459 -121c-377,80 -797,125 -1239,125 -31,0 -62,0 -93,-1l0 -21 141 -1280 1191 1170 0 7zm-1239 -2631c1639,0 2968,617 2968,1378 0,532 -650,994 -1602,1224l0 -4 -1 0c0,-16 -6,-33 -18,-45l-1301 -1278 0 0 0 -1 -1 0 0 0 0 -1 -1 0 0 0 0 -1 -1 0 0 -1 -1 0 0 0 0 -1 -1 0 0 0 0 0 -1 -1 0 0 0 0 -1 -1 0 0 -1 0 0 -1 0 0 -1 0 0 0 -1 -1 0 0 0 0 -1 -1 0 0 0 0 -1 0 0 -1 -1 0 0 0 -1 0 0 -1 0 0 -1 0 0 0 0 -1 -1 0 -1 0 0 0 0 0 -1 -1 0 0 -1 0 0 0 0 0 -1 -1 0 0 -1 0 0 0 -1 -1 0 0 0 0 -1 0 -1 0 0 0 0 -1 -1 0 0 0 0 0 -1 0 -1 0 0 0 -1 -1 0 0 -1 0 0 0 -1 0 0 0 -1 0 0 -1 0 0 -1 0 -1 0 0 0 0 0 -1 0 0 0 -1 0 -1 -1 0 0 0 0 -1 0 -1 0 0 0 0 0 -1 0 -1 0 0 0 0 0 -1 0 0 0 0 0 0 0 -1 0 0 0 0 0 -1 0 0 0 -1 0 0 0 0 0 0 0 -1 0 0 0 0 0 -1 0 0 0 0 0 0 0 -1 0 0 0 0 0 0 0 -1 0 0 0 0 0 -1 0 0 0 0 0 0 0 0 0 -1 0 0 0 0 0 0 0 -1 0 0 0 0 0 -1 0 0 0 0 0 0 0 -1 0 0 0 0 0 -1 0 0 0 0 0 0 0 -1 0 0 0 0 0 0 0 -1 0 0 0 0 0 0 0 -1 1 0 0 -1 0 0 0 0 0 0 0 0 0 -1 0 0 0 0 0 -1 0 0 0 0 0 -2772 589c-2,1 -4,1 -6,2 -114,-147 -177,-304 -177,-469 0,-761 1329,-1378 2969,-1378z"/>
  <path class="fil3" d="M2142 45793c-138,-161 -213,-336 -213,-520l0 -886c0,183 75,359 213,520l0 886zm2616 892c-1086,-36 -2014,-336 -2490,-763l0 -886c476,426 1404,726 2490,762l0 887zm1459 -118c-379,78 -798,121 -1239,121 -31,0 -62,0 -93,0l0 -887c31,1 62,1 93,1 441,0 860,-44 1239,-122l0 887zm1810 -2180l0 886c0,554 -685,1033 -1683,1266l0 -887c998,-232 1683,-712 1683,-1265zm-3269 1279c-1101,-38 -2035,-354 -2476,-797l2623 -558 -146 1323c0,4 -1,7 -1,11l0 21zm1459 -122c-377,81 -797,126 -1239,126 -31,0 -62,-1 -93,-1l0 -22 141 -1279 1191 1170 0 6zm-1239 -2631c1639,0 2968,617 2968,1378 0,533 -650,995 -1602,1224l0 -4 -1 0c0,-16 -6,-32 -18,-45l-1301 -1278 0 0 0 0 -1 -1 0 0 0 0 -1 -1 0 0 0 0 -1 -1 0 0 -1 -1 0 0 0 0 -1 -1 0 0 0 0 -1 0 0 -1 0 0 -1 0 0 -1 -1 0 0 0 0 -1 -1 0 0 0 -1 0 0 -1 0 0 -1 0 0 -1 0 0 -1 0 0 0 -1 0 0 -1 -1 0 0 0 0 0 -1 -1 0 0 0 0 -1 0 -1 -1 0 0 0 0 -1 0 0 0 -1 -1 0 0 0 0 -1 0 0 -1 -1 0 0 0 -1 0 0 0 0 0 -1 -1 -1 0 0 0 0 0 -1 0 0 0 0 0 -1 -1 -1 0 0 0 -1 0 0 0 -1 0 0 -1 -1 0 0 0 -1 0 0 0 0 0 -1 0 -1 0 0 -1 0 0 -1 0 0 0 -1 0 -1 0 0 0 0 0 -1 0 -1 0 0 0 0 0 -1 -1 -1 0 0 0 0 0 -1 0 0 0 0 0 0 0 -1 0 0 0 0 0 -1 0 0 0 -1 0 0 0 0 0 0 0 -1 0 0 0 0 0 -1 0 0 0 0 0 0 0 -1 0 0 0 0 0 0 0 -1 0 0 0 0 0 -1 0 0 0 0 0 0 0 0 0 -1 0 0 0 0 0 0 0 -1 0 0 0 0 0 -1 0 0 0 0 0 0 0 -1 0 0 0 0 0 -1 1 0 0 0 0 0 0 -1 0 0 0 0 0 0 0 -1 0 0 0 0 0 0 0 -1 0 0 0 -1 0 0 0 0 0 0 0 0 0 -1 0 0 0 0 0 -1 1 0 0 0 0 -2772 589c-2,0 -4,1 -6,1 -114,-146 -177,-304 -177,-469 0,-761 1329,-1378 2969,-1378z"/>
 </g>
</svg>