<svg xmlns="http://www.w3.org/2000/svg" xml:space="preserve" width="120.65mm" height="603.25mm" version="1.1" style="shape-rendering:geometricPrecision; text-rendering:geometricPrecision; image-rendering:optimizeQuality; fill-rule:evenodd; clip-rule:evenodd"
viewBox="0 0 9956 49779"
 xmlns:xlink="http://www.w3.org/1999/xlink">
 <!-- Created by: Treedbox, treedbox.com.br -->
 <defs>
  <style type="text/css">
   <![CDATA[
    .fil0 {fill:none}
    .fil1 {fill:#fff}
    .fil2 {fill:#ccc}
    .fil3 {fill:#30719E}
   ]]>
  </style>
 </defs>
 <g id="geo">
<rect class="fil0" width="9956" height="49779"/>
  <g id="_660720528">
   <g id="geo2">

    <path class="fil1" d="M4978 2510c1363,0 2468,1105 2468,2468 0,1363 -1105,2468 -2468,2468 -1363,0 -2468,-1105 -2468,-2468 0,-1363 1105,-2468 2468,-2468zm1274 2452l0 0c0,114 -93,207 -207,207l-718 0c-67,123 -199,207 -349,207 -220,0 -398,-178 -398,-398 0,-137 69,-258 175,-330l0 -546c0,-114 93,-207 207,-207l0 0c114,0 207,93 207,207l0 527c56,30 103,74 139,126l737 0c114,0 207,93 207,207l0 0zm-1131 -1905c950,69 1709,828 1778,1777l6 0c79,0 143,65 143,144l0 0c0,79 -64,143 -143,143l-6 0c-69,950 -828,1709 -1778,1778l0 6c0,79 -64,143 -143,143l0 0c-79,0 -144,-64 -144,-143l0 -6c-949,-69 -1708,-828 -1777,-1778l-6 0c-79,0 -143,-64 -143,-143l0 0c0,-79 64,-144 143,-144l6 0c69,-949 828,-1708 1777,-1777l0 -6c0,-79 65,-143 144,-143l0 0c79,0 143,64 143,143l0 6z"/>
   </g>
  </g>
  <g id="_660727920">
   <g id="geo_0">
    <path class="fil2" d="M4978 22421c1363,0 2468,1105 2468,2468 0,1364 -1105,2468 -2468,2468 -1363,0 -2468,-1104 -2468,-2468 0,-1363 1105,-2468 2468,-2468zm1274 2452l0 0c0,114 -93,207 -207,207l-718 0c-67,124 -199,207 -349,207 -220,0 -398,-178 -398,-398 0,-137 69,-258 175,-330l0 -545c0,-114 93,-208 207,-208l0 0c114,0 207,94 207,208l0 526c56,31 103,74 139,127l737 0c114,0 207,93 207,206l0 0zm-1131 -1905c950,70 1709,828 1778,1778l6 0c79,0 143,64 143,143l0 0c0,79 -64,144 -143,144l-6 0c-69,949 -828,1708 -1778,1778l0 5c0,79 -64,143 -143,143l0 0c-79,0 -144,-64 -144,-143l0 -5c-949,-70 -1708,-829 -1777,-1778l-6 0c-79,0 -143,-65 -143,-144l0 0c0,-79 64,-143 143,-143l6 0c69,-950 828,-1708 1777,-1778l0 -5c0,-79 65,-144 144,-144l0 0c79,0 143,65 143,144l0 5z"/>
   </g>
  </g>
  <g id="_660736496">
   <g id="geo_1">
    <path class="fil3" d="M4978 42333c1363,0 2468,1105 2468,2468 0,1363 -1105,2468 -2468,2468 -1363,0 -2468,-1105 -2468,-2468 0,-1363 1105,-2468 2468,-2468zm1274 2452l0 0c0,114 -93,207 -207,207l-718 0c-67,123 -199,207 -349,207 -220,0 -398,-178 -398,-398 0,-137 69,-258 175,-330l0 -546c0,-114 93,-207 207,-207l0 0c114,0 207,93 207,207l0 527c56,30 103,74 139,126l737 0c114,0 207,93 207,207l0 0zm-1131 -1906c950,70 1709,829 1778,1778l6 0c79,0 143,65 143,144l0 0c0,79 -64,143 -143,143l-6 0c-69,950 -828,1708 -1778,1778l0 6c0,78 -64,143 -143,143l0 0c-79,0 -144,-65 -144,-143l0 -6c-949,-70 -1708,-828 -1777,-1778l-6 0c-79,0 -143,-64 -143,-143l0 0c0,-79 64,-144 143,-144l6 0c69,-949 828,-1708 1777,-1778l0 -5c0,-79 65,-143 144,-143l0 0c79,0 143,64 143,143l0 5z"/>
   </g>
  </g>
 </g>
</svg>