<svg xmlns="http://www.w3.org/2000/svg" width="120.65mm" height="603.25mm" style="fill-rule:evenodd" viewBox="0 0 9956 49779">
 <!--by TreedBox.com.br-->
 <defs>
  <style type="text/css">
   <![CDATA[
    .fil0 {fill:none}
    .fil3 {fill:#30719E}
    .fil2 {fill:#CCCBCB}
    .fil1 {fill:white}
   ]]>
  </style>
 </defs>
 <g id="geo">
  <polygon class="fil0" points="0,0 9956,0 9956,49779 0,49779 "/>
  <g id="_516130926368">
   <polygon class="fil1" points="2794,2507 7162,2507 7162,7449 2794,7449 2794,6340 3619,6340 3619,6624 6337,6624 6337,3332 3619,3332 3619,3616 2794,3616 "/>
   <polygon class="fil1" points="4014,5641 2505,5641 2505,6305 997,4978 2505,3651 2505,4314 4014,4314 "/>
  </g>
  <g id="_516130925888">
   <polygon class="fil2" points="2794,22418 7162,22418 7162,27361 2794,27361 2794,26251 3619,26251 3619,26535 6337,26535 6337,23243 3619,23243 3619,23528 2794,23528 "/>
   <polygon class="fil2" points="4014,25553 2505,25553 2505,26216 997,24889 2505,23562 2505,24226 4014,24226 "/>
  </g>
  <g id="_516130928992">
   <polygon class="fil3" points="2794,42330 7162,42330 7162,47272 2794,47272 2794,46163 3619,46163 3619,46447 6337,46447 6337,43155 3619,43155 3619,43439 2794,43439 "/>
   <polygon class="fil3" points="4014,45464 2505,45464 2505,46128 997,44801 2505,43474 2505,44137 4014,44137 "/>
  </g>
 </g>
</svg>