<svg xmlns="http://www.w3.org/2000/svg" xml:space="preserve" width="120.65mm" height="603.25mm" version="1.1" style="shape-rendering:geometricPrecision; text-rendering:geometricPrecision; image-rendering:optimizeQuality; fill-rule:evenodd; clip-rule:evenodd"
viewBox="0 0 9956 49779"
 xmlns:xlink="http://www.w3.org/1999/xlink">
 <!-- Created by: Treedbox, treedbox.com.br -->
 <defs>
  <style type="text/css">
   <![CDATA[
    .fil0 {fill:none}
    .fil3 {fill:#30719E}
    .fil1 {fill:#fff}
    .fil2 {fill:#ccc}
   ]]>
  </style>
 </defs>
 <g id="geo">
<rect class="fil0" width="9956" height="49779"/>
  <path class="fil1" d="M6002 4493l-1512 1512c163,377 91,833 -218,1141 -238,238 -563,336 -873,293l584 -583 -187 -696 -696 -187 -584 584c-42,-310 55,-635 294,-873 308,-309 763,-381 1141,-218l1512 -1512c-163,-378 -55,-869 218,-1142 274,-273 564,-336 873,-293l-583 584 186 696 696 186 584 -584c42,310 -20,600 -293,873 -274,274 -764,382 -1142,219z"/>
  <path class="fil2" d="M6002 24404l-1512 1512c163,378 91,833 -218,1142 -238,238 -563,335 -873,293l584 -584 -187 -696 -696 -186 -584 583c-42,-309 55,-635 294,-873 308,-308 763,-381 1141,-218l1512 -1512c-163,-378 -55,-868 218,-1142 274,-273 564,-335 873,-293l-583 584 186 696 696 187 584 -584c42,309 -20,599 -293,873 -274,273 -764,381 -1142,218z"/>
  <path class="fil3" d="M6002 44315l-1512 1513c163,377 91,833 -218,1141 -238,238 -563,336 -873,293l584 -584 -187 -695 -696 -187 -584 584c-42,-310 55,-635 294,-873 308,-309 763,-382 1141,-218l1512 -1512c-163,-378 -55,-869 218,-1142 274,-273 564,-336 873,-293l-583 584 186 696 696 186 584 -584c42,310 -20,600 -293,873 -274,274 -764,382 -1142,218z"/>
 </g>
</svg>