<svg xmlns="http://www.w3.org/2000/svg" xml:space="preserve" width="120.65mm" height="603.25mm" version="1.1" style="shape-rendering:geometricPrecision; text-rendering:geometricPrecision; image-rendering:optimizeQuality; fill-rule:evenodd; clip-rule:evenodd" viewBox="0 0 9956 49779" xmlns:xlink="http://www.w3.org/1999/xlink">
 <!-- Created by: Treedbox, treedbox.com.br -->
 <defs>
  <style type="text/css">
   <![CDATA[
    .fil0 {fill:none}
    .fil3 {fill:#30719E}
    .fil2 {fill:#CCC}
    .fil1 {fill:#fff}
   ]]>
  </style>
 </defs>
 <g id="geo">
<rect class="fil0" width="9956" height="49779"/>
  <path class="fil1" d="M4757 2594c5,6 13,13 22,13 43,-2 37,-51 55,-76 6,-8 58,-22 70,-24 36,-6 98,57 138,62 18,2 37,2 55,2l8 0c15,-1 21,-9 31,-21 27,4 63,3 61,38 -1,60 23,53 68,58l11 -2c7,-1 22,8 28,12 2,1 73,60 84,39 8,8 27,33 27,35 4,10 11,57 9,62 -11,32 -18,51 10,76l2 6c2,2 3,5 3,8 2,16 11,25 15,39 -2,12 -1,20 0,32 0,2 0,4 -1,7 -14,52 0,49 -5,81 -3,20 3,32 4,51 2,36 49,52 17,87 -3,4 -7,8 -10,15l-1 5c-3,25 9,29 -6,49 -9,11 0,31 3,43 -1,3 -3,6 -6,10 -32,41 -10,52 -21,72 -31,52 -3,61 -15,87 -19,44 -8,42 1,80 -8,24 -13,25 -11,54l-3 6c-21,25 -30,12 -53,59 -5,11 -5,14 -11,21 -40,-19 -94,26 -63,70 4,7 27,16 36,22 16,39 31,61 68,19 9,0 21,1 30,4 8,2 15,27 12,30 -2,3 -5,5 -10,7 0,0 -28,8 -37,17l2 32c11,4 41,-11 49,-2 9,10 3,15 5,23 2,7 10,11 12,17 2,8 -2,10 6,15 2,0 6,-1 9,-2 2,-6 22,-4 24,-2 3,9 3,18 -3,26l2 2c5,5 15,-3 22,3 1,1 13,33 13,36l-3 6 1 3 7 5 3 0 2 -2c3,-8 -1,-8 -2,-14l5 -3 3 1c6,4 7,13 15,18 0,2 0,5 -1,7l-3 -2 -2 3c0,2 1,7 3,9l3 -1c6,2 13,8 7,13 0,4 -1,7 -2,10 1,12 29,0 28,21l3 1c3,7 8,12 10,19 1,5 -2,8 2,13 2,1 4,2 5,3l0 4 2 2c7,2 25,9 28,14 0,3 1,5 2,7 4,8 12,13 15,21 2,4 2,9 4,12 18,6 13,32 20,37 4,0 15,1 17,4l2 5 3 2c4,5 -4,12 11,26l7 1c16,2 35,-13 39,-28 9,-3 15,-13 21,-15 2,1 7,2 9,1 4,-8 22,-15 31,-14l2 2c8,2 40,-7 50,-20 12,-4 47,-4 52,-7 11,6 23,-13 43,-7 11,3 9,18 18,23 12,7 26,10 38,17l1 2 2 4c4,11 1,22 1,32 0,11 11,18 9,30 0,2 -1,3 -2,4l-6 3c-5,5 -6,33 -17,46 -2,7 9,14 11,21 -1,8 -6,14 -9,21 -3,8 -1,17 -3,25 0,3 -1,6 -2,8 -6,10 -16,5 -20,16 0,4 17,30 19,35 4,0 13,7 15,11l0 4c-3,2 -86,1 -100,0 -18,-2 -72,19 -84,31 -21,20 -29,54 -37,59 -1,9 -7,17 -8,26 -8,33 -6,60 -23,91 1,16 18,23 11,39 8,17 -7,25 -18,35 -5,5 -17,11 -24,16 -9,8 -14,19 -22,28 -14,16 -58,47 -36,74 2,3 12,6 15,7 34,9 44,-9 76,13 27,18 22,15 40,45 28,49 -11,116 49,148 17,9 33,21 49,30 15,8 110,32 84,64 -25,31 -18,-1 -37,59 -11,14 -44,-8 -42,38 0,8 1,15 2,22 3,14 17,8 25,9 3,4 9,8 12,12 27,32 59,35 72,64 20,43 2,48 6,68 2,12 10,15 18,23 11,11 12,25 20,38 4,5 13,3 16,8 31,52 21,54 87,36 13,-4 67,13 80,19 12,6 18,16 24,27 7,11 24,27 41,35 7,3 13,5 18,6 13,-4 41,3 54,7 17,5 46,-3 55,1 -2,-1 -8,3 -9,3 -28,13 2,64 -67,91 -16,6 -79,41 -84,53 -9,4 -19,1 -29,6 -8,4 -22,30 -47,40l-14 6c-7,3 -27,31 -35,38 -10,10 -24,16 -35,27 -3,3 -4,12 -2,16 7,5 17,2 23,10 7,25 2,17 23,45 15,20 -18,25 -28,27 -14,2 -27,11 -39,17 -37,19 -49,116 -68,143 -13,19 -27,15 -35,23 -15,17 -42,82 -11,96l23 10c18,9 15,45 37,58 11,6 79,11 95,14 17,3 44,12 60,20l25 12c17,8 32,15 31,35 -1,16 -2,16 -18,24 -2,1 -3,6 -8,8 -36,16 -96,19 -89,71 1,9 2,20 9,27 7,5 42,-13 61,-4 31,14 34,18 51,48 6,8 -17,14 -21,18 -6,5 -10,12 -18,16 -11,5 -24,6 -36,12l-5 3c-1,1 -4,2 -5,4l-20 29c-4,7 -27,17 -35,21 -25,15 -18,48 -19,75l0 7c-1,14 1,26 1,39 0,39 -6,97 47,107 19,3 35,6 51,16 13,7 12,69 5,79 -15,6 -65,94 -44,107 -36,11 -73,24 -109,34 -26,7 -66,9 -90,20 -22,10 -43,38 -65,51 -24,14 -93,46 -123,46 -4,0 -27,-4 -29,-4 -16,4 -163,36 -169,38 -4,3 -82,72 -93,80 -16,11 -41,21 -59,30l-8 4 -2 10 -6 2 -8 -21 2 -10 -22 -24 -2 -18c-14,-9 -30,-32 -35,-48l-20 -1c-10,41 -16,84 -19,126 -3,0 -25,3 -26,3 -39,-8 -87,-13 -124,-26l-78 -37 -24 -13 19 -63 -5 -32c-56,-6 -129,21 -184,21 -34,0 -68,-15 -103,-13 -31,17 -21,63 -59,88l-43 -2c-12,-88 -52,-263 -103,-333l-44 -11 2 -39c-4,3 -43,36 -44,37 -2,2 -54,90 -54,92 -19,46 -53,172 -61,227l-23 9c-50,-18 -104,-33 -152,-55 -39,-17 -75,-48 -115,-65 -33,-15 -111,-6 -146,-15 -27,-8 -54,-31 -81,-40 -26,-8 -62,-10 -90,-15 6,-27 10,-65 20,-90 9,-22 32,-51 45,-72 0,-22 0,-44 1,-65 -11,3 -28,12 -28,26l-11 -4 1 12 -21 8c1,4 3,16 0,20l-6 2c-7,3 -9,19 -23,27l-4 13 3 6c0,4 0,15 -4,18l-17 6 -2 4 1 7 -6 9 4 11c-8,7 -8,36 -7,45 -5,3 -26,31 -27,37l-3 0c1,-1 1,-1 1,-1 -7,1 -17,0 -31,-6 -7,-4 -13,-9 -17,-14 -14,0 -23,-12 -22,-30 -11,-12 -2,-28 -6,-44 -3,-8 -6,-17 -8,-26 -30,-4 -43,-53 -15,-65 -2,-20 7,-30 12,-52 -2,-15 -11,-31 11,-39 -1,-25 -15,-57 -8,-80 -5,-6 -5,-14 -6,-21 -3,-1 -6,-2 -9,-4l-3 -4c-21,-31 -5,-63 -10,-94l-2 -6c-8,-18 -8,-59 11,-71l-2 -5c-4,-11 -5,-24 3,-32 -9,-4 -15,-11 -15,-25 0,-4 1,-9 2,-13 0,-1 0,-2 0,-3 -10,-14 -9,-13 -9,-30l-8 -10 12 -23 -7 -25c10,-10 23,-13 27,-41 0,-3 1,-5 2,-8l-3 -2c-74,-52 -51,-45 -42,-126 4,-37 24,-71 41,-104 3,-28 -25,-53 15,-92 4,-3 7,-5 10,-7 0,-41 -29,-76 -2,-109 2,-1 2,-2 2,-2 0,-24 -30,-24 8,-64 5,-7 11,-21 10,-31 -5,-12 -15,-31 -15,-44 0,-8 8,-14 13,-19 8,-17 9,-23 29,-28l4 -9 4 -9c2,-29 1,-20 15,-43 2,-11 -3,-18 3,-32 12,-32 -4,-28 34,-50l1 -2 5 -6c8,-12 14,-46 17,-62l1 -7c-3,-41 -2,-83 39,-106 5,-8 10,-18 14,-26 6,-11 7,-35 12,-48 6,-12 4,-12 4,-12l6 -12c4,-8 9,-16 14,-24 1,-1 2,-3 3,-4 4,-8 7,-12 10,-15 2,-2 4,-4 5,-6 5,-15 3,-31 13,-44 2,-3 5,-6 9,-8 4,-11 17,-13 13,-28 -4,-14 16,-51 24,-63 4,-19 3,-42 3,-61l1 -7c0,-1 1,-2 1,-3l1 -7c2,-15 14,-25 16,-38 9,-48 4,-34 34,-75 6,-9 32,-52 47,-53 12,-1 37,-72 62,-85l3 -6c21,-42 19,-64 64,-85 27,-12 -1,-20 58,-27 3,0 6,-1 9,-1 6,-9 13,-17 19,-26 6,-21 15,-30 28,-47l4 -6c6,-9 -7,-20 9,-46 22,-34 49,-75 57,-115 2,-13 22,-30 33,-32 23,-14 12,-17 24,-41 0,-2 0,-5 1,-7l2 -18c2,-10 4,-21 9,-31 0,-7 9,-21 13,-26l3 -6 3 -6c7,-37 -4,-38 21,-69 1,-1 2,-2 2,-2 1,-28 2,-48 12,-75 9,-26 -3,-48 9,-72 -3,0 -14,-6 -15,-8 -21,-14 -15,-17 -28,-29 -31,-20 -48,-52 -68,-82 -12,-19 -10,-63 0,-82 9,-16 31,-39 34,-45 3,-7 7,-13 14,-18l4 -3 2 -2c19,-30 46,-63 44,-102 -13,-23 0,-44 -5,-65 -24,-108 -34,-98 44,-151 36,-24 58,-54 105,-60 16,-13 45,-19 63,-20 13,-9 29,-13 44,-19 19,-23 27,-15 50,-25l5 -6c2,-24 0,-25 -5,-47 -3,-14 -1,-28 12,-36 23,-28 9,-29 47,-60 15,-11 21,-12 29,-28 0,-1 7,-7 8,-8l5 -3c8,-3 8,-3 15,-3 8,-7 21,-8 33,-5 -11,-19 -1,-40 -13,-62 -11,-20 11,-62 34,-62 3,0 11,-4 15,-5 9,-2 31,-4 36,-11 0,-7 -1,-9 -2,-10 -9,-1 -17,-1 -25,-8l-2 -4c-31,-50 25,-74 60,-75 4,-7 -1,-10 -7,-15l-6 -6c-32,-27 -52,-114 8,-122 31,-4 20,6 46,-10 4,-8 7,-20 9,-29 -20,-12 -21,-22 -34,-36 -53,-4 -61,-23 -83,-69 -3,-6 -5,-11 -7,-15 -2,0 -5,0 -10,0 -90,0 -80,23 -173,-22 -1,-1 -2,-1 -3,-1 6,-9 25,-29 32,-35l3 3z"/>
  <path class="fil2" d="M4757 22505c5,6 13,14 22,13 43,-1 37,-51 55,-75 6,-9 58,-22 70,-24 36,-7 98,56 138,62 18,2 37,1 55,1l8 0c15,0 21,-9 31,-21 27,4 63,3 61,38 -1,60 23,53 68,59l11 -3c7,0 22,9 28,12 2,1 73,60 84,39 8,9 27,34 27,36 4,10 11,56 9,61 -11,33 -18,51 10,77l2 5c2,3 3,6 3,9 2,16 11,24 15,38 -2,12 -1,20 0,32 0,3 0,5 -1,7 -14,53 0,49 -5,81 -3,21 3,32 4,51 2,36 49,53 17,88 -3,3 -7,8 -10,15l-1 4c-3,25 9,30 -6,50 -9,11 0,31 3,43 -1,2 -3,5 -6,10 -32,41 -10,52 -21,72 -31,51 -3,60 -15,87 -19,43 -8,41 1,79 -8,24 -13,26 -11,54l-3 6c-21,26 -30,13 -53,59 -5,11 -5,14 -11,22 -40,-19 -94,25 -63,70 4,6 27,16 36,22 16,38 31,60 68,19 9,-1 21,0 30,3 8,3 15,27 12,31 -2,3 -5,5 -10,7 0,0 -28,8 -37,17l2 31c11,4 41,-11 49,-1 9,9 3,14 5,22 2,7 10,11 12,18 2,7 -2,9 6,14 2,0 6,0 9,-2 2,-6 22,-4 24,-1 3,8 3,18 -3,25l2 3c5,4 15,-3 22,2 1,2 13,33 13,37l-3 5 1 4 7 5 3 -1 2 -2c3,-7 -1,-8 -2,-13l5 -4 3 1c6,5 7,13 15,18 0,2 0,5 -1,7l-3 -1 -2 2c0,3 1,8 3,9l3 0c6,2 13,7 7,13 0,3 -1,7 -2,10 1,12 29,-1 28,21l3 1c3,6 8,11 10,18 1,5 -2,8 2,14 2,0 4,1 5,3l0 4 2 2c7,1 25,9 28,14 0,2 1,5 2,7 4,7 12,13 15,20 2,4 2,9 4,13 18,6 13,31 20,37 4,0 15,0 17,3l2 6 3 1c4,5 -4,13 11,26l7 1c16,2 35,-13 39,-27 9,-4 15,-14 21,-16 2,1 7,3 9,1 4,-8 22,-15 31,-14l2 2c8,2 40,-6 50,-20 12,-4 47,-4 52,-6 11,6 23,-13 43,-7 11,3 9,17 18,23 12,7 26,10 38,16l1 3 2 4c4,10 1,21 1,32 0,10 11,17 9,30 0,1 -1,3 -2,4l-6 2c-5,5 -6,33 -17,46 -2,8 9,15 11,22 -1,7 -6,13 -9,20 -3,8 -1,17 -3,26 0,2 -1,5 -2,7 -6,11 -16,5 -20,17 0,3 17,30 19,34 4,1 13,7 15,11l0 5c-3,1 -86,1 -100,-1 -18,-2 -72,19 -84,31 -21,20 -29,54 -37,60 -1,8 -7,17 -8,25 -8,34 -6,60 -23,91 1,16 18,24 11,40 8,16 -7,24 -18,34 -5,6 -17,11 -24,17 -9,7 -14,18 -22,27 -14,16 -58,48 -36,75 2,3 12,5 15,6 34,9 44,-8 76,13 27,19 22,16 40,46 28,48 -11,115 49,147 17,9 33,21 49,30 15,8 110,32 84,64 -25,31 -18,-1 -37,59 -11,14 -44,-7 -42,39 0,7 1,14 2,22 3,13 17,7 25,9 3,4 9,8 12,12 27,31 59,34 72,64 20,43 2,47 6,68 2,11 10,15 18,23 11,10 12,25 20,38 4,4 13,2 16,8 31,52 21,54 87,36 13,-4 67,12 80,19 12,5 18,16 24,26 7,12 24,27 41,35 7,3 13,6 18,6 13,-4 41,3 54,7 17,5 46,-2 55,1 -2,0 -8,3 -9,4 -28,13 2,63 -67,90 -16,7 -79,41 -84,54 -9,3 -19,1 -29,5 -8,4 -22,31 -47,40l-14 6c-7,3 -27,31 -35,39 -10,10 -24,15 -35,26 -3,4 -4,12 -2,16 7,5 17,3 23,10 7,26 2,17 23,46 15,19 -18,24 -28,26 -14,2 -27,11 -39,18 -37,18 -49,116 -68,143 -13,18 -27,14 -35,23 -15,16 -42,81 -11,96l23 10c18,8 15,45 37,57 11,6 79,12 95,15 17,3 44,12 60,19l25 12c17,9 32,15 31,35 -1,17 -2,17 -18,24 -2,2 -3,6 -8,8 -36,16 -96,19 -89,72 1,9 2,20 9,26 7,6 42,-12 61,-4 31,14 34,18 51,48 6,9 -17,15 -21,19 -6,4 -10,12 -18,15 -11,6 -24,7 -36,12l-5 3c-1,1 -4,3 -5,4l-20 30c-4,6 -27,16 -35,20 -25,15 -18,49 -19,75l0 8c-1,13 1,26 1,39 0,39 -6,96 47,106 19,3 35,6 51,16 13,8 12,70 5,79 -15,7 -65,95 -44,107 -36,11 -73,24 -109,34 -26,7 -66,9 -90,20 -22,11 -43,39 -65,51 -24,15 -93,47 -123,47 -4,0 -27,-5 -29,-4 -16,3 -163,35 -169,38 -4,2 -82,71 -93,79 -16,12 -41,21 -59,30l-8 5 -2 10 -6 2 -8 -21 2 -10 -22 -24 -2 -18c-14,-10 -30,-32 -35,-49l-20 -1c-10,41 -16,84 -19,126 -3,1 -25,4 -26,4 -39,-9 -87,-14 -124,-27l-78 -37 -24 -13 19 -62 -5 -32c-56,-7 -129,21 -184,21 -34,0 -68,-15 -103,-13 -31,16 -21,63 -59,87l-43 -2c-12,-87 -52,-262 -103,-332l-44 -11 2 -40c-4,4 -43,36 -44,38 -2,2 -54,90 -54,91 -19,46 -53,173 -61,228l-23 8c-50,-17 -104,-33 -152,-54 -39,-18 -75,-49 -115,-66 -33,-14 -111,-6 -146,-15 -27,-7 -54,-31 -81,-39 -26,-9 -62,-11 -90,-16 6,-26 10,-65 20,-89 9,-23 32,-51 45,-72 0,-22 0,-44 1,-66 -11,3 -28,12 -28,26l-11 -3 1 12 -21 7c1,5 3,16 0,21l-6 1c-7,4 -9,19 -23,27l-4 14 3 5c0,4 0,16 -4,19l-17 6 -2 4 1 6 -6 10 4 11c-8,7 -8,36 -7,45 -5,3 -26,31 -27,37l-3 -1c1,0 1,-1 1,-1 -7,1 -17,1 -31,-6 -7,-3 -13,-8 -17,-14 -14,1 -23,-11 -22,-29 -11,-12 -2,-28 -6,-44 -3,-9 -6,-18 -8,-27 -30,-4 -43,-53 -15,-65 -2,-19 7,-29 12,-52 -2,-15 -11,-30 11,-39 -1,-24 -15,-56 -8,-79 -5,-7 -5,-15 -6,-21 -3,-1 -6,-3 -9,-5l-3 -4c-21,-30 -5,-62 -10,-94l-2 -5c-8,-19 -8,-59 11,-71l-2 -5c-4,-12 -5,-24 3,-33 -9,-3 -15,-10 -15,-24 0,-5 1,-9 2,-14 0,-1 0,-1 0,-2 -10,-15 -9,-13 -9,-31l-8 -9 12 -23 -7 -26c10,-9 23,-12 27,-40 0,-3 1,-6 2,-8l-3 -2c-74,-53 -51,-46 -42,-127 4,-37 24,-71 41,-103 3,-29 -25,-53 15,-92 4,-4 7,-6 10,-7 0,-42 -29,-76 -2,-109 2,-2 2,-2 2,-3 0,-23 -30,-23 8,-63 5,-8 11,-22 10,-31 -5,-13 -15,-32 -15,-44 0,-9 8,-14 13,-19 8,-18 9,-24 29,-28l4 -9 4 -10c2,-29 1,-20 15,-42 2,-12 -3,-18 3,-32 12,-33 -4,-29 34,-50l1 -3 5 -5c8,-12 14,-47 17,-63l1 -7c-3,-41 -2,-83 39,-106 5,-7 10,-17 14,-25 6,-11 7,-36 12,-49 6,-11 4,-11 4,-11l6 -12c4,-9 9,-17 14,-25 1,-1 2,-2 3,-4 4,-8 7,-11 10,-14 2,-3 4,-5 5,-6 5,-16 3,-32 13,-44 2,-3 5,-6 9,-8 4,-11 17,-13 13,-28 -4,-15 16,-52 24,-64 4,-19 3,-42 3,-60l1 -7c0,-1 1,-3 1,-4l1 -7c2,-15 14,-24 16,-38 9,-48 4,-33 34,-75 6,-8 32,-52 47,-53 12,-1 37,-71 62,-84l3 -6c21,-43 19,-65 64,-85 27,-13 -1,-20 58,-27 3,-1 6,-1 9,-2 6,-8 13,-17 19,-26 6,-20 15,-29 28,-47l4 -5c6,-9 -7,-21 9,-46 22,-34 49,-75 57,-116 2,-12 22,-29 33,-32 23,-13 12,-16 24,-41 0,-2 0,-4 1,-6l2 -18c2,-11 4,-22 9,-31 0,-8 9,-21 13,-27l3 -6 3 -6c7,-37 -4,-37 21,-68 1,-2 2,-2 2,-2 1,-29 2,-48 12,-76 9,-25 -3,-48 9,-72 -3,0 -14,-5 -15,-8 -21,-13 -15,-17 -28,-29 -31,-20 -48,-52 -68,-82 -12,-19 -10,-63 0,-82 9,-16 31,-39 34,-45 3,-7 7,-13 14,-18l4 -3 2 -1c19,-31 46,-64 44,-102 -13,-23 0,-44 -5,-66 -24,-108 -34,-98 44,-150 36,-25 58,-55 105,-61 16,-12 45,-18 63,-19 13,-10 29,-13 44,-19 19,-24 27,-16 50,-26l5 -6c2,-24 0,-25 -5,-47 -3,-13 -1,-28 12,-36 23,-28 9,-28 47,-59 15,-12 21,-13 29,-28 0,-1 7,-8 8,-8l5 -3c8,-3 8,-4 15,-4 8,-6 21,-7 33,-4 -11,-20 -1,-40 -13,-62 -11,-21 11,-63 34,-62 3,0 11,-4 15,-5 9,-3 31,-4 36,-12 0,-6 -1,-9 -2,-10 -9,-1 -17,0 -25,-8l-2 -3c-31,-50 25,-75 60,-75 4,-8 -1,-11 -7,-15l-6 -6c-32,-28 -52,-115 8,-122 31,-4 20,6 46,-10 4,-9 7,-21 9,-30 -20,-11 -21,-21 -34,-36 -53,-4 -61,-23 -83,-68 -3,-7 -5,-12 -7,-16 -2,0 -5,0 -10,0 -90,0 -80,24 -173,-22 -1,0 -2,-1 -3,-1 6,-9 25,-29 32,-34l3 2z"/>
  <path class="fil3" d="M4757 42417c5,6 13,13 22,13 43,-2 37,-51 55,-76 6,-8 58,-22 70,-24 36,-6 98,57 138,62 18,2 37,2 55,2l8 0c15,-1 21,-9 31,-21 27,4 63,2 61,38 -1,60 23,53 68,58l11 -2c7,-1 22,8 28,12 2,1 73,60 84,39 8,8 27,33 27,35 4,10 11,57 9,62 -11,32 -18,51 10,76l2 6c2,2 3,5 3,8 2,16 11,25 15,38 -2,13 -1,21 0,33 0,2 0,4 -1,7 -14,52 0,49 -5,81 -3,20 3,32 4,51 2,36 49,52 17,87 -3,4 -7,8 -10,15l-1 5c-3,25 9,29 -6,49 -9,11 0,31 3,43 -1,3 -3,6 -6,10 -32,41 -10,52 -21,72 -31,52 -3,60 -15,87 -19,44 -8,42 1,80 -8,24 -13,25 -11,54l-3 6c-21,25 -30,12 -53,59 -5,11 -5,14 -11,21 -40,-19 -94,26 -63,70 4,7 27,16 36,22 16,39 31,61 68,19 9,0 21,1 30,4 8,2 15,27 12,30 -2,3 -5,5 -10,7 0,0 -28,8 -37,17l2 32c11,4 41,-11 49,-2 9,10 3,15 5,23 2,7 10,11 12,17 2,8 -2,10 6,15 2,0 6,-1 9,-2 2,-6 22,-4 24,-2 3,9 3,18 -3,26l2 2c5,5 15,-3 22,3 1,1 13,33 13,36l-3 6 1 3 7 5 3 0 2 -2c3,-8 -1,-8 -2,-14l5 -3 3 1c6,4 7,12 15,18 0,2 0,5 -1,7l-3 -2 -2 3c0,2 1,7 3,9l3 -1c6,2 13,8 7,13 0,4 -1,7 -2,10 1,12 29,0 28,21l3 1c3,7 8,12 10,19 1,5 -2,8 2,13 2,1 4,2 5,3l0 4 2 2c7,2 25,9 28,14 0,3 1,5 2,7 4,8 12,13 15,21 2,4 2,9 4,12 18,6 13,32 20,37 4,0 15,0 17,4l2 5 3 2c4,5 -4,12 11,26l7 1c16,2 35,-13 39,-28 9,-3 15,-13 21,-15 2,1 7,2 9,1 4,-8 22,-15 31,-14l2 2c8,2 40,-7 50,-20 12,-4 47,-4 52,-7 11,6 23,-13 43,-7 11,3 9,18 18,23 12,7 26,10 38,17l1 2 2 4c4,11 1,22 1,32 0,11 11,18 9,30 0,2 -1,3 -2,4l-6 3c-5,5 -6,33 -17,46 -2,7 9,14 11,21 -1,8 -6,14 -9,21 -3,8 -1,17 -3,25 0,3 -1,6 -2,8 -6,10 -16,5 -20,16 0,4 17,30 19,34 4,1 13,8 15,12l0 4c-3,2 -86,1 -100,0 -18,-2 -72,19 -84,31 -21,20 -29,54 -37,59 -1,9 -7,17 -8,26 -8,33 -6,59 -23,91 1,16 18,23 11,39 8,17 -7,25 -18,35 -5,5 -17,11 -24,16 -9,8 -14,19 -22,28 -14,16 -58,47 -36,74 2,3 12,6 15,7 34,9 44,-9 76,13 27,18 22,15 40,45 28,49 -11,116 49,148 17,8 33,21 49,30 15,8 110,32 84,64 -25,30 -18,-1 -37,59 -11,14 -44,-8 -42,38 0,8 1,15 2,22 3,14 17,8 25,9 3,4 9,8 12,12 27,32 59,35 72,64 20,43 2,48 6,68 2,12 10,15 18,23 11,11 12,25 20,38 4,5 13,3 16,8 31,52 21,54 87,36 13,-4 67,13 80,19 12,6 18,16 24,27 7,11 24,27 41,35 7,3 13,5 18,6 13,-4 41,3 54,7 17,5 46,-3 55,1 -2,-1 -8,3 -9,3 -28,13 2,64 -67,91 -16,6 -79,41 -84,53 -9,4 -19,1 -29,6 -8,4 -22,30 -47,40l-14 6c-7,3 -27,31 -35,38 -10,10 -24,16 -35,27 -3,3 -4,11 -2,16 7,5 17,2 23,10 7,25 2,17 23,45 15,20 -18,25 -28,27 -14,2 -27,11 -39,17 -37,19 -49,116 -68,143 -13,19 -27,15 -35,23 -15,17 -42,82 -11,96l23 10c18,9 15,45 37,58 11,6 79,11 95,14 17,3 44,12 60,20l25 12c17,8 32,15 31,35 -1,16 -2,16 -18,24 -2,1 -3,5 -8,8 -36,16 -96,19 -89,71 1,9 2,20 9,27 7,5 42,-13 61,-4 31,14 34,18 51,47 6,9 -17,15 -21,19 -6,5 -10,12 -18,16 -11,5 -24,6 -36,12l-5 3c-1,1 -4,2 -5,3l-20 30c-4,7 -27,17 -35,21 -25,15 -18,48 -19,75l0 7c-1,14 1,26 1,39 0,39 -6,97 47,107 19,3 35,6 51,16 13,7 12,69 5,79 -15,6 -65,94 -44,107 -36,11 -73,24 -109,34 -26,7 -66,9 -90,20 -22,10 -43,38 -65,51 -24,14 -93,46 -123,46 -4,0 -27,-4 -29,-4 -16,4 -163,36 -169,38 -4,2 -82,71 -93,80 -16,11 -41,21 -59,30l-8 4 -2 10 -6 2 -8 -21 2 -10 -22 -24 -2 -18c-14,-9 -30,-32 -35,-48l-20 -1c-10,41 -16,84 -19,126 -3,0 -25,3 -26,3 -39,-8 -87,-13 -124,-26l-78 -37 -24 -13 19 -63 -5 -32c-56,-6 -129,21 -184,21 -34,0 -68,-15 -103,-13 -31,17 -21,63 -59,88l-43 -2c-12,-88 -52,-263 -103,-333l-44 -11 2 -39c-4,3 -43,36 -44,37 -2,2 -54,90 -54,92 -19,46 -53,172 -61,227l-23 9c-50,-18 -104,-33 -152,-55 -39,-17 -75,-48 -115,-65 -33,-15 -111,-6 -146,-16 -27,-7 -54,-30 -81,-39 -26,-8 -62,-11 -90,-15 6,-27 10,-65 20,-90 9,-22 32,-51 45,-72 0,-22 0,-44 1,-65 -11,3 -28,12 -28,26l-11 -4 1 12 -21 8c1,4 3,16 0,20l-6 2c-7,3 -9,19 -23,27l-4 13 3 6c0,4 0,15 -4,18l-17 6 -2 4 1 7 -6 9 4 11c-8,7 -8,36 -7,45 -5,3 -26,31 -27,37l-3 0c1,-1 1,-1 1,-2 -7,2 -17,1 -31,-5 -7,-4 -13,-9 -17,-14 -14,0 -23,-12 -22,-30 -11,-12 -2,-28 -6,-44 -3,-8 -6,-17 -8,-26 -30,-4 -43,-53 -15,-65 -2,-20 7,-30 12,-52 -2,-15 -11,-31 11,-39 -1,-25 -15,-57 -8,-80 -5,-6 -5,-14 -6,-21 -3,-1 -6,-2 -9,-5l-3 -3c-21,-31 -5,-63 -10,-94l-2 -6c-8,-18 -8,-59 11,-71l-2 -5c-4,-11 -5,-24 3,-32 -9,-4 -15,-11 -15,-25 0,-4 1,-9 2,-13 0,-1 0,-2 0,-3 -10,-14 -9,-13 -9,-30l-8 -10 12 -23 -7 -25c10,-10 23,-13 27,-41 0,-3 1,-5 2,-8l-3 -2c-74,-52 -51,-46 -42,-127 4,-36 24,-70 41,-103 3,-28 -25,-53 15,-92 4,-3 7,-5 10,-7 0,-41 -29,-76 -2,-109 2,-1 2,-2 2,-2 0,-24 -30,-24 8,-64 5,-7 11,-21 10,-31 -5,-12 -15,-31 -15,-44 0,-8 8,-14 13,-19 8,-17 9,-23 29,-28l4 -9 4 -9c2,-29 1,-20 15,-43 2,-11 -3,-18 3,-32 12,-32 -4,-28 34,-50l1 -2 5 -6c8,-12 14,-46 17,-62l1 -7c-3,-41 -2,-83 39,-106 5,-8 10,-18 14,-26 6,-11 7,-36 12,-49 6,-11 4,-11 4,-11l6 -12c4,-8 9,-16 14,-24 1,-2 2,-3 3,-4 4,-8 7,-12 10,-15 2,-2 4,-4 5,-6 5,-15 3,-31 13,-44 2,-3 5,-6 9,-8 4,-11 17,-13 13,-28 -4,-14 16,-51 24,-63 4,-19 3,-42 3,-61l1 -7c0,-1 1,-2 1,-3l1 -7c2,-15 14,-25 16,-38 9,-48 4,-34 34,-75 6,-9 32,-52 47,-53 12,-1 37,-72 62,-85l3 -6c21,-42 19,-64 64,-85 27,-12 -1,-20 58,-27 3,0 6,-1 9,-1 6,-9 13,-17 19,-26 6,-21 15,-30 28,-47l4 -6c6,-9 -7,-20 9,-46 22,-34 49,-75 57,-115 2,-13 22,-30 33,-32 23,-14 12,-17 24,-42 0,-1 0,-4 1,-6l2 -18c2,-10 4,-21 9,-31 0,-7 9,-21 13,-26l3 -6 3 -6c7,-37 -4,-38 21,-69 1,-1 2,-2 2,-2 1,-28 2,-48 12,-75 9,-26 -3,-48 9,-72 -3,-1 -14,-6 -15,-8 -21,-14 -15,-17 -28,-29 -31,-20 -48,-52 -68,-82 -12,-20 -10,-63 0,-82 9,-16 31,-39 34,-45 3,-8 7,-13 14,-18l4 -3 2 -2c19,-30 46,-63 44,-102 -13,-23 0,-44 -5,-66 -24,-107 -34,-97 44,-150 36,-24 58,-54 105,-61 16,-12 45,-18 63,-19 13,-9 29,-13 44,-19 19,-24 27,-15 50,-25l5 -6c2,-24 0,-25 -5,-47 -3,-14 -1,-29 12,-36 23,-28 9,-29 47,-60 15,-11 21,-12 29,-28 0,-1 7,-7 8,-8l5 -3c8,-3 8,-3 15,-3 8,-7 21,-8 33,-5 -11,-19 -1,-40 -13,-62 -11,-20 11,-62 34,-62 3,0 11,-4 15,-5 9,-2 31,-4 36,-11 0,-7 -1,-9 -2,-10 -9,-1 -17,-1 -25,-8l-2 -4c-31,-50 25,-74 60,-75 4,-7 -1,-10 -7,-15l-6 -6c-32,-27 -52,-114 8,-122 31,-4 20,6 46,-10 4,-8 7,-20 9,-29 -20,-12 -21,-22 -34,-36 -53,-4 -61,-23 -83,-69 -3,-6 -5,-11 -7,-15 -2,-1 -5,-1 -10,-1 -90,0 -80,24 -173,-21 -1,-1 -2,-1 -3,-1 6,-9 25,-29 32,-35l3 3z"/>
 </g>
</svg>