<svg xmlns="http://www.w3.org/2000/svg" xml:space="preserve" width="120.65mm" height="603.25mm" version="1.1" style="shape-rendering:geometricPrecision; text-rendering:geometricPrecision; image-rendering:optimizeQuality; fill-rule:evenodd; clip-rule:evenodd"
viewBox="0 0 9956 49779"
 xmlns:xlink="http://www.w3.org/1999/xlink">
 <!-- Created by: Treedbox, treedbox.com.br -->
 <defs>
  <style type="text/css">
   <![CDATA[
    .fil0 {fill:none}
    .fil3 {fill:#30719E}
    .fil2 {fill:#ccc}
    .fil1 {fill:#fff}
   ]]>
  </style>
 </defs>
 <g id="geo">
<rect class="fil0" width="9956" height="49779"/>
  <g id="_684843392">
   <path class="fil1" d="M4293 3666l768 -767c519,-519 1368,-519 1886,0l110 109c519,519 519,1368 0,1887l-768 768c-519,519 -1368,519 -1886,0l-110 -110c-155,-154 -263,-338 -326,-534l178 -178c121,-121 279,-183 438,-187 12,165 81,327 207,453l59 59c279,279 735,279 1013,0l698 -698c279,-279 279,-735 0,-1013l-59 -59c-279,-279 -735,-279 -1013,0l-490 489c-127,-36 -257,-54 -388,-54 -177,0 -355,33 -522,99 56,-94 124,-183 205,-264zm-367 1188c-44,-238 -23,-487 63,-716 192,-108 406,-162 621,-162 90,0 180,10 268,29l-88 88c-116,116 -184,263 -203,415 -198,4 -395,80 -545,231l-116 115z"/>
   <path class="fil1" d="M2899 5061l767 -768c519,-519 1368,-519 1887,0l110 110c155,154 263,338 326,534l-178 177c-121,121 -279,184 -438,188 -12,-165 -81,-327 -207,-453l-59 -59c-279,-279 -735,-279 -1014,0l-697 698c-279,278 -279,734 0,1013l59 59c278,279 734,279 1013,0l490 -489c126,36 257,54 388,54 177,0 355,-33 522,-100 -56,95 -124,183 -205,264l-768 768c-519,519 -1368,519 -1887,0l-109 -110c-519,-518 -519,-1367 0,-1886zm2178 890l89 -89c116,-116 184,-263 203,-415 198,-3 395,-80 545,-230l116 -116c44,239 23,487 -63,716 -192,108 -407,162 -621,162 -90,0 -180,-9 -269,-28z"/>
  </g>
  <g id="_595021488">
   <path class="fil2" d="M4293 23578l768 -768c519,-519 1368,-519 1886,0l110 110c519,519 519,1368 0,1886l-768 768c-519,519 -1368,519 -1886,0l-110 -109c-155,-155 -263,-339 -326,-535l178 -177c121,-121 279,-184 438,-188 12,166 81,328 207,453l59 59c279,279 735,279 1013,0l698 -697c279,-279 279,-735 0,-1014l-59 -59c-279,-279 -735,-279 -1013,0l-490 490c-127,-36 -257,-55 -388,-55 -177,0 -355,34 -522,100 56,-95 124,-183 205,-264zm-367 1188c-44,-239 -23,-487 63,-716 192,-108 406,-162 621,-162 90,0 180,9 268,28l-88 89c-116,116 -184,263 -203,415 -198,3 -395,80 -545,230l-116 116z"/>
   <path class="fil2" d="M2899 24972l767 -768c519,-519 1368,-519 1887,0l110 110c155,155 263,339 326,534l-178 178c-121,121 -279,183 -438,187 -12,-165 -81,-327 -207,-453l-59 -59c-279,-278 -735,-278 -1014,0l-697 698c-279,279 -279,735 0,1014l59 59c278,278 734,278 1013,0l490 -490c126,36 257,54 388,54 177,0 355,-33 522,-99 -56,94 -124,183 -205,264l-768 768c-519,518 -1368,518 -1887,0l-109 -110c-519,-519 -519,-1368 0,-1887zm2178 890l89 -88c116,-116 184,-263 203,-415 198,-3 395,-80 545,-230l116 -116c44,238 23,487 -63,716 -192,108 -407,162 -621,162 -90,0 -180,-10 -269,-29z"/>
  </g>
  <g id="_681768624">
   <path class="fil3" d="M4293 43489l768 -768c519,-518 1368,-518 1886,0l110 110c519,519 519,1368 0,1887l-768 768c-519,519 -1368,519 -1886,0l-110 -110c-155,-155 -263,-338 -326,-534l178 -178c121,-121 279,-183 438,-187 12,165 81,327 207,453l59 59c279,278 735,278 1013,0l698 -698c279,-279 279,-735 0,-1014l-59 -58c-279,-279 -735,-279 -1013,0l-490 489c-127,-36 -257,-54 -388,-54 -177,0 -355,33 -522,99 56,-94 124,-183 205,-264zm-367 1188c-44,-238 -23,-487 63,-716 192,-108 406,-162 621,-162 90,0 180,10 268,29l-88 88c-116,116 -184,263 -203,415 -198,4 -395,80 -545,230l-116 116z"/>
   <path class="fil3" d="M2899 44884l767 -768c519,-519 1368,-519 1887,0l110 109c155,155 263,339 326,535l-178 177c-121,121 -279,184 -438,188 -12,-166 -81,-327 -207,-453l-59 -59c-279,-279 -735,-279 -1014,0l-697 697c-279,279 -279,735 0,1014l59 59c278,279 734,279 1013,0l490 -489c126,36 257,54 388,54 177,0 355,-34 522,-100 -56,95 -124,183 -205,264l-768 768c-519,519 -1368,519 -1887,0l-109 -110c-519,-519 -519,-1368 0,-1886zm2178 890l89 -89c116,-116 184,-263 203,-415 198,-3 395,-80 545,-230l116 -116c44,239 23,487 -63,716 -192,108 -407,162 -621,162 -90,0 -180,-9 -269,-28z"/>
  </g>
 </g>
</svg>