<svg xmlns="http://www.w3.org/2000/svg" xml:space="preserve" width="120.65mm" height="603.25mm" version="1.1" style="shape-rendering:geometricPrecision; text-rendering:geometricPrecision; image-rendering:optimizeQuality; fill-rule:evenodd; clip-rule:evenodd"
viewBox="0 0 9956 49779"
 xmlns:xlink="http://www.w3.org/1999/xlink">
 <!-- Created by: Treedbox, treedbox.com.br -->
 <defs>
  <style type="text/css">
   <![CDATA[
    .fil0 {fill:none}
    .fil3 {fill:#30719E}
    .fil2 {fill:#CCCBCB}
    .fil1 {fill:white}
   ]]>
  </style>
 </defs>
 <g id="geo">
  <polygon class="fil0" points="0,0 9956,0 9956,49779 0,49779 "/>
  <path class="fil1" d="M3465 3918c146,-19 254,-66 343,-123 209,-400 346,-677 784,-825 413,-139 1054,12 1122,476 604,-49 749,-32 1272,0 7,0 1215,0 1223,1 220,11 395,193 395,416 0,205 -148,376 -343,411 -6,1 -1212,2 -1218,2 164,109 360,102 360,422 0,201 -143,370 -333,408 109,67 183,188 183,326 0,202 -156,366 -353,381 -28,17 -59,32 -93,46 117,50 199,166 199,302 0,420 -698,351 -1025,368 -287,15 -568,14 -844,-1 -686,-38 -1064,-174 -1672,-285 0,65 0,129 0,193 -304,0 -609,0 -913,0 0,-905 0,-1810 0,-2715 304,0 609,0 913,0 0,66 0,131 0,197z"/>
  <path class="fil2" d="M3465 23829c146,-18 254,-65 343,-122 209,-400 346,-678 784,-825 413,-140 1054,11 1122,476 604,-49 749,-33 1272,0 7,0 1215,0 1223,0 220,11 395,194 395,417 0,205 -148,376 -343,410 -6,1 -1212,2 -1218,3 164,108 360,101 360,421 0,202 -143,370 -333,409 109,67 183,188 183,326 0,201 -156,366 -353,381 -28,16 -59,31 -93,45 117,51 199,167 199,302 0,421 -698,351 -1025,368 -287,15 -568,14 -844,-1 -686,-37 -1064,-173 -1672,-284 0,64 0,128 0,193 -304,0 -609,0 -913,0 0,-905 0,-1810 0,-2716 304,0 609,0 913,0 0,66 0,132 0,197z"/>
  <path class="fil3" d="M3465 43741c146,-19 254,-66 343,-123 209,-400 346,-677 784,-825 413,-139 1054,12 1122,476 604,-49 749,-32 1272,0 7,0 1215,0 1223,1 220,11 395,193 395,416 0,205 -148,376 -343,411 -6,1 -1212,2 -1218,2 164,109 360,101 360,422 0,201 -143,370 -333,408 109,67 183,188 183,326 0,202 -156,366 -353,381 -28,17 -59,32 -93,46 117,50 199,166 199,302 0,420 -698,351 -1025,368 -287,15 -568,14 -844,-1 -686,-38 -1064,-174 -1672,-285 0,65 0,129 0,193 -304,0 -609,0 -913,0 0,-905 0,-1810 0,-2715 304,0 609,0 913,0 0,66 0,131 0,197z"/>
 </g>
</svg>