<svg xmlns="http://www.w3.org/2000/svg" xml:space="preserve" width="120.65mm" height="120.65mm" version="1.1" style="clip-rule:evenodd" viewBox="0 0 3537 3537">
  <!-- Created by: Treedbox, treedbox.com.br -->
 <defs>
  <style type="text/css">
   <![CDATA[
    .fil0 {fill:none}
    .fil1 {fill:#000}
    #geo{
    animation: girar 3s infinite linear;
    transform-origin:center;
    }
    .zoom{animation: zoom 50s infinite linear; transform-origin:center}
    @keyframes girar {
      0%{
        -webkit-transform: rotate(0deg);
      }
      100%{
        -webkit-transform: rotate(360deg);
      }
    }
    @keyframes zoom {
      0%{
        transform: scale(.7);
      }
      40%{
        transform: scale(1);
      }
      50%{
        transform: scale(1);
      }
      100%{
        transform: scale(.7);
      }
    }
   ]]>
  </style>
 </defs>
<g class="zoom">
 <g id="geo">
  <rect class="fil0" transform="matrix(2.64845E-014 -1 1 2.64845E-014 0.00013635 3536.7)" width="3537" height="3537"/>
  <path class="fil1" d="M1841 2c269,10 523,82 748,200l-150 259c-181,-93 -383,-149 -598,-160l0 -299zm874 272c220,140 407,328 547,548l-259 150c-114,-175 -263,-325 -438,-438l150 -260zm620 674c118,225 189,479 200,748l-300 0c-10,-215 -67,-418 -160,-598l260 -150zm200 893c-11,269 -82,523 -200,748l-260 -150c93,-181 150,-383 160,-598l300 0zm-273 874c-140,220 -327,407 -547,547l-150 -259c175,-114 324,-263 438,-438l259 150zm-673 620c-225,118 -479,189 -748,200l0 -300c215,-10 417,-67 598,-160l150 260zm-893 200c-269,-11 -523,-82 -748,-200l150 -260c180,93 383,150 598,160l0 300zm-874 -273c-220,-140 -408,-327 -548,-547l260 -150c113,175 263,324 438,438l-150 259zm-620 -673c-118,-225 -190,-479 -200,-748l299 0c11,215 67,417 160,598l-259 150zm-200 -893c10,-269 82,-523 200,-748l259 150c-93,180 -149,383 -160,598l-299 0zm272 -874c140,-220 328,-408 548,-548l150 260c-175,113 -325,263 -438,438l-260 -150zm674 -620c225,-118 479,-190 748,-200l0 299c-215,11 -418,67 -598,160l-150 -259z"/>
 </g>
 </g>
</svg>
