<svg xmlns="http://www.w3.org/2000/svg" xml:space="preserve" width="120.65mm" height="603.25mm" version="1.1" style="shape-rendering:geometricPrecision; text-rendering:geometricPrecision; image-rendering:optimizeQuality; fill-rule:evenodd; clip-rule:evenodd"
viewBox="0 0 9956 49779"
 xmlns:xlink="http://www.w3.org/1999/xlink">
 <!-- Created by: Treedbox, treedbox.com.br -->
 <defs>
  <style type="text/css">
   <![CDATA[
    .fil0 {fill:none}
    .fil3 {fill:#30719E}
    .fil2 {fill:#ccc}
    .fil1 {fill:#fff}
   ]]>
  </style>
 </defs>
 <g id="geo">
<rect class="fil0" width="9956" height="49779"/>
  <path class="fil1" d="M3236 7449l3484 0 0 -3785 -1306 -1157 -2178 0 0 4942zm392 -4208l1768 0 0 180 -1768 0 0 -180zm0 361l2143 0 0 181 -2143 0 0 -181zm20 780l2659 0 0 181 -2659 0 0 -181zm0 439l2659 0 0 181 -2659 0 0 -181zm0 439l2659 0 0 181 -2659 0 0 -181zm0 439l2659 0 0 180 -2659 0 0 -180zm0 439l2659 0 0 180 -2659 0 0 -180zm0 438l2659 0 0 181 -2659 0 0 -181z"/>
  <path class="fil2" d="M3236 27361l3484 0 0 -3786 -1306 -1157 -2178 0 0 4943zm392 -4209l1768 0 0 181 -1768 0 0 -181zm0 361l2143 0 0 181 -2143 0 0 -181zm20 781l2659 0 0 180 -2659 0 0 -180zm0 438l2659 0 0 181 -2659 0 0 -181zm0 439l2659 0 0 181 -2659 0 0 -181zm0 439l2659 0 0 181 -2659 0 0 -181zm0 439l2659 0 0 181 -2659 0 0 -181zm0 439l2659 0 0 181 -2659 0 0 -181z"/>
  <path class="fil3" d="M3236 47272l3484 0 0 -3785 -1306 -1157 -2178 0 0 4942zm392 -4209l1768 0 0 181 -1768 0 0 -181zm0 362l2143 0 0 181 -2143 0 0 -181zm20 780l2659 0 0 181 -2659 0 0 -181zm0 439l2659 0 0 181 -2659 0 0 -181zm0 439l2659 0 0 180 -2659 0 0 -180zm0 439l2659 0 0 180 -2659 0 0 -180zm0 439l2659 0 0 180 -2659 0 0 -180zm0 438l2659 0 0 181 -2659 0 0 -181z"/>
 </g>
</svg>