<svg xmlns="http://www.w3.org/2000/svg" xml:space="preserve" width="120.65mm" height="603.25mm" version="1.1" sstyle="fill-rule:evenodd"
viewBox="0 0 9956 49779">
<!--by TreedBox.com.br-->
 <defs>
  <style type="text/css">
   <![CDATA[
    .fil0 {fill:none}
    .fil3 {fill:black}
    .fil2 {fill:#CCCBCB}
    .fil1 {fill:white}
   ]]>
  </style>
 </defs>
 <g id="geo">
  <polygon class="fil0" points="0,0 9956,0 9956,49779 0,49779 "/>
  <path class="fil1" d="M5300 3678c329,-403 713,-733 1129,-1021 -959,-347 -1531,-108 -1602,892 -264,-430 -575,-586 -923,-624 -489,-54 -916,173 -1204,710 644,-64 1243,-42 1687,268 -1316,-206 -1665,517 -1547,1687 546,-645 1136,-1136 1851,-1180 -9,-26 -14,-53 -14,-82 0,-140 113,-253 252,-253 140,0 253,113 253,253 0,102 -62,191 -150,230 654,559 1003,1118 1214,1677 222,-415 325,-792 261,-1114 -108,-542 -513,-960 -1293,-949 549,-190 1235,-29 2042,440 -94,-583 -405,-1090 -994,-1239 -268,-68 -579,1 -962,305l0 0zm-704 75c104,0 189,84 189,188 0,104 -85,188 -189,188 -104,0 -188,-84 -188,-188 0,-104 84,-188 188,-188zm70 3696c74,-945 109,-1891 97,-2837 64,0 129,0 193,0 54,975 166,1920 333,2837 -207,0 -415,0 -623,0l0 0z"/>
  <path class="fil2" d="M5300 23589c329,-403 713,-733 1129,-1021 -959,-347 -1531,-108 -1602,892 -264,-430 -575,-586 -923,-624 -489,-53 -916,174 -1204,710 644,-63 1243,-41 1687,269 -1316,-206 -1665,516 -1547,1687 546,-646 1136,-1137 1851,-1180 -9,-26 -14,-54 -14,-83 0,-140 113,-252 252,-252 140,0 253,112 253,252 0,103 -62,191 -150,231 654,559 1003,1118 1214,1676 222,-415 325,-791 261,-1114 -108,-542 -513,-960 -1293,-949 549,-189 1235,-29 2042,441 -94,-583 -405,-1091 -994,-1240 -268,-68 -579,2 -962,305l0 0zm-704 75c104,0 189,84 189,188 0,104 -85,188 -189,188 -104,0 -188,-84 -188,-188 0,-104 84,-188 188,-188zm70 3697c74,-946 109,-1892 97,-2837 64,0 129,0 193,0 54,974 166,1919 333,2837 -207,0 -415,0 -623,0l0 0z"/>
  <path class="fil3" d="M5300 43500c329,-402 713,-732 1129,-1020 -959,-348 -1531,-109 -1602,891 -264,-430 -575,-585 -923,-623 -489,-54 -916,173 -1204,709 644,-63 1243,-41 1687,269 -1316,-206 -1665,517 -1547,1687 546,-645 1136,-1136 1851,-1180 -9,-26 -14,-53 -14,-83 0,-139 113,-252 252,-252 140,0 253,113 253,252 0,103 -62,192 -150,231 654,559 1003,1118 1214,1677 222,-415 325,-792 261,-1114 -108,-542 -513,-960 -1293,-949 549,-190 1235,-29 2042,440 -94,-583 -405,-1090 -994,-1239 -268,-68 -579,1 -962,304l0 0zm-704 76c104,0 189,84 189,187 0,105 -85,189 -189,189 -104,0 -188,-85 -188,-189 0,-103 84,-187 188,-187zm70 3696c74,-945 109,-1891 97,-2837 64,0 129,0 193,0 54,975 166,1920 333,2837 -207,0 -415,0 -623,0l0 0z"/>
 </g>
</svg>