<svg xmlns="http://www.w3.org/2000/svg" width="120.65mm" height="603.25mm" style="fill-rule:evenodd" viewBox="0 0 9956 49779">
<!--by TreedBox.com.br-->
 <defs>
  <style type="text/css">
   <![CDATA[
    .fil0 {fill:none}
    .fil3 {fill:#30719E}
    .fil2 {fill:#CCC}
    .fil1 {fill:#fff}
   ]]>
  </style>
 </defs>
 <g id="geo">
<rect class="fil0" width="9956" height="49779"/>
  <g id="_688582768">
   <path class="fil1" d="M2495 3909l-457 402 437 407 368 -484 -48 -46 124 -133c166,-60 316,-79 450,-59l1279 1191c-30,120 4,253 100,342l1731 1611c4,5 9,9 14,12 -1,51 19,102 58,139l96 89c74,70 192,65 262,-9l475 -511c70,-75 65,-192 -9,-262l-96 -89c-40,-37 -92,-53 -142,-48 -5,-5 -9,-9 -13,-13l-1731 -1611c-97,-90 -232,-115 -350,-76l-1306 -1215c-14,-108 -11,-222 10,-342 289,-396 704,-474 1150,-472 -1,-33 -2,-65 -3,-98 -610,-152 -1335,-71 -1860,327 -247,188 -394,456 -373,868l-117 126 -49 -46z"/>
   <path class="fil1" d="M6744 4270c-25,49 -58,95 -98,137l-758 782 -441 -411c-58,-54 -128,-89 -201,-105 -46,-10 -93,-12 -140,-7l913 -885c44,-43 93,-77 144,-102 -84,-304 -2,-650 244,-896 273,-273 669,-345 995,-210l121 172 -592 314 333 581 570 -256 83 146c-32,182 -119,358 -262,501 -250,250 -603,331 -911,239zm-1626 1713l-1264 1303c-49,50 -487,313 -756,43l0 0c-270,-270 -8,-707 43,-756l1410 -1368 10 10c-8,60 -3,122 14,180 21,72 61,139 119,193l424 395z"/>
  </g>
  <g id="_688589040">
   <path class="fil2" d="M2495 23821l-457 402 437 406 368 -484 -48 -45 124 -134c166,-59 316,-79 450,-58l1279 1191c-30,119 4,252 100,342l1731 1611c4,4 9,8 14,12 -1,51 19,102 58,139l96 89c74,69 192,65 262,-10l475 -510c70,-75 65,-193 -9,-262l-96 -89c-40,-37 -92,-53 -142,-49 -5,-4 -9,-9 -13,-13l-1731 -1611c-97,-90 -232,-114 -350,-75l-1306 -1216c-14,-107 -11,-222 10,-342 289,-396 704,-473 1150,-472 -1,-32 -2,-65 -3,-97 -610,-153 -1335,-71 -1860,326 -247,188 -394,456 -373,868l-117 126 -49 -45z"/>
   <path class="fil2" d="M6744 24182c-25,49 -58,95 -98,137l-758 781 -441 -410c-58,-55 -128,-90 -201,-105 -46,-10 -93,-12 -140,-7l913 -886c44,-42 93,-76 144,-101 -84,-305 -2,-651 244,-897 273,-273 669,-344 995,-210l121 172 -592 314 333 581 570 -255 83 145c-32,183 -119,359 -262,501 -250,251 -603,331 -911,240zm-1626 1712l-1264 1304c-49,50 -487,312 -756,43l0 0c-270,-270 -8,-708 43,-757l1410 -1367 10 10c-8,60 -3,121 14,180 21,71 61,138 119,192l424 395z"/>
  </g>
  <g id="_688594128">
   <path class="fil3" d="M2495 43732l-457 402 437 407 368 -484 -48 -46 124 -133c166,-60 316,-79 450,-59l1279 1191c-30,120 4,253 100,342l1731 1611c4,5 9,9 14,12 -1,51 19,102 58,139l96 89c74,69 192,65 262,-9l475 -511c70,-75 65,-192 -9,-262l-96 -89c-40,-37 -92,-53 -142,-49 -5,-4 -9,-8 -13,-12l-1731 -1611c-97,-90 -232,-115 -350,-76l-1306 -1215c-14,-108 -11,-222 10,-343 289,-395 704,-473 1150,-471 -1,-33 -2,-65 -3,-98 -610,-152 -1335,-71 -1860,327 -247,188 -394,456 -373,868l-117 126 -49 -46z"/>
   <path class="fil3" d="M6744 44093c-25,49 -58,95 -98,137l-758 781 -441 -410c-58,-54 -128,-89 -201,-105 -46,-10 -93,-12 -140,-7l913 -885c44,-43 93,-77 144,-102 -84,-304 -2,-650 244,-896 273,-273 669,-345 995,-210l121 171 -592 315 333 581 570 -256 83 146c-32,182 -119,358 -262,501 -250,250 -603,331 -911,239zm-1626 1713l-1264 1303c-49,50 -487,313 -756,43l0 0c-270,-270 -8,-707 43,-756l1410 -1368 10 10c-8,60 -3,122 14,180 21,72 61,139 119,193l424 395z"/>
  </g>
 </g>
</svg>