<svg xmlns="http://www.w3.org/2000/svg" width="120.65mm" height="603.25mm" style="fill-rule:evenodd" viewBox="0 0 9956 49779">
<!--by TreedBox.com.br-->
 <defs>
  <style type="text/css">
   <![CDATA[
    .fil0 {fill:none}
    .fil3 {fill:#30719E}
    .fil2 {fill:#ccc}
    .fil1 {fill:#fff}
   ]]>
  </style>
 </defs>
 <g id="geo">
  <polygon class="fil0" points="0,0 9956,0 9956,49779 0,49779 "/>
  <path class="fil1" d="M7149 4299c143,-440 286,-879 429,-1319 0,-261 -1164,-473 -2600,-473 -1436,0 -2601,212 -2601,473l430 1319 1756 1588 265 1507c4,72 304,74 300,0l265 -1507 1756 -1588zm-2171 -1038c1228,0 2223,-126 2223,-281 0,-155 -995,-281 -2223,-281 -1228,0 -2224,126 -2224,281 0,155 996,281 2224,281z"/>
  <path class="fil2" d="M7149 24211c143,-440 286,-880 429,-1320 0,-261 -1164,-473 -2600,-473 -1436,0 -2601,212 -2601,473l430 1320 1756 1587 265 1508c4,72 304,74 300,0l265 -1508 1756 -1587zm-2171 -1038c1228,0 2223,-126 2223,-282 0,-155 -995,-281 -2223,-281 -1228,0 -2224,126 -2224,281 0,156 996,282 2224,282z"/>
  <path class="fil3" d="M7149 44122c143,-440 286,-879 429,-1319 0,-261 -1164,-473 -2600,-473 -1436,0 -2601,212 -2601,473l430 1319 1756 1588 265 1507c4,72 304,74 300,0l265 -1507 1756 -1588zm-2171 -1038c1228,0 2223,-126 2223,-281 0,-156 -995,-282 -2223,-282 -1228,0 -2224,126 -2224,282 0,155 996,281 2224,281z"/>
 </g>
</svg>