<svg xmlns="http://www.w3.org/2000/svg" xml:space="preserve" width="120.65mm" height="603.25mm" version="1.1" style="shape-rendering:geometricPrecision; text-rendering:geometricPrecision; image-rendering:optimizeQuality; fill-rule:evenodd; clip-rule:evenodd"
viewBox="0 0 9956 49779"
 xmlns:xlink="http://www.w3.org/1999/xlink">
 <!-- Created by: Treedbox, treedbox.com.br -->
 <defs>
  <style type="text/css">
   <![CDATA[
    .fil0 {fill:none}
    .fil3 {fill:#30719E}
    .fil2 {fill:#ccc}
    .fil1 {fill:#fff}
   ]]>
  </style>
 </defs>
 <g id="geo">
<rect class="fil0" width="9956" height="49779"/>
  <path class="fil1" d="M3356 7449l3244 0 0 -4601 -648 0 -116 562 -7 35 -35 0 -1632 0 -35 0 -7 -35 -116 -562 -648 0 0 4601zm2508 -4600l-1773 0 106 510 1562 0 105 -510zm-1424 -342l1076 0 -71 341 -935 0 -70 -341zm-700 4078l2476 0 0 168 -2476 0 0 -168zm0 -490l2476 0 0 168 -2476 0 0 -168zm0 -490l2476 0 0 168 -2476 0 0 -168zm0 -491l2476 0 0 169 -2476 0 0 -169zm0 -490l2476 0 0 168 -2476 0 0 -168zm0 -490l2476 0 0 168 -2476 0 0 -168z"/>
  <path class="fil2" d="M3356 27361l3244 0 0 -4601 -648 0 -116 562 -7 34 -35 0 -1632 0 -35 0 -7 -34 -116 -562 -648 0 0 4601zm2508 -4601l-1773 0 106 510 1562 0 105 -510zm-1424 -342l1076 0 -71 342 -935 0 -70 -342zm-700 4079l2476 0 0 168 -2476 0 0 -168zm0 -491l2476 0 0 169 -2476 0 0 -169zm0 -490l2476 0 0 168 -2476 0 0 -168zm0 -490l2476 0 0 168 -2476 0 0 -168zm0 -490l2476 0 0 168 -2476 0 0 -168zm0 -491l2476 0 0 168 -2476 0 0 -168z"/>
  <path class="fil3" d="M3356 47272l3244 0 0 -4601 -648 0 -116 562 -7 35 -35 0 -1632 0 -35 0 -7 -35 -116 -562 -648 0 0 4601zm2508 -4600l-1773 0 106 510 1562 0 105 -510zm-1424 -342l1076 0 -71 341 -935 0 -70 -341zm-700 4078l2476 0 0 168 -2476 0 0 -168zm0 -490l2476 0 0 168 -2476 0 0 -168zm0 -490l2476 0 0 168 -2476 0 0 -168zm0 -491l2476 0 0 168 -2476 0 0 -168zm0 -490l2476 0 0 168 -2476 0 0 -168zm0 -490l2476 0 0 168 -2476 0 0 -168z"/>
 </g>
</svg>