<svg xmlns="http://www.w3.org/2000/svg" xml:space="preserve" width="120.65mm" height="603.25mm" version="1.1" style="shape-rendering:geometricPrecision; text-rendering:geometricPrecision; image-rendering:optimizeQuality; fill-rule:evenodd; clip-rule:evenodd"
viewBox="0 0 9956 49779"
 xmlns:xlink="http://www.w3.org/1999/xlink">
<!-- Created by: Treedbox, treedbox.com.br -->
 <defs>
  <style type="text/css">
   <![CDATA[
    .fil0 {fill:none}
    .fil3 {fill:#30719E}
    .fil2 {fill:#ccc}
    .fil1 {fill:#fff}
   ]]>
  </style>
 </defs>
 <g id="geo">
<rect class="fil0" width="9956" height="49779"/>
  <path class="fil1" d="M4978 2507c549,1630 209,1491 1747,724 -764,1541 -906,1202 724,1747 -1630,549 -1491,209 -724,1747 -1541,-764 -1203,-906 -1747,724 -549,-1630 -210,-1491 -1747,-724 764,-1541 906,-1203 -724,-1747 1630,-549 1491,-210 724,-1747 1541,764 1202,906 1747,-724z"/>
  <path class="fil2" d="M4978 22418c549,1630 209,1492 1747,724 -764,1541 -906,1203 724,1747 -1630,550 -1491,210 -724,1748 -1541,-764 -1203,-907 -1747,724 -549,-1630 -210,-1492 -1747,-724 764,-1541 906,-1203 -724,-1748 1630,-549 1491,-209 724,-1747 1541,764 1202,907 1747,-724z"/>
  <path class="fil3" d="M4978 42330c549,1630 209,1491 1747,723 -764,1541 -906,1203 724,1748 -1630,549 -1491,209 -724,1747 -1541,-764 -1203,-906 -1747,724 -549,-1630 -210,-1491 -1747,-724 764,-1541 906,-1203 -724,-1747 1630,-549 1491,-210 724,-1748 1541,765 1202,907 1747,-723z"/>
 </g>
</svg>