<svg xmlns="http://www.w3.org/2000/svg" xml:space="preserve" width="120.65mm" height="603.25mm" version="1.1" style="shape-rendering:geometricPrecision; text-rendering:geometricPrecision; image-rendering:optimizeQuality; fill-rule:evenodd; clip-rule:evenodd"
viewBox="0 0 9956 49779"
 xmlns:xlink="http://www.w3.org/1999/xlink">
 <!-- Created by: Treedbox, treedbox.com.br -->
 <defs>
  <style type="text/css">
   <![CDATA[
    .fil0 {fill:none}
    .fil3 {fill:#30719E}
    .fil2 {fill:#CCC}
    .fil1 {fill:#fff}
   ]]>
  </style>
 </defs>
 <g id="geo">
<rect class="fil0" width="9956" height="49779"/>
  <path class="fil1" d="M4978 2507c800,0 1449,648 1449,1448 0,573 -278,889 -550,1334 -437,714 -700,1434 -859,2160l-74 0c-145,-764 -396,-1455 -829,-2117 -307,-470 -586,-735 -586,-1377 0,-800 649,-1448 1449,-1448zm8 965c262,0 474,212 474,474 0,261 -212,473 -474,473 -261,0 -473,-212 -473,-473 0,-262 212,-474 473,-474z"/>
  <path class="fil2" d="M4978 22418c800,0 1449,649 1449,1449 0,573 -278,889 -550,1333 -437,714 -700,1435 -859,2161l-74 0c-145,-764 -396,-1455 -829,-2117 -307,-471 -586,-736 -586,-1377 0,-800 649,-1449 1449,-1449zm8 966c262,0 474,212 474,473 0,261 -212,473 -474,473 -261,0 -473,-212 -473,-473 0,-261 212,-473 473,-473z"/>
  <path class="fil3" d="M4978 42330c800,0 1449,648 1449,1448 0,573 -278,889 -550,1333 -437,714 -700,1435 -859,2161l-74 0c-145,-764 -396,-1455 -829,-2117 -307,-470 -586,-735 -586,-1377 0,-800 649,-1448 1449,-1448zm8 965c262,0 474,212 474,473 0,262 -212,474 -474,474 -261,0 -473,-212 -473,-474 0,-261 212,-473 473,-473z"/>
 </g>
</svg>