<svg xmlns="http://www.w3.org/2000/svg" width="120.65mm" height="603.25mm" style="fill-rule:evenodd" viewBox="0 0 9956 49779">
 <!--by TreedBox.com.br-->
 <defs>
  <style type="text/css">
   <![CDATA[
    .fil0 {fill:none}
    .fil3 {fill:#30719E}
    .fil2 {fill:#CCCBCB}
    .fil1 {fill:white}
   ]]>
  </style>
 </defs>
 <g id="geo">
  <polygon class="fil0" points="0,0 9956,0 9956,49779 0,49779 "/>
  <path class="fil1" d="M6796 5961l-1518 0 0 334 1518 0 0 -334zm-447 -575l-1071 0 0 334 1071 0 0 -334zm1241 -575l-2312 0 0 334 2312 0 0 -334zm-215 -575l-2097 0 0 334 2097 0 0 -334zm939 -575l-3036 0 0 334 3036 0 0 -334zm-3910 218c-261,-250 -610,-407 -996,-421l0 1417 996 -996zm-2572 1154c29,814 699,1465 1520,1465 840,0 1521,-681 1521,-1521 0,-391 -148,-748 -392,-1018l-1073 1074 -1576 0zm1464 -1575c-796,28 -1435,668 -1464,1464l1464 0 0 -1464zm5218 -600l-7072 0c-19,0 -36,8 -48,20 -13,13 -20,30 -20,48l0 4104c0,18 7,35 20,48 12,12 29,20 48,20l7072 0c19,0 36,-8 48,-20 12,-13 20,-30 20,-48l0 -4104c0,-18 -8,-35 -20,-48 -12,-12 -29,-20 -48,-20z"/>
  <path class="fil2" d="M6796 25873l-1518 0 0 333 1518 0 0 -333zm-447 -575l-1071 0 0 333 1071 0 0 -333zm1241 -575l-2312 0 0 333 2312 0 0 -333zm-215 -576l-2097 0 0 334 2097 0 0 -334zm939 -575l-3036 0 0 334 3036 0 0 -334zm-3910 219c-261,-250 -610,-408 -996,-422l0 1418 996 -996zm-2572 1154c29,814 699,1465 1520,1465 840,0 1521,-681 1521,-1521 0,-392 -148,-749 -392,-1018l-1073 1074 -1576 0zm1464 -1576c-796,29 -1435,668 -1464,1464l1464 0 0 -1464zm5218 -599l-7072 0c-19,0 -36,7 -48,20 -13,12 -20,29 -20,48l0 4103c0,19 7,36 20,48 12,12 29,20 48,20l7072 0c19,0 36,-8 48,-20 12,-12 20,-29 20,-48l0 -4103c0,-19 -8,-36 -20,-48 -12,-13 -29,-20 -48,-20z"/>
  <path class="fil3" d="M6796 45784l-1518 0 0 334 1518 0 0 -334zm-447 -575l-1071 0 0 334 1071 0 0 -334zm1241 -575l-2312 0 0 334 2312 0 0 -334zm-215 -575l-2097 0 0 334 2097 0 0 -334zm939 -575l-3036 0 0 333 3036 0 0 -333zm-3910 218c-261,-250 -610,-407 -996,-421l0 1417 996 -996zm-2572 1154c29,814 699,1465 1520,1465 840,0 1521,-681 1521,-1521 0,-391 -148,-748 -392,-1018l-1073 1074 -1576 0zm1464 -1575c-796,28 -1435,668 -1464,1463l1464 0 0 -1463zm5218 -600l-7072 0c-19,0 -36,8 -48,20 -13,13 -20,30 -20,48l0 4104c0,18 7,35 20,47 12,13 29,21 48,21l7072 0c19,0 36,-8 48,-21 12,-12 20,-29 20,-47l0 -4104c0,-18 -8,-35 -20,-48 -12,-12 -29,-20 -48,-20z"/>
 </g>
</svg>