<svg xmlns="http://www.w3.org/2000/svg" xml:space="preserve" width="120.65mm" height="603.25mm" version="1.1" style="shape-rendering:geometricPrecision; text-rendering:geometricPrecision; image-rendering:optimizeQuality; fill-rule:evenodd; clip-rule:evenodd"
viewBox="0 0 9956 49779"
 xmlns:xlink="http://www.w3.org/1999/xlink">
 <!-- Created by: Treedbox, treedbox.com.br -->
 <defs>
  <style type="text/css">
   <![CDATA[
    .fil0 {fill:none}
    .fil3 {fill:#30719E}
    .fil1 {fill:#fff}
    .fil2 {fill:#ccc}
   ]]>
  </style>
 </defs>
 <g id="geo">
  <rect class="fil0" width="9956" height="49779"/>
  <g id="_719582736">
   <g id="geo_1">
    <g id="_589537712">
     <path class="fil1" d="M4978 2507c501,0 907,406 907,906 0,501 -406,907 -907,907 -501,0 -907,-406 -907,-907 0,-500 406,-906 907,-906z"/>
     <path class="fil1" d="M4442 4521l1071 0c620,0 1126,507 1126,1126l0 123 0 124 0 429 0 120 0 1006 -1126 0 -679 0 -392 0c-578,0 -1059,-442 -1119,-1006l-7 0 0 -120 0 -429 0 -247c0,-619 507,-1126 1126,-1126z"/>
    </g>
   </g>
  </g>
  <g id="_719577808">
   <g id="geo_0">
    <g id="_589537712_1">
     <path class="fil2" d="M4978 22418c501,0 907,406 907,907 0,501 -406,907 -907,907 -501,0 -907,-406 -907,-907 0,-501 406,-907 907,-907z"/>
     <path class="fil2" d="M4442 24433l1071 0c620,0 1126,506 1126,1126l0 123 0 123 0 430 0 120 0 1006 -1126 0 -679 0 -392 0c-578,0 -1059,-443 -1119,-1006l-7 0 0 -120 0 -430 0 -246c0,-620 507,-1126 1126,-1126z"/>
    </g>
   </g>
  </g>
  <g id="_719584112">
   <g id="geo_2">
    <g id="_589537712_3">
     <path class="fil3" d="M4978 42330c501,0 907,406 907,906 0,501 -406,907 -907,907 -501,0 -907,-406 -907,-907 0,-500 406,-906 907,-906z"/>
     <path class="fil3" d="M4442 44344l1071 0c620,0 1126,507 1126,1126l0 123 0 124 0 429 0 120 0 1006 -1126 0 -679 0 -392 0c-578,0 -1059,-442 -1119,-1006l-7 0 0 -120 0 -429 0 -247c0,-619 507,-1126 1126,-1126z"/>
    </g>
   </g>
  </g>
 </g>
</svg>