<svg xmlns="http://www.w3.org/2000/svg" xml:space="preserve" width="120.65mm" height="603.25mm" version="1.1" style="shape-rendering:geometricPrecision; text-rendering:geometricPrecision; image-rendering:optimizeQuality; fill-rule:evenodd; clip-rule:evenodd"
viewBox="0 0 9956 49779"
 xmlns:xlink="http://www.w3.org/1999/xlink">
<!-- Created by: Treedbox, treedbox.com.br -->
 <defs>
  <style type="text/css">
   <![CDATA[
    .fil0 {fill:none}
    .fil3 {fill:#30719E}
    .fil2 {fill:#ccc}
    .fil1 {fill:#fff}
   ]]>
  </style>
 </defs>
 <g id="geo">
<rect class="fil0" width="9956" height="49779"/>
  <path class="fil1" d="M4002 6592c-2,2 -4,4 -6,6l-719 719c-176,176 -463,176 -639,0l0 0c-175,-175 -175,-463 0,-638l720 -720c2,-2 4,-4 6,-5 -569,-864 -473,-2036 287,-2796 868,-869 2277,-869 3146,0 869,869 869,2278 0,3147 -759,760 -1931,855 -2795,287zm2149 -2787c512,512 512,1342 0,1854 -512,511 -1342,511 -1854,0 -512,-512 -512,-1342 0,-1854 512,-512 1342,-512 1854,0z"/>
  <path class="fil2" d="M4002 26504c-2,1 -4,3 -6,5l-719 720c-176,175 -463,175 -639,0l0 0c-175,-176 -175,-463 0,-639l720 -719c2,-2 4,-4 6,-6 -569,-863 -473,-2036 287,-2795 868,-869 2277,-869 3146,0 869,869 869,2278 0,3147 -759,759 -1931,855 -2795,287zm2149 -2788c512,512 512,1342 0,1854 -512,512 -1342,512 -1854,0 -512,-512 -512,-1342 0,-1854 512,-511 1342,-511 1854,0z"/>
  <path class="fil3" d="M4002 46415c-2,2 -4,4 -6,6l-719 719c-176,176 -463,176 -639,0l0 0c-175,-175 -175,-463 0,-638l720 -720c2,-2 4,-4 6,-5 -569,-864 -473,-2036 287,-2796 868,-869 2277,-869 3146,0 869,869 869,2278 0,3147 -759,760 -1931,855 -2795,287zm2149 -2787c512,512 512,1342 0,1854 -512,511 -1342,511 -1854,0 -512,-512 -512,-1342 0,-1854 512,-512 1342,-512 1854,0z"/>
 </g>
</svg>