<svg xmlns="http://www.w3.org/2000/svg" xml:space="preserve" width="120.65mm" height="603.25mm" version="1.1" style="shape-rendering:geometricPrecision; text-rendering:geometricPrecision; image-rendering:optimizeQuality; fill-rule:evenodd; clip-rule:evenodd" viewBox="0 0 9956 49779" xmlns:xlink="http://www.w3.org/1999/xlink">
 <!-- Created by: Treedbox, treedbox.com.br -->
 <defs>
  <style type="text/css">
   <![CDATA[
    .fil0 {fill:none}
    .fil5 {fill:#30719E}
    .fil1 {fill:#fff}
    .fil3 {fill:#fff}
    .fil2 {fill:#fff}
    .fil4 {fill:#ccc}
   ]]>
  </style>
 </defs>
 <g id="geo">
<rect class="fil0" width="9956" height="49779"/>
  <g id="_1186292544">
   <path class="fil1" d="M4303 3766l524 0 0 605 -524 0 0 -605zm0 1829l524 0 0 -606 -524 0 0 606zm1176 -1177l0 524 -605 0 0 -524 605 0zm-1829 0l0 524 606 0 0 -524 -606 0z"/>
   <path class="fil2" d="M5627 3113l525 0 0 605 -525 0 0 -605zm0 1829l525 0 0 -605 -525 0 0 605z"/>
   <path class="fil2" d="M6804 3765l0 525 -605 0 0 -525 605 0zm-1829 0l0 525 605 0 0 -525 -605 0z"/>
   <path class="fil3" d="M6966 3766l524 0 0 605 -524 0 0 -605zm0 1829l524 0 0 -606 -524 0 0 606z"/>
   <path class="fil3" d="M8143 4418l0 524 -606 0 0 -524 606 0zm-1829 0l0 524 605 0 0 -524 -605 0z"/>
   <path class="fil3" d="M1449 3486c3756,3747 7033,3930 6964,270 675,1868 -807,3253 -2235,3070 -1719,-205 -3355,-1682 -4803,-3411l74 71z"/>
  </g>
  <g id="_1577616464">
   <path class="fil4" d="M4303 24284l524 0 0 605 -524 0 0 -605zm0 1829l524 0 0 -605 -524 0 0 605zm1176 -1176l0 524 -605 0 0 -524 605 0zm-1829 0l0 524 606 0 0 -524 -606 0z"/>
   <path class="fil4" d="M5627 23632l525 0 0 605 -525 0 0 -605zm0 1829l525 0 0 -606 -525 0 0 606z"/>
   <path class="fil4" d="M6804 24284l0 524 -605 0 0 -524 605 0zm-1829 0l0 524 605 0 0 -524 -605 0z"/>
   <path class="fil4" d="M6966 24284l524 0 0 605 -524 0 0 -605zm0 1829l524 0 0 -605 -524 0 0 605z"/>
   <path class="fil4" d="M8143 24936l0 525 -606 0 0 -525 606 0zm-1829 0l0 525 605 0 0 -525 -605 0z"/>
   <path class="fil4" d="M1449 24004c3756,3748 7033,3930 6964,270 675,1869 -807,3254 -2235,3071 -1719,-205 -3355,-1682 -4803,-3411l74 70z"/>
  </g>
  <g id="_1577608656">
   <path class="fil5" d="M4303 44803l524 0 0 605 -524 0 0 -605zm0 1829l524 0 0 -605 -524 0 0 605zm1176 -1177l0 524 -605 0 0 -524 605 0zm-1829 0l0 524 606 0 0 -524 -606 0z"/>
   <path class="fil5" d="M5627 44150l525 0 0 605 -525 0 0 -605zm0 1829l525 0 0 -605 -525 0 0 605z"/>
   <path class="fil5" d="M6804 44802l0 525 -605 0 0 -525 605 0zm-1829 0l0 525 605 0 0 -525 -605 0z"/>
   <path class="fil5" d="M6966 44803l524 0 0 605 -524 0 0 -605zm0 1829l524 0 0 -605 -524 0 0 605z"/>
   <path class="fil5" d="M8143 45455l0 524 -606 0 0 -524 606 0zm-1829 0l0 524 605 0 0 -524 -605 0z"/>
   <path class="fil5" d="M1449 44523c3756,3747 7033,3930 6964,270 675,1868 -807,3253 -2235,3070 -1719,-205 -3355,-1682 -4803,-3411l74 71z"/>
  </g>
 </g>
</svg>