<svg xmlns="http://www.w3.org/2000/svg" width="120.65mm" height="120.65mm" style="fill-rule:evenodd"
     viewBox="0 0 3477 3477">
    <!--by TreedBox.com.br-->
    <defs>
        <style type="text/css">
            <![CDATA[
    .fil0 {fill:none}
    .fil1 {fill:#00B0B5}
   ]]>
        </style>
    </defs>
    <g id="geo">
        <rect class="fil0" transform="matrix(2.64845E-014 1 1 -2.64845E-014 0.000134032 0.00301557)" width="3477"
              height="3477"/>
        <path class="fil1"
              d="M594 1132l1144 -508 1145 508 0 549 -1145 -508 -1144 508 0 -549zm0 663l1144 508 1145 -508 0 549 -1145 508 -1144 -508 0 -549zm1144 -139c103,0 186,37 186,82 0,46 -83,83 -186,83 -103,0 -186,-37 -186,-83 0,-45 83,-82 186,-82zm-1144 -1148l1144 -508 1145 508 0 555 -1145 -508 -1144 508 0 -555zm0 1905l1144 508 1145 -508 0 556 -1145 508 -1144 -508 0 -556z"/>
    </g>
</svg>