<svg xmlns="http://www.w3.org/2000/svg" width="120.65mm" height="603.25mm" style="fill-rule:evenodd" viewBox="0 0 9956 49779">
 <defs>
  <style type="text/css">
   <![CDATA[
    .fil0 {fill:none}
    .fil3 {fill:#30719E}
    .fil2 {fill:#CCCBCB}
    .fil1 {fill:white}
   ]]>
  </style>
 </defs>
 <g id="geo">
  <polygon class="fil0" points="0,0 9956,0 9956,49779 0,49779 "/>
  <path class="fil1" d="M6345 3611c-350,-350 -833,-567 -1367,-567 -534,0 -1018,217 -1367,567 -350,349 -567,833 -567,1367 0,291 65,568 180,815 264,-615 764,-1264 1713,-1977 649,510 1195,1268 1665,2211 196,-302 310,-662 310,-1049 0,-534 -217,-1018 -567,-1367zm-2962 2460c67,98 143,190 228,274 349,350 833,567 1367,567 534,0 1017,-217 1367,-567 18,-17 34,-35 51,-53 -342,-822 -857,-1515 -1499,-2113 -750,588 -1314,1209 -1514,1892zm1595 -3202c582,0 1110,236 1491,618 382,381 618,908 618,1491 0,582 -236,1110 -618,1491 -381,382 -909,618 -1491,618 -583,0 -1110,-236 -1491,-618 -382,-381 -618,-909 -618,-1491 0,-583 236,-1110 618,-1491 381,-382 908,-618 1491,-618zm0 -362c1365,0 2471,1106 2471,2471 0,1365 -1106,2471 -2471,2471 -1365,0 -2471,-1106 -2471,-2471 0,-1365 1106,-2471 2471,-2471z"/>
  <path class="fil2" d="M6345 23522c-350,-350 -833,-566 -1367,-566 -534,0 -1018,216 -1367,566 -350,350 -567,833 -567,1367 0,292 65,568 180,816 264,-616 764,-1265 1713,-1978 649,510 1195,1269 1665,2212 196,-303 310,-663 310,-1050 0,-534 -217,-1017 -567,-1367zm-2962 2460c67,99 143,191 228,275 349,350 833,566 1367,566 534,0 1017,-216 1367,-566 18,-18 34,-35 51,-53 -342,-822 -857,-1516 -1499,-2113 -750,588 -1314,1208 -1514,1891zm1595 -3202c582,0 1110,236 1491,618 382,382 618,909 618,1491 0,583 -236,1110 -618,1492 -381,381 -909,617 -1491,617 -583,0 -1110,-236 -1491,-617 -382,-382 -618,-909 -618,-1492 0,-582 236,-1109 618,-1491 381,-382 908,-618 1491,-618zm0 -362c1365,0 2471,1107 2471,2471 0,1365 -1106,2472 -2471,2472 -1365,0 -2471,-1107 -2471,-2472 0,-1364 1106,-2471 2471,-2471z"/>
  <path class="fil3" d="M6345 43433c-350,-349 -833,-566 -1367,-566 -534,0 -1018,217 -1367,566 -350,350 -567,834 -567,1368 0,291 65,567 180,815 264,-615 764,-1264 1713,-1977 649,510 1195,1268 1665,2211 196,-302 310,-662 310,-1049 0,-534 -217,-1018 -567,-1368zm-2962 2461c67,98 143,190 228,274 349,350 833,567 1367,567 534,0 1017,-217 1367,-567 18,-17 34,-35 51,-53 -342,-822 -857,-1515 -1499,-2113 -750,588 -1314,1208 -1514,1892zm1595 -3202c582,0 1110,236 1491,618 382,381 618,908 618,1491 0,582 -236,1109 -618,1491 -381,382 -909,618 -1491,618 -583,0 -1110,-236 -1491,-618 -382,-382 -618,-909 -618,-1491 0,-583 236,-1110 618,-1491 381,-382 908,-618 1491,-618zm0 -362c1365,0 2471,1106 2471,2471 0,1365 -1106,2471 -2471,2471 -1365,0 -2471,-1106 -2471,-2471 0,-1365 1106,-2471 2471,-2471z"/>
 </g>
</svg>