<svg xmlns="http://www.w3.org/2000/svg" width="120.65mm" height="603.25mm" style="fill-rule:evenodd" viewBox="0 0 9956 49779">
 <defs>
  <style type="text/css">
   <![CDATA[
    .fil0 {fill:none}
    .fil3 {fill:#30719E}
    .fil2 {fill:#CCCBCB}
    .fil1 {fill:white}
   ]]>
  </style>
 </defs>
 <g id="geo">
  <polygon class="fil0" points="0,0 9956,0 9956,49779 0,49779 "/>
  <path class="fil1" d="M4978 2507c1365,0 2471,1106 2471,2471 0,1365 -1106,2471 -2471,2471 -1365,0 -2471,-1106 -2471,-2471 0,-1365 1106,-2471 2471,-2471zm1669 3611c-480,-985 -1040,-1776 -1710,-2302 -1005,755 -1506,1438 -1757,2086 -143,-277 -224,-591 -224,-924 0,-1116 905,-2022 2022,-2022 1116,0 2021,906 2021,2022 0,423 -130,815 -352,1140zm-3294 63c170,-727 754,-1382 1544,-2002 665,619 1193,1341 1535,2202 -367,381 -883,618 -1454,618 -666,0 -1256,-321 -1625,-818z"/>
  <path class="fil2" d="M4978 22418c1365,0 2471,1107 2471,2471 0,1365 -1106,2472 -2471,2472 -1365,0 -2471,-1107 -2471,-2472 0,-1364 1106,-2471 2471,-2471zm1669 3611c-480,-984 -1040,-1775 -1710,-2302 -1005,755 -1506,1439 -1757,2086 -143,-277 -224,-591 -224,-924 0,-1116 905,-2021 2022,-2021 1116,0 2021,905 2021,2021 0,423 -130,816 -352,1140zm-3294 63c170,-727 754,-1382 1544,-2001 665,619 1193,1341 1535,2202 -367,381 -883,618 -1454,618 -666,0 -1256,-322 -1625,-819z"/>
  <path class="fil3" d="M4978 42330c1365,0 2471,1106 2471,2471 0,1365 -1106,2471 -2471,2471 -1365,0 -2471,-1106 -2471,-2471 0,-1365 1106,-2471 2471,-2471zm1669 3611c-480,-985 -1040,-1776 -1710,-2302 -1005,755 -1506,1438 -1757,2086 -143,-277 -224,-591 -224,-924 0,-1117 905,-2022 2022,-2022 1116,0 2021,905 2021,2022 0,423 -130,815 -352,1140zm-3294 63c170,-727 754,-1382 1544,-2002 665,619 1193,1341 1535,2202 -367,381 -883,618 -1454,618 -666,0 -1256,-322 -1625,-818z"/>
 </g>
</svg>