<svg xmlns="http://www.w3.org/2000/svg" width="120.65mm" height="603.25mm" viewBox="0 0 9956 49779">
 <defs>
  <style type="text/css">
   <![CDATA[
    .fil0 {fill:none}
    .fil3 {fill:#30719E}
    .fil2 {fill:#CCCBCB}
    .fil1 {fill:white}
   ]]>
  </style>
 </defs>
 <g id="geo">
  <polygon class="fil0" points="0,0 9956,0 9956,49779 0,49779 "/>
  <path class="fil1" d="M3723 4529l1255 725 1254 -725 0 -1449 -1254 -725 -1255 725 0 1449zm-1355 2347l1255 724 1254 -724 0 -1449 -1254 -725 -1255 725 0 1449zm2710 0l1255 724 1254 -724 0 -1449 -1254 -725 -1255 725 0 1449z"/>
  <path class="fil2" d="M3723 24441l1255 724 1254 -724 0 -1450 -1254 -724 -1255 724 0 1450zm-1355 2347l1255 724 1254 -724 0 -1450 -1254 -724 -1255 724 0 1450zm2710 0l1255 724 1254 -724 0 -1450 -1254 -724 -1255 724 0 1450z"/>
  <path class="fil3" d="M3723 44352l1255 724 1254 -724 0 -1449 -1254 -725 -1255 725 0 1449zm-1355 2347l1255 724 1254 -724 0 -1450 -1254 -724 -1255 724 0 1450zm2710 0l1255 724 1254 -724 0 -1450 -1254 -724 -1255 724 0 1450z"/>
 </g>
</svg>