<svg xmlns="http://www.w3.org/2000/svg" xml:space="preserve" width="120.65mm" height="603.25mm" version="1.1" style="shape-rendering:geometricPrecision; text-rendering:geometricPrecision; image-rendering:optimizeQuality; fill-rule:evenodd; clip-rule:evenodd"
viewBox="0 0 9956 49779"
 xmlns:xlink="http://www.w3.org/1999/xlink">
 <!-- Created by: Treedbox, treedbox.com.br -->
 <defs>
  <style type="text/css">
   <![CDATA[
    .fil0 {fill:none}
    .fil6 {fill:#FEFEFE}
    .fil3 {fill:none}
    .fil5 {fill:#fff}
    .fil4 {fill:#fff}
    .fil1 {fill:#30719E}
    .fil2 {fill:#ccc}
   ]]>
  </style>
 </defs>
 <g id="geo">
<rect class="fil0" width="9956" height="49779"/>
  <g id="_1142028624">
   <g id="Layer_x0020_1">
    <g id="_762247824">
     <path class="fil1" d="M4970 45230l600 611c-169,188 -379,299 -609,299 -225,0 -435,-111 -601,-291l610 -619 0 0zm0 17l-594 603c154,163 357,278 585,278 235,0 437,-117 593,-287l-584 -594 0 0z"/>
     <polygon class="fil1" points="5933,42879 5937,42886 5938,42889 5937,42891 5933,42895 5925,42899 5914,42903 5899,42907 5883,42910 5865,42913 5847,42916 5828,42918 5809,42920 5792,42921 5783,42923 5773,42925 5760,42927 5746,42930 5732,42933 5716,42937 5701,42941 5686,42947 5672,42954 5660,42962 5649,42972 5641,42984 5637,42999 5638,43014 5642,43027 5634,43025 5624,43020 5616,43015 5611,43008 5607,42999 5605,42985 5605,42968 5609,42958 5615,42946 5622,42935 5631,42924 5640,42914 5651,42905 5661,42896 5678,42885 5677,42864 5678,42850 5681,42836 5686,42823 5693,42810 5703,42797 5715,42785 5725,42776 5880,42846 5904,42859 5922,42870 "/>
     <polygon class="fil1" points="4298,43017 4298,43016 4300,42997 4298,42981 4293,42967 4285,42955 4274,42946 4261,42939 4247,42935 4232,42932 4216,42930 4199,42928 4182,42928 4164,42928 4146,42927 4129,42927 4112,42926 4088,42924 4068,42921 4051,42917 4038,42912 4028,42905 4022,42899 4019,42893 4018,42886 4020,42877 4026,42868 4036,42856 4050,42844 4069,42831 4093,42817 4121,42803 4154,42789 4212,42768 4223,42774 4235,42781 4245,42788 4253,42795 4259,42802 4263,42809 4267,42816 4269,42822 4270,42829 4272,42837 4272,42844 4273,42852 4274,42861 4276,42869 4278,42878 4281,42887 4286,42897 4291,42906 4298,42914 4304,42921 4311,42927 4317,42933 4322,42939 4327,42945 4334,42957 4338,42967 4339,42977 4337,42986 4332,42995 4322,43005 4304,43014 "/>
     <path class="fil1" d="M4768 43272l194 -141 189 136 -72 -225 187 -150 -234 0 -82 -218 -67 216 -234 0 189 150 -70 232zm194 -181l128 93 -48 -153 132 -107 -165 0 -56 -150 -46 148 -166 0 134 106 -48 161 135 -98 0 0z"/>
     <path class="fil1" d="M4147 45535l823 -821 809 811c-58,120 -128,227 -209,316l-600 -611 -611 619c-82,-88 -153,-194 -212,-314l0 0z"/>
     <path class="fil1" d="M3266 45447c-7,81 14,162 65,243 37,8 74,13 112,16 -81,-77 -139,-163 -177,-259zm713 121c15,33 15,68 5,103 18,-2 37,-3 55,-4 -1,-42 -23,-75 -60,-99zm-89 -188c10,89 -20,192 -70,307 40,-5 80,-9 121,-13 29,-115 7,-211 -51,-294l0 0zm-136 314c66,-148 142,-310 79,-573 -55,263 -115,322 -189,468 -57,-145 -371,-255 -392,-585 -58,440 138,565 297,705 7,0 14,0 20,-1 62,-2 123,-8 185,-14l0 0zm-47 -1615c114,-115 296,-206 362,-607 -160,143 -370,201 -362,607zm-7 -327c-322,238 -116,569 -99,674 103,-116 290,-176 362,-471 9,-40 16,-76 21,-109 -19,47 -39,100 -64,133 -94,94 -189,150 -239,180 -19,-163 -40,-323 19,-407zm-120 994c85,-191 298,-235 321,-579 -83,227 -204,197 -303,350 -18,-129 -177,-205 -104,-502 -225,347 -73,473 86,731l0 0zm25 403c69,-198 270,-391 265,-735 -65,232 -210,279 -287,448 -27,-106 -228,-209 -241,-462 -117,294 83,504 263,749l0 0zm22 358c47,-211 279,-320 191,-691 -57,264 -144,262 -218,409 -58,-145 -302,-208 -324,-537 -78,592 219,566 351,819zm-285 394c22,43 46,82 72,117 23,-13 45,-27 64,-44 -19,-14 -39,-29 -60,-46 -25,-8 -51,-17 -76,-27zm217 269c71,59 149,107 227,158 68,-11 135,-24 204,-36 34,-6 68,-11 101,-15 13,-68 20,-125 23,-178 -47,9 -94,18 -142,26l-21 108c-54,-33 -102,-58 -150,-81 -81,11 -162,18 -242,18l0 0zm-82 63l79 120c29,-2 58,-4 87,-6l-166 -114zm750 -153c6,59 -2,122 -24,189 16,0 32,0 47,0 25,0 50,1 75,2 8,-82 -1,-148 -25,-197 -23,1 -45,3 -64,5l-9 1zm175 87c3,42 4,78 3,108 26,1 52,3 77,6l-21 -44 3 -6 4 -6c-17,-24 -39,-41 -66,-58l0 0z"/>
     <path class="fil1" d="M6312 46323c58,-48 115,-95 157,-147 -12,56 -42,105 -79,159 -26,-4 -52,-8 -78,-12l0 0zm-835 -102c16,-25 38,-49 66,-73 -12,43 -16,85 -13,125 -20,2 -40,3 -60,6l13 -50 -3 -4 -3 -4 0 0zm110 48c0,-53 14,-115 45,-186l11 0c24,-2 48,-3 73,-3 -13,60 -10,120 2,182 -21,1 -43,2 -64,3 -22,1 -45,2 -67,4l0 0zm221 -188c6,74 14,134 23,183 125,5 249,22 373,41 67,-43 136,-92 205,-150l0 0c-75,-2 -149,-11 -223,-25 -31,-6 -63,-12 -95,-17 -37,24 -74,54 -113,89 -10,-36 -18,-72 -23,-109 -49,-5 -98,-10 -147,-12l0 0zm743 -177c-16,22 -41,46 -76,71 19,15 42,29 66,41 21,-33 41,-77 60,-132 -16,7 -33,13 -50,20l0 0zm101 -465c4,71 -10,141 -47,211 -30,3 -61,6 -92,9 61,-67 107,-140 139,-220l0 0zm-499 225c-64,-141 -129,-300 -70,-551 56,263 116,322 189,469 58,-145 371,-257 392,-585 53,400 -105,540 -253,667 -88,3 -176,2 -258,0l0 0zm-127 -291c-9,84 17,182 64,290 -41,-1 -80,-1 -116,-1 -27,-113 -4,-207 52,-289l0 0zm-88 188c-15,32 -16,66 -5,100 -19,0 -38,2 -55,5 -2,-46 21,-80 60,-105zm271 -1490c-113,-114 -295,-205 -361,-606 160,143 370,201 361,606zm7 -326c323,237 117,569 99,674 -102,-116 -290,-176 -362,-471 -8,-40 -15,-76 -21,-110 19,48 39,100 64,133 94,94 190,150 241,181 18,-163 39,-323 -21,-407zm121 994c-86,-191 -298,-236 -322,-579 84,227 204,197 304,350 17,-130 177,-205 104,-503 225,348 73,474 -86,732l0 0zm-26 401c-69,-197 -269,-390 -264,-733 64,232 210,278 287,448 28,-107 228,-209 240,-463 118,294 -82,505 -263,748l0 0zm-21 360c-48,-211 -278,-320 -190,-691 55,263 143,261 216,409 58,-146 304,-208 324,-537 79,592 -218,566 -350,819z"/>
     <path class="fil1" d="M4961 43314c547,0 993,635 993,1413 0,83 -5,166 -15,246 -162,-95 -345,-168 -542,-211 5,1 10,2 14,3l348 -33 -458 -44 170 -90 -192 6 141 -132 -185 56 322 -410 -384 348 57 -184 -132 140 6 -193 -91 171 -43 -537 -45 537 -91 -171 7 193 -131 -140 55 184 -383 -348 321 410 -183 -56 140 132 -193 -6 170 90 -459 44 355 34c-200,46 -386,122 -549,223 -11,-85 -16,-173 -16,-262 0,-778 445,-1413 993,-1413l0 0zm47 1403c-6,0 -11,0 -16,-1 5,1 10,1 16,1zm-16 -1c-6,0 -12,0 -17,0 -17,0 -34,1 -50,1 16,0 33,-1 50,-1 5,0 11,0 17,0z"/>
     <path class="fil1" d="M3324 46135c-111,36 -188,71 -218,102 -79,75 -72,185 19,333 43,146 105,233 197,233 255,85 626,-38 939,-58 261,-16 480,74 717,56 232,-7 439,-61 697,-59 364,4 631,133 993,37 122,-67 83,-135 158,-242 137,-229 26,-346 -229,-404 55,-9 107,-23 159,-41 -183,-34 -293,-88 -333,-161 227,-59 431,-164 579,-398 -249,171 -624,141 -1043,140 -108,-6 -204,35 -287,125 -98,166 -178,172 -244,258 -69,81 -59,163 30,226l12 -51c-103,-152 118,-157 172,-160 173,-11 357,11 546,48 76,14 149,23 221,24 460,51 502,277 151,229 -295,-38 -605,-115 -905,-95 -278,10 -468,57 -717,64 -230,-21 -411,-59 -688,-60 -322,-5 -422,108 -986,84 -129,-11 -187,-141 47,-179l190 -29c237,10 481,-50 734,-90 145,-15 343,-5 239,170l16 33c138,-152 19,-230 -170,-377 -77,-107 -144,-199 -255,-215 -433,13 -625,143 -1111,-122 93,199 293,320 568,390 -53,70 -163,120 -312,157 38,14 75,25 114,32zm-89 560l22 -211 156 17 -4 36 -113 -13 -5 47 106 11 -4 36 -106 -11 -6 57 118 12 -4 35 -160 -16 0 0zm183 -54l41 -6c3,14 9,23 17,30 8,6 18,8 31,8 14,-1 24,-4 31,-11 6,-6 9,-13 9,-21 0,-5 -2,-9 -5,-12 -3,-3 -8,-6 -16,-8 -5,-2 -17,-4 -34,-8 -23,-4 -40,-10 -50,-18 -13,-11 -20,-25 -21,-41 -1,-11 2,-21 7,-31 6,-10 14,-17 26,-23 11,-5 24,-9 41,-9 26,-2 46,3 60,14 14,11 22,26 24,45l-43 4c-2,-10 -6,-18 -13,-22 -6,-5 -15,-7 -27,-6 -12,0 -22,4 -29,9 -4,4 -6,8 -6,13 0,6 3,9 7,13 6,4 19,8 40,12 21,4 37,8 47,13 10,4 18,11 24,20 7,9 10,20 10,33 1,12 -1,24 -8,35 -6,11 -15,19 -27,25 -12,5 -27,9 -45,10 -27,1 -48,-4 -63,-16 -15,-11 -24,-29 -28,-52l0 0zm258 49l-21 -174 -63 7 -4 -35 167 -20 4 35 -62 7 21 175 -42 5zm297 -45l-46 7 -25 -45 -84 11 -10 50 -45 7 52 -221 45 -6 113 197 0 0zm-90 -72l-39 -73 -18 81 57 -8zm89 -143l78 -8c17,-2 31,-2 40,0 13,2 24,7 34,16 10,8 18,19 24,31 5,13 9,30 12,50 1,17 1,32 -2,45 -4,16 -10,29 -19,39 -6,8 -16,15 -28,20 -9,4 -21,7 -37,9l-80 8 -22 -210 0 0zm46 31l15 139 32 -3c11,-1 20,-3 25,-5 7,-2 12,-6 16,-10 5,-5 7,-12 9,-22 2,-10 2,-23 1,-39 -2,-16 -5,-28 -9,-37 -3,-8 -8,-15 -14,-19 -6,-4 -12,-7 -20,-8 -7,0 -18,0 -36,2l-19 2 0 0zm183 54c0,-22 4,-40 11,-55 4,-10 11,-20 20,-28 8,-8 17,-15 27,-19 13,-5 29,-8 46,-7 31,0 56,10 74,30 18,20 27,47 27,81 -1,34 -11,61 -29,80 -19,19 -44,28 -75,27 -32,0 -57,-10 -75,-30 -18,-19 -27,-46 -26,-79l0 0zm44 -1c0,24 5,42 15,54 11,13 25,20 42,20 17,0 31,-6 42,-18 11,-12 17,-30 18,-55 0,-24 -5,-42 -15,-54 -11,-12 -25,-18 -42,-19 -18,0 -32,6 -43,18 -11,11 -17,30 -17,54l0 0zm303 -84l78 11c17,3 30,6 39,10 12,5 21,13 28,23 8,11 13,23 16,37 3,14 3,31 0,50 -3,18 -7,32 -13,44 -7,14 -17,26 -28,34 -8,6 -19,10 -31,12 -10,2 -23,2 -39,0l-79 -12 29 -209 0 0zm37 41l-19 139 32 4c11,2 20,3 26,2 7,-1 13,-3 18,-6 5,-4 9,-10 14,-19 4,-9 7,-21 9,-38 3,-16 3,-29 1,-38 -1,-9 -4,-16 -9,-22 -4,-5 -10,-9 -18,-12 -6,-2 -17,-4 -34,-7l-20 -3 0 0zm141 97c1,-21 6,-39 13,-53 5,-11 12,-20 21,-28 9,-8 18,-14 28,-18 13,-5 29,-7 46,-6 31,2 55,13 73,33 18,20 26,48 24,82 -2,34 -12,60 -32,78 -19,19 -45,27 -76,26 -31,-2 -56,-13 -73,-33 -18,-20 -25,-47 -24,-81l0 0zm44 1c-1,24 4,42 14,55 10,13 24,20 41,21 17,1 31,-4 43,-16 11,-12 18,-30 19,-54 1,-25 -3,-43 -13,-55 -10,-13 -24,-19 -41,-20 -18,-1 -32,4 -44,15 -11,12 -17,30 -19,54zm318 100l-15 -175 -62 5 -4 -35 168 -15 3 36 -62 5 15 175 -43 4 0 0zm108 -117c-2,-22 -1,-40 4,-55 4,-11 10,-22 17,-31 7,-9 16,-17 25,-22 13,-7 27,-11 45,-13 31,-3 56,4 77,21 20,17 33,43 36,78 4,33 -3,61 -19,82 -17,21 -40,33 -71,37 -31,3 -57,-4 -78,-21 -20,-17 -32,-43 -36,-76l0 0zm44 -6c3,24 10,41 22,52 12,11 27,16 44,14 17,-2 30,-9 40,-22 9,-14 13,-33 10,-57 -2,-24 -10,-41 -21,-52 -12,-11 -27,-15 -44,-13 -18,1 -31,9 -41,22 -9,13 -13,32 -10,56zm334 -4l42 11c-6,23 -15,41 -29,53 -15,12 -33,18 -55,19 -29,2 -52,-7 -71,-25 -19,-18 -30,-44 -31,-77 -2,-35 5,-63 23,-83 17,-20 40,-31 70,-33 25,-1 47,5 64,20 10,8 18,21 23,37l-41 13c-3,-11 -9,-20 -17,-26 -9,-5 -18,-8 -30,-7 -15,0 -28,7 -37,18 -9,12 -13,31 -12,56 2,26 8,45 18,56 10,11 23,16 38,15 11,-1 21,-5 29,-12 7,-8 13,-20 16,-35zm272 81l-46 -2 -17 -48 -84 -3 -19 47 -46 -1 90 -209 45 2 77 214zm-75 -86l-27 -80 -31 78 58 2zm98 90l26 -209 41 5 69 150 17 -140 39 5 -25 210 -43 -6 -68 -147 -16 137 -40 -5 0 0zm257 34l24 -174 -62 -9 5 -35 167 23 -5 36 -62 -9 -25 174 -42 -6 0 0zm132 19l22 -210 43 4 -23 210 -42 -4zm84 10l3 -211 42 0 84 143 2 -141 40 1 -3 211 -43 -1 -83 -139 -2 138 -40 -1 0 0zm192 -67l41 -10c4,14 10,23 19,28 8,6 19,8 32,6 14,-2 23,-6 29,-13 7,-7 9,-14 8,-22 -1,-5 -3,-9 -6,-12 -4,-3 -9,-5 -17,-7 -5,-1 -17,-2 -35,-4 -23,-2 -40,-7 -50,-14 -15,-10 -23,-23 -25,-40 -2,-10 0,-21 4,-31 5,-10 13,-18 23,-25 11,-6 24,-10 41,-13 26,-3 46,0 61,9 15,10 24,24 28,44l-42 7c-3,-10 -9,-17 -15,-21 -7,-4 -16,-5 -28,-4 -12,2 -21,6 -28,12 -4,4 -5,8 -4,14 0,5 3,9 8,12 5,4 19,6 40,8 22,2 37,5 48,9 10,4 19,10 26,18 7,8 11,19 13,32 2,12 0,24 -5,35 -5,11 -14,21 -25,28 -11,6 -26,11 -44,13 -27,4 -48,1 -64,-9 -16,-10 -27,-27 -33,-50l0 0zm-673 -682l-24 -1 6 -92c-9,7 -20,13 -33,16l2 -22c6,-2 14,-5 22,-11 7,-5 13,-12 16,-19l20 2 -9 127 0 0zm73 -20l24 1c0,5 1,9 3,11 2,3 5,5 9,5 5,1 10,0 14,-4 4,-4 8,-14 11,-28 -7,6 -15,9 -24,7 -11,-2 -18,-7 -24,-15 -6,-9 -8,-20 -7,-32 3,-13 8,-23 17,-29 9,-7 19,-9 31,-7 13,2 22,8 29,19 7,12 8,29 5,51 -4,23 -11,39 -21,48 -10,9 -22,12 -36,10 -10,-1 -17,-5 -23,-11 -5,-7 -8,-15 -8,-26zm63 -44c2,-8 1,-14 -2,-19 -3,-5 -7,-8 -11,-9 -5,0 -9,1 -13,4 -3,3 -5,8 -7,17 -1,8 0,14 2,18 3,5 7,7 11,8 5,1 9,0 13,-4 4,-3 6,-8 7,-15l0 0zm91 29c-5,-3 -10,-8 -12,-13 -2,-5 -3,-10 -2,-15 2,-10 6,-17 13,-22 8,-6 18,-7 30,-6 12,2 21,6 26,13 6,8 8,16 7,25 -1,6 -3,11 -7,15 -3,4 -8,7 -14,9 7,4 11,8 14,14 3,6 4,13 3,20 -2,12 -7,21 -15,27 -9,6 -19,8 -31,7 -12,-2 -21,-6 -28,-13 -8,-9 -11,-19 -9,-32 1,-7 3,-13 7,-18 5,-5 11,-9 18,-11l0 0zm9 -24c-1,5 0,9 2,12 3,3 6,5 11,6 4,1 8,0 11,-3 3,-2 5,-6 6,-10 1,-5 0,-9 -3,-12 -2,-3 -5,-5 -10,-6 -4,0 -8,1 -11,3 -4,2 -5,6 -6,10zm-10 54c-1,7 0,12 3,17 3,4 7,6 12,7 5,1 9,0 13,-3 4,-4 6,-9 7,-15 1,-6 0,-11 -3,-15 -3,-5 -7,-7 -12,-8 -6,-1 -10,1 -14,5 -3,3 -5,7 -6,12l0 0zm101 23l23 -2c1,5 2,8 5,11 2,2 6,3 10,3 5,0 9,-2 13,-7 3,-4 6,-14 7,-28 -6,7 -14,10 -24,10 -9,0 -18,-4 -25,-12 -8,-8 -11,-18 -11,-31 1,-13 5,-23 12,-31 8,-8 18,-11 30,-11 13,0 24,5 32,15 8,11 12,27 11,50 0,23 -5,40 -14,51 -8,10 -20,14 -34,14 -10,0 -18,-3 -24,-8 -6,-6 -10,-14 -11,-24l0 0zm56 -53c0,-8 -1,-14 -5,-18 -4,-5 -8,-7 -12,-7 -5,0 -9,2 -12,5 -3,4 -4,10 -5,18 0,8 2,14 5,18 3,4 7,6 12,6 5,0 9,-2 12,-5 3,-4 5,-9 5,-17zm-2513 92l-24 1 -2 -93c-8,9 -19,15 -31,20l0 -23c6,-2 13,-6 20,-12 8,-6 13,-13 15,-21l20 0 2 128 0 0zm23 -99c-1,-10 1,-19 6,-25 5,-6 12,-10 22,-11 9,0 16,2 22,7 6,6 10,13 11,23 0,11 -2,19 -6,25 -5,6 -13,10 -22,11 -9,0 -16,-2 -22,-7 -6,-5 -10,-13 -11,-23zm18 -2c1,7 3,11 5,14 2,2 5,3 9,3 3,0 6,-2 8,-5 2,-3 2,-7 2,-14 -1,-6 -2,-10 -5,-13 -2,-2 -5,-4 -8,-3 -4,0 -7,2 -8,4 -2,3 -3,8 -3,14zm144 -47l25 -3 12 80c1,10 1,19 0,24 -1,8 -5,15 -10,20 -6,6 -15,9 -25,10 -13,2 -23,0 -31,-6 -7,-6 -12,-16 -14,-29l24 -7c1,8 3,13 5,15 3,5 8,6 13,5 6,0 10,-2 12,-6 2,-4 2,-11 1,-21l-12 -82zm183 97l-28 5 -16 -27 -50 9 -5 30 -27 5 27 -135 27 -4 72 117zm-56 -42l-25 -44 -9 50 34 -6 0 0zm70 39l-18 -126 25 -4 64 77 -12 -84 24 -4 18 127 -26 3 -63 -75 12 83 -24 3z"/>
     <path class="fil1" d="M3895 46794c124,162 359,237 706,227 44,-1 118,-18 201,-26 -136,82 -234,181 -290,274l143 -16 78 -131c65,-78 147,-112 231,-124 85,12 167,46 232,124l78 131 143 16c-57,-93 -154,-192 -290,-274 83,8 156,25 201,26 357,10 595,-69 716,-242 -30,-4 -60,-9 -90,-13 -137,69 -516,5 -723,68 -98,20 -187,47 -267,80 -79,-33 -168,-60 -265,-80 -196,-59 -544,-6 -698,-57 -36,5 -71,12 -106,17l0 0z"/>
     <path class="fil1" d="M3508 43273c226,-94 478,-178 775,-239 34,-114 -80,-91 -172,-98 -135,-3 -154,-81 39,-157 650,-255 1149,-217 1735,57 152,76 -2,87 -92,96 -36,7 -194,22 -131,110 244,41 496,122 755,233 -30,-69 -82,-140 -166,-213 82,-20 177,-33 287,-33 -165,-74 -335,-139 -514,-186 -19,-75 140,-107 12,-235 -509,-308 -1450,-420 -2138,-8 -82,157 3,143 14,232 -141,41 -309,101 -487,171 93,9 185,24 278,48 -70,51 -134,128 -195,222l0 0zm586 -586l27 -4c3,15 1,28 -5,38 -5,10 -15,19 -28,24 -16,8 -32,8 -47,2 -16,-7 -28,-20 -36,-39 -9,-20 -11,-38 -5,-54 5,-16 16,-28 33,-36 15,-6 29,-7 43,-3 8,3 15,9 22,17l-22 17c-4,-6 -9,-9 -15,-11 -6,-2 -13,-1 -19,2 -9,4 -15,10 -18,19 -3,9 -1,21 5,36 7,15 15,25 24,29 8,4 17,4 25,0 7,-3 12,-7 15,-14 2,-6 3,-14 1,-23l0 0zm41 -36c-5,-13 -7,-24 -7,-34 0,-7 2,-15 5,-22 3,-7 7,-13 12,-17 7,-7 15,-12 25,-15 18,-8 35,-7 51,0 15,7 27,21 35,41 7,20 8,38 1,53 -6,16 -19,28 -37,35 -19,7 -36,7 -51,0 -15,-7 -27,-21 -34,-41zm25 -11c6,14 13,24 23,29 9,5 18,5 29,1 9,-4 16,-11 20,-20 4,-10 3,-22 -3,-37 -5,-14 -12,-23 -21,-28 -9,-5 -19,-5 -29,-1 -11,4 -18,11 -22,20 -3,10 -2,22 3,36zm224 1l-16 -55 -68 -60 30 -9 45 42 15 -59 30 -9 -26 88 16 54 -26 8zm122 -33l-77 -120 29 -6 55 88 10 -103 28 -7 -17 141 -28 7 0 0zm126 -29l-9 -55 -60 -69 31 -5 39 47 22 -57 31 -5 -36 85 9 55 -27 4 0 0zm130 -88c-1,-14 0,-26 4,-35 2,-7 6,-14 11,-19 5,-6 10,-10 16,-14 8,-4 18,-6 29,-7 19,-1 35,4 48,15 13,12 20,28 21,50 2,21 -3,39 -14,52 -11,13 -26,20 -45,21 -20,1 -36,-4 -49,-15 -13,-11 -20,-27 -21,-48l0 0zm28 -4c1,16 5,27 13,34 7,8 16,11 27,10 11,-1 19,-5 26,-13 6,-9 8,-20 7,-36 -1,-15 -5,-26 -12,-33 -7,-8 -17,-11 -28,-10 -11,1 -19,5 -26,13 -6,9 -8,20 -7,35zm131 59l0 -134 57 0c14,0 25,1 31,4 7,2 12,6 16,12 3,6 5,13 5,21 0,11 -3,19 -9,25 -5,7 -14,11 -26,13 6,3 11,7 15,11 3,4 8,11 15,22l16 26 -32 0 -19 -30c-7,-10 -12,-16 -15,-19 -2,-3 -5,-5 -8,-6 -3,-1 -7,-1 -14,-1l-5 0 0 56 -27 0 0 0zm27 -77l20 0c13,0 21,-1 24,-2 4,-1 6,-3 8,-6 2,-3 3,-6 3,-10 0,-4 -2,-8 -4,-11 -2,-2 -6,-4 -10,-5 -2,0 -9,0 -20,0l-21 0 0 34 0 0zm112 75l4 -133 99 3 -1 23 -72 -3 -1 30 67 2 0 23 -67 -3 -2 37 75 2 -1 23 -101 -4 0 0zm176 13l16 -133 57 7c14,2 24,4 30,7 6,3 11,8 14,15 3,7 4,14 3,21 -1,10 -5,18 -12,24 -6,6 -15,9 -27,9 5,4 9,9 13,13 3,5 7,12 12,24l13 27 -32 -4 -16 -31c-5,-11 -9,-18 -11,-21 -2,-3 -5,-5 -8,-7 -2,-1 -7,-2 -13,-3l-5 0 -7 55 -27 -3 0 0zm36 -74l20 3c13,1 21,2 24,1 4,-1 6,-2 9,-5 2,-2 3,-5 4,-9 0,-5 -1,-8 -3,-12 -2,-3 -5,-5 -9,-6 -3,-1 -9,-1 -20,-3l-21 -2 -4 33 0 0zm100 93l26 -131 97 19 -4 22 -71 -14 -5 30 65 12 -4 22 -66 -12 -7 35 74 14 -5 23 -100 -20 0 0zm156 32l27 -107 -39 -10 6 -22 103 26 -6 22 -38 -10 -27 108 -26 -7 0 0zm187 51l-29 -8 -3 -32 -51 -15 -19 26 -28 -8 88 -114 27 8 15 143zm-34 -64l-4 -53 -31 43 35 10zm50 69l48 -124 37 14 -9 94 55 -77 37 15 -48 124 -23 -8 38 -99 -63 89 -24 -9 13 -108 -38 98 -23 -9 0 0zm258 106l-27 -12 2 -32 -49 -22 -22 23 -26 -11 101 -101 27 11 -6 144 0 0zm-24 -68l3 -53 -36 38 33 15 0 0z"/>
    </g>
   </g>
  </g>
  <g id="_1142047184">
   <g id="Layer_x0020_1_0">
    <g id="_762247824_1">
     <path class="fil2" d="M4970 25319l600 611c-169,187 -379,298 -609,298 -225,0 -435,-111 -601,-290l610 -619 0 0zm0 16l-594 603c154,163 357,278 585,278 235,0 437,-116 593,-286l-584 -595 0 0z"/>
     <polygon class="fil2" points="5933,22968 5937,22974 5938,22977 5937,22980 5933,22983 5925,22988 5914,22992 5899,22996 5883,22999 5865,23002 5847,23004 5828,23006 5809,23008 5792,23010 5783,23012 5773,23013 5760,23015 5746,23018 5732,23021 5716,23025 5701,23030 5686,23036 5672,23042 5660,23051 5649,23061 5641,23073 5637,23087 5638,23103 5642,23116 5634,23113 5624,23109 5616,23104 5611,23097 5607,23087 5605,23074 5605,23057 5609,23046 5615,23035 5622,23023 5631,23013 5640,23003 5651,22993 5661,22985 5678,22973 5677,22952 5678,22938 5681,22924 5686,22911 5693,22899 5703,22886 5715,22873 5725,22865 5880,22934 5904,22947 5922,22959 "/>
     <polygon class="fil2" points="4298,23106 4298,23105 4300,23086 4298,23069 4293,23055 4285,23043 4274,23034 4261,23028 4247,23023 4232,23020 4216,23018 4199,23017 4182,23016 4164,23016 4146,23016 4129,23015 4112,23014 4088,23013 4068,23010 4051,23005 4038,23000 4028,22994 4022,22987 4019,22981 4018,22974 4020,22966 4026,22956 4036,22944 4050,22932 4069,22919 4093,22906 4121,22892 4154,22878 4212,22857 4223,22862 4235,22870 4245,22877 4253,22884 4259,22891 4263,22898 4267,22904 4269,22911 4270,22918 4272,22925 4272,22933 4273,22941 4274,22949 4276,22957 4278,22966 4281,22975 4286,22985 4291,22994 4298,23002 4304,23009 4311,23016 4317,23022 4322,23028 4327,23034 4334,23045 4338,23056 4339,23065 4337,23074 4332,23083 4322,23093 4304,23103 "/>
     <path class="fil2" d="M4768 23360l194 -140 189 136 -72 -225 187 -151 -234 0 -82 -217 -67 215 -234 0 189 151 -70 231zm194 -181l128 93 -48 -152 132 -108 -165 0 -56 -149 -46 147 -166 0 134 107 -48 161 135 -99 0 0z"/>
     <path class="fil2" d="M4147 25623l823 -820 809 810c-58,121 -128,227 -209,317l-600 -611 -611 619c-82,-89 -153,-195 -212,-315l0 0z"/>
     <path class="fil2" d="M3266 25535c-7,82 14,163 65,244 37,7 74,12 112,16 -81,-77 -139,-164 -177,-260zm713 121c15,34 15,68 5,103 18,-1 37,-2 55,-3 -1,-43 -23,-75 -60,-100zm-89 -188c10,89 -20,193 -70,307 40,-4 80,-9 121,-12 29,-115 7,-211 -51,-295l0 0zm-136 314c66,-147 142,-310 79,-573 -55,264 -115,323 -189,469 -57,-146 -371,-256 -392,-585 -58,440 138,565 297,704 7,0 14,0 20,0 62,-2 123,-8 185,-15l0 0zm-47 -1615c114,-115 296,-205 362,-607 -160,144 -370,201 -362,607zm-7 -326c-322,237 -116,569 -99,674 103,-117 290,-177 362,-472 9,-39 16,-75 21,-109 -19,47 -39,100 -64,134 -94,93 -189,150 -239,180 -19,-163 -40,-323 19,-407zm-120 994c85,-191 298,-235 321,-579 -83,227 -204,197 -303,350 -18,-129 -177,-206 -104,-503 -225,348 -73,474 86,732l0 0zm25 402c69,-198 270,-391 265,-734 -65,232 -210,278 -287,447 -27,-106 -228,-208 -241,-462 -117,294 83,505 263,749l0 0zm22 358c47,-210 279,-320 191,-690 -57,263 -144,261 -218,409 -58,-146 -302,-209 -324,-537 -78,591 219,566 351,818zm-285 394c22,44 46,82 72,117 23,-13 45,-27 64,-43 -19,-14 -39,-30 -60,-47 -25,-8 -51,-17 -76,-27zm217 269c71,59 149,107 227,159 68,-11 135,-25 204,-37 34,-6 68,-11 101,-15 13,-68 20,-125 23,-177 -47,8 -94,17 -142,26l-21 108c-54,-34 -102,-58 -150,-82 -81,11 -162,18 -242,18l0 0zm-82 64l79 120c29,-2 58,-4 87,-7l-166 -113zm750 -153c6,58 -2,121 -24,189 16,-1 32,-1 47,0 25,0 50,0 75,1 8,-81 -1,-148 -25,-197 -23,1 -45,3 -64,5l-9 2zm175 87c3,41 4,77 3,107 26,2 52,4 77,6l-21 -44 3 -5 4 -7c-17,-23 -39,-41 -66,-57l0 0z"/>
     <path class="fil2" d="M6312 26411c58,-47 115,-95 157,-147 -12,56 -42,105 -79,160 -26,-4 -52,-8 -78,-13l0 0zm-835 -102c16,-25 38,-49 66,-73 -12,44 -16,85 -13,125 -20,2 -40,4 -60,6l13 -50 -3 -4 -3 -4 0 0zm110 48c0,-52 14,-114 45,-185l11 -1c24,-1 48,-2 73,-2 -13,60 -10,120 2,182 -21,0 -43,1 -64,3 -22,0 -45,2 -67,3l0 0zm221 -187c6,74 14,134 23,182 125,5 249,22 373,42 67,-43 136,-93 205,-150l0 0c-75,-2 -149,-11 -223,-25 -31,-6 -63,-12 -95,-18 -37,24 -74,54 -113,90 -10,-36 -18,-73 -23,-109 -49,-6 -98,-10 -147,-12l0 0zm743 -178c-16,23 -41,46 -76,71 19,16 42,30 66,42 21,-34 41,-78 60,-132 -16,6 -33,13 -50,19l0 0zm101 -465c4,71 -10,141 -47,211 -30,4 -61,7 -92,9 61,-66 107,-140 139,-220l0 0zm-499 226c-64,-142 -129,-300 -70,-552 56,263 116,322 189,470 58,-146 371,-257 392,-585 53,400 -105,539 -253,666 -88,3 -176,3 -258,1l0 0zm-127 -292c-9,84 17,182 64,291 -41,-1 -80,-2 -116,-2 -27,-112 -4,-207 52,-289l0 0zm-88 188c-15,33 -16,66 -5,100 -19,0 -38,2 -55,6 -2,-46 21,-80 60,-106zm271 -1489c-113,-115 -295,-205 -361,-607 160,144 370,201 361,607zm7 -326c323,236 117,568 99,674 -102,-117 -290,-177 -362,-472 -8,-39 -15,-75 -21,-109 19,47 39,100 64,133 94,94 190,150 241,180 18,-163 39,-323 -21,-406zm121 994c-86,-191 -298,-237 -322,-579 84,227 204,197 304,349 17,-130 177,-205 104,-502 225,348 73,474 -86,732l0 0zm-26 401c-69,-197 -269,-390 -264,-734 64,233 210,279 287,448 28,-106 228,-208 240,-462 118,294 -82,505 -263,748l0 0zm-21 359c-48,-210 -278,-320 -190,-690 55,263 143,261 216,408 58,-145 304,-208 324,-536 79,591 -218,565 -350,818z"/>
     <path class="fil2" d="M4961 23402c547,0 993,635 993,1413 0,84 -5,166 -15,247 -162,-96 -345,-168 -542,-212 5,1 10,2 14,3l348 -33 -458 -43 170 -91 -192 6 141 -132 -185 56 322 -410 -384 348 57 -183 -132 140 6 -193 -91 170 -43 -537 -45 537 -91 -170 7 193 -131 -140 55 183 -383 -348 321 410 -183 -56 140 132 -193 -6 170 91 -459 43 355 34c-200,46 -386,123 -549,223 -11,-84 -16,-172 -16,-262 0,-778 445,-1413 993,-1413l0 0zm47 1403c-6,0 -11,0 -16,0 5,0 10,0 16,0zm-16 0c-6,0 -12,0 -17,0 -17,0 -34,0 -50,0 16,0 33,0 50,0 5,0 11,0 17,0z"/>
     <path class="fil2" d="M3324 26224c-111,36 -188,70 -218,101 -79,75 -72,186 19,333 43,147 105,234 197,234 255,84 626,-39 939,-58 261,-17 480,73 717,56 232,-8 439,-61 697,-59 364,4 631,133 993,37 122,-67 83,-135 158,-243 137,-229 26,-345 -229,-403 55,-9 107,-23 159,-42 -183,-33 -293,-87 -333,-160 227,-59 431,-164 579,-399 -249,171 -624,141 -1043,141 -108,-7 -204,35 -287,124 -98,167 -178,173 -244,258 -69,82 -59,164 30,226l12 -50c-103,-152 118,-158 172,-160 173,-11 357,10 546,47 76,15 149,23 221,25 460,51 502,277 151,228 -295,-37 -605,-114 -905,-95 -278,11 -468,58 -717,64 -230,-20 -411,-59 -688,-60 -322,-5 -422,109 -986,84 -129,-10 -187,-140 47,-179l190 -28c237,10 481,-50 734,-90 145,-16 343,-6 239,170l16 32c138,-152 19,-229 -170,-377 -77,-107 -144,-199 -255,-214 -433,12 -625,142 -1111,-122 93,198 293,320 568,389 -53,70 -163,121 -312,158 38,13 75,24 114,32zm-89 559l22 -210 156 16 -4 36 -113 -12 -5 47 106 11 -4 35 -106 -11 -6 57 118 12 -4 36 -160 -17 0 0zm183 -54l41 -6c3,14 9,24 17,30 8,6 18,9 31,8 14,-1 24,-4 31,-10 6,-6 9,-13 9,-21 0,-5 -2,-9 -5,-12 -3,-4 -8,-7 -16,-9 -5,-1 -17,-4 -34,-7 -23,-5 -40,-11 -50,-19 -13,-11 -20,-24 -21,-41 -1,-11 2,-21 7,-31 6,-9 14,-17 26,-23 11,-5 24,-8 41,-9 26,-1 46,4 60,14 14,11 22,26 24,46l-43 4c-2,-11 -6,-18 -13,-23 -6,-5 -15,-6 -27,-6 -12,1 -22,4 -29,9 -4,4 -6,9 -6,14 0,5 3,9 7,12 6,5 19,9 40,12 21,4 37,9 47,13 10,5 18,12 24,20 7,9 10,20 10,34 1,12 -1,23 -8,34 -6,11 -15,19 -27,25 -12,6 -27,9 -45,10 -27,2 -48,-4 -63,-15 -15,-12 -24,-29 -28,-53l0 0zm258 49l-21 -174 -63 8 -4 -36 167 -20 4 35 -62 8 21 174 -42 5zm297 -44l-46 6 -25 -45 -84 12 -10 50 -45 6 52 -221 45 -6 113 198 0 0zm-90 -72l-39 -74 -18 82 57 -8zm89 -144l78 -8c17,-2 31,-2 40,0 13,2 24,8 34,16 10,8 18,19 24,32 5,13 9,29 12,49 1,17 1,32 -2,45 -4,16 -10,29 -19,40 -6,8 -16,14 -28,20 -9,4 -21,6 -37,8l-80 9 -22 -211 0 0zm46 32l15 139 32 -4c11,-1 20,-2 25,-4 7,-3 12,-6 16,-11 5,-5 7,-12 9,-22 2,-9 2,-22 1,-38 -2,-16 -5,-29 -9,-37 -3,-9 -8,-15 -14,-19 -6,-5 -12,-7 -20,-8 -7,-1 -18,0 -36,2l-19 2 0 0zm183 53c0,-22 4,-39 11,-54 4,-11 11,-20 20,-29 8,-8 17,-14 27,-18 13,-5 29,-8 46,-8 31,1 56,11 74,31 18,19 27,46 27,81 -1,34 -11,60 -29,79 -19,19 -44,28 -75,28 -32,-1 -57,-11 -75,-30 -18,-20 -27,-46 -26,-80l0 0zm44 -1c0,24 5,43 15,55 11,13 25,19 42,19 17,1 31,-5 42,-17 11,-12 17,-31 18,-55 0,-24 -5,-43 -15,-55 -11,-12 -25,-18 -42,-18 -18,-1 -32,5 -43,17 -11,12 -17,30 -17,54l0 0zm303 -84l78 11c17,3 30,6 39,10 12,5 21,13 28,24 8,10 13,22 16,36 3,15 3,31 0,51 -3,17 -7,31 -13,44 -7,14 -17,25 -28,33 -8,6 -19,11 -31,13 -10,2 -23,1 -39,-1l-79 -11 29 -210 0 0zm37 42l-19 138 32 5c11,2 20,2 26,2 7,-1 13,-3 18,-7 5,-3 9,-9 14,-18 4,-10 7,-22 9,-38 3,-16 3,-29 1,-38 -1,-9 -4,-16 -9,-22 -4,-5 -10,-10 -18,-12 -6,-3 -17,-5 -34,-8l-20 -2 0 0zm141 97c1,-22 6,-40 13,-54 5,-10 12,-20 21,-28 9,-8 18,-14 28,-17 13,-5 29,-7 46,-6 31,1 55,12 73,32 18,21 26,48 24,83 -2,33 -12,60 -32,78 -19,18 -45,26 -76,25 -31,-2 -56,-13 -73,-33 -18,-20 -25,-47 -24,-80l0 0zm44 1c-1,23 4,42 14,55 10,13 24,20 41,20 17,2 31,-4 43,-16 11,-11 18,-29 19,-54 1,-24 -3,-42 -13,-55 -10,-12 -24,-19 -41,-20 -18,-1 -32,4 -44,16 -11,11 -17,29 -19,54zm318 99l-15 -175 -62 6 -4 -36 168 -14 3 35 -62 6 15 174 -43 4 0 0zm108 -117c-2,-21 -1,-39 4,-54 4,-12 10,-22 17,-31 7,-10 16,-17 25,-22 13,-7 27,-11 45,-13 31,-3 56,4 77,21 20,17 33,43 36,77 4,34 -3,62 -19,82 -17,22 -40,34 -71,37 -31,3 -57,-4 -78,-21 -20,-17 -32,-42 -36,-76l0 0zm44 -6c3,24 10,42 22,53 12,11 27,16 44,14 17,-2 30,-10 40,-23 9,-13 13,-32 10,-56 -2,-25 -10,-42 -21,-53 -12,-10 -27,-15 -44,-13 -18,2 -31,9 -41,23 -9,13 -13,31 -10,55zm334 -4l42 11c-6,24 -15,41 -29,53 -15,12 -33,18 -55,20 -29,1 -52,-7 -71,-25 -19,-19 -30,-44 -31,-77 -2,-35 5,-63 23,-84 17,-20 40,-31 70,-33 25,-1 47,6 64,20 10,9 18,21 23,38l-41 12c-3,-11 -9,-19 -17,-25 -9,-6 -18,-9 -30,-8 -15,1 -28,7 -37,19 -9,11 -13,30 -12,55 2,27 8,46 18,56 10,11 23,16 38,16 11,-1 21,-5 29,-13 7,-7 13,-19 16,-35zm272 82l-46 -2 -17 -49 -84 -3 -19 48 -46 -2 90 -208 45 1 77 215zm-75 -87l-27 -79 -31 77 58 2zm98 91l26 -210 41 5 69 151 17 -140 39 4 -25 210 -43 -5 -68 -147 -16 136 -40 -4 0 0zm257 33l24 -174 -62 -8 5 -36 167 24 -5 35 -62 -9 -25 174 -42 -6 0 0zm132 19l22 -210 43 4 -23 211 -42 -5zm84 10l3 -211 42 1 84 143 2 -142 40 1 -3 211 -43 -1 -83 -139 -2 138 -40 -1 0 0zm192 -67l41 -9c4,13 10,22 19,28 8,5 19,7 32,5 14,-2 23,-6 29,-13 7,-6 9,-14 8,-21 -1,-5 -3,-9 -6,-12 -4,-4 -9,-6 -17,-7 -5,-1 -17,-3 -35,-5 -23,-2 -40,-7 -50,-14 -15,-9 -23,-22 -25,-39 -2,-11 0,-21 4,-31 5,-10 13,-19 23,-25 11,-7 24,-11 41,-13 26,-4 46,-1 61,9 15,9 24,24 28,43l-42 8c-3,-11 -9,-18 -15,-22 -7,-4 -16,-5 -28,-3 -12,2 -21,5 -28,11 -4,4 -5,9 -4,14 0,5 3,9 8,12 5,4 19,7 40,9 22,2 37,5 48,8 10,4 19,10 26,18 7,9 11,19 13,32 2,13 0,24 -5,36 -5,11 -14,20 -25,27 -11,7 -26,11 -44,14 -27,4 -48,0 -64,-10 -16,-10 -27,-26 -33,-50l0 0zm-673 -681l-24 -2 6 -92c-9,8 -20,13 -33,17l2 -23c6,-1 14,-5 22,-10 7,-6 13,-12 16,-19l20 1 -9 128 0 0zm73 -21l24 2c0,5 1,8 3,11 2,3 5,4 9,5 5,1 10,-1 14,-5 4,-4 8,-13 11,-27 -7,6 -15,8 -24,7 -11,-2 -18,-7 -24,-16 -6,-9 -8,-19 -7,-31 3,-13 8,-23 17,-30 9,-6 19,-9 31,-7 13,2 22,9 29,20 7,11 8,28 5,51 -4,23 -11,39 -21,48 -10,9 -22,12 -36,10 -10,-2 -17,-6 -23,-12 -5,-6 -8,-15 -8,-26zm63 -44c2,-7 1,-14 -2,-19 -3,-4 -7,-7 -11,-8 -5,-1 -9,0 -13,4 -3,3 -5,8 -7,16 -1,8 0,15 2,19 3,4 7,7 11,7 5,1 9,0 13,-3 4,-3 6,-8 7,-16l0 0zm91 30c-5,-4 -10,-8 -12,-13 -2,-5 -3,-11 -2,-16 2,-10 6,-17 13,-22 8,-5 18,-7 30,-5 12,1 21,6 26,13 6,7 8,15 7,25 -1,5 -3,10 -7,15 -3,4 -8,7 -14,8 7,4 11,9 14,15 3,6 4,12 3,19 -2,12 -7,21 -15,27 -9,7 -19,9 -31,7 -12,-2 -21,-6 -28,-13 -8,-8 -11,-19 -9,-31 1,-7 3,-13 7,-18 5,-6 11,-9 18,-11l0 0zm9 -24c-1,5 0,9 2,12 3,3 6,5 11,5 4,1 8,0 11,-2 3,-2 5,-6 6,-11 1,-4 0,-8 -3,-11 -2,-4 -5,-5 -10,-6 -4,-1 -8,0 -11,2 -4,3 -5,6 -6,11zm-10 54c-1,6 0,12 3,16 3,4 7,7 12,8 5,0 9,-1 13,-4 4,-3 6,-8 7,-15 1,-6 0,-11 -3,-15 -3,-4 -7,-6 -12,-7 -6,-1 -10,0 -14,4 -3,4 -5,8 -6,13l0 0zm101 22l23 -2c1,5 2,9 5,11 2,2 6,4 10,4 5,0 9,-3 13,-7 3,-5 6,-14 7,-29 -6,7 -14,11 -24,10 -9,0 -18,-4 -25,-12 -8,-7 -11,-18 -11,-30 1,-13 5,-23 12,-31 8,-8 18,-12 30,-12 13,0 24,6 32,16 8,10 12,27 11,50 0,23 -5,40 -14,50 -8,10 -20,15 -34,15 -10,0 -18,-3 -24,-8 -6,-6 -10,-14 -11,-25l0 0zm56 -52c0,-8 -1,-14 -5,-19 -4,-4 -8,-6 -12,-6 -5,-1 -9,1 -12,5 -3,3 -4,9 -5,17 0,8 2,15 5,19 3,4 7,6 12,6 5,0 9,-2 12,-6 3,-3 5,-9 5,-16zm-2513 92l-24 0 -2 -92c-8,8 -19,15 -31,19l0 -22c6,-3 13,-7 20,-13 8,-6 13,-12 15,-20l20 -1 2 129 0 0zm23 -100c-1,-10 1,-18 6,-25 5,-6 12,-9 22,-10 9,-1 16,1 22,7 6,5 10,13 11,23 0,10 -2,18 -6,25 -5,6 -13,10 -22,10 -9,1 -16,-1 -22,-6 -6,-6 -10,-13 -11,-24zm18 -1c1,6 3,11 5,13 2,3 5,4 9,3 3,0 6,-2 8,-4 2,-3 2,-8 2,-14 -1,-7 -2,-11 -5,-13 -2,-3 -5,-4 -8,-4 -4,0 -7,2 -8,5 -2,3 -3,7 -3,14zm144 -47l25 -4 12 80c1,11 1,19 0,25 -1,8 -5,14 -10,19 -6,6 -15,9 -25,11 -13,2 -23,0 -31,-7 -7,-6 -12,-15 -14,-29l24 -6c1,7 3,12 5,15 3,4 8,6 13,5 6,-1 10,-3 12,-7 2,-3 2,-10 1,-21l-12 -81zm183 96l-28 5 -16 -27 -50 9 -5 31 -27 4 27 -134 27 -5 72 117zm-56 -41l-25 -44 -9 50 34 -6 0 0zm70 38l-18 -126 25 -4 64 78 -12 -85 24 -3 18 126 -26 4 -63 -75 12 82 -24 3z"/>
     <path class="fil2" d="M3895 26882c124,162 359,238 706,227 44,-1 118,-17 201,-25 -136,82 -234,180 -290,274l143 -17 78 -130c65,-78 147,-112 231,-125 85,13 167,47 232,125l78 130 143 17c-57,-94 -154,-192 -290,-274 83,8 156,24 201,25 357,11 595,-69 716,-241 -30,-4 -60,-9 -90,-14 -137,69 -516,5 -723,69 -98,19 -187,46 -267,79 -79,-33 -168,-60 -265,-79 -196,-59 -544,-7 -698,-57 -36,5 -71,11 -106,16l0 0z"/>
     <path class="fil2" d="M3508 23361c226,-94 478,-177 775,-238 34,-115 -80,-91 -172,-98 -135,-3 -154,-82 39,-157 650,-256 1149,-218 1735,57 152,75 -2,86 -92,96 -36,7 -194,21 -131,110 244,40 496,122 755,232 -30,-69 -82,-139 -166,-212 82,-21 177,-33 287,-33 -165,-75 -335,-140 -514,-186 -19,-75 140,-107 12,-235 -509,-308 -1450,-421 -2138,-9 -82,157 3,144 14,233 -141,41 -309,101 -487,171 93,9 185,24 278,47 -70,52 -134,128 -195,222l0 0zm586 -586l27 -3c3,15 1,28 -5,38 -5,10 -15,18 -28,24 -16,7 -32,8 -47,1 -16,-6 -28,-19 -36,-39 -9,-20 -11,-38 -5,-54 5,-16 16,-28 33,-35 15,-7 29,-8 43,-3 8,3 15,8 22,17l-22 17c-4,-6 -9,-10 -15,-11 -6,-2 -13,-1 -19,1 -9,4 -15,11 -18,20 -3,9 -1,21 5,35 7,16 15,26 24,30 8,4 17,4 25,0 7,-3 12,-8 15,-14 2,-6 3,-14 1,-24l0 0zm41 -36c-5,-12 -7,-23 -7,-34 0,-7 2,-14 5,-21 3,-7 7,-13 12,-18 7,-6 15,-11 25,-15 18,-7 35,-7 51,0 15,7 27,21 35,41 7,21 8,38 1,54 -6,16 -19,27 -37,34 -19,7 -36,7 -51,0 -15,-7 -27,-20 -34,-41zm25 -10c6,14 13,23 23,28 9,5 18,5 29,1 9,-3 16,-10 20,-20 4,-10 3,-22 -3,-36 -5,-14 -12,-24 -21,-29 -9,-4 -19,-5 -29,0 -11,4 -18,10 -22,20 -3,10 -2,21 3,36zm224 0l-16 -54 -68 -61 30 -9 45 43 15 -60 30 -8 -26 88 16 54 -26 7zm122 -33l-77 -119 29 -7 55 89 10 -104 28 -6 -17 141 -28 6 0 0zm126 -28l-9 -56 -60 -69 31 -5 39 48 22 -57 31 -5 -36 84 9 55 -27 5 0 0zm130 -89c-1,-14 0,-25 4,-35 2,-7 6,-13 11,-19 5,-6 10,-10 16,-13 8,-4 18,-7 29,-7 19,-2 35,3 48,15 13,11 20,27 21,49 2,22 -3,39 -14,52 -11,13 -26,20 -45,21 -20,2 -36,-3 -49,-14 -13,-12 -20,-28 -21,-49l0 0zm28 -3c1,15 5,26 13,34 7,7 16,10 27,10 11,-1 19,-6 26,-14 6,-8 8,-20 7,-35 -1,-16 -5,-27 -12,-34 -7,-7 -17,-10 -28,-9 -11,0 -19,5 -26,13 -6,8 -8,20 -7,35zm131 58l0 -134 57 0c14,0 25,2 31,4 7,3 12,7 16,13 3,6 5,13 5,21 0,10 -3,18 -9,25 -5,6 -14,10 -26,12 6,3 11,7 15,11 3,4 8,12 15,22l16 26 -32 0 -19 -29c-7,-10 -12,-17 -15,-19 -2,-3 -5,-5 -8,-6 -3,-1 -7,-2 -14,-2l-5 0 0 56 -27 0 0 0zm27 -77l20 0c13,0 21,-1 24,-2 4,-1 6,-3 8,-5 2,-3 3,-6 3,-10 0,-5 -2,-8 -4,-11 -2,-3 -6,-5 -10,-6 -2,0 -9,0 -20,0l-21 0 0 34 0 0zm112 76l4 -134 99 4 -1 22 -72 -2 -1 29 67 3 0 22 -67 -2 -2 36 75 3 -1 22 -101 -3 0 0zm176 12l16 -133 57 7c14,2 24,4 30,8 6,3 11,8 14,14 3,7 4,14 3,22 -1,10 -5,18 -12,24 -6,5 -15,8 -27,9 5,4 9,8 13,12 3,5 7,13 12,24l13 28 -32 -4 -16 -31c-5,-12 -9,-19 -11,-22 -2,-3 -5,-5 -8,-6 -2,-2 -7,-2 -13,-3l-5 -1 -7 55 -27 -3 0 0zm36 -73l20 2c13,2 21,2 24,2 4,-1 6,-3 9,-5 2,-2 3,-6 4,-10 0,-4 -1,-8 -3,-11 -2,-3 -5,-5 -9,-6 -3,-1 -9,-2 -20,-3l-21 -3 -4 34 0 0zm100 93l26 -131 97 19 -4 22 -71 -14 -5 29 65 13 -4 22 -66 -13 -7 36 74 14 -5 22 -100 -19 0 0zm156 32l27 -108 -39 -9 6 -22 103 25 -6 22 -38 -9 -27 108 -26 -7 0 0zm187 51l-29 -9 -3 -32 -51 -15 -19 27 -28 -8 88 -114 27 7 15 144zm-34 -65l-4 -53 -31 43 35 10zm50 70l48 -125 37 14 -9 94 55 -76 37 14 -48 125 -23 -9 38 -98 -63 89 -24 -10 13 -107 -38 98 -23 -9 0 0zm258 106l-27 -12 2 -33 -49 -21 -22 23 -26 -12 101 -101 27 12 -6 144 0 0zm-24 -69l3 -53 -36 38 33 15 0 0z"/>
    </g>
   </g>
  </g>
  <g id="_1142024432">
   <path class="fil3" d="M4970 5408l601 612c-169,189 -379,299 -610,299 -225,0 -436,-110 -603,-290l612 -621z"/>
   <polygon class="fil4" points="4219,6450 4190,6451 4163,6452 4136,6453 4110,6456 4085,6458 4060,6461 4036,6465 4012,6468 3989,6472 3965,6477 3941,6481 3918,6486 3893,6490 3869,6495 3844,6500 3818,6504 3791,6509 3764,6513 3735,6517 3705,6521 3674,6525 3641,6528 3607,6531 3571,6533 3533,6535 3494,6536 3452,6537 3408,6538 3361,6537 3312,6536 3261,6534 3239,6531 3219,6525 3201,6518 3186,6509 3174,6499 3166,6488 3160,6477 3158,6465 3160,6454 3165,6442 3174,6430 3189,6417 3210,6405 3237,6394 3270,6384 3310,6376 3499,6347 3520,6348 3543,6349 3565,6349 3588,6348 3610,6348 3633,6346 3656,6345 3679,6343 3701,6341 3724,6339 3747,6337 3770,6334 3793,6331 3816,6328 3839,6325 3862,6321 3885,6318 3908,6314 3931,6310 3954,6306 3977,6302 4000,6298 4024,6294 4053,6289 4094,6282 4117,6277 4141,6273 4164,6269 4188,6265 4211,6261 4235,6257 4248,6256 4262,6255 4276,6254 4290,6253 4304,6253 4319,6252 4333,6253 4347,6253 4360,6254 4374,6255 4387,6256 4399,6258 4411,6261 4422,6263 4433,6267 4443,6270 4452,6274 4460,6279 4468,6284 4474,6290 4480,6296 4484,6302 4487,6309 4490,6317 4491,6325 4492,6335 4491,6345 4489,6356 4485,6369 4480,6382 4473,6397 4461,6417 4479,6453 4480,6459 4478,6459 4462,6458 4447,6456 4431,6455 4416,6454 4400,6453 4385,6453 4369,6452 4354,6451 4339,6451 4324,6450 4308,6450 4293,6450 4278,6450 4264,6450 4249,6450 "/>
   <polygon class="fil4" points="5465,6380 5457,6358 5455,6340 5457,6326 5463,6313 5473,6302 5486,6293 5502,6285 5521,6278 5540,6273 5560,6269 5580,6266 5600,6264 5617,6263 5632,6262 5644,6262 5661,6261 5677,6260 5693,6259 5709,6259 5726,6259 5742,6259 5759,6259 5775,6259 5792,6260 5808,6260 5825,6261 5842,6262 5859,6263 5876,6264 5893,6266 5910,6267 5927,6269 5944,6271 5961,6273 5978,6275 5996,6277 6013,6279 6030,6282 6048,6284 6065,6287 6083,6290 6100,6293 6118,6296 6136,6299 6153,6302 6171,6306 6189,6309 6203,6312 6217,6314 6231,6317 6245,6319 6260,6321 6274,6323 6288,6325 6301,6326 6315,6328 6329,6329 6343,6330 6357,6331 6371,6332 6384,6333 6398,6334 6411,6334 6453,6339 6492,6345 6529,6352 6563,6360 6595,6369 6624,6378 6651,6387 6675,6397 6697,6407 6717,6418 6734,6428 6749,6439 6761,6450 6770,6460 6778,6470 6783,6479 6785,6487 6786,6495 6785,6502 6782,6509 6777,6516 6770,6522 6761,6528 6749,6534 6734,6539 6717,6543 6698,6546 6676,6547 6652,6548 6625,6547 6596,6545 6564,6541 6537,6538 6509,6534 6481,6530 6453,6526 6425,6521 6397,6517 6369,6513 6341,6508 6312,6503 6284,6499 6256,6494 6227,6490 6199,6485 6170,6481 6142,6477 6113,6472 6084,6468 6056,6465 6027,6461 5999,6458 5970,6455 5941,6452 5913,6450 5884,6447 5855,6446 5827,6444 5798,6443 5770,6443 5741,6443 5712,6443 5684,6445 5656,6446 5643,6447 5630,6447 5616,6448 5601,6449 5587,6450 5572,6451 5558,6452 5544,6453 5530,6453 5517,6454 5504,6454 5493,6454 5483,6454 5474,6454 5472,6453 5483,6410 "/>
   <polygon class="fil4" points="5935,3052 5939,3059 5940,3062 5939,3064 5935,3068 5927,3072 5915,3076 5901,3080 5885,3084 5867,3086 5848,3089 5830,3091 5811,3093 5793,3095 5785,3096 5774,3098 5762,3100 5748,3103 5733,3106 5718,3110 5702,3114 5688,3120 5674,3127 5661,3135 5650,3145 5642,3158 5638,3172 5639,3188 5643,3200 5635,3198 5625,3194 5617,3189 5612,3182 5608,3172 5606,3158 5606,3141 5610,3131 5616,3119 5624,3108 5632,3097 5642,3087 5652,3078 5663,3069 5680,3058 5678,3036 5679,3023 5682,3009 5688,2996 5695,2983 5705,2970 5717,2957 5726,2949 5882,3019 5906,3032 5924,3043 "/>
   <polygon class="fil4" points="4297,3190 4297,3189 4299,3171 4297,3154 4292,3140 4283,3128 4272,3119 4260,3112 4246,3108 4230,3105 4214,3103 4197,3102 4180,3101 4162,3101 4145,3100 4127,3100 4110,3099 4086,3097 4066,3094 4049,3090 4036,3085 4026,3078 4020,3072 4017,3066 4016,3059 4018,3051 4024,3041 4034,3029 4048,3017 4067,3004 4091,2990 4119,2976 4152,2962 4210,2941 4221,2947 4234,2954 4244,2961 4252,2968 4257,2975 4262,2982 4265,2989 4268,2995 4269,3002 4270,3010 4271,3017 4272,3025 4273,3034 4274,3042 4276,3051 4279,3060 4284,3070 4290,3079 4297,3087 4303,3094 4310,3100 4316,3106 4321,3112 4326,3119 4333,3130 4337,3140 4338,3150 4336,3159 4331,3168 4320,3178 4303,3188 "/>
   <polygon class="fil4" points="4768,3445 4962,3305 5152,3441 5079,3216 5266,3065 5032,3065 4950,2847 4883,3063 4648,3063 4837,3214 "/>
   <polygon class="fil3" points="4962,3265 5091,3358 5042,3205 5174,3097 5009,3097 4953,2947 4907,3095 4741,3095 4874,3201 4827,3363 "/>
   <path class="fil3" d="M4970 4038l43 538 91 -171 -6 193 132 -140 -57 184 385 -349 -323 411 185 -56 -140 132 192 -6 -170 91 459 44 -349 33c-139,-31 -286,-49 -437,-49 -153,0 -301,18 -441,50l-358 -34 461 -44 -171 -91 193 6 -140 -132 184 56 -322 -411 384 349 -56 -184 131 140 -6 -193 91 171 45 -538z"/>
   <path class="fil4" d="M4145 5713l825 -822 810 812c-58,121 -128,227 -209,317l-601 -612 -613 621c-81,-89 -153,-196 -212,-316z"/>
   <path class="fil5" d="M3262 5625c-7,86 17,172 75,258 40,8 78,12 117,14 -88,-79 -151,-170 -192,-272zm715 121c16,38 15,76 1,115 19,-1 38,-2 59,-3 3,-49 -20,-85 -60,-112zm-89 -188c10,92 -22,200 -76,319 40,-6 81,-10 124,-13 34,-120 12,-220 -48,-306zm-142 326c68,-151 149,-316 85,-585 -56,263 -116,322 -189,469 -58,-146 -372,-256 -393,-586 -60,453 149,573 310,717 61,-2 122,-8 187,-15zm-41 -1630c114,-115 296,-206 362,-608 -160,144 -370,202 -362,608zm-7 -327c-323,238 -117,570 -100,676 104,-117 291,-177 363,-473 9,-39 16,-75 21,-110 -19,48 -39,101 -64,135 -94,93 -189,150 -240,180 -19,-164 -40,-324 20,-408zm-121 996c86,-191 299,-236 322,-580 -83,228 -204,198 -304,351 -17,-130 -178,-206 -104,-504 -226,348 -74,475 86,733zm26 403c69,-198 269,-391 264,-736 -64,233 -210,279 -287,449 -27,-107 -229,-209 -241,-463 -118,294 83,505 264,750zm21 359c48,-211 279,-320 192,-692 -57,264 -145,262 -219,410 -58,-146 -303,-209 -324,-538 -79,593 219,567 351,820zm-292 380c25,54 54,100 85,141 26,-14 49,-28 68,-45 -29,-22 -61,-46 -94,-74 -20,-7 -40,-15 -59,-22zm211 273c79,68 167,122 256,181 107,-18 190,-40 289,-50 14,-79 22,-144 25,-203 -46,9 -94,18 -140,26l-24 121c-61,-38 -116,-65 -171,-91 -79,11 -158,17 -235,16zm-69 75l87 132c33,-2 64,-5 94,-8l-181 -124zm750 -165c9,65 0,136 -26,213 17,0 33,-1 51,0 26,0 49,0 73,1 12,-93 0,-168 -29,-219 -20,0 -40,2 -60,4 -3,0 -6,1 -9,1zm177 99c3,47 4,86 3,118 31,2 62,4 91,6 -1,-7 -3,-14 -5,-22 -1,0 -1,0 -1,0l-16 -32c0,-1 0,-2 1,-2 -17,-29 -42,-49 -73,-68z"/>
   <path class="fil5" d="M6304 6513c61,-51 123,-102 168,-158 -12,60 -46,112 -86,171 -27,-4 -55,-9 -82,-13zm-860 -41c2,-5 3,-11 5,-16 4,2 7,4 10,6l12 -50c17,-29 40,-57 74,-85 -14,48 -17,94 -13,137 -30,3 -59,5 -88,8zm144 -11c-2,-58 13,-128 51,-210 2,0 3,0 5,0 26,-2 52,-3 76,-3 -17,68 -13,136 2,207 -21,0 -43,1 -66,2 -23,1 -45,2 -68,4zm221 -212c6,86 16,154 26,207 119,5 238,20 357,39 75,-48 153,-103 232,-170 -4,-1 -8,-1 -12,-2 -71,-2 -146,-10 -221,-24 -28,-6 -55,-11 -83,-16 -41,26 -84,59 -128,99 -11,-40 -20,-80 -25,-121 -50,-6 -98,-10 -146,-12zm755 -182c-15,30 -47,61 -96,94 19,15 42,31 70,44 25,-37 49,-88 71,-156 -15,7 -29,13 -45,18zm91 -450c5,76 -11,150 -54,224 -31,4 -63,6 -96,8 67,-70 116,-147 150,-232zm-495 236c-65,-145 -136,-305 -75,-563 56,264 116,323 190,471 58,-146 372,-258 393,-587 54,412 -114,549 -266,679 -78,2 -158,1 -242,0zm-131 -302c-10,87 18,189 68,302 -39,-1 -78,-1 -118,-1 -31,-118 -9,-216 50,-301zm-89 188c-17,36 -16,73 -1,112 -10,0 -19,1 -27,1 -11,0 -22,-1 -32,-1 -4,-49 19,-85 60,-112zm272 -1492c-114,-115 -296,-206 -362,-608 160,144 371,201 362,608zm7 -327c323,237 117,570 99,675 -102,-116 -291,-176 -363,-472 -8,-40 -14,-76 -21,-110 19,48 40,100 65,134 94,94 190,150 240,181 19,-164 40,-324 -20,-408zm121 996c-86,-191 -299,-237 -323,-580 84,227 205,197 305,350 17,-130 177,-205 104,-503 225,348 73,474 -86,733zm-26 402c-69,-197 -270,-391 -265,-735 64,233 210,279 288,449 28,-107 228,-209 241,-464 117,295 -83,506 -264,750zm-22 360c-47,-211 -278,-321 -190,-692 56,264 144,262 217,410 58,-146 304,-209 325,-538 78,593 -219,567 -352,820z"/>
   <path class="fil4" d="M4961 3488c548,0 995,636 995,1416 0,83 -5,166 -15,247 -162,-96 -345,-169 -543,-212 5,1 10,2 14,3l349 -33 -459 -44 170 -91 -192 6 140 -132 -185 56 323 -411 -385 349 57 -184 -132 140 6 -193 -91 171 -43 -538 -45 538 -91 -171 6 193 -131 -140 56 184 -384 -349 322 411 -184 -56 140 132 -193 -6 171 91 -461 44 356 34c-201,46 -387,122 -550,223 -11,-85 -16,-173 -16,-262 0,-780 446,-1416 995,-1416zm47 1405c-6,0 -11,0 -16,0 5,0 10,0 16,0zm-17 0c-5,0 -11,0 -16,0 -17,0 -34,0 -50,1 16,-1 33,-1 50,-1 5,0 11,0 16,0z"/>
   <path class="fil4" d="M3320 6315c-110,36 -188,70 -218,101 -79,76 -72,187 20,334 42,147 104,234 196,234 256,85 628,-38 941,-58 262,-16 481,74 719,56 233,-7 440,-61 699,-59 364,4 632,133 995,37 122,-67 82,-135 158,-243 137,-229 26,-346 -230,-404 55,-9 108,-23 160,-41 -183,-35 -294,-88 -334,-162 227,-59 432,-164 580,-399 -249,172 -625,142 -1045,141 -108,-6 -204,35 -287,125 -98,166 -179,173 -245,258 -70,82 -59,164 30,227l12 -51c-103,-152 118,-158 173,-160 173,-11 357,10 547,48 75,14 149,22 221,24 461,51 503,277 151,229 -296,-37 -606,-115 -907,-95 -278,10 -468,58 -718,64 -230,-21 -412,-59 -689,-60 -323,-5 -423,108 -989,84 -129,-11 -187,-141 48,-179l190 -29c238,10 482,-50 735,-90 146,-16 345,-5 240,170l16 32c138,-152 19,-229 -171,-377 -76,-108 -144,-200 -255,-215 -434,12 -626,143 -1113,-122 93,198 294,321 569,390 -53,70 -164,121 -313,158 39,13 76,25 114,32zm-88 561l22 -211 156 16 -4 36 -114 -12 -4 47 105 11 -3 35 -106 -11 -6 57 117 13 -3 35 -160 -16zm183 -54l41 -7c3,14 9,24 17,30 8,6 18,9 31,9 14,-1 24,-5 31,-11 6,-6 10,-13 9,-21 0,-5 -2,-9 -5,-12 -3,-4 -8,-6 -16,-9 -5,-1 -16,-4 -34,-7 -24,-5 -40,-11 -50,-18 -13,-11 -21,-25 -21,-42 -1,-11 2,-21 7,-31 6,-9 14,-17 25,-22 12,-6 25,-9 42,-10 26,-1 46,3 60,14 14,11 22,26 24,46l-43 4c-2,-11 -6,-18 -13,-23 -6,-4 -15,-6 -27,-6 -12,1 -22,4 -29,10 -4,3 -6,8 -6,13 0,5 3,9 7,12 6,5 19,9 40,13 21,3 37,8 47,12 10,5 18,12 25,21 6,8 9,20 10,33 0,12 -2,24 -9,34 -6,11 -15,20 -27,25 -12,6 -27,10 -45,11 -27,1 -48,-4 -63,-16 -15,-11 -25,-29 -28,-52zm258 49l-21 -175 -62 8 -5 -36 167 -20 5 35 -63 8 22 175 -43 5zm298 -45l-46 6 -25 -45 -84 12 -11 50 -45 7 53 -222 44 -6 114 198zm-90 -72l-40 -74 -17 82 57 -8zm89 -144l78 -8c17,-2 31,-2 40,0 13,2 24,8 34,16 10,8 18,19 24,32 6,13 10,29 12,49 2,17 1,32 -2,45 -3,16 -10,29 -18,40 -7,8 -16,15 -29,20 -9,4 -21,7 -37,8l-80 9 -22 -211zm46 31l15 140 32 -4c12,-1 20,-2 25,-4 7,-3 12,-6 17,-11 4,-4 7,-12 9,-21 1,-10 2,-23 0,-39 -2,-17 -5,-29 -8,-37 -4,-9 -9,-15 -15,-19 -5,-5 -12,-7 -20,-8 -6,-1 -18,0 -35,1l-20 2zm183 54c1,-22 4,-40 11,-54 5,-11 12,-20 20,-29 9,-8 18,-14 28,-18 13,-6 28,-8 46,-8 31,1 56,11 74,30 18,20 27,47 27,82 -1,34 -11,60 -30,79 -19,19 -44,28 -75,28 -31,-1 -56,-11 -74,-30 -18,-20 -27,-46 -27,-80zm44 -1c0,24 5,43 16,55 11,13 25,19 42,19 17,1 31,-5 42,-17 11,-12 17,-31 17,-55 1,-24 -4,-43 -14,-55 -11,-12 -25,-18 -43,-18 -17,-1 -32,5 -43,17 -10,12 -16,30 -17,54zm305 -84l77 11c17,3 30,6 39,10 12,5 22,13 29,24 8,10 13,22 15,36 3,14 3,31 0,51 -2,17 -6,32 -12,44 -8,14 -17,25 -28,34 -8,6 -19,10 -32,12 -10,2 -23,1 -38,-1l-80 -11 30 -210zm37 42l-20 139 32 4c12,2 20,2 26,2 7,-1 13,-3 18,-7 5,-3 10,-9 14,-18 4,-9 7,-22 10,-38 2,-16 2,-29 1,-38 -2,-9 -5,-16 -9,-22 -5,-6 -11,-10 -19,-13 -5,-2 -17,-4 -34,-6l-19 -3zm141 97c1,-22 5,-40 12,-54 6,-10 13,-20 22,-28 8,-8 18,-14 28,-17 13,-5 29,-7 46,-6 31,1 55,12 73,32 18,21 26,48 24,83 -2,34 -13,60 -32,78 -20,19 -45,27 -76,25 -31,-1 -56,-12 -74,-32 -17,-21 -25,-48 -23,-81zm44 1c-1,24 3,42 14,55 10,13 24,20 41,21 17,1 31,-5 43,-16 11,-12 18,-30 19,-55 1,-24 -3,-42 -13,-55 -10,-12 -24,-19 -42,-20 -17,-1 -32,4 -43,16 -12,11 -18,29 -19,54zm319 100l-16 -176 -62 6 -3 -36 167 -15 3 36 -62 6 15 175 -42 4zm108 -118c-2,-21 -1,-39 4,-55 4,-11 9,-21 16,-31 8,-9 16,-16 26,-21 12,-7 27,-12 44,-13 31,-4 57,3 78,21 20,17 32,43 36,77 4,34 -3,62 -19,83 -17,21 -41,33 -71,36 -32,4 -58,-3 -78,-21 -21,-17 -33,-42 -36,-76zm44 -6c2,24 9,42 22,53 12,11 27,16 44,14 17,-2 30,-9 39,-23 10,-13 13,-32 11,-56 -3,-25 -10,-42 -22,-53 -11,-10 -26,-15 -44,-13 -17,2 -31,9 -40,22 -10,14 -13,32 -10,56zm334 -4l42 11c-5,24 -15,41 -29,53 -14,12 -33,19 -55,20 -28,1 -52,-7 -71,-25 -19,-18 -30,-44 -31,-77 -2,-36 5,-63 23,-84 17,-20 40,-31 70,-33 26,-1 47,5 64,20 10,8 18,21 24,38l-42 12c-3,-11 -9,-19 -17,-25 -8,-6 -18,-9 -29,-8 -16,1 -29,7 -38,19 -9,11 -13,30 -12,55 2,27 8,46 18,57 10,10 23,15 38,15 12,-1 21,-5 29,-13 8,-7 13,-19 16,-35zm273 82l-46 -2 -17 -49 -85 -3 -19 48 -45 -2 89 -208 46 1 77 215zm-76 -87l-26 -79 -31 77 57 2zm99 91l26 -210 41 5 69 151 17 -141 40 5 -26 210 -43 -5 -68 -147 -17 137 -39 -5zm257 33l25 -174 -62 -8 5 -36 166 24 -5 35 -62 -9 -24 174 -43 -6zm133 20l22 -211 42 5 -22 210 -42 -4zm84 10l3 -212 42 1 84 143 3 -142 39 1 -3 212 -43 -1 -83 -140 -3 138 -39 0zm192 -67l41 -10c4,13 11,23 19,28 9,6 19,7 32,6 14,-2 24,-7 30,-13 6,-7 9,-14 7,-22 0,-5 -2,-9 -6,-12 -3,-3 -9,-6 -16,-7 -5,-1 -17,-3 -35,-5 -24,-2 -41,-7 -51,-14 -15,-9 -23,-22 -25,-39 -2,-11 0,-21 5,-31 4,-10 12,-19 23,-25 11,-7 24,-11 40,-13 26,-4 47,-1 62,9 15,9 24,24 27,43l-42 8c-3,-11 -8,-18 -15,-22 -6,-4 -16,-5 -27,-3 -13,2 -22,5 -28,11 -4,4 -6,9 -5,14 0,5 3,9 8,12 6,4 19,7 41,9 21,2 37,5 48,8 10,4 19,10 26,19 7,8 11,19 13,32 1,12 0,24 -6,35 -5,11 -13,20 -25,27 -11,7 -26,12 -44,14 -27,4 -48,1 -64,-9 -16,-11 -27,-27 -33,-50zm-674 -683l-24 -2 6 -92c-9,8 -20,13 -33,16l2 -22c6,-2 13,-5 21,-11 8,-5 14,-11 17,-19l20 1 -9 129zm73 -21l24 2c0,4 1,8 3,11 2,3 5,4 9,5 5,1 10,-1 14,-5 4,-4 8,-13 11,-28 -7,6 -15,9 -24,7 -10,-1 -18,-6 -24,-15 -6,-9 -8,-20 -6,-32 2,-13 7,-23 16,-29 9,-7 19,-9 31,-7 13,2 22,8 29,20 7,11 8,28 5,50 -4,24 -11,40 -21,48 -10,9 -22,13 -36,11 -10,-2 -17,-6 -23,-12 -5,-6 -8,-15 -8,-26zm64 -44c1,-8 0,-14 -3,-19 -3,-5 -7,-8 -11,-8 -5,-1 -9,0 -12,3 -4,3 -6,9 -8,17 -1,8 0,14 2,19 3,4 7,6 12,7 4,1 8,0 12,-3 4,-4 6,-9 8,-16zm91 29c-6,-3 -10,-7 -12,-12 -3,-6 -3,-11 -3,-16 2,-10 6,-17 14,-22 7,-6 17,-7 29,-6 12,2 21,6 27,14 6,7 8,15 6,24 0,6 -3,11 -6,15 -4,5 -9,7 -15,9 7,4 12,9 15,15 3,6 3,12 2,19 -1,12 -6,21 -15,27 -8,7 -19,9 -31,7 -12,-2 -21,-6 -28,-13 -8,-9 -11,-19 -9,-31 1,-7 4,-13 8,-19 4,-5 10,-9 18,-11zm8 -23c-1,4 0,8 3,12 2,3 5,5 10,5 5,1 9,0 12,-2 3,-3 5,-6 5,-11 1,-5 0,-9 -2,-12 -3,-3 -6,-5 -10,-5 -5,-1 -9,0 -12,2 -3,3 -5,6 -6,11zm-10 54c-1,6 0,12 3,16 3,4 7,7 12,7 5,1 10,0 13,-3 4,-3 7,-8 8,-15 0,-6 -1,-11 -3,-15 -3,-4 -7,-7 -12,-7 -6,-1 -11,0 -15,4 -3,4 -5,8 -6,13zm101 22l24 -2c1,5 2,8 5,11 2,2 5,3 9,4 5,0 10,-3 13,-7 4,-5 6,-14 8,-29 -7,7 -15,10 -24,10 -10,0 -19,-4 -26,-12 -7,-8 -10,-18 -10,-30 0,-13 4,-24 12,-32 8,-7 18,-11 30,-11 13,0 23,5 31,16 9,10 12,26 12,49 0,24 -5,41 -14,51 -9,10 -20,15 -34,15 -10,0 -18,-3 -24,-9 -6,-5 -10,-13 -12,-24zm57 -52c0,-8 -2,-14 -5,-19 -4,-4 -8,-7 -13,-7 -4,0 -8,2 -11,5 -3,4 -5,10 -5,18 0,8 1,14 5,18 3,4 7,6 12,6 4,0 8,-1 12,-5 3,-4 5,-9 5,-16zm-2518 92l-25 0 -1 -92c-9,8 -19,14 -32,19l0 -23c6,-2 13,-6 21,-12 7,-6 12,-13 15,-21l20 0 2 129zm23 -100c-1,-10 1,-19 6,-25 5,-6 12,-10 21,-10 9,-1 17,1 23,6 6,6 9,13 10,24 1,10 -1,18 -6,24 -5,7 -12,10 -21,11 -9,1 -17,-1 -23,-7 -6,-5 -9,-13 -10,-23zm18 -1c1,6 2,10 5,13 2,2 5,4 8,3 4,0 6,-2 8,-5 2,-2 3,-7 2,-13 0,-7 -2,-11 -4,-14 -2,-2 -5,-3 -9,-3 -3,0 -6,2 -8,5 -2,2 -2,7 -2,14zm144 -48l25 -3 12 80c1,11 1,19 0,25 -1,7 -5,14 -11,19 -6,6 -14,9 -24,11 -13,1 -23,-1 -31,-7 -8,-6 -12,-16 -14,-29l23 -6c2,7 3,12 6,15 3,4 8,6 13,5 6,-1 10,-3 12,-7 2,-3 2,-10 0,-21l-11 -82zm183 97l-27 5 -16 -27 -51 9 -5 31 -27 4 27 -134 27 -5 72 117zm-55 -42l-26 -43 -9 50 35 -7zm69 39l-18 -127 25 -3 64 77 -12 -84 24 -4 18 127 -26 4 -63 -76 12 83 -24 3z"/>
   <path class="fil5" d="M3893 6975c124,162 360,238 707,227 45,-1 118,-18 202,-25 -137,82 -234,180 -290,275l142 -17 79 -131c64,-78 147,-112 231,-125 85,13 167,47 232,125l79 131 142 17c-56,-95 -153,-193 -290,-275 84,7 157,24 201,25 358,11 597,-69 718,-242 -30,-4 -60,-9 -90,-13 -137,69 -517,5 -725,68 -97,20 -186,47 -266,80 -80,-33 -169,-60 -266,-80 -197,-59 -545,-6 -700,-57 -36,5 -71,12 -106,17z"/>
   <path class="fil4" d="M3505 3447c227,-95 479,-178 777,-239 34,-115 -81,-91 -173,-99 -135,-3 -154,-81 40,-157 651,-256 1150,-218 1738,57 152,76 -2,87 -92,96 -36,7 -195,22 -132,111 245,40 498,122 757,233 -31,-70 -82,-140 -166,-213 82,-21 177,-34 287,-34 -165,-74 -336,-139 -515,-186 -19,-75 140,-107 12,-235 -510,-309 -1453,-421 -2142,-9 -82,157 3,144 14,233 -142,41 -310,101 -488,172 93,9 186,23 279,47 -71,52 -135,128 -196,223zm587 -588l28 -3c2,15 0,28 -6,38 -5,10 -15,18 -28,24 -16,7 -32,8 -47,1 -16,-6 -28,-19 -36,-38 -9,-21 -11,-39 -5,-55 5,-16 16,-27 33,-35 15,-7 30,-8 43,-3 8,3 15,8 22,17l-21 17c-5,-6 -10,-10 -16,-11 -6,-2 -13,-1 -19,2 -9,4 -15,10 -18,19 -3,9 -1,21 6,36 6,15 14,25 23,29 8,4 17,4 26,0 6,-3 11,-7 14,-14 3,-6 3,-14 1,-24zm41 -35c-5,-13 -7,-25 -7,-35 1,-7 2,-14 5,-21 3,-7 7,-13 12,-18 7,-6 15,-11 25,-15 19,-7 36,-7 51,0 16,7 27,21 35,41 8,21 8,39 2,54 -7,16 -19,27 -38,34 -18,7 -35,7 -51,0 -15,-7 -26,-20 -34,-40zm26 -11c5,14 13,23 22,28 9,5 19,6 29,2 10,-4 17,-11 21,-21 3,-10 2,-22 -3,-36 -6,-14 -13,-24 -22,-29 -9,-4 -19,-5 -29,-1 -11,4 -18,11 -21,21 -4,9 -3,21 3,36zm223 0l-15 -54 -69 -61 31 -9 45 42 15 -59 30 -9 -26 89 15 54 -26 7zm123 -33l-77 -120 29 -6 55 89 10 -104 28 -7 -17 142 -28 6zm126 -28l-9 -56 -60 -69 31 -5 40 47 22 -57 31 -5 -37 85 9 55 -27 5zm131 -89c-1,-14 0,-26 3,-35 3,-7 7,-13 11,-19 5,-6 11,-10 17,-13 8,-5 17,-7 28,-8 20,-1 36,4 49,15 13,12 20,28 21,50 2,22 -3,39 -14,52 -11,13 -26,20 -46,21 -20,2 -36,-3 -48,-14 -13,-12 -20,-28 -21,-49zm27 -3c1,15 6,26 13,33 8,8 17,11 28,10 10,0 19,-5 25,-13 7,-8 9,-20 8,-36 -1,-15 -5,-26 -12,-33 -8,-7 -17,-11 -28,-10 -11,1 -20,5 -26,14 -6,8 -9,19 -8,35zm132 58l0 -134 57 0c14,0 25,1 31,4 7,2 12,6 16,12 4,7 6,14 6,22 0,10 -3,18 -9,25 -6,6 -15,10 -27,12 6,3 11,7 15,11 3,4 9,11 15,22l16 26 -32 0 -19 -29c-7,-11 -12,-17 -15,-20 -2,-3 -5,-4 -8,-5 -3,-1 -7,-2 -14,-2l-5 0 0 56 -27 0zm27 -77l20 0c13,0 21,-1 24,-2 4,-1 6,-3 8,-6 2,-2 3,-6 3,-10 0,-4 -2,-8 -4,-11 -2,-2 -6,-4 -10,-5 -2,0 -9,0 -20,0l-21 0 0 34zm112 76l4 -134 100 3 -1 23 -72 -3 -1 30 67 2 -1 23 -67 -2 -1 36 74 3 0 22 -102 -3zm177 12l16 -133 56 7c15,2 25,4 31,7 6,4 11,8 14,15 3,7 4,14 3,22 -1,10 -5,18 -12,23 -6,6 -16,9 -28,9 6,4 10,9 13,13 4,5 8,13 13,24l13 28 -32 -4 -16 -32c-6,-11 -9,-18 -12,-21 -2,-3 -4,-5 -7,-6 -3,-2 -7,-3 -13,-4l-6 0 -7 55 -26 -3zm36 -73l20 2c13,2 21,2 24,1 3,0 6,-2 8,-4 2,-3 4,-6 4,-10 1,-4 0,-8 -2,-11 -2,-3 -5,-5 -10,-7 -2,0 -8,-1 -19,-3l-21 -2 -4 34zm100 93l26 -132 97 19 -4 22 -71 -13 -6 29 66 13 -4 22 -66 -13 -7 36 74 14 -5 22 -100 -19zm156 32l27 -108 -39 -10 6 -22 103 26 -5 22 -39 -9 -27 108 -26 -7zm187 51l-28 -8 -3 -33 -52 -15 -19 27 -27 -8 87 -115 27 8 15 144zm-33 -65l-4 -53 -31 43 35 10zm49 70l48 -125 38 14 -10 94 55 -76 38 14 -48 125 -23 -9 38 -98 -63 89 -24 -10 13 -108 -38 99 -24 -9zm259 106l-27 -12 2 -33 -49 -21 -22 23 -27 -12 102 -101 27 12 -6 144zm-24 -69l4 -53 -37 38 33 15z"/>
   <path class="fil6" d="M3232 6876l22 -211 156 16 -4 36 -114 -12 -4 47 105 11 -3 35 -106 -11 -6 57 117 13 -3 35 -160 -16zm183 -54l41 -7c3,14 9,24 17,30 8,7 18,9 31,9 14,-1 24,-5 31,-11 6,-6 10,-13 9,-21 0,-5 -2,-9 -5,-12 -3,-4 -8,-6 -16,-9 -5,-1 -16,-4 -34,-7 -24,-5 -40,-11 -50,-18 -13,-11 -21,-25 -21,-42 -1,-11 2,-21 7,-31 6,-9 14,-17 25,-22 12,-6 25,-9 42,-10 26,-1 46,3 60,14 14,11 22,26 24,46l-43 4c-2,-11 -6,-18 -13,-23 -6,-4 -15,-6 -27,-6 -12,1 -22,4 -29,10 -4,3 -6,8 -6,13 0,5 3,9 7,12 6,5 19,9 40,13 21,3 37,8 47,12 10,5 18,12 25,21 6,8 9,20 10,33 0,12 -2,24 -9,34 -6,11 -15,20 -27,25 -12,6 -27,10 -45,11 -27,1 -48,-4 -63,-16 -15,-11 -25,-29 -28,-52zm258 49l-21 -175 -62 8 -5 -36 167 -20 5 35 -63 8 22 175 -43 5zm298 -45l-46 6 -25 -45 -84 12 -11 50 -45 7 53 -222 44 -6 114 198zm-90 -72l-40 -74 -17 82 57 -8zm89 -144l78 -8c17,-2 31,-2 40,0 13,2 24,8 34,16 10,8 18,19 24,32 6,13 10,29 12,49 2,17 1,32 -2,45 -3,16 -10,29 -18,40 -7,8 -16,15 -29,20 -9,4 -21,7 -37,8l-80 9 -22 -211zm46 31l15 140 32 -4c12,-1 20,-2 25,-4 7,-3 12,-6 17,-11 4,-4 7,-12 9,-21 1,-10 2,-23 0,-39 -2,-17 -5,-29 -8,-37 -4,-9 -9,-15 -15,-19 -5,-5 -12,-7 -20,-8 -6,-1 -18,0 -35,1l-20 2zm183 54c1,-22 4,-40 11,-54 5,-11 12,-20 20,-29 9,-8 18,-14 28,-18 13,-6 28,-8 46,-8 31,1 56,11 74,30 18,20 27,47 27,82 -1,34 -11,60 -30,79 -19,19 -44,28 -75,28 -31,-1 -56,-11 -74,-30 -18,-20 -27,-46 -27,-80zm44 -1c0,24 5,43 16,55 11,13 25,19 42,19 17,1 31,-5 42,-17 11,-12 17,-31 17,-55 1,-24 -4,-43 -14,-55 -11,-12 -25,-18 -43,-18 -17,-1 -32,5 -43,17 -10,12 -16,30 -17,54zm305 -84l77 11c17,3 30,6 39,10 12,5 22,13 29,24 8,10 13,22 15,36 3,14 3,31 0,51 -2,17 -6,32 -12,44 -8,14 -17,25 -28,34 -8,6 -19,10 -32,12 -10,2 -23,1 -38,-1l-80 -11 30 -210zm37 42l-20 139 32 4c12,2 20,2 26,2 7,-1 13,-3 18,-7 5,-3 10,-9 14,-18 4,-9 7,-22 10,-38 2,-16 2,-29 1,-38 -2,-9 -5,-16 -9,-22 -5,-6 -11,-10 -19,-13 -5,-2 -17,-4 -34,-6l-19 -3zm141 97c1,-22 5,-40 12,-54 6,-10 13,-20 22,-28 8,-8 18,-14 28,-17 13,-5 29,-7 46,-6 31,1 55,12 73,32 18,21 26,48 24,83 -2,34 -13,60 -32,78 -20,19 -45,27 -76,25 -31,-1 -56,-12 -74,-32 -17,-21 -25,-48 -23,-81zm44 1c-1,24 3,42 14,55 10,13 24,20 41,21 17,1 31,-5 43,-16 11,-12 18,-30 19,-55 1,-24 -3,-42 -13,-55 -10,-12 -24,-19 -42,-20 -17,-1 -32,4 -43,16 -12,11 -18,29 -19,54zm319 100l-16 -176 -62 6 -3 -36 167 -15 3 36 -62 6 15 175 -42 4zm108 -118c-2,-21 -1,-39 4,-55 3,-11 9,-21 16,-31 8,-9 16,-16 26,-21 12,-7 27,-12 44,-13 31,-4 57,3 78,21 20,17 32,43 36,77 4,34 -3,62 -19,83 -17,21 -41,33 -71,36 -32,4 -58,-3 -78,-21 -21,-17 -33,-42 -36,-76zm44 -6c2,24 9,42 22,53 12,11 27,16 44,14 17,-2 30,-9 39,-23 10,-13 13,-32 11,-56 -3,-25 -10,-42 -22,-53 -11,-10 -26,-15 -44,-13 -17,2 -31,9 -40,22 -10,14 -13,32 -10,56zm334 -4l42 11c-5,24 -15,41 -29,53 -14,12 -33,19 -55,20 -28,1 -52,-7 -71,-25 -19,-18 -30,-44 -31,-77 -2,-36 5,-63 23,-84 17,-20 40,-31 70,-33 26,-1 47,5 64,20 10,8 18,21 24,38l-42 12c-3,-11 -9,-19 -17,-25 -8,-6 -18,-9 -29,-8 -16,1 -29,7 -38,19 -9,11 -13,30 -12,55 2,27 8,46 18,57 10,10 23,15 38,15 12,-1 21,-5 29,-13 8,-7 13,-19 16,-35zm273 82l-46 -2 -17 -49 -85 -3 -19 48 -45 -2 89 -208 46 1 77 215zm-76 -87l-26 -79 -31 77 57 2zm99 91l26 -210 41 5 69 151 17 -141 40 5 -26 210 -43 -5 -68 -147 -17 137 -39 -5zm257 33l25 -174 -62 -8 5 -36 166 24 -5 35 -62 -9 -24 174 -43 -6zm133 20l22 -211 42 5 -22 210 -42 -4zm84 10l3 -212 42 1 84 143 3 -142 39 1 -3 212 -43 -1 -83 -140 -3 138 -39 0zm192 -67l41 -10c4,13 11,23 19,28 9,6 19,7 32,6 14,-2 24,-7 30,-13 6,-7 9,-14 7,-22 0,-5 -2,-9 -6,-12 -3,-3 -9,-6 -16,-7 -5,-1 -17,-3 -35,-5 -24,-2 -41,-7 -51,-14 -15,-9 -23,-22 -25,-39 -2,-11 0,-21 5,-31 4,-10 12,-19 23,-25 10,-7 24,-11 40,-13 26,-4 47,-1 62,9 15,9 24,24 27,43l-42 8c-3,-11 -8,-18 -15,-22 -6,-4 -16,-5 -27,-3 -13,2 -22,5 -28,11 -4,4 -6,9 -5,14 0,5 3,9 8,12 6,4 19,7 41,9 21,2 37,5 48,8 10,4 19,10 26,19 7,8 11,19 13,32 1,12 0,24 -6,35 -5,11 -13,20 -25,27 -11,7 -26,12 -44,14 -27,4 -48,1 -64,-9 -16,-11 -27,-27 -33,-50zm-674 -683l-24 -2 6 -92c-9,8 -20,13 -33,16l2 -22c6,-2 13,-5 21,-11 8,-5 14,-11 17,-19l20 1 -9 129zm73 -21l24 2c0,4 1,8 3,11 2,3 5,4 9,5 5,1 10,-1 14,-5 4,-4 8,-13 11,-28 -7,6 -15,9 -24,7 -10,-1 -18,-6 -24,-15 -6,-9 -8,-20 -6,-32 2,-13 7,-23 16,-29 9,-7 19,-9 31,-7 13,2 22,8 29,20 7,11 8,28 5,50 -4,24 -11,40 -21,48 -10,9 -22,13 -36,11 -10,-2 -17,-6 -23,-12 -5,-6 -8,-15 -8,-26zm64 -44c1,-8 0,-14 -3,-19 -3,-5 -7,-8 -11,-8 -5,-1 -9,0 -12,3 -4,3 -6,9 -8,17 -1,8 0,14 2,19 3,4 7,6 12,7 4,1 8,0 12,-3 4,-4 6,-9 8,-16zm91 29c-6,-3 -10,-7 -12,-12 -3,-6 -3,-11 -3,-16 2,-10 6,-17 14,-22 7,-6 17,-7 29,-6 12,2 21,6 27,14 6,7 8,15 6,24 0,6 -3,11 -6,15 -4,5 -9,7 -15,9 7,4 12,9 15,15 3,6 3,12 2,19 -1,12 -6,21 -15,27 -8,7 -19,9 -31,7 -12,-2 -21,-6 -28,-13 -8,-9 -11,-19 -9,-31 1,-7 4,-13 8,-19 4,-5 10,-9 18,-11zm8 -23c-1,4 0,8 3,12 2,3 5,5 10,5 5,1 9,0 12,-2 3,-3 5,-6 5,-11 1,-5 0,-9 -2,-12 -3,-3 -6,-5 -10,-5 -5,-1 -9,0 -12,2 -3,3 -5,6 -6,11zm-10 54c-1,6 0,12 3,16 3,4 7,7 12,7 5,1 10,0 13,-3 4,-3 7,-8 8,-15 0,-6 -1,-11 -3,-15 -3,-4 -7,-7 -12,-7 -6,-1 -11,0 -15,4 -3,4 -5,8 -6,13zm101 22l24 -2c1,5 2,8 5,11 2,2 5,3 9,4 5,0 10,-3 13,-7 4,-5 6,-14 8,-29 -7,7 -15,10 -24,10 -10,0 -19,-4 -26,-12 -7,-8 -10,-18 -10,-30 0,-13 4,-24 12,-32 8,-7 18,-11 30,-11 13,0 23,5 31,16 9,10 12,26 12,49 0,24 -5,41 -14,51 -9,10 -20,15 -34,15 -10,0 -18,-3 -24,-9 -6,-5 -10,-13 -12,-24zm57 -52c0,-8 -2,-15 -5,-19 -4,-4 -8,-7 -13,-7 -4,0 -8,2 -11,5 -3,4 -5,10 -5,18 0,8 1,14 5,18 3,4 7,6 12,6 4,0 8,-1 12,-5 3,-4 5,-9 5,-16zm-2518 92l-25 0 -1 -92c-9,8 -19,14 -32,19l0 -23c6,-2 13,-6 21,-12 7,-6 12,-13 15,-21l20 0 2 129zm23 -100c-1,-10 1,-19 6,-25 5,-6 12,-10 21,-10 9,-1 17,1 23,6 6,6 9,13 10,24 1,10 -1,18 -6,24 -5,7 -12,10 -21,11 -9,1 -17,-1 -23,-7 -6,-5 -9,-13 -10,-23zm18 -1c1,6 2,10 5,13 2,2 5,4 8,3 4,0 6,-2 8,-5 2,-2 3,-7 2,-13 0,-7 -2,-11 -4,-14 -2,-2 -5,-3 -9,-3 -3,0 -6,2 -8,5 -2,2 -2,7 -2,14zm144 -48l25 -3 12 80c1,11 1,19 0,25 -1,7 -5,14 -11,19 -6,6 -14,9 -24,11 -13,1 -23,-1 -31,-7 -8,-6 -12,-16 -14,-29l23 -6c2,7 3,12 6,15 3,4 8,6 13,5 6,-1 10,-3 12,-7 2,-3 2,-10 0,-21l-11 -82zm183 97l-27 5 -16 -27 -51 9 -5 31 -27 4 27 -134 27 -5 72 117zm-55 -42l-26 -43 -9 50 35 -7zm69 39l-18 -127 25 -3 64 77 -12 -84 24 -4 18 127 -26 4 -63 -76 12 83 -24 3z"/>
   <path class="fil6" d="M4092 2859l28 -3c2,15 0,28 -6,38 -5,10 -15,18 -28,24 -16,7 -32,8 -47,1 -16,-6 -28,-19 -36,-38 -9,-21 -11,-39 -5,-55 5,-16 16,-27 33,-35 15,-7 30,-8 43,-3 8,3 15,8 22,17l-21 17c-5,-6 -10,-10 -16,-11 -6,-2 -13,-1 -19,2 -9,4 -15,10 -18,19 -3,9 -1,21 6,36 6,15 14,25 23,29 8,4 17,4 26,0 6,-3 11,-7 14,-14 3,-6 3,-14 1,-24zm41 -35c-5,-13 -7,-25 -7,-35 1,-7 2,-14 5,-21 3,-7 7,-13 12,-18 7,-6 15,-11 25,-15 19,-7 36,-7 51,0 16,7 27,21 35,41 8,21 8,39 2,54 -7,16 -19,27 -38,34 -18,7 -35,7 -51,0 -15,-7 -26,-20 -34,-40zm26 -11c5,14 13,23 22,28 9,5 19,6 29,2 10,-4 17,-11 21,-21 3,-9 2,-22 -3,-36 -6,-14 -13,-24 -22,-29 -9,-4 -19,-5 -29,-1 -11,4 -18,11 -21,21 -4,9 -3,21 3,36zm223 0l-15 -54 -69 -61 31 -9 45 42 15 -59 30 -9 -26 89 15 54 -26 7zm123 -33l-77 -120 29 -6 55 89 10 -104 28 -7 -17 142 -28 6zm126 -28l-9 -56 -60 -69 31 -5 40 47 22 -57 31 -5 -37 85 9 55 -27 5zm131 -89c-1,-14 0,-26 3,-35 3,-7 7,-13 11,-19 5,-6 11,-10 17,-13 8,-5 17,-7 28,-8 20,-1 36,4 49,15 13,12 20,28 21,50 2,22 -3,39 -14,52 -11,13 -26,20 -46,21 -20,2 -36,-3 -48,-14 -13,-12 -20,-28 -21,-49zm27 -3c1,15 6,26 13,33 8,8 17,11 28,10 10,0 19,-5 25,-13 7,-8 9,-20 8,-36 -1,-15 -5,-26 -12,-33 -8,-7 -17,-11 -28,-10 -11,1 -20,5 -26,14 -6,8 -9,19 -8,35zm132 58l0 -134 57 0c14,0 25,1 31,4 7,2 12,6 16,12 4,7 6,14 6,22 0,10 -3,18 -9,25 -6,6 -15,10 -27,12 6,3 11,7 15,11 3,4 9,11 15,22l16 26 -32 0 -19 -29c-7,-11 -12,-17 -15,-20 -2,-3 -5,-4 -8,-5 -3,-1 -7,-2 -14,-2l-5 0 0 56 -27 0zm27 -77l20 0c13,0 21,-1 24,-2 4,-1 6,-3 8,-6 2,-2 3,-6 3,-10 0,-4 -2,-8 -4,-11 -2,-2 -6,-4 -10,-5 -2,0 -9,0 -20,0l-21 0 0 34zm112 76l4 -134 100 3 -1 23 -72 -3 -1 30 67 2 -1 23 -67 -2 -1 36 74 3 0 22 -102 -3zm177 12l16 -133 56 7c15,2 25,4 31,7 6,4 11,8 14,15 3,7 4,14 3,22 -1,10 -5,18 -12,23 -6,6 -16,9 -28,9 6,4 10,9 13,13 4,5 8,13 13,24l13 28 -32 -4 -16 -32c-6,-11 -9,-18 -12,-21 -2,-3 -4,-5 -7,-6 -3,-2 -7,-3 -13,-4l-6 0 -7 55 -26 -3zm36 -73l20 2c13,2 21,2 24,1 3,0 6,-2 8,-4 2,-3 4,-6 4,-10 1,-4 0,-8 -2,-11 -2,-3 -5,-5 -10,-7 -2,0 -8,-1 -19,-3l-21 -2 -4 34zm100 93l26 -132 97 19 -4 22 -71 -13 -6 29 66 13 -4 22 -66 -13 -7 36 74 14 -5 22 -100 -19zm156 32l27 -108 -39 -10 6 -22 103 26 -5 22 -39 -9 -27 108 -26 -7zm187 51l-28 -8 -3 -33 -52 -15 -19 27 -27 -8 87 -115 27 8 15 144zm-33 -65l-4 -53 -31 43 35 10zm49 70l48 -125 38 14 -10 94 55 -76 38 14 -48 125 -23 -9 38 -98 -63 89 -24 -10 13 -108 -38 99 -24 -9zm259 106l-27 -12 2 -33 -49 -21 -22 23 -27 -12 102 -101 27 12 -6 144zm-24 -69l4 -53 -37 38 33 15z"/>
  </g>
 </g>
</svg>