<svg xmlns="http://www.w3.org/2000/svg" width="120.65mm" height="603.25mm" style="fill-rule:evenodd" viewBox="0 0 9956 49779">
 <defs>
  <style type="text/css">
   <![CDATA[
    .fil0 {fill:none}
    .fil3 {fill:black}
    .fil2 {fill:#CCCBCB}
    .fil1 {fill:white}
   ]]>
  </style>
 </defs>
 <g id="geo">
  <polygon class="fil0" points="0,0 9956,0 9956,49779 0,49779 "/>
  <path class="fil1" d="M4978 8021l1207 -1547 -2414 0 1207 1547zm-3713 -6086c1576,0 2955,842 3713,2100 758,-1258 2137,-2100 3713,-2100l0 1238c-1709,0 -3094,1385 -3094,3094l-1238 0c0,-1709 -1385,-3094 -3094,-3094l0 -1238z"/>
  <path class="fil2" d="M4978 27932l1207 -1547 -2414 0 1207 1547zm-3713 -6085c1576,0 2955,841 3713,2099 758,-1258 2137,-2099 3713,-2099l0 1237c-1709,0 -3094,1386 -3094,3095l-1238 0c0,-1709 -1385,-3095 -3094,-3095l0 -1237z"/>
  <path class="fil3" d="M4978 47844l1207 -1548 -2414 0 1207 1548zm-3713 -6086c1576,0 2955,842 3713,2100 758,-1258 2137,-2100 3713,-2100l0 1238c-1709,0 -3094,1385 -3094,3094l-1238 0c0,-1709 -1385,-3094 -3094,-3094l0 -1238z"/>
 </g>
</svg>