<svg xmlns="http://www.w3.org/2000/svg" width="120.65mm" height="603.25mm" style="fill-rule:evenodd" viewBox="0 0 579 2895">
  <!--by TreedBox.com.br-->
 <defs>
  <style type="text/css">
   <![CDATA[
    .fil0 {fill:none}
    .fil7 {fill:#FFF}
    .fil6 {fill:#30719e}
    .fil3 {fill:#ffcc29}
    .fil2 {fill:#ed3237}
    .fil4 {fill:#00a859}
    .fil5 {fill:#008cc8}
    .fil1 {fill:#2f4d8b}
   ]]>
  </style>
 </defs>
 <g id="geo">
  <rect class="fil0" width="579" height="2895"/>
  <g id="_626458768">
   <path class="fil1" d="M149 149l0 189c0,78 63,141 140,141l0 0c78,0 141,-63 141,-141l0 -193 -87 0 0 194c0,29 -24,53 -54,53l0 0c-29,0 -53,-24 -53,-53l0 -239 -87 49z"/>
   <polygon class="fil2" points="149,149 236,100 236,198 "/>
   <polygon class="fil3" points="236,198 149,149 149,247 "/>
   <polygon class="fil4" points="236,297 149,247 149,346 "/>
   <polygon class="fil5" points="149,247 236,198 236,297 "/>
  </g>
  <path class="fil6" d="M149 1503c4,74 66,134 140,134l0 0c78,0 141,-64 141,-141l0 -193 -87 0 0 194c0,29 -24,53 -54,53l0 0c-29,0 -53,-24 -53,-53l0 -43 -87 -49 87 -49 0 -98 -87 49 87 49 0 98 -87 49z"/>
  <path class="fil7" d="M149 2661c4,74 66,133 140,133l0 0c78,0 141,-63 141,-140l0 -193 -87 0 0 194c0,29 -24,53 -54,53l0 0c-29,0 -53,-24 -53,-53l0 -43 -87 -49 87 -49 0 -98 -87 49 87 49 0 98 -87 49z"/>
 </g>
</svg>