<svg xmlns="http://www.w3.org/2000/svg" width="120.65mm" height="603.25mm" style="fill-rule:evenodd" viewBox="0 0 9956 49779">
<!--by TreedBox.com.br-->
 <defs>
  <style type="text/css">
   <![CDATA[
    .fil0 {fill:none}
    .fil3 {fill:#30719E}
    .fil1 {fill:#fff}
    .fil2 {fill:#ccc}
   ]]>
  </style>
 </defs>
 <g id="geo">
<rect class="fil0" width="9956" height="49779"/>
  <path class="fil1" d="M8236 2764l0 0c342,342 342,902 0,1245l-3184 3183c-5,6 -10,11 -16,16 -5,5 -11,10 -16,15 -6,5 -11,10 -17,15 -6,5 -11,10 -17,14l0 0c-6,5 -12,10 -18,14 -5,5 -11,9 -17,14 -6,4 -12,8 -18,12 -6,4 -12,9 -18,13l0 0c-6,4 -13,8 -19,11 -6,4 -12,8 -18,12l0 0c-7,3 -13,7 -19,10l0 0c-7,4 -13,7 -19,11 -7,3 -13,6 -20,10l0 0c-6,3 -12,6 -19,9l0 0c-6,3 -13,6 -20,9 -6,2 -13,5 -19,8l0 0c-7,3 -14,5 -20,8 -7,2 -14,5 -20,7l0 0c-7,2 -14,4 -21,7 -7,2 -13,4 -20,6l0 0c-7,2 -14,4 -21,6 -6,2 -13,3 -20,5l0 0c-7,2 -14,3 -21,5l0 0c-7,1 -14,3 -21,4l0 0c-7,1 -14,3 -21,4l0 0c-7,1 -14,2 -21,3l0 0c-7,1 -14,2 -21,3l0 0c-7,1 -14,1 -21,2l0 0c-7,1 -14,1 -21,2l0 0c-7,0 -14,1 -21,1l0 0c-7,0 -14,1 -21,1 -7,0 -14,0 -21,0 -7,0 -14,0 -21,0l0 0c-7,0 -14,-1 -21,-1 -7,0 -15,-1 -22,-1 -7,-1 -14,-1 -21,-2 -7,-1 -14,-1 -21,-2l0 0c-14,-2 -28,-4 -42,-6 -7,-1 -14,-3 -21,-4 -6,-1 -13,-3 -20,-4 -7,-2 -14,-3 -21,-5 -7,-2 -14,-3 -21,-5 -7,-2 -13,-4 -20,-6l0 0c-7,-2 -14,-4 -21,-6 -6,-3 -13,-5 -20,-7l0 0c-7,-2 -13,-5 -20,-7l0 0c-7,-3 -13,-5 -20,-8 -6,-3 -13,-6 -20,-8 -6,-3 -13,-6 -19,-9 -7,-3 -13,-6 -20,-9 -6,-4 -13,-7 -19,-10 -6,-4 -13,-7 -19,-11 -6,-3 -13,-7 -19,-10 -6,-4 -12,-8 -19,-12 -6,-3 -12,-7 -18,-11 -6,-4 -12,-9 -18,-13l0 0c-6,-4 -12,-8 -18,-12 -6,-5 -12,-9 -18,-14 -6,-4 -11,-9 -17,-14 -6,-4 -12,-9 -17,-14 -6,-5 -11,-10 -17,-15 -6,-5 -11,-10 -16,-15 -6,-5 -11,-10 -17,-16l-2087 -2087c-343,-343 -343,-903 0,-1245l0 0c342,-343 903,-343 1245,0l1465 1464 2561 -2560c342,-343 903,-343 1245,0z"/>
  <path class="fil2" d="M8236 22675l0 0c342,342 342,903 0,1245l-3184 3184c-5,5 -10,10 -16,16 -5,5 -11,10 -16,15 -6,5 -11,10 -17,15 -6,4 -11,9 -17,14l0 0c-6,5 -12,9 -18,14 -5,4 -11,9 -17,13 -6,4 -12,9 -18,13 -6,4 -12,8 -18,12l0 0c-6,4 -13,8 -19,12 -6,4 -12,7 -18,11l0 0c-7,4 -13,7 -19,11l0 0c-7,3 -13,7 -19,10 -7,4 -13,7 -20,10l0 0c-6,3 -12,6 -19,9l0 0c-6,3 -13,6 -20,9 -6,3 -13,6 -19,8l0 0c-7,3 -14,6 -20,8 -7,3 -14,5 -20,7l0 0c-7,3 -14,5 -21,7 -7,2 -13,4 -20,6l0 0c-7,2 -14,4 -21,6 -6,2 -13,4 -20,5l0 0c-7,2 -14,4 -21,5l0 0c-7,2 -14,3 -21,4l0 0c-7,2 -14,3 -21,4l0 0c-7,1 -14,2 -21,3l0 1c-7,1 -14,1 -21,2l0 0c-7,1 -14,2 -21,3l0 0c-7,0 -14,1 -21,1l0 0c-7,1 -14,1 -21,2l0 0c-7,0 -14,0 -21,0 -7,0 -14,1 -21,1 -7,0 -14,-1 -21,-1l0 0c-7,0 -14,0 -21,0 -7,-1 -15,-1 -22,-2 -7,0 -14,-1 -21,-1 -7,-1 -14,-2 -21,-3l0 0c-14,-1 -28,-3 -42,-6 -7,-1 -14,-2 -21,-4 -6,-1 -13,-2 -20,-4 -7,-1 -14,-3 -21,-5 -7,-1 -14,-3 -21,-5 -7,-2 -13,-4 -20,-6l0 0c-7,-2 -14,-4 -21,-6 -6,-2 -13,-4 -20,-7l0 0c-7,-2 -13,-4 -20,-7l0 0c-7,-2 -13,-5 -20,-8 -6,-2 -13,-5 -20,-8 -6,-3 -13,-6 -19,-9 -7,-3 -13,-6 -20,-9 -6,-3 -13,-6 -19,-10 -6,-3 -13,-7 -19,-10 -6,-4 -13,-7 -19,-11 -6,-4 -12,-7 -19,-11 -6,-4 -12,-8 -18,-12 -6,-4 -12,-8 -18,-12l0 0c-6,-4 -12,-9 -18,-13 -6,-4 -12,-9 -18,-13 -6,-5 -11,-9 -17,-14 -6,-5 -12,-10 -17,-14 -6,-5 -11,-10 -17,-15 -6,-5 -11,-10 -16,-15 -6,-6 -11,-11 -17,-16l-2087 -2088c-343,-342 -343,-903 0,-1245l0 0c342,-342 903,-342 1245,0l1465 1465 2561 -2561c342,-342 903,-342 1245,0z"/>
  <path class="fil3" d="M8236 42586l0 0c342,343 342,903 0,1246l-3184 3183c-5,6 -10,11 -16,16 -5,5 -11,10 -16,15 -6,5 -11,10 -17,15 -6,5 -11,10 -17,14l0 0c-6,5 -12,10 -18,14 -5,5 -11,9 -17,13 -6,5 -12,9 -18,13 -6,4 -12,9 -18,13l0 0c-6,4 -13,8 -19,11 -6,4 -12,8 -18,12l0 0c-7,3 -13,7 -19,10l0 0c-7,4 -13,7 -19,11 -7,3 -13,6 -20,9l0 0c-6,4 -12,7 -19,10l0 0c-6,3 -13,6 -20,9 -6,2 -13,5 -19,8l0 0c-7,2 -14,5 -20,8 -7,2 -14,5 -20,7l0 0c-7,2 -14,4 -21,7 -7,2 -13,4 -20,6l0 0c-7,2 -14,4 -21,6 -6,2 -13,3 -20,5l0 0c-7,2 -14,3 -21,5l0 0c-7,1 -14,3 -21,4l0 0c-7,1 -14,3 -21,4l0 0c-7,1 -14,2 -21,3l0 0c-7,1 -14,2 -21,3l0 0c-7,1 -14,1 -21,2l0 0c-7,1 -14,1 -21,2l0 0c-7,0 -14,1 -21,1l0 0c-7,0 -14,1 -21,1 -7,0 -14,0 -21,0 -7,0 -14,0 -21,0l0 0c-7,0 -14,-1 -21,-1 -7,0 -15,-1 -22,-1 -7,-1 -14,-1 -21,-2 -7,-1 -14,-1 -21,-2l0 0c-14,-2 -28,-4 -42,-6 -7,-1 -14,-3 -21,-4 -6,-1 -13,-3 -20,-4 -7,-2 -14,-3 -21,-5 -7,-2 -14,-3 -21,-5 -7,-2 -13,-4 -20,-6l0 0c-7,-2 -14,-4 -21,-6 -6,-3 -13,-5 -20,-7l0 0c-7,-2 -13,-5 -20,-7l0 0c-7,-3 -13,-6 -20,-8 -6,-3 -13,-6 -20,-8 -6,-3 -13,-6 -19,-9 -7,-3 -13,-6 -20,-10 -6,-3 -13,-6 -19,-9 -6,-4 -13,-7 -19,-11 -6,-3 -13,-7 -19,-10 -6,-4 -12,-8 -19,-12 -6,-3 -12,-7 -18,-11 -6,-4 -12,-9 -18,-13l0 0c-6,-4 -12,-8 -18,-13 -6,-4 -12,-8 -18,-13 -6,-4 -11,-9 -17,-14 -6,-4 -12,-9 -17,-14 -6,-5 -11,-10 -17,-15 -6,-5 -11,-10 -16,-15 -6,-5 -11,-10 -17,-16l-2087 -2087c-343,-343 -343,-903 0,-1246l0 0c342,-342 903,-342 1245,0l1465 1465 2561 -2561c342,-342 903,-342 1245,0z"/>
 </g>
</svg>