<svg xmlns="http://www.w3.org/2000/svg" width="120.65mm" height="603.25mm" style="fill-rule:evenodd" viewBox="0 0 9956 49779">
<!--by TreedBox.com.br-->
 <defs>
  <style type="text/css">
   <![CDATA[
    .fil0 {fill:none}
    .fil1 {fill:#fff}
    .fil2 {fill:#ccc}
    .fil3 {fill:#30719E}
   ]]>
  </style>
 </defs>
 <g id="geo">
<rect class="fil0" width="9956" height="49779"/>
  <path class="fil1" d="M6850 5925c300,-49 601,-98 901,-147 -560,795 -1119,1589 -1678,2383 -538,-1103 -1311,-1921 -2311,-2467 511,14 1021,29 1531,43 134,-2135 -1056,-3256 -3571,-3363 3205,-502 4544,1099 5128,3551l0 0z"/>
  <path class="fil2" d="M6850 25836c300,-48 601,-97 901,-146 -560,794 -1119,1588 -1678,2383 -538,-1104 -1311,-1922 -2311,-2467 511,14 1021,28 1531,43 134,-2135 -1056,-3256 -3571,-3364 3205,-501 4544,1099 5128,3551l0 0z"/>
  <path class="fil3" d="M6850 45748c300,-49 601,-98 901,-147 -560,795 -1119,1589 -1678,2383 -538,-1103 -1311,-1921 -2311,-2467 511,14 1021,29 1531,43 134,-2135 -1056,-3256 -3571,-3363 3205,-502 4544,1099 5128,3551l0 0z"/>
 </g>
</svg>