<?xml version="1.0" encoding="UTF-8"?>
<!DOCTYPE svg PUBLIC "-//W3C//DTD SVG 1.1//EN" "http://www.w3.org/Graphics/SVG/1.1/DTD/svg11.dtd">
<!-- Creator: CorelDRAW X7 -->
<svg xmlns="http://www.w3.org/2000/svg" xml:space="preserve" width="120.65mm" height="603.238mm" version="1.1" style="shape-rendering:geometricPrecision; text-rendering:geometricPrecision; image-rendering:optimizeQuality; fill-rule:evenodd; clip-rule:evenodd"
viewBox="0 0 12065 60324"
 xmlns:xlink="http://www.w3.org/1999/xlink"
 enable-background="new 0 0 24 24">
 <defs>
  <style type="text/css">
   <![CDATA[
    .fil2 {fill:#30719E}
    .fil1 {fill:#CCCCCC}
    .fil0 {fill:white}
   ]]>
  </style>
 </defs>
 <g id="Camada_x0020_1">
  <metadata id="CorelCorpID_0Corel-Layer"/>
  <g id="_1488418748_police.svg">
   <path class="fil0" d="M8836 6829c0,0 -847,2025 -2946,2025 -2099,0 -2946,-2025 -2946,-2025 0,0 1509,368 2909,368 1399,0 2983,-368 2983,-368z"/>
   <path class="fil0" d="M9314 4619c-1546,-479 -2762,-1657 -3424,-1657 -663,0 -1878,1178 -3425,1657 -258,74 -368,368 -221,589 331,442 700,479 700,995 0,0 1473,368 2946,368 1473,0 2946,-368 2946,-368 0,-516 368,-553 662,-1031 148,-185 37,-479 -184,-553zm-3424 1289c-405,0 -737,-700 -737,-1105 0,0 332,-368 737,-368 405,0 736,368 736,368 0,405 -331,1105 -736,1105z"/>
  </g>
  <g id="_1488418748_police.svg_0">
   <path class="fil1" d="M8800 30818c0,0 -847,2025 -2946,2025 -2099,0 -2946,-2025 -2946,-2025 0,0 1510,368 2910,368 1399,0 2982,-368 2982,-368z"/>
   <path class="fil1" d="M9279 28608c-1547,-479 -2762,-1657 -3425,-1657 -663,0 -1878,1178 -3424,1657 -258,74 -369,368 -221,589 331,442 699,479 699,995 0,0 1473,368 2946,368 1473,0 2946,-368 2946,-368 0,-516 369,-553 663,-1032 147,-184 37,-478 -184,-552zm-3425 1289c-405,0 -736,-700 -736,-1105 0,0 331,-368 736,-368 405,0 737,368 737,368 0,405 -332,1105 -737,1105z"/>
  </g>
  <g id="_1488418748_police.svg_1">
   <path class="fil2" d="M8800 54948c0,0 -847,2025 -2946,2025 -2099,0 -2946,-2025 -2946,-2025 0,0 1510,368 2909,368 1400,0 2983,-368 2983,-368z"/>
   <path class="fil2" d="M9279 52738c-1547,-479 -2762,-1657 -3425,-1657 -663,0 -1878,1178 -3424,1657 -258,74 -369,368 -221,589 331,442 699,479 699,995 0,0 1473,368 2946,368 1473,0 2946,-368 2946,-368 0,-516 368,-553 663,-1031 147,-185 37,-479 -184,-553zm-3425 1289c-405,0 -736,-700 -736,-1105 0,0 331,-368 736,-368 405,0 737,368 737,368 0,405 -332,1105 -737,1105z"/>
  </g>
 </g>
</svg>
