<?xml version="1.0" ?><!DOCTYPE svg  PUBLIC '-//W3C//DTD SVG 1.1//EN'  'http://www.w3.org/Graphics/SVG/1.1/DTD/svg11.dtd'><svg height="21.397px" id="Capa_1" style="enable-background:new 0 0 21.398 21.397;" version="1.1" viewBox="0 0 21.398 21.397" width="21.398px" xml:space="preserve" xmlns="http://www.w3.org/2000/svg" xmlns:xlink="http://www.w3.org/1999/xlink"><g><path d="M10.699,0c5.908,0,10.699,4.791,10.699,10.698   c0,5.908-4.792,10.699-10.699,10.699S0,16.606,0,10.698C0,4.791,4.791,0,10.699,0L10.699,0z M10.699,1.448   c-5.108,0-9.25,4.143-9.25,9.25c0,5.108,4.143,9.251,9.25,9.251c5.108,0,9.251-4.143,9.251-9.251   C19.95,5.591,15.807,1.448,10.699,1.448z" style="fill-rule:evenodd;clip-rule:evenodd;fill:#231F20;"/><path d="   M10.699,6.687c2.216,0,4.013,1.797,4.013,4.012c0,2.216-1.797,4.013-4.013,4.013s-4.013-1.797-4.013-4.013   C6.686,8.483,8.483,6.687,10.699,6.687L10.699,6.687z M10.699,7.229c-1.916,0-3.469,1.554-3.469,3.469   c0,1.916,1.553,3.47,3.469,3.47s3.47-1.554,3.47-3.47C14.168,8.783,12.615,7.229,10.699,7.229z" style="fill-rule:evenodd;clip-rule:evenodd;fill:#231F20;stroke:#231F20;stroke-width:0.0369;stroke-miterlimit:2.6131;"/></g><g/><g/><g/><g/><g/><g/><g/><g/><g/><g/><g/><g/><g/><g/><g/></svg>