<svg xmlns="http://www.w3.org/2000/svg" xml:space="preserve" width="120.65mm" height="603.25mm" version="1.1" style="shape-rendering:geometricPrecision; text-rendering:geometricPrecision; image-rendering:optimizeQuality; fill-rule:evenodd; clip-rule:evenodd" viewBox="0 0 9956 49779" xmlns:xlink="http://www.w3.org/1999/xlink">
 <!-- Created by: Treedbox, treedbox.com.br -->
 <defs>
  <style type="text/css">
   <![CDATA[
    .fil0 {fill:none}
    .fil3 {fill:#000}
    .fil1 {fill:#fff}
    .fil2 {fill:#757575}
   ]]>
  </style>
 </defs>
 <g id="geo">
  <polygon class="fil0" points="0,0 9956,0 9956,49779 0,49779 "/>
  <path class="fil1" d="M5991 4278c0,-72 58,-131 130,-131 72,0 131,59 131,131l0 1897c0,350 -143,669 -374,900 -231,231 -550,374 -900,374 -351,0 -669,-143 -900,-374 -231,-231 -374,-550 -374,-900l0 -326 0 -2396c0,-261 106,-497 278,-669 171,-171 407,-277 668,-277 251,0 490,100 668,277 171,172 277,408 277,669l0 526 0 1756 0 114c0,29 -9,56 -25,78 -34,124 -100,234 -188,322 -132,132 -314,214 -515,214 -193,0 -377,-77 -514,-214 -132,-132 -214,-314 -214,-514l0 -1756c0,-72 59,-131 131,-131 72,0 131,59 131,131l0 1756c0,128 52,245 137,329 85,85 201,138 329,138 125,0 242,-50 330,-138 85,-84 137,-201 137,-329l0 -1756 0 -526c0,-189 -77,-360 -201,-484 -124,-124 -295,-201 -483,-201 -182,0 -355,73 -484,201 -124,124 -201,295 -201,484l0 2396 0 326c0,278 114,531 298,715 183,184 437,298 715,298 278,0 531,-114 715,-298 184,-184 298,-437 298,-715l0 -1897z"/>
  <path class="fil2" d="M5991 24189c0,-72 58,-130 130,-130 72,0 131,58 131,130l0 1897c0,351 -143,670 -374,900 -231,231 -550,375 -900,375 -351,0 -669,-144 -900,-375 -231,-230 -374,-549 -374,-900l0 -325 0 -2397c0,-260 106,-497 278,-668 171,-171 407,-278 668,-278 251,0 490,100 668,278 171,171 277,408 277,668l0 526 0 1756 0 115c0,29 -9,56 -25,78 -34,123 -100,234 -188,322 -132,132 -314,213 -515,213 -193,0 -377,-77 -514,-213 -132,-132 -214,-314 -214,-515l0 -1756c0,-72 59,-130 131,-130 72,0 131,58 131,130l0 1756c0,129 52,245 137,330 85,85 201,137 329,137 125,0 242,-49 330,-137 85,-85 137,-201 137,-330l0 -1756 0 -526c0,-188 -77,-359 -201,-483 -124,-124 -295,-201 -483,-201 -182,0 -355,72 -484,201 -124,124 -201,295 -201,483l0 2397 0 325c0,279 114,532 298,716 183,183 437,297 715,297 278,0 531,-114 715,-297 184,-184 298,-437 298,-716l0 -1897z"/>
  <path class="fil3" d="M5991 44101c0,-72 58,-131 130,-131 72,0 131,59 131,131l0 1897c0,350 -143,669 -374,900 -231,231 -550,374 -900,374 -351,0 -669,-143 -900,-374 -231,-231 -374,-550 -374,-900l0 -326 0 -2396c0,-261 106,-497 278,-669 171,-171 407,-277 668,-277 251,0 490,100 668,277 171,172 277,408 277,669l0 526 0 1756 0 114c0,29 -9,56 -25,78 -34,124 -100,234 -188,322 -132,132 -314,214 -515,214 -193,0 -377,-77 -514,-214 -132,-132 -214,-314 -214,-514l0 -1756c0,-72 59,-131 131,-131 72,0 131,59 131,131l0 1756c0,128 52,245 137,329 85,85 201,138 329,138 125,0 242,-50 330,-138 85,-84 137,-201 137,-329l0 -1756 0 -526c0,-189 -77,-360 -201,-484 -124,-124 -295,-201 -483,-201 -182,0 -355,73 -484,201 -124,124 -201,295 -201,484l0 2396 0 326c0,278 114,531 298,715 183,184 437,298 715,298 278,0 531,-114 715,-298 184,-184 298,-437 298,-715l0 -1897z"/>
 </g>
</svg>