<svg xmlns="http://www.w3.org/2000/svg" width="120.65mm" height="603.25mm" style="fill-rule:evenodd" viewBox="0 0 9956 49779">
<!--by TreedBox.com.br-->
 <defs>
  <style type="text/css">
   <![CDATA[
    .fil0 {fill:none}
    .fil3 {fill:#30719E}
    .fil2 {fill:#CCC}
    .fil1 {fill:#fff}
   ]]>
  </style>
 </defs>
 <g id="geo">
<rect class="fil0" width="9956" height="49779"/>
  <path class="fil1" d="M4978 2508c1594,0 2885,1024 2885,2287 0,1264 -1291,2288 -2885,2288 -229,0 -451,-22 -665,-61 -493,405 -1107,494 -1798,380 291,-166 550,-402 751,-765 -712,-417 -1174,-1086 -1174,-1842 0,-1263 1292,-2287 2886,-2287z"/>
  <path class="fil2" d="M4978 22420c1594,0 2885,1024 2885,2287 0,1263 -1291,2287 -2885,2287 -229,0 -451,-21 -665,-61 -493,406 -1107,494 -1798,380 291,-165 550,-402 751,-765 -712,-416 -1174,-1086 -1174,-1841 0,-1263 1292,-2287 2886,-2287z"/>
  <path class="fil3" d="M4978 42331c1594,0 2885,1024 2885,2287 0,1264 -1291,2288 -2885,2288 -229,0 -451,-22 -665,-62 -493,406 -1107,495 -1798,380 291,-165 550,-401 751,-764 -712,-417 -1174,-1086 -1174,-1842 0,-1263 1292,-2287 2886,-2287z"/>
 </g>
</svg>