<svg xmlns="http://www.w3.org/2000/svg" width="120.65mm" height="603.25mm" style="fill-rule:evenodd" viewBox="0 0 9956 49779">
<!--by TreedBox.com.br-->
 <defs>
  <style type="text/css">
   <![CDATA[
    .fil0 {fill:none}
    .fil3 {fill:#30719E}
    .fil2 {fill:#CCC}
    .fil1 {fill:#fff}
   ]]>
  </style>
 </defs>
 <g id="geo">
<rect class="fil0" width="9956" height="49779"/>
  <path class="fil1" d="M5416 3122c188,44 365,116 526,211l443 -442 650 649 -435 436c99,159 175,335 223,521l626 0 0 919 -616 0c-44,188 -116,365 -211,526l443 443 -650 650 -435 -435c-160,99 -335,175 -521,223l0 626 -919 0 0 -616c-188,-44 -365,-116 -527,-211l-442 443 -650 -650 435 -435c-99,-160 -175,-335 -223,-521l-626 0 0 -919 615 0c44,-188 116,-365 211,-527l-442 -442 649 -650 436 435c159,-99 335,-175 521,-223l0 -626 919 0 0 615zm-438 1021c461,0 835,374 835,835 0,461 -374,835 -835,835 -461,0 -835,-374 -835,-835 0,-461 374,-835 835,-835z"/>
  <path class="fil2" d="M5416 23034c188,44 365,116 526,211l443 -443 650 650 -435 435c99,160 175,335 223,522l626 0 0 918 -616 0c-44,188 -116,365 -211,527l443 443 -650 649 -435 -435c-160,99 -335,175 -521,223l0 627 -919 0 0 -616c-188,-44 -365,-116 -527,-211l-442 443 -650 -650 435 -435c-99,-160 -175,-335 -223,-522l-626 0 0 -919 615 0c44,-188 116,-364 211,-526l-442 -443 649 -650 436 436c159,-99 335,-175 521,-224l0 -626 919 0 0 616zm-438 1020c461,0 835,374 835,835 0,461 -374,835 -835,835 -461,0 -835,-374 -835,-835 0,-461 374,-835 835,-835z"/>
  <path class="fil3" d="M5416 42945c188,44 365,116 526,211l443 -442 650 649 -435 436c99,159 175,335 223,521l626 0 0 919 -616 0c-44,188 -116,365 -211,526l443 443 -650 650 -435 -435c-160,98 -335,175 -521,223l0 626 -919 0 0 -616c-188,-44 -365,-116 -527,-211l-442 443 -650 -650 435 -435c-99,-160 -175,-335 -223,-521l-626 0 0 -919 615 0c44,-188 116,-365 211,-527l-442 -442 649 -650 436 435c159,-99 335,-175 521,-223l0 -626 919 0 0 615zm-438 1021c461,0 835,374 835,835 0,461 -374,835 -835,835 -461,0 -835,-374 -835,-835 0,-461 374,-835 835,-835z"/>
 </g>
</svg>