<?xml version="1.0" encoding="UTF-8"?>
<!DOCTYPE svg PUBLIC "-//W3C//DTD SVG 1.1//EN" "http://www.w3.org/Graphics/SVG/1.1/DTD/svg11.dtd">
<!-- Creator: CorelDRAW X7 -->
<svg xmlns="http://www.w3.org/2000/svg" xml:space="preserve" width="120.65mm" height="603.238mm" version="1.1" style="shape-rendering:geometricPrecision; text-rendering:geometricPrecision; image-rendering:optimizeQuality; fill-rule:evenodd; clip-rule:evenodd"
viewBox="0 0 12065 60324"
 xmlns:xlink="http://www.w3.org/1999/xlink"
 enable-background="new 0 0 92.5 92.5">
 <defs>
  <style type="text/css">
   <![CDATA[
    .str0 {stroke:#373435;stroke-width:26.46}
    .str2 {stroke:white;stroke-width:26.46}
    .str1 {stroke:#373435;stroke-width:7.62}
    .str3 {stroke:#CCCCCC;stroke-width:7.62}
    .fil2 {fill:none}
    .fil1 {fill:#373435}
    .fil4 {fill:#30719E}
    .fil3 {fill:#CCCCCC}
    .fil0 {fill:white}
   ]]>
  </style>
 </defs>
 <g id="Camada_x0020_1">
  <metadata id="CorelCorpID_0Corel-Layer"/>
  <g id="_1488418712_globe.svg">
   <circle class="fil0" cx="5823" cy="5962" r="2900"/>
   <circle class="fil0 str0" cx="5823" cy="5962" r="2775"/>
   <g>
    <g>
     <g>
      <path class="fil0" d="M7530 5896c0,965 -782,1747 -1746,1747 -965,0 -1747,-782 -1747,-1747 0,-964 782,-1746 1747,-1746 964,0 1746,782 1746,1746z"/>
      <path class="fil1" d="M3961 5896c0,-1006 816,-1822 1823,-1822l0 0c1006,0 1822,816 1822,1822l0 0c0,1007 -816,1823 -1822,1823l0 0c-1007,0 -1823,-816 -1823,-1823l0 0zm152 0c2,923 748,1669 1670,1671l0 0c923,-2 1669,-748 1671,-1671l0 0c-2,-922 -748,-1668 -1671,-1670l0 0c-922,2 -1668,748 -1670,1670l0 0z"/>
     </g>
     <g>
      <g>
       <path class="fil0" d="M5430 7603c-354,-436 -573,-1040 -573,-1707 0,-666 218,-1269 572,-1705l1 3412zm0 0l0 0 0 0z"/>
      </g>
      <path class="fil1" d="M4781 5896c0,-682 223,-1302 588,-1753l0 0 119 96c-342,421 -555,1008 -555,1657l0 0c0,651 214,1238 556,1659l0 0 0 1 -119 95c-365,-451 -589,-1071 -589,-1755l0 0z"/>
     </g>
     <g>
      <g>
       <path class="fil0" d="M6097 7603c354,-436 573,-1040 573,-1707 0,-666 -219,-1269 -572,-1705l-1 3412zm0 0l0 0 0 0z"/>
      </g>
      <path class="fil1 str1" d="M6038 7555c342,-421 555,-1008 555,-1659l0 0c0,-649 -213,-1236 -554,-1657l0 0 119 -96c364,451 587,1071 588,1753l0 0c-1,684 -224,1304 -590,1755l0 0 -118 -96 0 0z"/>
     </g>
     <g>
      <line class="fil2" x1="5783" y1="4129" x2="5783" y2= "7640" />
      <polygon class="fil1" points="5707,7640 5707,4129 5859,4129 5859,7640 "/>
     </g>
     <g>
      <line class="fil2" x1="4037" y1="5896" x2="7530" y2= "5896" />
      <polygon class="fil1" points="4037,5973 4037,5820 7530,5820 7530,5973 "/>
     </g>
     <g>
      <line class="fil2" x1="4280" y1="5012" x2="7262" y2= "5012" />
      <polygon class="fil1" points="4280,5088 4280,4936 7262,4936 7262,5088 "/>
     </g>
     <g>
      <line class="fil2" x1="7247" y1="6779" x2="4264" y2= "6779" />
      <polygon class="fil1" points="4264,6856 4264,6703 7247,6703 7247,6856 "/>
     </g>
    </g>
   </g>
  </g>
  <g id="_1488418712_globe.svg_0">
   <circle class="fil3" cx="5704" cy="29902" r="2900"/>
   <circle class="fil3 str2" cx="5704" cy="29902" r="2775"/>
   <g>
    <g id="_2142016378672">
     <g>
      <path class="fil0" d="M7411 29836c0,964 -782,1746 -1747,1746 -964,0 -1746,-782 -1746,-1746 0,-965 782,-1746 1746,-1746 965,0 1747,782 1747,1746z"/>
      <path class="fil3 str3" d="M3842 29836c0,-1007 816,-1822 1822,-1823l0 0c1007,0 1823,816 1823,1823l0 0c0,1006 -816,1822 -1823,1822l0 0c-1006,0 -1822,-816 -1822,-1822l0 0zm152 0c2,922 748,1668 1670,1670l0 0c923,-2 1669,-748 1671,-1670l0 0c-2,-922 -748,-1669 -1671,-1670l0 0c-922,1 -1668,748 -1670,1670l0 0z"/>
     </g>
     <g>
      <g>
       <path class="fil0" d="M5311 31543c-354,-437 -573,-1040 -573,-1707 0,-666 218,-1269 572,-1706l1 3413zm0 0l0 0 0 0z"/>
      </g>
      <path class="fil3" d="M4662 29836c0,-683 223,-1303 588,-1754l0 0 119 96c-342,422 -555,1008 -555,1658l0 0c0,650 214,1237 556,1659l0 0 0 0 -119 96c-365,-451 -589,-1072 -589,-1755l0 0z"/>
     </g>
     <g id="_2142016380048">
      <g>
       <path class="fil0" d="M5978 31543c354,-437 572,-1040 572,-1707 0,-666 -218,-1269 -571,-1706l-1 3413zm0 0l0 0 0 0z"/>
      </g>
      <path class="fil3" d="M5919 31495c342,-422 555,-1009 555,-1659l0 0c0,-650 -213,-1236 -554,-1658l0 0 118 -96c365,451 588,1071 589,1754l0 0c-1,683 -224,1304 -590,1755l0 0 -118 -96 0 0z"/>
     </g>
     <g>
      <line class="fil2" x1="5664" y1="28069" x2="5664" y2= "31579" />
      <polygon class="fil3" points="5588,31579 5588,28069 5740,28069 5740,31579 "/>
     </g>
     <g>
      <line class="fil2" x1="3918" y1="29836" x2="7411" y2= "29836" />
      <polygon class="fil3" points="3918,29912 3918,29760 7411,29760 7411,29912 "/>
     </g>
     <g>
      <line class="fil2" x1="4161" y1="28951" x2="7143" y2= "28951" />
      <polygon class="fil3" points="4161,29028 4161,28875 7143,28875 7143,29028 "/>
     </g>
     <g>
      <line class="fil2" x1="7128" y1="30719" x2="4145" y2= "30719" />
      <polygon class="fil3" points="4145,30795 4145,30643 7128,30643 7128,30795 "/>
     </g>
    </g>
   </g>
  </g>
  <g id="_1488418712_globe.svg_1">
   <circle class="fil4" cx="5716" cy="53882" r="2900"/>
   <circle class="fil4 str2" cx="5716" cy="53882" r="2775"/>
   <g>
    <g>
     <g>
      <path class="fil0" d="M7423 53816c0,964 -782,1746 -1747,1746 -964,0 -1746,-782 -1746,-1746 0,-964 782,-1746 1746,-1746 965,0 1747,782 1747,1746z"/>
      <path class="fil4" d="M3854 53816c0,-1007 816,-1822 1822,-1823l0 0c1007,1 1823,816 1823,1823l0 0c0,1006 -816,1822 -1823,1822l0 0c-1007,0 -1822,-816 -1822,-1822l0 0zm152 0c2,922 748,1668 1670,1670l0 0c922,-2 1669,-748 1670,-1670l0 0c-1,-922 -748,-1669 -1670,-1670l0 0c-922,1 -1668,748 -1670,1670l0 0z"/>
     </g>
     <g>
      <g>
       <path class="fil0" d="M5322 55523c-353,-436 -572,-1040 -572,-1707 0,-666 218,-1269 571,-1706l1 3413zm0 0l0 0 0 0z"/>
      </g>
      <path class="fil4" d="M4674 53816c0,-683 223,-1303 588,-1754l0 0 118 96c-341,422 -554,1008 -554,1658l0 0c0,650 213,1237 555,1659l0 0 0 0 -118 96c-365,-451 -589,-1072 -589,-1755l0 0z"/>
     </g>
     <g>
      <g>
       <path class="fil0" d="M5990 55523c353,-436 572,-1040 572,-1707 0,-666 -218,-1269 -571,-1706l-1 3413zm0 0l0 0 0 0z"/>
      </g>
      <path class="fil4" d="M5931 55475c341,-422 555,-1009 555,-1659l0 0c0,-650 -213,-1236 -554,-1658l0 0 118 -96c365,452 588,1071 588,1754l0 0c0,683 -224,1304 -589,1755l0 0 -118 -96 0 0z"/>
     </g>
     <g>
      <line class="fil2" x1="5676" y1="52049" x2="5676" y2= "55559" />
      <polygon class="fil4" points="5600,55559 5600,52049 5752,52049 5752,55559 "/>
     </g>
     <g>
      <line class="fil2" x1="3930" y1="53816" x2="7423" y2= "53816" />
      <polygon class="fil4" points="3930,53892 3930,53740 7423,53740 7423,53892 "/>
     </g>
     <g>
      <line class="fil2" x1="4172" y1="52932" x2="7155" y2= "52932" />
      <polygon class="fil4" points="4172,53008 4172,52855 7155,52855 7155,53008 "/>
     </g>
     <g>
      <line class="fil2" x1="7140" y1="54699" x2="4157" y2= "54699" />
      <polygon class="fil4" points="4157,54775 4157,54623 7140,54623 7140,54775 "/>
     </g>
    </g>
   </g>
  </g>
 </g>
</svg>
