<?xml version="1.0" encoding="UTF-8"?>
<!DOCTYPE svg PUBLIC "-//W3C//DTD SVG 1.1//EN" "http://www.w3.org/Graphics/SVG/1.1/DTD/svg11.dtd">
<!-- Creator: CorelDRAW X7 -->
<svg xmlns="http://www.w3.org/2000/svg" xml:space="preserve" width="120.65mm" height="603.238mm" version="1.1" style="shape-rendering:geometricPrecision; text-rendering:geometricPrecision; image-rendering:optimizeQuality; fill-rule:evenodd; clip-rule:evenodd"
viewBox="0 0 12065 60324"
 xmlns:xlink="http://www.w3.org/1999/xlink"
 enable-background="new 0 0 64 64">
 <defs>
  <style type="text/css">
   <![CDATA[
    .fil2 {fill:#30719E}
    .fil1 {fill:#CCCCCC}
    .fil0 {fill:white}
   ]]>
  </style>
 </defs>
 <g id="Camada_x0020_1">
  <metadata id="CorelCorpID_0Corel-Layer"/>
  <g id="_1488420302_rocket.svg">
   <g>
    <path class="fil0" d="M5749 3088c0,0 -1168,906 -1168,3131 0,1428 432,2320 994,2473l0 -1437c0,-96 78,-174 174,-174 96,0 174,78 174,174l0 1437c562,-153 994,-1045 994,-2473 0,-2251 -1168,-3131 -1168,-3131zm-14 1717c-200,0 -396,-18 -569,-50 169,-548 409,-916 585,-1132 176,213 414,578 583,1126 -180,37 -387,56 -599,56z"/>
    <path class="fil0" d="M4268 7203c-349,0 -631,242 -631,539l0 1416 1143 -845c-170,-290 -296,-665 -371,-1110l-141 0z"/>
    <path class="fil0" d="M7230 7203l-141 0c-75,445 -202,820 -371,1110l1143 845 0 -1416c0,-297 -283,-539 -631,-539z"/>
   </g>
  </g>
  <g id="_1488420302_rocket.svg_0">
   <g>
    <path class="fil1" d="M5828 27168c0,0 -1168,906 -1168,3132 0,1427 432,2320 994,2472l0 -1436c0,-96 78,-174 174,-174 96,0 174,78 174,174l0 1436c562,-152 993,-1045 993,-2472 0,-2251 -1167,-3132 -1167,-3132zm-14 1718c-200,0 -396,-18 -570,-51 170,-547 410,-916 586,-1131 176,213 414,578 583,1126 -180,36 -387,56 -599,56z"/>
    <path class="fil1" d="M4347 31284c-349,0 -631,241 -631,539l0 1416 1143 -846c-170,-289 -296,-665 -371,-1109l-141 0z"/>
    <path class="fil1" d="M7309 31284l-141 0c-75,444 -202,820 -371,1109l1143 846 0 -1416c0,-298 -283,-539 -631,-539z"/>
   </g>
  </g>
  <g id="_1488420302_rocket.svg_1">
   <g>
    <path class="fil2" d="M5751 50811c0,0 -1167,906 -1167,3132 0,1427 431,2320 993,2472l0 -1436c0,-96 78,-174 174,-174 96,0 174,78 174,174l0 1436c562,-152 994,-1045 994,-2472 0,-2252 -1168,-3132 -1168,-3132zm-13 1718c-201,0 -397,-18 -570,-51 170,-547 409,-916 585,-1131 176,213 415,578 583,1126 -180,36 -386,56 -598,56z"/>
    <path class="fil2" d="M4270 54927c-348,0 -631,241 -631,539l0 1416 1143 -846c-169,-289 -296,-665 -371,-1109l-141 0z"/>
    <path class="fil2" d="M7232 54927l-141 0c-74,444 -201,820 -371,1109l1143 846 0 -1416c0,-298 -282,-539 -631,-539z"/>
   </g>
  </g>
 </g>
</svg>
