<svg xmlns="http://www.w3.org/2000/svg" style="fill-rule:evenodd" viewBox="0 0 12065 12065" xmlns:xlink="http://www.w3.org/1999/xlink">
<!--by TreedBox.com.br-->
 <defs>
  <style type="text/css">
   <![CDATA[
    .fil0 {fill:none}
    .fil5 {fill:#373435}
    .fil6 {fill:url(#id0)}
    .fil2 {fill:url(#id1)}
    .fil1 {fill:url(#id2)}
    .fil4 {fill:url(#id3)}
    .fil3 {fill:url(#id4)}
   ]]>
  </style>
  <linearGradient id="id0" gradientUnits="userSpaceOnUse" x1="4029.35" y1="-876.969" x2="7829.88" y2="5199.2">
   <stop offset="0" style="stop-opacity:1; stop-color:#222121"/>
   <stop offset="1" style="stop-opacity:1; stop-color:#ED3237"/>
  </linearGradient>
  <linearGradient id="id1" gradientUnits="userSpaceOnUse" xlink:href="#id0" x1="5284.16" y1="2151.22" x2="2874.6" y2="4937.62">
  </linearGradient>
  <linearGradient id="id2" gradientUnits="userSpaceOnUse" x1="93.1899" y1="4944.49" x2="9157.52" y2="10046.3">
   <stop offset="0" style="stop-opacity:1; stop-color:#344787"/>
   <stop offset="1" style="stop-opacity:1; stop-color:#00AFEF"/>
  </linearGradient>
  <linearGradient id="id3" gradientUnits="userSpaceOnUse" xlink:href="#id2" x1="11367" y1="5919.54" x2="8889.15" y2="7732.11">
  </linearGradient>
  <linearGradient id="id4" gradientUnits="userSpaceOnUse" xlink:href="#id0" x1="10886.2" y1="1184.34" x2="6658.25" y2="6073.52">
  </linearGradient>
 </defs>
 <g id="geo">
  <g id="_670357824">
   <rect class="fil0" transform="matrix(2.64845E-014 -1 1 2.64845E-014 0.00046514 12065)" width="12065" height="12065"/>
   <g>
    <path class="fil1" d="M4754 5993l-360 -428 -445 377 -257 1816 342 411 463 -429 257 -1747zm3603 -1966l-16 -373 -390 18 -876 858 14 357 419 -38 849 -822zm-2490 4604l-342 -377 445 -428 1918 0 274 394 -462 411 -1833 0zm377 -2740l-343 -377 446 -428 1918 0 274 394 -463 411 -1832 0zm2329 2774l-359 -359 -463 394 -257 1781 343 394 479 -411 257 -1799zm377 -2672l-360 -428 -445 377 -257 1816 343 411 462 -429 257 -1747zm-3134 2672l-360 -359 -462 394 -257 1781 342 394 480 -411 257 -1799zm376 -2672l-359 -428 -445 377 -257 1816 342 411 463 -429 256 -1747zm-4812 2672l-360 -359 -462 394 -257 1781 342 394 480 -411 257 -1799zm-685 2244l325 428 2090 0 479 -394 -325 -394 -2124 0 -445 360zm3682 -2244l-360 -359 -462 394 -257 1781 343 394 479 -411 257 -1799z"/>
    <path class="fil2" d="M1666 4579l348 -1663 811 0 -53 266 -511 0 -86 404 500 0 -53 257 -500 0 -100 469 547 0 -53 267 -850 0zm745 -1820l-119 0 190 -249 250 0 -321 249zm1086 1820l-310 0 348 -1663 396 0c173,0 296,34 371,100 75,67 112,176 112,327 0,75 -10,145 -32,209 -22,65 -53,122 -94,171 -47,57 -107,97 -177,120 -72,24 -177,35 -317,35 -25,0 -68,-1 -131,-4 -8,0 -15,0 -20,0l-146 705zm196 -944l135 0c99,0 171,-25 214,-74 43,-49 65,-129 65,-240 0,-65 -15,-111 -45,-138 -30,-27 -80,-41 -152,-41l-112 0 -105 493zm1045 -11l157 0c113,0 194,-24 244,-71 50,-48 75,-125 75,-232 0,-64 -18,-110 -52,-138 -35,-27 -93,-41 -174,-41l-151 0 -99 482zm-194 955l-308 0 347 -1663 425 0c193,0 330,32 410,94 80,63 121,169 121,318 0,115 -32,213 -94,295 -63,81 -145,129 -245,144 57,14 100,41 127,81 28,40 41,95 41,166 0,13 -1,29 -3,46 -2,18 -6,44 -12,77l-38 217c-2,12 -4,24 -5,37 -1,13 -1,29 -1,49 0,21 2,42 7,63 4,21 13,46 25,76l-333 0c-6,-13 -10,-30 -13,-48 -3,-18 -5,-39 -5,-62 0,-21 1,-43 4,-67 2,-24 5,-48 9,-74l31 -198c3,-17 6,-35 7,-55 2,-19 2,-40 2,-61 0,-62 -20,-106 -59,-131 -39,-25 -108,-38 -206,-38 -17,0 -32,1 -44,1 -12,1 -24,2 -36,4l-154 729zm1394 -665l256 0 25 -799 -281 799zm-261 665l-319 0 701 -1663 396 0 38 1663 -303 0 0 -426 -345 0 -168 426z"/>
    <path class="fil3" d="M6634 0c2656,718 4963,3559 2549,5141l-259 2117c4097,-2824 1116,-6436 -2290,-7258z"/>
    <path class="fil4" d="M11127 3154c1260,2136 785,5366 -2635,7344l389 -2376c1110,-651 3210,-1912 2246,-4968z"/>
    <path class="fil5" d="M4250 11712l74 -7 0 19c0,22 5,42 15,61 10,18 26,32 49,42 24,10 51,15 83,15 46,0 80,-10 104,-30 24,-20 36,-43 36,-68 0,-18 -6,-35 -19,-49 -13,-15 -48,-34 -106,-59 -44,-20 -75,-34 -91,-45 -26,-17 -44,-35 -57,-55 -12,-19 -18,-42 -18,-67 0,-29 8,-56 24,-79 16,-24 40,-42 71,-54 31,-13 65,-19 104,-19 46,0 85,8 117,23 32,16 55,36 69,62 15,26 22,51 22,74 0,3 0,6 0,12l-74 6c0,-16 -1,-29 -4,-38 -5,-16 -13,-29 -24,-40 -11,-11 -26,-20 -45,-26 -19,-7 -40,-10 -63,-10 -42,0 -74,9 -96,28 -18,14 -27,33 -27,57 0,14 4,26 11,37 7,11 20,22 39,33 13,7 45,22 95,44 41,18 69,32 85,43 20,14 36,30 47,49 11,20 17,42 17,67 0,31 -9,59 -28,85 -19,26 -45,46 -78,60 -33,14 -71,22 -113,22 -65,0 -117,-14 -158,-42 -41,-28 -61,-79 -61,-151zm835 183l119 -568 413 0 -13 64 -338 0 -37 178 330 0 -13 64 -330 0 -42 198 360 0 -14 64 -435 0zm861 0l119 -568 238 0c47,0 83,4 107,11 25,8 44,23 58,45 13,22 20,49 20,82 0,46 -15,85 -45,115 -30,31 -79,50 -147,59 21,16 37,31 47,45 24,34 43,68 57,104l44 107 -85 0 -41 -106c-15,-38 -32,-71 -50,-99 -13,-19 -26,-32 -40,-38 -13,-6 -35,-9 -65,-9l-89 0 -52 252 -76 0zm141 -314l105 0c49,0 81,-1 95,-2 29,-3 53,-9 71,-19 19,-10 33,-24 43,-41 10,-17 15,-35 15,-55 0,-16 -4,-31 -11,-43 -8,-12 -17,-21 -30,-25 -12,-4 -33,-7 -62,-7l-186 0 -40 192zm915 314l-109 -568 73 0 66 339c12,61 20,111 24,148 24,-48 44,-86 59,-115l202 -372 79 0 -312 568 -82 0zm695 0l120 -568 75 0 -119 568 -76 0zm982 -200l75 10c-23,66 -58,116 -104,149 -45,34 -96,51 -153,51 -69,0 -124,-21 -165,-63 -40,-43 -60,-103 -60,-181 0,-103 30,-187 92,-254 55,-60 123,-90 204,-90 61,0 109,16 147,49 37,32 59,75 65,130l-71 6c-8,-41 -23,-71 -47,-92 -23,-20 -53,-30 -90,-30 -70,0 -126,31 -169,92 -37,54 -56,117 -56,190 0,58 14,103 43,134 29,31 66,46 113,46 39,0 75,-13 106,-38 32,-26 55,-62 70,-109zm-252 263l16 -63 54 0 -9 35c24,3 41,11 54,24 12,12 18,26 18,42 0,19 -8,34 -25,45 -23,16 -60,24 -111,24 -26,0 -49,-2 -68,-5l9 -43c16,1 36,1 59,1 27,0 46,-3 55,-8 9,-6 13,-12 13,-20 0,-8 -3,-15 -11,-20 -12,-8 -30,-12 -54,-12zm745 -301c0,-101 30,-183 88,-246 59,-62 130,-94 214,-94 70,0 128,23 173,69 44,46 67,108 67,186 0,55 -11,106 -34,154 -17,35 -38,65 -64,91 -25,26 -53,46 -82,60 -39,18 -80,28 -123,28 -46,0 -87,-11 -125,-33 -37,-22 -65,-52 -85,-91 -19,-39 -29,-80 -29,-124zm74 4c0,33 7,64 21,92 14,28 35,49 62,65 28,16 57,24 87,24 29,0 57,-7 84,-21 26,-14 50,-33 71,-58 21,-24 37,-55 49,-91 12,-36 18,-71 18,-106 0,-57 -15,-102 -47,-136 -32,-33 -71,-50 -118,-50 -60,0 -113,25 -158,76 -46,51 -69,119 -69,205zm855 51l74 -7 -1 19c0,22 6,42 16,61 10,18 26,32 49,42 24,10 51,15 83,15 46,0 80,-10 104,-30 24,-20 36,-43 36,-68 0,-18 -6,-35 -19,-49 -13,-15 -48,-34 -106,-59 -44,-20 -75,-34 -91,-45 -26,-17 -44,-35 -57,-55 -12,-19 -18,-42 -18,-67 0,-29 8,-56 24,-79 16,-24 40,-42 71,-54 30,-13 65,-19 104,-19 46,0 85,8 117,23 32,16 55,36 69,62 15,26 22,51 22,74 0,3 0,6 0,12l-74 6c0,-16 -2,-29 -4,-38 -5,-16 -13,-29 -24,-40 -11,-11 -26,-20 -45,-26 -19,-7 -40,-10 -63,-10 -42,0 -74,9 -97,28 -17,14 -26,33 -26,57 0,14 4,26 11,37 7,11 20,22 39,33 13,7 45,22 95,44 41,18 69,32 85,43 20,14 36,30 47,49 11,20 17,42 17,67 0,31 -10,59 -28,85 -19,26 -45,46 -78,60 -33,14 -71,22 -113,22 -65,0 -117,-14 -158,-42 -41,-28 -61,-79 -61,-151z"/>
    <path class="fil6" d="M2215 771c4447,-1685 7985,1143 7357,3293 5,-2692 -3512,-4423 -7357,-3293z"/>
   </g>
  </g>
 </g>
</svg>