<?xml version="1.0" encoding="UTF-8"?>
<!DOCTYPE svg PUBLIC "-//W3C//DTD SVG 1.1//EN" "http://www.w3.org/Graphics/SVG/1.1/DTD/svg11.dtd">
<!-- Creator: CorelDRAW X7 -->
<svg xmlns="http://www.w3.org/2000/svg" xml:space="preserve" width="120.65mm" height="603.238mm" version="1.1" style="shape-rendering:geometricPrecision; text-rendering:geometricPrecision; image-rendering:optimizeQuality; fill-rule:evenodd; clip-rule:evenodd"
viewBox="0 0 12065 60324"
 xmlns:xlink="http://www.w3.org/1999/xlink"
 enable-background="new 0 0 92.5 92.5">
 <defs>
  <style type="text/css">
   <![CDATA[
    .str0 {stroke:#373435;stroke-width:26.46}
    .str3 {stroke:#30719E;stroke-width:26.46}
    .str2 {stroke:#CCCCCC;stroke-width:26.46}
    .str1 {stroke:white;stroke-width:26.46}
    .fil3 {fill:none}
    .fil1 {fill:#373435}
    .fil4 {fill:#30719E}
    .fil2 {fill:#CCCCCC}
    .fil0 {fill:white}
   ]]>
  </style>
 </defs>
 <g id="Camada_x0020_1">
  <metadata id="CorelCorpID_0Corel-Layer"/>
  <g id="_1488418703_group.svg">
   <circle class="fil0" cx="5828" cy="5879" r="3116"/>
   <g>
    <circle class="fil0 str0" cx="5828" cy="5879" r="2981"/>
   </g>
   <g>
    <circle class="fil1" cx="7188" cy="5345" r="557"/>
    <g>
     <g>
      <path class="fil1" d="M7343 6044l-115 212 -130 -212c-413,-3 -713,0 -713,431 0,474 396,704 875,704 478,0 859,-230 859,-704 0,-436 -348,-434 -776,-431z"/>
     </g>
    </g>
   </g>
   <g>
    <circle class="fil1" cx="4269" cy="5345" r="557"/>
    <g>
     <g>
      <path class="fil1" d="M4424 6044l-115 212 -130 -212c-413,-3 -713,0 -713,431 0,474 396,704 875,704 478,0 859,-230 859,-704 0,-436 -348,-434 -776,-431z"/>
     </g>
    </g>
   </g>
   <circle class="fil1 str1" cx="5685" cy="4932" r="810"/>
   <g>
    <g>
     <path class="fil0" d="M5910 5951l-167 307 -190 -308c-601,-4 -1037,0 -1037,627 0,690 576,1025 1273,1025 697,0 1251,-335 1251,-1025 0,-635 -507,-631 -1130,-626z"/>
    </g>
    <g>
     <path class="fil1 str1" d="M5910 5951l-167 307 -190 -308c-601,-4 -1037,0 -1037,627 0,690 576,1025 1273,1025 697,0 1251,-335 1251,-1025 0,-635 -507,-631 -1130,-626z"/>
    </g>
   </g>
  </g>
  <g id="_1488418703_group.svg_0">
   <circle class="fil2" cx="5724" cy="30028" r="3116"/>
   <g>
    <circle class="fil2 str1" cx="5724" cy="30028" r="2981"/>
   </g>
   <g>
    <circle class="fil0" cx="7084" cy="29494" r="557"/>
    <g>
     <g>
      <path class="fil0" d="M7239 30194l-115 212 -130 -212c-413,-3 -713,0 -713,430 0,475 396,705 874,705 479,0 860,-230 860,-705 0,-435 -348,-433 -776,-430z"/>
     </g>
    </g>
   </g>
   <g>
    <circle class="fil0" cx="4165" cy="29494" r="557"/>
    <g>
     <g>
      <path class="fil0" d="M4319 30194l-114 212 -130 -212c-413,-3 -713,0 -713,430 0,475 395,705 874,705 479,0 859,-230 859,-705 1,-435 -348,-433 -776,-430z"/>
     </g>
    </g>
   </g>
   <circle class="fil0 str2" cx="5581" cy="29082" r="810"/>
   <g>
    <g>
     <path class="fil0" d="M5806 30100l-167 308 -190 -308c-601,-4 -1038,0 -1038,627 0,690 577,1025 1274,1025 697,0 1250,-335 1250,-1025 0,-635 -506,-631 -1129,-627z"/>
    </g>
    <g>
     <path class="fil3 str2" d="M5806 30100l-167 308 -190 -308c-601,-4 -1038,0 -1038,627 0,690 577,1025 1274,1025 697,0 1250,-335 1250,-1025 0,-635 -506,-631 -1129,-627z"/>
    </g>
   </g>
  </g>
  <g id="_1488418703_group.svg_1">
   <circle class="fil4" cx="5793" cy="54173" r="3116"/>
   <g>
    <circle class="fil4 str1" cx="5793" cy="54173" r="2981"/>
   </g>
   <g>
    <circle class="fil0" cx="7153" cy="53639" r="557"/>
    <g>
     <g>
      <path class="fil0" d="M7307 54339l-114 211 -131 -212c-413,-3 -713,0 -713,431 0,474 396,704 875,704 479,0 859,-230 859,-704 0,-436 -348,-434 -776,-430z"/>
     </g>
    </g>
   </g>
   <g>
    <circle class="fil0" cx="4234" cy="53639" r="557"/>
    <g>
     <g>
      <path class="fil0" d="M4388 54339l-114 211 -131 -212c-413,-3 -713,0 -713,431 0,474 396,704 875,704 479,0 859,-230 859,-704 0,-436 -348,-434 -776,-430z"/>
     </g>
    </g>
   </g>
   <circle class="fil0 str3" cx="5649" cy="53226" r="810"/>
   <g>
    <g>
     <path class="fil0" d="M5874 54245l-167 307 -189 -307c-601,-5 -1038,-1 -1038,626 0,690 576,1025 1273,1025 697,0 1251,-335 1251,-1025 0,-635 -507,-631 -1130,-626z"/>
    </g>
    <g>
     <path class="fil3 str3" d="M5874 54245l-167 307 -189 -307c-601,-5 -1038,-1 -1038,626 0,690 576,1025 1273,1025 697,0 1251,-335 1251,-1025 0,-635 -507,-631 -1130,-626z"/>
    </g>
   </g>
  </g>
 </g>
</svg>
