<?xml version="1.0" encoding="UTF-8"?>
<!DOCTYPE svg PUBLIC "-//W3C//DTD SVG 1.1//EN" "http://www.w3.org/Graphics/SVG/1.1/DTD/svg11.dtd">
<!-- Creator: CorelDRAW X7 -->
<svg xmlns="http://www.w3.org/2000/svg" xml:space="preserve" width="120.65mm" height="603.238mm" version="1.1" style="shape-rendering:geometricPrecision; text-rendering:geometricPrecision; image-rendering:optimizeQuality; fill-rule:evenodd; clip-rule:evenodd"
viewBox="0 0 12065 60324"
 xmlns:xlink="http://www.w3.org/1999/xlink"
 enable-background="new 0 90 612 612">
 <defs>
  <style type="text/css">
   <![CDATA[
    .fil2 {fill:#30719E}
    .fil1 {fill:#CCCCCC}
    .fil0 {fill:white}
   ]]>
  </style>
 </defs>
 <g id="Camada_x0020_1">
  <metadata id="CorelCorpID_0Corel-Layer"/>
  <g id="_1488421400_slideshare.svg">
   <path class="fil0" d="M5799 9493c-1841,0 -3333,-1492 -3333,-3333 0,-1841 1492,-3333 3333,-3333 1841,0 3333,1492 3333,3333 0,1841 -1492,3333 -3333,3333z"/>
   <g id="Layer_1_1_">
   </g>
   <path class="fil0" d="M5799 9493c1841,0 3333,-1492 3333,-3333 0,-888 -348,-1693 -913,-2291l-4741 4683c600,581 1419,941 2321,941z"/>
   <g>
    <path class="fil0" d="M7538 6037c-20,5 -39,16 -56,28 -9,6 -18,19 -27,14 -12,-5 -6,-20 -6,-31 0,-466 0,-934 0,-1400 0,-42 -5,-85 -18,-125 -47,-150 -184,-248 -331,-247 -436,3 -872,1 -1307,1 -441,0 -882,0 -1322,0 -46,0 -91,10 -133,30 -130,68 -200,179 -201,324 -3,475 -1,949 -1,1424 0,9 4,20 -4,25 -9,6 -17,-4 -23,-9 -24,-17 -48,-32 -78,-36 -43,-7 -80,26 -84,69 -3,43 14,74 39,105 46,57 100,108 156,155 175,146 370,257 579,345 25,10 28,22 22,46 -45,165 -75,333 -65,505 8,148 37,291 114,419 132,225 321,355 591,350 64,-1 121,-23 176,-51 58,-30 103,-75 134,-132 35,-61 49,-129 49,-197 1,-159 0,-319 0,-478 0,-74 0,-147 0,-221 0,-20 6,-28 27,-21 12,4 24,6 35,9 35,8 35,8 35,45 0,216 0,432 0,647 0,33 3,66 9,98 29,158 150,279 312,299 63,7 128,6 193,-9 184,-40 320,-145 418,-301 94,-150 132,-317 137,-492 3,-160 -24,-317 -67,-471 -6,-26 -2,-36 22,-46 166,-70 324,-154 469,-259 96,-70 187,-147 265,-239 20,-24 33,-50 39,-81 11,-62 -38,-107 -98,-92zm-300 177c-229,119 -472,187 -729,205 -121,9 -242,6 -363,0 -53,-2 -105,-6 -157,5 -79,16 -128,62 -144,141 -6,28 -8,30 -32,11 -38,-28 -74,-59 -108,-93 -55,-56 -126,-69 -200,-67 -134,5 -267,12 -401,4 -151,-8 -300,-34 -445,-78 -104,-32 -203,-72 -300,-122 -14,-8 -19,-17 -19,-33 0,-456 0,-911 1,-1368 0,-49 1,-98 8,-147 19,-123 85,-186 211,-196 24,-2 46,-3 70,-3 390,0 780,0 1170,0 394,0 790,0 1184,0 32,0 62,3 93,10 93,20 149,79 171,171 9,42 15,85 15,128 0,463 0,925 1,1388 1,23 -7,35 -26,44z"/>
    <path class="fil0" d="M5307 5399c-122,2 -220,32 -306,99 -202,154 -220,451 -38,622 162,152 403,175 590,55 183,-116 247,-344 147,-537 -86,-162 -230,-231 -393,-239z"/>
    <path class="fil0" d="M6343 5399c-105,2 -200,31 -284,93 -180,133 -224,384 -98,562 140,196 416,255 623,132 192,-114 265,-327 180,-526 -65,-154 -240,-261 -421,-261z"/>
   </g>
   <path class="fil0" d="M7538 6037c-20,5 -39,16 -56,28 -9,6 -18,19 -27,14 -12,-5 -6,-20 -6,-31 0,-466 0,-934 0,-1400 0,-5 0,-12 0,-17l-185 183c0,453 0,905 1,1358 0,22 -6,34 -26,43 -229,119 -472,187 -729,205 -121,9 -242,6 -362,0 -54,-2 -106,-6 -158,5 -79,16 -128,62 -144,141 -6,29 -8,30 -32,11 -38,-28 -74,-59 -108,-93 -25,-25 -52,-41 -81,-52l-938 926c14,113 46,222 105,321 132,225 321,355 591,350 64,-1 121,-23 176,-51 58,-30 103,-75 134,-132 35,-61 49,-129 49,-197 1,-159 0,-319 0,-478 0,-74 0,-147 0,-221 0,-20 6,-28 27,-21 12,4 24,6 35,9 35,8 35,8 35,45 0,216 0,432 0,647 0,33 3,66 9,98 29,158 150,279 312,299 63,7 128,6 193,-9 184,-40 320,-145 418,-301 94,-150 132,-317 137,-492 3,-160 -24,-317 -67,-471 -6,-26 -2,-36 22,-46 166,-70 324,-154 469,-259 96,-70 187,-147 265,-239 20,-24 33,-50 39,-81 11,-62 -38,-107 -98,-92zm-955 149c192,-114 265,-327 180,-526 -33,-77 -93,-143 -167,-188l-616 608c145,176 406,224 603,106z"/>
  </g>
  <g id="_1488421400_slideshare.svg_0">
   <path class="fil1" d="M5816 33702c-1841,0 -3333,-1492 -3333,-3333 0,-1841 1492,-3333 3333,-3333 1840,0 3332,1492 3332,3333 0,1841 -1492,3333 -3332,3333z"/>
   <g id="Layer_1_1__1">
   </g>
   <path class="fil1" d="M5816 33702c1840,0 3332,-1492 3332,-3333 0,-888 -347,-1693 -912,-2290l-4741 4682c600,581 1419,941 2321,941z"/>
   <g>
    <path class="fil0" d="M7555 30246c-21,5 -39,16 -57,28 -8,6 -17,19 -27,14 -12,-5 -5,-20 -5,-31 0,-466 0,-934 0,-1400 0,-42 -6,-85 -19,-125 -47,-150 -184,-248 -331,-247 -436,3 -871,1 -1307,1 -440,0 -881,0 -1321,0 -47,0 -92,10 -133,30 -131,68 -200,179 -201,324 -4,475 -2,950 -2,1424 0,9 5,20 -4,26 -9,5 -16,-5 -23,-10 -24,-17 -48,-32 -77,-36 -44,-7 -81,26 -84,70 -3,42 13,74 38,104 47,57 100,108 157,155 174,146 369,257 578,345 25,10 29,22 22,46 -45,165 -74,333 -64,505 7,148 37,291 113,419 133,225 321,356 592,350 64,-1 120,-23 176,-51 58,-30 102,-75 134,-132 35,-61 49,-128 49,-197 1,-159 0,-319 0,-478 0,-74 0,-147 0,-221 0,-20 5,-28 26,-21 12,4 24,7 36,9 35,8 35,8 35,45 0,216 0,432 0,647 0,33 2,66 9,98 29,158 150,279 311,299 63,8 129,6 194,-9 184,-40 319,-145 417,-300 95,-151 133,-317 137,-493 4,-160 -24,-317 -66,-471 -7,-25 -2,-36 22,-46 165,-70 323,-154 468,-259 97,-70 187,-147 266,-239 19,-24 32,-50 39,-80 11,-63 -38,-108 -98,-93zm-301 178c-228,118 -471,186 -728,204 -121,9 -242,6 -363,0 -53,-2 -106,-6 -158,5 -78,16 -127,62 -144,141 -5,29 -7,30 -31,11 -38,-28 -74,-59 -108,-92 -56,-57 -126,-70 -200,-68 -134,5 -267,12 -401,4 -152,-8 -301,-33 -446,-78 -103,-32 -202,-72 -299,-122 -14,-8 -20,-16 -20,-33 0,-456 0,-911 1,-1368 0,-49 1,-98 9,-147 18,-123 85,-186 210,-196 24,-2 47,-3 71,-3 390,0 780,0 1170,0 394,0 789,0 1184,0 31,0 62,3 92,10 94,20 149,79 171,171 10,42 15,85 15,128 0,463 0,925 2,1388 1,23 -7,35 -27,45z"/>
    <path class="fil0" d="M5323 29608c-122,2 -220,32 -306,99 -201,154 -220,451 -38,622 162,152 403,175 590,55 183,-116 248,-344 147,-537 -86,-162 -229,-231 -393,-239z"/>
    <path class="fil0" d="M6359 29608c-104,2 -199,31 -283,93 -181,133 -224,384 -98,562 139,196 416,255 623,132 192,-114 265,-327 180,-526 -66,-153 -240,-261 -422,-261z"/>
   </g>
   <path class="fil0" d="M7555 30246c-21,5 -39,16 -57,28 -8,6 -17,19 -27,14 -12,-5 -5,-20 -5,-31 0,-466 0,-934 0,-1400 0,-5 0,-12 0,-17l-185 183c0,453 0,905 1,1358 0,22 -7,34 -27,44 -228,118 -471,186 -728,204 -121,9 -242,6 -363,0 -53,-2 -106,-6 -158,5 -78,16 -127,62 -144,141 -5,29 -7,30 -31,11 -38,-28 -74,-59 -108,-92 -25,-25 -52,-42 -82,-53l-937 926c14,113 45,222 104,321 133,225 321,356 592,350 64,-1 120,-23 176,-51 58,-30 102,-75 134,-132 35,-61 49,-128 49,-197 1,-159 0,-319 0,-478 0,-74 0,-147 0,-221 0,-20 5,-28 26,-21 12,4 24,7 36,9 35,8 35,8 35,45 0,216 0,432 0,647 0,33 2,66 9,98 29,158 150,279 311,299 63,8 129,6 194,-9 184,-40 319,-145 417,-300 95,-151 133,-317 137,-493 4,-160 -24,-317 -66,-471 -7,-25 -2,-36 22,-46 165,-70 323,-154 468,-259 97,-70 187,-147 266,-239 19,-24 32,-50 39,-80 11,-63 -38,-108 -98,-93zm-955 149c191,-114 264,-327 180,-526 -33,-77 -93,-143 -167,-188l-617 609c145,175 407,223 604,105z"/>
  </g>
  <g id="_1488421400_slideshare.svg_2">
   <path class="fil2" d="M5787 57817c-1841,0 -3333,-1492 -3333,-3333 0,-1841 1492,-3333 3333,-3333 1841,0 3333,1492 3333,3333 0,1841 -1492,3333 -3333,3333z"/>
   <g id="Layer_1_1__3">
   </g>
   <path class="fil2" d="M5787 57817c1841,0 3333,-1492 3333,-3333 0,-888 -347,-1693 -913,-2291l-4741 4683c600,581 1419,941 2321,941z"/>
   <g>
    <path class="fil0" d="M7527 54361c-21,5 -40,16 -57,28 -9,6 -17,19 -27,14 -12,-5 -6,-20 -6,-31 0,-466 0,-934 0,-1400 0,-42 -5,-85 -18,-125 -47,-150 -184,-248 -331,-247 -436,3 -872,1 -1307,1 -440,0 -881,0 -1322,0 -46,0 -91,10 -132,30 -131,68 -201,179 -202,324 -3,475 -1,949 -1,1424 0,9 4,20 -4,25 -9,6 -17,-4 -23,-9 -24,-17 -48,-32 -78,-36 -43,-7 -80,26 -83,69 -4,43 13,74 38,105 47,57 100,108 157,155 174,146 369,257 578,345 25,10 28,22 22,46 -45,165 -74,333 -65,505 8,148 37,291 114,419 133,225 321,355 591,350 64,-1 121,-23 177,-51 57,-30 102,-75 134,-132 34,-61 49,-129 49,-197 1,-159 0,-319 0,-478 0,-74 0,-147 0,-221 0,-20 5,-28 26,-21 12,4 24,6 36,9 34,8 34,8 34,45 0,216 0,432 0,647 0,33 3,66 9,98 30,158 151,279 312,299 63,7 128,6 194,-9 184,-40 319,-145 417,-301 94,-150 133,-317 137,-492 3,-160 -24,-317 -66,-472 -7,-25 -3,-35 21,-45 166,-70 324,-154 469,-259 97,-70 187,-148 265,-239 20,-24 33,-50 40,-81 11,-62 -38,-107 -98,-92zm-301 177c-229,119 -472,187 -729,205 -121,9 -241,6 -362,0 -54,-2 -106,-6 -158,4 -79,17 -128,63 -144,142 -6,28 -8,29 -32,11 -38,-28 -74,-59 -107,-93 -56,-56 -127,-69 -201,-67 -134,5 -267,12 -401,4 -151,-9 -300,-34 -445,-78 -104,-32 -203,-72 -300,-122 -14,-8 -19,-17 -19,-33 0,-456 0,-912 1,-1368 0,-49 1,-98 9,-147 18,-123 84,-186 210,-196 24,-2 47,-3 71,-3 389,0 779,0 1169,0 395,0 790,0 1184,0 32,0 62,3 93,10 93,20 149,79 171,171 10,42 15,85 15,128 0,463 0,925 1,1388 1,23 -6,35 -26,44z"/>
    <path class="fil0" d="M5295 53723c-122,2 -220,32 -306,99 -202,154 -220,451 -38,622 162,152 403,175 590,55 183,-116 247,-344 147,-537 -86,-162 -230,-231 -393,-239z"/>
    <path class="fil0" d="M6331 53723c-105,2 -200,31 -283,93 -181,133 -225,384 -99,562 140,196 417,255 623,132 192,-114 265,-327 180,-526 -65,-154 -239,-261 -421,-261z"/>
   </g>
   <path class="fil0" d="M7527 54361c-21,5 -40,16 -57,28 -9,6 -17,19 -27,14 -12,-5 -6,-20 -6,-31 0,-466 0,-934 0,-1400 0,-5 0,-12 0,-17l-185 183c0,453 0,905 1,1358 0,22 -6,34 -26,43 -229,119 -472,187 -729,205 -120,9 -241,6 -362,0 -54,-2 -106,-6 -158,5 -79,16 -128,62 -144,141 -5,28 -8,30 -32,11 -38,-28 -74,-59 -107,-93 -25,-25 -53,-41 -82,-52l-938 926c14,113 46,222 105,321 133,225 321,355 591,350 64,-1 121,-23 177,-51 57,-30 102,-75 134,-132 34,-61 49,-129 49,-197 1,-159 0,-319 0,-478 0,-74 0,-147 0,-221 0,-20 5,-28 26,-21 12,4 24,6 36,9 34,8 34,8 34,45 0,216 0,432 0,647 0,33 3,66 9,98 30,158 151,279 312,299 63,7 128,6 194,-9 184,-40 319,-145 417,-301 94,-150 133,-317 137,-492 3,-160 -24,-317 -66,-472 -7,-25 -3,-35 21,-45 166,-70 324,-154 469,-259 97,-70 187,-148 265,-239 20,-24 33,-50 40,-81 11,-62 -38,-107 -98,-92zm-956 149c192,-114 265,-327 180,-526 -33,-77 -92,-143 -167,-188l-616 608c145,176 406,224 603,106z"/>
  </g>
 </g>
</svg>
