<svg xmlns="http://www.w3.org/2000/svg" xml:space="preserve" width="120.65mm" height="603.25mm" version="1.1" style="shape-rendering:geometricPrecision; text-rendering:geometricPrecision; image-rendering:optimizeQuality; fill-rule:evenodd; clip-rule:evenodd"
viewBox="0 0 9956 49779"
 xmlns:xlink="http://www.w3.org/1999/xlink">
 <!-- Created by: Treedbox, treedbox.com.br -->
 <defs>
  <style type="text/css">
   <![CDATA[
    .fil0 {fill:none}
    .fil3 {fill:black}
    .fil2 {fill:#CCCBCB}
    .fil1 {fill:white}
   ]]>
  </style>
 </defs>
 <g id="geo">
  <polygon class="fil0" points="0,0 9956,0 9956,49779 0,49779 "/>
  <g id="_596989456">
   <path class="fil1" d="M5638 2507l309 689 715 165 -206 726 442 587 -625 423 -38 734 -751 -77 -501 537 -526 -542 -729 90 -54 -753 -616 -400 442 -612 -215 -702 732 -185 287 -676 679 329 655 -333zm-190 526c723,260 1098,1057 837,1780 -260,723 -1057,1097 -1780,837 -723,-261 -1097,-1058 -837,-1780 261,-723 1058,-1098 1780,-837z"/>
   <circle class="fil1" cx="4997" cy="4345" r="1203"/>
   <polygon class="fil1" points="4413,5870 4413,6484 4976,6196 5580,6484 5580,5876 5915,5898 5915,7449 4964,6996 4079,7449 4079,5897 "/>
  </g>
  <g id="_596986832">
   <path class="fil2" d="M5638 22418l309 689 715 165 -206 726 442 587 -625 424 -38 733 -751 -77 -501 538 -526 -542 -729 89 -54 -752 -616 -401 442 -611 -215 -703 732 -184 287 -677 679 330 655 -334zm-190 526c723,260 1098,1058 837,1780 -260,723 -1057,1098 -1780,837 -723,-260 -1097,-1057 -837,-1780 261,-723 1058,-1097 1780,-837z"/>
   <circle class="fil2" cx="4997" cy="24256" r="1203"/>
   <polygon class="fil2" points="4413,25781 4413,26395 4976,26107 5580,26395 5580,25787 5915,25810 5915,27361 4964,26908 4079,27361 4079,25808 "/>
  </g>
  <g id="_596987248">
   <path class="fil3" d="M5638 42330l309 689 715 165 -206 726 442 587 -625 423 -38 734 -751 -77 -501 537 -526 -542 -729 90 -54 -753 -616 -400 442 -612 -215 -702 732 -185 287 -676 679 329 655 -333zm-190 526c723,260 1098,1057 837,1780 -260,723 -1057,1097 -1780,837 -723,-261 -1097,-1058 -837,-1780 261,-723 1058,-1098 1780,-837z"/>
   <circle class="fil3" cx="4997" cy="44168" r="1203"/>
   <polygon class="fil3" points="4413,45693 4413,46307 4976,46019 5580,46307 5580,45699 5915,45721 5915,47272 4964,46819 4079,47272 4079,45720 "/>
  </g>
 </g>
</svg>