<svg xmlns="http://www.w3.org/2000/svg" width="120.65mm" height="120.65mm" style="fill-rule:evenodd"
     viewBox="0 0 1740 2239">
    <!--by TreedBox.com.br-->
    <defs>
        <style type="text/css">
            <![CDATA[
    .fil0 {fill:#00796B}
    .fil1 {fill:#FFC107}
   ]]>
        </style>
    </defs>
    <g id="geo">
        <g id="_373426311040">
            <path class="fil0"
                  d="M1169 0l140 312 324 75 -93 329 200 266 -283 191 -17 333 -341 -35 -226 243 -239 -245 -330 40 -25 -340 -279 -182 200 -277 -97 -318 332 -84 130 -306 308 149 296 -151 0 0zm-86 238c328,118 498,479 379,806 -118,328 -478,498 -806,380 -327,-118 -497,-479 -379,-807 118,-327 479,-497 806,-379z"/>
            <circle class="fil1" cx="878" cy="833" r="545"/>
            <polygon class="fil0"
                     points="614,1523 614,1801 869,1671 1143,1801 1143,1526 1295,1536 1295,2239 864,2034 463,2239 463,1536 "/>
        </g>
    </g>
</svg>