<svg xmlns="http://www.w3.org/2000/svg" width="120.65mm" height="603.25mm" viewBox="0 0 9956 49779">
 <!-- Created by: Treedbox, treedbox.com.br -->
 <defs>
  <style type="text/css">
   <![CDATA[
    .fil0 {fill:none}
    .fil3 {fill:#000}
    .fil2 {fill:#ccc}
    .fil1 {fill:#fff}
   ]]>
  </style>
 </defs>
 <g id="geo">
<rect class="fil0" width="9956" height="49779"/>
  <path class="fil1" d="M4374 2507l1221 0c256,0 465,209 465,464l0 322 683 0 -707 1243 -819 0c-22,-112 -121,-196 -239,-196 -118,0 -217,84 -239,196l-819 0 -708 -1243 697 0 0 -322c0,-255 209,-464 465,-464zm2499 786l541 0c234,0 425,191 425,425l0 3306c0,234 -191,425 -425,425l-4873 0c-233,0 -425,-191 -425,-425l0 -3306c0,-234 192,-425 425,-425l542 0 756 1328 9 0 121 0 768 0c18,117 119,206 241,206 122,0 223,-89 241,-206l768 0 121 0 9 0 756 -1328zm-1132 0l0 -186c0,-195 -160,-355 -355,-355l-803 0c-195,0 -355,160 -355,355l0 186 1513 0z"/>
  <path class="fil2" d="M4374 22418l1221 0c256,0 465,209 465,465l0 322 683 0 -707 1242 -819 0c-22,-111 -121,-196 -239,-196 -118,0 -217,85 -239,196l-819 0 -708 -1242 697 0 0 -322c0,-256 209,-465 465,-465zm2499 787l541 0c234,0 425,191 425,424l0 3307c0,233 -191,424 -425,424l-4873 0c-233,0 -425,-191 -425,-424l0 -3307c0,-233 192,-424 425,-424l542 0 756 1328 9 0 121 0 768 0c18,116 119,206 241,206 122,0 223,-90 241,-206l768 0 121 0 9 0 756 -1328zm-1132 0l0 -186c0,-196 -160,-356 -355,-356l-803 0c-195,0 -355,160 -355,356l0 186 1513 0z"/>
  <path class="fil3" d="M4374 42330l1221 0c256,0 465,209 465,464l0 322 683 0 -707 1243 -819 0c-22,-112 -121,-196 -239,-196 -118,0 -217,84 -239,196l-819 0 -708 -1243 697 0 0 -322c0,-255 209,-464 465,-464zm2499 786l541 0c234,0 425,191 425,425l0 3306c0,234 -191,425 -425,425l-4873 0c-233,0 -425,-191 -425,-425l0 -3306c0,-234 192,-425 425,-425l542 0 756 1328 9 0 121 0 768 0c18,117 119,206 241,206 122,0 223,-89 241,-206l768 0 121 0 9 0 756 -1328zm-1132 0l0 -186c0,-195 -160,-355 -355,-355l-803 0c-195,0 -355,160 -355,355l0 186 1513 0z"/>
 </g>
</svg>