<svg xmlns="http://www.w3.org/2000/svg" width="120.65mm" height="603.25mm" style="fill-rule:evenodd" viewBox="0 0 9956 49779">
 <!--by TreedBox.com.br-->
 <defs>
  <style type="text/css">
   <![CDATA[
    .fil0 {fill:none}
    .fil3 {fill:#30719E}
    .fil2 {fill:#CCCBCB}
    .fil1 {fill:white}
   ]]>
  </style>
 </defs>
 <g id="geo">
  <polygon class="fil0" points="0,0 9956,0 9956,49779 0,49779 "/>
  <path class="fil1" d="M4273 3661c-147,-71 -285,-154 -412,-248 -36,25 -70,51 -104,79l0 0c-410,338 -645,809 -693,1298 -48,491 91,999 428,1409 338,410 809,645 1298,693 491,47 999,-92 1409,-429 410,-337 645,-808 693,-1297 47,-491 -92,-999 -429,-1409l0 0c-19,-24 -40,-47 -60,-70 -656,294 -1431,308 -2130,-26zm-300 1165l500 0 0 180 -500 0 0 -180zm1510 0l499 0 0 180 -499 0 0 -180zm-1572 2380c-615,-294 -1053,-810 -1263,-1406 -208,-589 -194,-1257 91,-1866l0 -2 10 -21c295,-615 811,-1053 1407,-1263 589,-208 1257,-194 1866,91l1 0 22 10c615,295 1053,811 1263,1407 210,596 193,1273 -102,1889 -294,615 -810,1053 -1406,1263 -597,210 -1273,193 -1889,-102z"/>
  <path class="fil2" d="M4273 23572c-147,-71 -285,-154 -412,-248 -36,25 -70,52 -104,80l0 0c-410,337 -645,808 -693,1298 -48,490 91,998 428,1408 338,411 809,645 1298,693 491,48 999,-91 1409,-428 410,-337 645,-809 693,-1298 47,-490 -92,-999 -429,-1409l0 0c-19,-24 -40,-47 -60,-70 -656,294 -1431,309 -2130,-26zm-300 1166l500 0 0 180 -500 0 0 -180zm1510 0l499 0 0 180 -499 0 0 -180zm-1572 2380c-615,-295 -1053,-811 -1263,-1406 -208,-590 -194,-1257 91,-1867l0 -1 10 -21c295,-616 811,-1053 1407,-1264 589,-207 1257,-193 1866,91l1 1 22 10c615,294 1053,810 1263,1406 210,597 193,1274 -102,1889 -294,616 -810,1053 -1406,1263 -597,211 -1273,193 -1889,-101z"/>
  <path class="fil3" d="M4273 43484c-147,-71 -285,-154 -412,-248 -36,25 -70,51 -104,79l0 0c-410,338 -645,809 -693,1298 -48,491 91,999 428,1409 338,410 809,645 1298,692 491,48 999,-91 1409,-428 410,-337 645,-808 693,-1298 47,-490 -92,-998 -429,-1408l0 0c-19,-24 -40,-48 -60,-70 -656,294 -1431,308 -2130,-26zm-300 1165l500 0 0 180 -500 0 0 -180zm1510 0l499 0 0 180 -499 0 0 -180zm-1572 2380c-615,-294 -1053,-810 -1263,-1406 -208,-589 -194,-1257 91,-1866l0 -2 10 -21c295,-615 811,-1053 1407,-1263 589,-208 1257,-194 1866,91l1 0 22 10c615,295 1053,811 1263,1407 210,596 193,1273 -102,1889 -294,615 -810,1053 -1406,1263 -597,210 -1273,193 -1889,-102z"/>
 </g>
</svg>