<?xml version="1.0" encoding="UTF-8"?>
<!DOCTYPE svg PUBLIC "-//W3C//DTD SVG 1.1//EN" "http://www.w3.org/Graphics/SVG/1.1/DTD/svg11.dtd">
<!-- Creator: CorelDRAW X7 -->
<svg xmlns="http://www.w3.org/2000/svg" xml:space="preserve" width="120.65mm" height="603.238mm" version="1.1" style="shape-rendering:geometricPrecision; text-rendering:geometricPrecision; image-rendering:optimizeQuality; fill-rule:evenodd; clip-rule:evenodd"
viewBox="0 0 12065 60324"
 xmlns:xlink="http://www.w3.org/1999/xlink">
 <defs>
  <style type="text/css">
   <![CDATA[
    .fil2 {fill:#30719E}
    .fil1 {fill:#CCCCCC}
    .fil0 {fill:white}
   ]]>
  </style>
 </defs>
 <g id="Camada_x0020_1">
  <metadata id="CorelCorpID_0Corel-Layer"/>
  <g id="_2141873156592">
   <path class="fil0" d="M3389 8139c13,-35 38,-375 49,-453 55,-408 133,-854 337,-1197 176,-297 626,-326 1003,-530 51,-28 115,-60 160,-92 77,-55 70,-56 126,-131 31,32 127,290 271,448 78,85 59,86 185,177 69,49 173,92 277,86 378,-21 588,-510 725,-721 71,123 124,155 263,222 285,140 676,207 989,486 174,154 333,846 380,1093 14,79 45,399 60,436l0 -5279 -4825 0 0 5455z"/>
   <path class="fil0" d="M3389 8139l0 116c81,231 -52,202 372,357 347,126 820,221 1191,271 98,14 616,61 659,80l502 0c30,-12 545,-54 640,-67 277,-39 1185,-209 1374,-381 112,-102 42,-126 87,-260l0 -292c-15,-37 -46,-357 -60,-436 -47,-247 -206,-939 -380,-1093 -313,-279 -704,-346 -989,-486 -139,-67 -192,-99 -263,-222 -137,211 -347,700 -725,721 -104,6 -208,-37 -277,-86 -126,-91 -107,-92 -185,-177 -144,-158 -240,-416 -271,-448 -56,75 -49,76 -126,131 -45,32 -109,64 -160,92 -377,204 -827,233 -1003,530 -204,343 -282,789 -337,1197 -11,78 -36,418 -49,453z"/>
   <path class="fil0" d="M5616 2945c-4,-6 -18,-5 -4,-47 -35,56 -73,21 -69,-11l-23 -48c-96,59 1,29 -170,121 -165,88 -358,254 -458,414 -91,147 -125,247 -128,453 -3,193 37,351 54,532l-67 16c-30,111 9,324 50,408 27,57 51,43 63,107 43,214 84,323 181,492 120,210 424,571 792,540 413,-35 738,-472 863,-800 20,-52 61,-240 75,-266 19,-33 41,-42 62,-98 24,-63 54,-222 54,-289 1,-77 -2,-88 -60,-110 14,-173 170,-516 -15,-879 -74,-146 -209,-266 -355,-337 -52,-26 -202,-92 -242,-100 -170,-36 -82,-50 -151,-66 -37,-8 -96,-82 -119,-114 -39,-55 -29,-72 -52,-126 -46,13 -80,53 -109,76l40 -90c-32,17 -31,23 -57,45 -20,18 -42,31 -62,49 -42,39 -64,102 -93,128z"/>
   <path class="fil0" d="M5645 7739c-99,8 -332,-17 -402,8 -13,40 -12,293 -2,347l404 4 1 409 349 2 4 -409 402 -4 3 -350 -404 -6 -2 -398 -348 0 -5 397z"/>
   <path class="fil0" d="M3389 8963l2222 0c-43,-19 -561,-66 -659,-80 -371,-50 -844,-145 -1191,-271 -424,-155 -291,-126 -372,-357l0 708z"/>
   <path class="fil0" d="M6113 8963l2101 0 0 -708c-45,134 25,158 -87,260 -189,172 -1097,342 -1374,381 -95,13 -610,55 -640,67z"/>
  </g>
  <g id="_2141873161648">
   <path class="fil0" d="M3389 32410c13,-35 38,-375 49,-453 55,-408 133,-853 337,-1197 176,-297 626,-326 1003,-530 51,-28 115,-60 160,-92 77,-55 70,-56 126,-130 31,31 127,289 271,447 78,85 59,86 185,177 69,49 173,92 277,86 378,-21 588,-510 725,-721 71,123 124,155 263,223 285,139 676,206 989,485 174,154 333,846 380,1093 14,79 45,399 60,436l0 -5279 -4825 0 0 5455z"/>
   <path class="fil1" d="M3389 32410l0 116c81,231 -52,202 372,357 347,127 820,221 1191,272 98,13 616,60 659,79l502 0c30,-12 545,-54 640,-67 277,-39 1185,-209 1374,-381 112,-102 42,-125 87,-260l0 -292c-15,-37 -46,-357 -60,-436 -47,-247 -206,-939 -380,-1093 -313,-279 -704,-346 -989,-485 -139,-68 -192,-100 -263,-223 -137,211 -347,700 -725,721 -104,6 -208,-37 -277,-86 -126,-91 -107,-92 -185,-177 -144,-158 -240,-416 -271,-447 -56,74 -49,75 -126,130 -45,32 -109,64 -160,92 -377,204 -827,233 -1003,530 -204,344 -282,789 -337,1197 -11,78 -36,418 -49,453z"/>
   <path class="fil1" d="M5616 27216c-4,-5 -18,-5 -4,-47 -35,57 -73,21 -69,-11l-23 -48c-96,59 1,30 -170,121 -165,88 -358,254 -458,414 -91,147 -125,247 -128,453 -3,193 37,351 54,532l-67 16c-30,111 9,324 50,408 27,57 51,43 63,108 43,213 84,322 181,491 120,210 424,571 792,540 413,-35 738,-472 863,-800 20,-52 61,-240 75,-266 19,-33 41,-41 62,-98 24,-63 54,-222 54,-289 1,-77 -2,-88 -60,-110 14,-173 170,-516 -15,-879 -74,-146 -209,-266 -355,-337 -52,-25 -202,-91 -242,-100 -170,-36 -82,-50 -151,-66 -37,-8 -96,-82 -119,-114 -39,-55 -29,-72 -52,-126 -46,13 -80,53 -109,76l40 -90c-32,17 -31,23 -57,46 -20,17 -42,30 -62,48 -42,39 -64,102 -93,128z"/>
   <path class="fil0" d="M5645 32010c-99,8 -332,-17 -402,8 -13,41 -12,294 -2,347l404 4 1 409 349 2 4 -409 402 -3 3 -351 -404 -6 -2 -398 -348 0 -5 397z"/>
   <path class="fil0" d="M3389 33234l2222 0c-43,-19 -561,-66 -659,-79 -371,-51 -844,-145 -1191,-272 -424,-155 -291,-126 -372,-357l0 708z"/>
   <path class="fil0" d="M6113 33234l2101 0 0 -708c-45,135 25,158 -87,260 -189,172 -1097,342 -1374,381 -95,13 -610,55 -640,67z"/>
  </g>
  <g id="_2142008977440">
   <path class="fil0" d="M3460 56399c13,-35 38,-375 48,-453 56,-408 134,-854 337,-1197 177,-297 627,-326 1004,-530 51,-28 115,-60 159,-92 78,-55 70,-56 127,-131 31,32 126,290 271,448 77,85 58,86 185,177 69,49 172,92 277,86 377,-21 588,-510 725,-721 70,123 124,155 262,223 285,139 676,206 990,485 173,154 333,846 379,1093 15,79 46,399 61,436l0 -5279 -4825 0 0 5455z"/>
   <path class="fil2" d="M3460 56399l0 116c80,231 -52,202 371,357 347,126 821,221 1192,272 98,13 616,60 659,79l502 0c30,-12 545,-54 640,-67 276,-39 1185,-209 1373,-381 113,-102 43,-126 88,-260l0 -292c-15,-37 -46,-357 -61,-436 -46,-247 -206,-939 -379,-1093 -314,-279 -705,-346 -990,-485 -138,-68 -192,-100 -262,-223 -137,211 -348,700 -725,721 -105,6 -208,-37 -277,-86 -127,-91 -108,-92 -185,-177 -145,-158 -240,-416 -271,-448 -57,75 -49,76 -127,131 -44,32 -108,64 -159,92 -377,204 -827,233 -1004,530 -203,343 -281,789 -337,1197 -10,78 -35,418 -48,453z"/>
   <path class="fil2" d="M5687 51205c-4,-6 -18,-5 -4,-47 -35,56 -74,21 -69,-11l-24 -48c-95,59 1,29 -169,121 -166,88 -358,254 -458,414 -91,147 -125,247 -128,453 -3,193 36,351 54,532l-68 16c-30,111 9,324 50,408 28,57 51,43 64,107 43,214 83,323 180,492 120,210 425,571 792,540 413,-35 739,-472 864,-800 19,-52 60,-240 75,-266 18,-33 41,-42 62,-98 23,-63 53,-222 54,-289 0,-77 -2,-88 -61,-110 14,-173 171,-516 -14,-879 -74,-146 -209,-266 -356,-337 -51,-26 -202,-92 -242,-100 -169,-36 -82,-50 -150,-66 -37,-8 -97,-82 -120,-114 -39,-55 -28,-72 -51,-126 -46,13 -81,53 -110,76l41 -90c-32,17 -32,23 -57,45 -20,18 -43,31 -62,49 -43,39 -65,102 -93,128z"/>
   <path class="fil0" d="M5716 55999c-99,8 -332,-17 -402,8 -14,40 -13,293 -2,347l404 4 1 409 349 2 4 -409 402 -4 2 -350 -404 -6 -1 -398 -348 0 -5 397z"/>
   <path class="fil0" d="M3460 57223l2222 0c-43,-19 -561,-66 -659,-79 -371,-51 -845,-146 -1192,-272 -423,-155 -291,-126 -371,-357l0 708z"/>
   <path class="fil0" d="M6184 57223l2101 0 0 -708c-45,134 25,158 -88,260 -188,172 -1097,342 -1373,381 -95,13 -610,55 -640,67z"/>
  </g>
 </g>
</svg>
