<?xml version="1.0" encoding="UTF-8"?>
<!DOCTYPE svg PUBLIC "-//W3C//DTD SVG 1.1//EN" "http://www.w3.org/Graphics/SVG/1.1/DTD/svg11.dtd">
<!-- Creator: CorelDRAW X7 -->
<svg xmlns="http://www.w3.org/2000/svg" xml:space="preserve" width="120.65mm" height="603.238mm" version="1.1" style="shape-rendering:geometricPrecision; text-rendering:geometricPrecision; image-rendering:optimizeQuality; fill-rule:evenodd; clip-rule:evenodd"
viewBox="0 0 12065 60324"
 xmlns:xlink="http://www.w3.org/1999/xlink"
 enable-background="new 0 0 24 24">
 <defs>
  <style type="text/css">
   <![CDATA[
    .fil1 {fill:#30719E}
    .fil2 {fill:#CCCCCC}
    .fil0 {fill:white}
   ]]>
  </style>
 </defs>
 <g id="Camada_x0020_1">
  <metadata id="CorelCorpID_0Corel-Layer"/>
  <g id="_1488419567_office-21.svg">
   <path class="fil0" d="M8662 6836l0 -3618c155,0 259,-104 259,-259 0,-155 -104,-258 -259,-258l-5686 0c-155,0 -259,103 -259,258 0,155 104,259 259,259l0 3618c-155,0 -259,104 -259,259 0,155 104,258 259,258l2093 0 -517 1189c-51,129 0,285 130,336 129,52 284,0 336,-129l594 -1396 388 0 594 1396c52,129 207,181 336,129 130,-51 181,-207 130,-336l-517 -1189 2119 0c155,0 259,-103 259,-258 0,-155 -104,-259 -259,-259zm-517 0l-4652 0 0 -3618 4652 0 0 3618z"/>
  </g>
  <g id="_1488419567_office-21.svg_0">
   <path class="fil1" d="M8662 55152l0 -3619c155,0 259,-103 259,-258 0,-155 -104,-259 -259,-259l-5686 0c-155,0 -259,104 -259,259 0,155 104,258 259,258l0 3619c-155,0 -259,104 -259,259 0,155 104,258 259,258l2093 0 -517 1189c-51,129 0,284 130,336 129,52 284,0 336,-129l594 -1396 388 0 594 1396c52,129 207,181 336,129 130,-52 181,-207 130,-336l-517 -1189 2119 0c155,0 259,-103 259,-258 0,-156 -104,-259 -259,-259zm-517 0l-4652 0 0 -3619 4652 0 0 3619z"/>
  </g>
  <g id="_1488419567_office-21.svg_1">
   <path class="fil2" d="M8662 31084l0 -3618c155,0 259,-104 259,-259 0,-155 -104,-258 -259,-258l-5686 0c-155,0 -259,103 -259,258 0,155 104,259 259,259l0 3618c-155,0 -259,104 -259,259 0,155 104,258 259,258l2093 0 -517 1189c-51,130 0,285 130,336 129,52 284,0 336,-129l594 -1396 388 0 594 1396c52,129 207,181 336,129 130,-51 181,-206 130,-336l-517 -1189 2119 0c155,0 259,-103 259,-258 0,-155 -104,-259 -259,-259zm-517 0l-4652 0 0 -3618 4652 0 0 3618z"/>
  </g>
 </g>
</svg>
