<svg xmlns="http://www.w3.org/2000/svg" width="120.65mm" height="603.25mm" style="fill-rule:evenodd"
     viewBox="0 0 9956 49779">
    <!--by TreedBox.com.br-->
    <defs>
        <style type="text/css">
            <![CDATA[
    .fil0 {fill:none}
    .fil3 {fill:black}
    .fil2 {fill:#CCCBCB}
    .fil1 {fill:white}
   ]]>
        </style>
    </defs>
    <g id="geo">
        <polygon class="fil0" points="0,0 9956,0 9956,49779 0,49779 "/>
        <path class="fil1"
              d="M3236 7449l3484 0 0 -3785 -1306 -1157 -2178 0 0 4942zm2596 -2864c156,-83 446,-280 521,0 76,282 -267,255 -451,261 -617,20 -1026,178 -1053,998 -4,139 -8,245 -28,320 -7,-3 -15,189 -232,131 -137,-36 -169,-109 -136,-230 20,-75 70,-169 135,-291 71,-132 153,-272 173,-421 15,-545 -175,-787 -606,-1055 -118,-73 -209,-130 -263,-184 5,-6 -157,-108 2,-268 100,-99 179,-91 267,-2 55,55 111,145 185,263 332,534 847,820 1486,478zm-935 560c4,-4 9,-9 13,-13 54,-88 118,-170 192,-248 -82,-7 -165,-21 -248,-42 7,31 41,302 43,303zm992 -453c-21,11 -43,23 -66,36 26,-1 51,-2 75,-3 130,-4 230,-7 292,-24 43,-11 59,-35 46,-84 -13,-50 -39,-62 -82,-50 0,0 -249,116 -265,125zm-1161 1148c1,-24 2,-49 3,-75 -12,23 -24,45 -36,66 -61,115 -108,203 -125,265 -12,43 0,69 50,82 50,13 73,-3 84,-46 0,0 24,-274 24,-292zm-509 -1645c20,13 41,26 64,40 -14,-22 -28,-44 -40,-64 -69,-111 -122,-196 -167,-241 -32,-32 -60,-34 -96,2 -37,37 -34,65 -3,96 0,0 226,157 242,167z"/>
        <path class="fil2"
              d="M3236 27360l3484 0 0 -3785 -1306 -1157 -2178 0 0 4942zm2596 -2863c156,-84 446,-281 521,0 76,281 -267,255 -451,261 -617,20 -1026,178 -1053,997 -4,139 -8,245 -28,320 -7,-2 -15,190 -232,132 -137,-37 -169,-109 -136,-231 20,-74 70,-168 135,-291 71,-131 153,-272 173,-421 15,-545 -175,-787 -606,-1055 -118,-73 -209,-129 -263,-184 5,-5 -157,-108 2,-267 100,-100 179,-91 267,-3 55,55 111,145 185,263 332,535 847,820 1486,479zm-935 560c4,-5 9,-9 13,-14 54,-88 118,-170 192,-247 -82,-7 -165,-22 -248,-43 7,31 41,302 43,304zm992 -453c-21,11 -43,23 -66,35 26,-1 51,-2 75,-2 130,-5 230,-8 292,-25 43,-11 59,-34 46,-84 -13,-50 -39,-61 -82,-50 0,0 -249,117 -265,126zm-1161 1147c1,-24 2,-49 3,-75 -12,23 -24,45 -36,66 -61,116 -108,204 -125,266 -12,42 0,68 50,81 50,14 73,-3 84,-45 0,0 24,-274 24,-293zm-509 -1645c20,13 41,26 64,40 -14,-22 -28,-43 -40,-64 -69,-111 -122,-196 -167,-241 -32,-31 -60,-34 -96,3 -37,36 -34,64 -3,96 0,0 226,157 242,166z"/>
        <path class="fil3"
              d="M3236 47272l3484 0 0 -3785 -1306 -1157 -2178 0 0 4942zm2596 -2864c156,-83 446,-280 521,0 76,282 -267,255 -451,261 -617,20 -1026,178 -1053,998 -4,139 -8,245 -28,320 -7,-2 -15,189 -232,131 -137,-36 -169,-109 -136,-230 20,-75 70,-169 135,-291 71,-132 153,-272 173,-421 15,-545 -175,-787 -606,-1055 -118,-73 -209,-130 -263,-184 5,-6 -157,-108 2,-268 100,-99 179,-91 267,-2 55,55 111,145 185,263 332,534 847,820 1486,478zm-935 560c4,-4 9,-9 13,-13 54,-88 118,-170 192,-248 -82,-7 -165,-21 -248,-42 7,31 41,302 43,303zm992 -453c-21,11 -43,23 -66,36 26,-1 51,-2 75,-3 130,-4 230,-7 292,-24 43,-11 59,-35 46,-84 -13,-50 -39,-62 -82,-50 0,0 -249,116 -265,125zm-1161 1148c1,-24 2,-49 3,-75 -12,23 -24,45 -36,66 -61,115 -108,203 -125,265 -12,43 0,69 50,82 50,13 73,-3 84,-46 0,0 24,-274 24,-292zm-509 -1645c20,13 41,26 64,40 -14,-22 -28,-44 -40,-64 -69,-111 -122,-196 -167,-241 -32,-32 -60,-34 -96,2 -37,37 -34,65 -3,96 0,0 226,157 242,167z"/>
    </g>
</svg>