<svg xmlns="http://www.w3.org/2000/svg" width="120.65mm" height="603.25mm" viewBox="0 0 9956 49779">
 <defs>
  <style type="text/css">
   <![CDATA[
    .fil0 {fill:none}
    .fil3 {fill:#30719E}
    .fil2 {fill:#CCCBCB}
    .fil1 {fill:white}
   ]]>
  </style>
 </defs>
 <g id="geo">
  <polygon class="fil0" points="0,0 9956,0 9956,49779 0,49779 "/>
  <path class="fil1" d="M3231 6735c1197,352 2138,-90 2925,-1100l-585 194 -1389 461 1413 -521 637 -234c152,-206 298,-433 438,-680l-187 62 -1388 460 1412 -520 203 -75c114,-206 224,-426 330,-659l-1033 342 1053 -388c251,-556 480,-1183 691,-1870l-4419 4423 -20 -20 4416 -4420c-683,269 -1343,545 -1942,839l-327 888 288 -869c-236,117 -463,237 -677,360l-3 9 -520 1412 458 -1383c-250,147 -483,299 -694,457l-156 426 -521 1413 461 -1389 126 -380c-943,738 -1418,1602 -1014,2741l-891 873c-77,71 -127,153 -107,174 19,19 86,-19 153,-84 381,-373 494,-530 869,-942z"/>
  <path class="fil2" d="M3231 26647c1197,351 2138,-91 2925,-1100l-585 194 -1389 460 1413 -520 637 -235c152,-205 298,-432 438,-679l-187 61 -1388 461 1412 -520 203 -75c114,-207 224,-427 330,-660l-1033 343 1053 -388c251,-557 480,-1184 691,-1870l-4419 4422 -20 -20 4416 -4420c-683,270 -1343,545 -1942,839l-327 889 288 -870c-236,117 -463,237 -677,361l-3 8 -520 1413 458 -1384c-250,147 -483,299 -694,458l-156 425 -521 1413 461 -1389 126 -380c-943,739 -1418,1603 -1014,2742l-891 873c-77,71 -127,153 -107,174 19,18 86,-19 153,-84 381,-373 494,-531 869,-942z"/>
  <path class="fil3" d="M3231 46558c1197,352 2138,-90 2925,-1100l-585 194 -1389 461 1413 -521 637 -234c152,-206 298,-433 438,-680l-187 62 -1388 460 1412 -520 203 -75c114,-206 224,-427 330,-659l-1033 342 1053 -388c251,-556 480,-1183 691,-1870l-4419 4423 -20 -20 4416 -4420c-683,269 -1343,545 -1942,839l-327 888 288 -869c-236,117 -463,237 -677,360l-3 9 -520 1412 458 -1383c-250,147 -483,299 -694,457l-156 426 -521 1412 461 -1388 126 -381c-943,739 -1418,1603 -1014,2742l-891 873c-77,71 -127,153 -107,174 19,19 86,-19 153,-84 381,-373 494,-530 869,-942z"/>
 </g>
</svg>