<svg xmlns="http://www.w3.org/2000/svg" width="120.65mm" height="603.25mm" style="fill-rule:evenodd"
     viewBox="0 0 9956 49779">
    <!-- Created by: Treedbox, treedbox.com.br -->
    <defs>
        <style type="text/css">
            <![CDATA[
    .fil0 {fill:none}
    .fil4 {fill:black}
    .fil1 {fill:#017cc2}
    .fil2 {fill:#FFDD00}
    .fil3 {fill:white}
   ]]>
        </style>
    </defs>
    <g id="geo">
        <polygon class="fil0" points="0,0 9956,0 9956,49779 0,49779 "/>
        <g id="_592671141728">
            <path class="fil1"
                  d="M2870 2370l4216 0c200,0 363,163 363,363l0 4216c0,199 -163,363 -363,363l-834 0c0,-275 -1,-549 -1,-824l132 0c133,0 242,-109 242,-242l0 -2811c0,-133 -109,-242 -242,-242l-2810 0c-134,0 -243,109 -243,242l0 2811c0,133 109,242 243,242l133 0c-4,273 -1,549 1,824l-837 0c-200,0 -363,-164 -363,-363l0 -4216c0,-200 163,-363 363,-363zm3961 4350c104,0 189,84 189,188 0,104 -85,188 -189,188 -104,0 -188,-84 -188,-188 0,-104 84,-188 188,-188z"/>
            <path class="fil2"
                  d="M4978 4284c334,0 605,271 605,604 0,334 -271,605 -605,605 -334,0 -605,-271 -605,-605 0,-333 271,-604 605,-604z"/>
            <path class="fil1"
                  d="M4623 5619l714 0c406,0 740,326 751,732 0,320 0,640 0,961l-2217 0c-2,-321 -7,-644 2,-961 0,-402 354,-732 750,-732z"/>
        </g>
        <g id="_592671141568">
            <path class="fil3"
                  d="M2870 22418l4216 0c200,0 363,164 363,363l0 4216c0,200 -163,364 -363,364l-834 0c0,-275 -1,-550 -1,-824l132 0c133,0 242,-109 242,-242l0 -2811c0,-133 -109,-242 -242,-242l-2810 0c-134,0 -243,109 -243,242l0 2811c0,133 109,242 243,242l133 0c-4,272 -1,549 1,824l-837 0c-200,0 -363,-164 -363,-364l0 -4216c0,-199 163,-363 363,-363zm3961 4350c104,0 189,85 189,189 0,104 -85,188 -189,188 -104,0 -188,-84 -188,-188 0,-104 84,-189 188,-189z"/>
            <path class="fil3"
                  d="M4978 24333c334,0 605,270 605,604 0,334 -271,604 -605,604 -334,0 -605,-270 -605,-604 0,-334 271,-604 605,-604z"/>
            <path class="fil3"
                  d="M4623 25668l714 0c406,0 740,326 751,731 0,321 0,641 0,962l-2217 0c-2,-321 -7,-645 2,-962 0,-401 354,-731 750,-731z"/>
        </g>
        <g id="_592671143008">
            <path class="fil4"
                  d="M2870 42330l4216 0c200,0 363,163 363,363l0 4216c0,200 -163,363 -363,363l-834 0c0,-275 -1,-549 -1,-824l132 0c133,0 242,-109 242,-242l0 -2811c0,-133 -109,-242 -242,-242l-2810 0c-134,0 -243,109 -243,242l0 2811c0,133 109,242 243,242l133 0c-4,273 -1,549 1,824l-837 0c-200,0 -363,-163 -363,-363l0 -4216c0,-200 163,-363 363,-363zm3961 4350c104,0 189,84 189,188 0,104 -85,188 -189,188 -104,0 -188,-84 -188,-188 0,-104 84,-188 188,-188z"/>
            <path class="fil4"
                  d="M4978 44244c334,0 605,271 605,604 0,334 -271,605 -605,605 -334,0 -605,-271 -605,-605 0,-333 271,-604 605,-604z"/>
            <path class="fil4"
                  d="M4623 45579l714 0c406,0 740,326 751,732 0,320 0,641 0,961l-2217 0c-2,-320 -7,-644 2,-961 0,-401 354,-732 750,-732z"/>
        </g>
    </g>
</svg>