<svg xmlns="http://www.w3.org/2000/svg" width="120.65mm" height="120.65mm" style="fill-rule:evenodd"
     viewBox="0 0 3477 3477">
    <!--by TreedBox.com.br-->
    <defs>
        <style type="text/css">
            <![CDATA[
    .fil0 {fill:none}
    .fil1 {fill:#017cc2}
    .fil2 {fill:#FFDD00}
   ]]>
        </style>
    </defs>
    <g id="geo">
        <rect class="fil0" transform="matrix(2.64845E-014 1 1 -2.64845E-014 0.00301558 0.00301558)" width="3477"
              height="3477"/>
        <g id="_1089559194064">
            <path class="fil1"
                  d="M255 0l2966 0c141,0 256,115 256,255l0 2966c0,141 -115,256 -256,256l-587 0c0,-194 0,-387 0,-580l93 0c94,0 170,-76 170,-170l0 -1977c0,-94 -76,-171 -170,-171l-1977 0c-94,0 -171,77 -171,171l0 1977c0,94 77,170 171,170l94 0c-3,192 -1,386 0,580l-589 0c-140,0 -255,-115 -255,-256l0 -2966c0,-140 115,-255 255,-255zm2787 3060c73,0 132,59 132,132 0,74 -59,133 -132,133 -73,0 -133,-59 -133,-133 0,-73 60,-132 133,-132z"/>
            <path class="fil2"
                  d="M1738 1347c235,0 426,190 426,425 0,235 -191,425 -426,425 -235,0 -425,-190 -425,-425 0,-235 190,-425 425,-425z"/>
            <path class="fil1"
                  d="M1489 2286l502 0c285,0 521,229 528,514 0,226 0,451 0,677l-1559 0c-2,-226 -5,-454 1,-677 0,-282 249,-514 528,-514z"/>
        </g>
    </g>
</svg>