<?xml version="1.0" encoding="UTF-8"?>
<!DOCTYPE svg PUBLIC "-//W3C//DTD SVG 1.1//EN" "http://www.w3.org/Graphics/SVG/1.1/DTD/svg11.dtd">
<!-- Creator: CorelDRAW X7 -->
<svg xmlns="http://www.w3.org/2000/svg" xml:space="preserve" width="120.65mm" height="603.238mm" version="1.1" style="shape-rendering:geometricPrecision; text-rendering:geometricPrecision; image-rendering:optimizeQuality; fill-rule:evenodd; clip-rule:evenodd"
viewBox="0 0 12065 60324"
 xmlns:xlink="http://www.w3.org/1999/xlink">
 <defs>
  <style type="text/css">
   <![CDATA[
    .str0 {stroke:#434242;stroke-width:42}
    .fil2 {fill:none}
    .fil3 {fill:#30719E}
    .fil1 {fill:#CCCCCC}
    .fil0 {fill:url(#id0)}
   ]]>
  </style>
  <linearGradient id="id0" gradientUnits="userSpaceOnUse" x1="5896.18" y1="2670.27" x2="5896.18" y2="9031.97">
   <stop offset="0" style="stop-opacity:1; stop-color:#FCFCFD"/>
   <stop offset="1" style="stop-opacity:1; stop-color:white"/>
  </linearGradient>
 </defs>
 <g id="Camada_x0020_1">
  <metadata id="CorelCorpID_0Corel-Layer"/>
  <g id="_1488849229_address-book.svg">
   <g>
    <path class="fil0 str0" d="M3715 9032l4362 0c273,0 500,-227 500,-500l0 -5362c0,-273 -227,-500 -500,-500l-4362 0c-273,0 -500,227 -500,500l0 5362c0,273 227,500 500,500z"/>
    <path class="fil1 str0" d="M9077 3428l0 454c0,121 -106,227 -227,227l-273 0 0 -909 273 0c121,0 227,106 227,228zm0 1136l0 454c0,121 -106,227 -227,227l-273 0 0 -909 273 0c121,0 227,106 227,228zm0 1136l0 454c0,121 -106,227 -227,227l-273 0 0 -909 273 0c121,0 227,106 227,228zm0 1136l0 454c0,121 -106,227 -227,227l-273 0 0 -909 273 0c121,0 227,106 227,228z"/>
    <path class="fil2 str0" d="M2897 3882l1060 0m-1060 985l1060 0m-1060 984l1060 0m-1060 985l1060 0m-1060 984l1060 0"/>
   </g>
  </g>
  <g id="_1488849229_address-book.svg_0">
   <g>
    <path class="fil1 str0" d="M3786 33206l4362 0c273,0 500,-227 500,-499l0 -5362c0,-273 -227,-500 -500,-500l-4362 0c-273,0 -500,227 -500,500l0 5362c0,272 227,499 500,499z"/>
    <path class="fil3 str0" d="M9148 27602l0 454c0,122 -106,228 -227,228l-273 0 0 -909 273 0c121,0 227,106 227,227zm0 1136l0 455c0,121 -106,227 -227,227l-273 0 0 -909 273 0c121,0 227,106 227,227zm0 1136l0 455c0,121 -106,227 -227,227l-273 0 0 -909 273 0c121,0 227,106 227,227zm0 1136l0 455c0,121 -106,227 -227,227l-273 0 0 -909 273 0c121,0 227,106 227,227z"/>
    <path class="fil2 str0" d="M2968 28056l1060 0m-1060 985l1060 0m-1060 985l1060 0m-1060 984l1060 0m-1060 985l1060 0"/>
   </g>
  </g>
  <g id="_1488849229_address-book.svg_1">
   <g>
    <path class="fil3 str0" d="M3806 57381l4362 0c273,0 500,-227 500,-500l0 -5362c0,-273 -227,-500 -500,-500l-4362 0c-273,0 -500,227 -500,500l0 5362c0,273 227,500 500,500z"/>
    <path class="fil1 str0" d="M9168 51777l0 454c0,121 -106,227 -227,227l-273 0 0 -909 273 0c121,0 227,106 227,228zm0 1136l0 454c0,121 -106,227 -227,227l-273 0 0 -909 273 0c121,0 227,106 227,228zm0 1136l0 454c0,121 -106,227 -227,227l-273 0 0 -909 273 0c121,0 227,106 227,228zm0 1136l0 454c0,121 -106,227 -227,227l-273 0 0 -909 273 0c121,0 227,106 227,228z"/>
    <path class="fil2 str0" d="M2988 52231l1060 0m-1060 984l1060 0m-1060 985l1060 0m-1060 985l1060 0m-1060 984l1060 0"/>
   </g>
  </g>
 </g>
</svg>
