<svg xmlns="http://www.w3.org/2000/svg" width="120.65mm" height="120.65mm" style="fill-rule:evenodd"
     viewBox="0 0 2138 2138">
    <!--by TreedBox.com.br-->
    <defs>
        <style type="text/css">
            <![CDATA[
    .fil0 {fill:none}
    .fil1 {fill:#00796b}
    .fil2 {fill:#FFC107}
   ]]>
        </style>
    </defs>
    <g id="geo">
        <g id="_1089559180656">
            <rect class="fil0" transform="matrix(2.64845E-014 -1 1 2.64845E-014 7.94552E-005 2060.95)" width="2061"
                  height="2061"/>
            <g>
                <path class="fil1"
                      d="M1306 0l128 287 299 69 -86 303 184 245 -260 176 -16 306 -313 -32 -209 224 -219 -226 -305 38 -22 -314 -257 -167 184 -256 -89 -292 305 -77 119 -282 284 137 273 -139 0 0zm-79 219c301,109 457,441 349,742 -109,302 -441,458 -743,350 -301,-109 -457,-441 -349,-743 109,-301 441,-458 743,-349z"/>
                <circle class="fil2" cx="1038" cy="766" r="501"/>
                <polygon class="fil1"
                         points="795,1402 795,1658 1030,1538 1282,1658 1282,1405 1421,1414 1421,2061 1025,1872 656,2061 656,1414 "/>
            </g>
        </g>
    </g>
</svg>