<svg xmlns="http://www.w3.org/2000/svg" xml:space="preserve" width="120.65mm" height="603.25mm" version="1.1" style="shape-rendering:geometricPrecision; text-rendering:geometricPrecision; image-rendering:optimizeQuality; fill-rule:evenodd; clip-rule:evenodd" viewBox="0 0 9956 49779" xmlns:xlink="http://www.w3.org/1999/xlink">
 <!-- Created by: Treedbox, treedbox.com.br -->
 <defs>
  <style type="text/css">
   <![CDATA[
    .fil0 {fill:none}
    .fil3 {fill:#000}
    .fil2 {fill:#fff}
    .fil1 {fill:#5D4037}
   ]]>
  </style>
 </defs>
 <g id="geo">
<rect class="fil0" width="9956" height="49779"/>
  <path class="fil1" d="M7679 6588c0,615 -2399,615 -2399,0l255 0 870 -2340 -1233 0 -170 3201 -48 0 -170 -3201 -1233 0 870 2340 254 0c0,615 -2399,615 -2399,0l255 0 893 -2401c92,-209 640,-374 1335,-403l-68 -1277 574 0 -68 1277c694,29 1243,194 1335,403l893 2401 254 0zm-4151 -2121l0 2121 788 0 -788 -2121zm-893 2121l789 0 0 -2121 -789 2121zm3004 0l789 0 0 -2121 -789 2121zm893 -2121l0 2121 789 0 -789 -2121z"/>
  <path class="fil2" d="M7679 26500c0,614 -2399,614 -2399,0l255 0 870 -2340 -1233 0 -170 3201 -48 0 -170 -3201 -1233 0 870 2340 254 0c0,614 -2399,614 -2399,0l255 0 893 -2402c92,-208 640,-373 1335,-402l-68 -1278 574 0 -68 1278c694,29 1243,194 1335,402l893 2402 254 0zm-4151 -2121l0 2121 788 0 -788 -2121zm-893 2121l789 0 0 -2121 -789 2121zm3004 0l789 0 0 -2121 -789 2121zm893 -2121l0 2121 789 0 -789 -2121z"/>
  <path class="fil3" d="M7679 46411c0,615 -2399,615 -2399,0l255 0 870 -2340 -1233 0 -170 3201 -48 0 -170 -3201 -1233 0 870 2340 254 0c0,615 -2399,615 -2399,0l255 0 893 -2401c92,-209 640,-374 1335,-403l-68 -1277 574 0 -68 1277c694,29 1243,194 1335,403l893 2401 254 0zm-4151 -2121l0 2121 788 0 -788 -2121zm-893 2121l789 0 0 -2121 -789 2121zm3004 0l789 0 0 -2121 -789 2121zm893 -2121l0 2121 789 0 -789 -2121z"/>
 </g>
</svg>