<svg xmlns="http://www.w3.org/2000/svg" xml:space="preserve" width="120.65mm" height="603.25mm" version="1.1" style="shape-rendering:geometricPrecision; text-rendering:geometricPrecision; image-rendering:optimizeQuality; fill-rule:evenodd; clip-rule:evenodd" viewBox="0 0 3883 19414" xmlns:xlink="http://www.w3.org/1999/xlink">
 <!-- Created by: Treedbox, treedbox.com.br -->
 <defs>
  <style type="text/css">
   <![CDATA[
    .fil0 {fill:none}
    .fil3 {fill:#000}
    .fil1 {fill:#7B1FA2}
    .fil2 {fill:#fff}
   ]]>
  </style>
 </defs>
 <g id="geo">
<rect class="fil0" width="3883" height="19414"/>
  <g id="_779182304">
   <g id="_776685072">
    <path class="fil1" d="M1453 585c-120,0 -240,0 -360,0 0,596 0,1191 0,1787 130,0 259,0 389,0 0,-447 0,-893 0,-1340 186,-13 300,23 369,85 144,127 188,347 -66,520 78,78 156,156 234,234 585,-342 511,-835 39,-1148 -135,-89 -345,-120 -605,-138l0 0zm174 2066l-488 -273 -16 273 504 0zm571 -588l-434 -351 -62 266 496 85 0 0z"/>
    <polygon class="fil1" points="1135,2883 797,3297 1094,2681 1689,2682 1955,2222 2440,2222 2765,1660 2599,1566 3084,1283 3086,1844 2915,1746 2528,2402 2001,2402 1723,2883 "/>
   </g>
  </g>
  <g id="_779172672">
   <g id="_776685072_0">
    <path class="fil2" d="M1453 8351c-120,0 -240,0 -360,0 0,595 0,1191 0,1786 130,0 259,0 389,0 0,-446 0,-893 0,-1339 186,-13 300,23 369,84 144,128 188,347 -66,521 78,78 156,156 234,234 585,-343 511,-835 39,-1148 -135,-90 -345,-121 -605,-138l0 0zm174 2066l-488 -273 -16 272 504 1zm571 -588l-434 -352 -62 266 496 86 0 0z"/>
    <polygon class="fil2" points="1135,10648 797,11063 1094,10447 1689,10447 1955,9987 2440,9987 2765,9426 2599,9331 3084,9049 3086,9609 2915,9512 2528,10168 2001,10168 1723,10648 "/>
   </g>
  </g>
  <g id="_779165472">
   <g id="_776685072_1">
    <path class="fil3" d="M1453 16116c-120,0 -240,0 -360,0 0,596 0,1191 0,1787 130,0 259,0 389,0 0,-447 0,-893 0,-1340 186,-13 300,23 369,84 144,128 188,348 -66,521 78,78 156,156 234,234 585,-342 511,-835 39,-1148 -135,-89 -345,-120 -605,-138l0 0zm174 2066l-488 -273 -16 273 504 0zm571 -588l-434 -351 -62 266 496 85 0 0z"/>
    <polygon class="fil3" points="1135,18414 797,18828 1094,18212 1689,18212 1955,17753 2440,17753 2765,17191 2599,17096 3084,16814 3086,17375 2915,17277 2528,17933 2001,17933 1723,18414 "/>
   </g>
  </g>
 </g>
</svg>