<svg xmlns="http://www.w3.org/2000/svg" width="120.65mm" height="120.65mm" style="fill-rule:evenodd"
     viewBox="0 0 1349 1349">
    <!--by TreedBox.com.br-->
    <defs>
        <style type="text/css">
            <![CDATA[
    .fil0 {fill:none}
    .fil1 {fill:#7B1FA2}
   ]]>
        </style>
    </defs>
    <g id="geo">
        <rect class="fil0" transform="matrix(2.64845E-014 1 1 -2.64845E-014 5.20248E-005 5.20248E-005)" width="1349"
              height="1349"/>
        <g id="_1089823728160">
            <g id="_776685072">
                <path class="fil1"
                      d="M432 0c-60,0 -120,0 -179,0 0,296 0,593 0,889 64,0 129,0 193,0 0,-222 0,-444 0,-667 92,-6 149,12 184,42 72,64 93,173 -33,259 39,39 77,78 116,117 292,-170 254,-416 20,-571 -67,-45 -172,-60 -301,-69l0 0zm86 1028l-242 -136 -8 136 250 0zm285 -293l-217 -174 -30 132 247 42 0 0z"/>
                <polygon class="fil1"
                         points="274,1143 105,1349 253,1043 549,1043 681,814 923,814 1084,535 1002,488 1243,347 1244,626 1159,578 967,904 704,904 566,1143 "/>
            </g>
        </g>
    </g>
</svg>