<svg xmlns="http://www.w3.org/2000/svg" width="120.65mm" height="603.25mm" style="fill-rule:evenodd" viewBox="0 0 9956 49779">
 <defs>
  <style type="text/css">
   <![CDATA[
    .fil0 {fill:none}
    .fil3 {fill:#30719E}
    .fil2 {fill:#CCCBCB}
    .fil1 {fill:white}
   ]]>
  </style>
 </defs>
 <g id="geo">
  <polygon class="fil0" points="0,0 9956,0 9956,49779 0,49779 "/>
  <path class="fil1" d="M4980 7449c1966,-1562 2709,-3125 1915,-4687l-1115 118 -802 -373 -804 373 -1142 -118c-771,1562 70,3125 1948,4687zm7 -784c1286,-1122 1844,-2211 1524,-3261l-670 70 -163 18 -148 -69 -552 -257 -553 257 -148 69 -164 -17 -689 -71c-289,1046 323,2138 1563,3261z"/>
  <path class="fil2" d="M4980 27361c1966,-1563 2709,-3125 1915,-4687l-1115 117 -802 -373 -804 374 -1142 -118c-771,1562 70,3124 1948,4687zm7 -784c1286,-1122 1844,-2212 1524,-3262l-670 71 -163 17 -148 -69 -552 -256 -553 257 -148 68 -164 -17 -689 -71c-289,1046 323,2138 1563,3262z"/>
  <path class="fil3" d="M4980 47272c1966,-1562 2709,-3125 1915,-4687l-1115 118 -802 -373 -804 373 -1142 -118c-771,1562 70,3125 1948,4687zm7 -784c1286,-1122 1844,-2211 1524,-3261l-670 70 -163 18 -148 -69 -552 -257 -553 257 -148 69 -164 -17 -689 -71c-289,1046 323,2138 1563,3261z"/>
 </g>
</svg>