<?xml version="1.0" encoding="UTF-8"?>
<!DOCTYPE svg PUBLIC "-//W3C//DTD SVG 1.1//EN" "http://www.w3.org/Graphics/SVG/1.1/DTD/svg11.dtd">
<!-- Creator: CorelDRAW X7 -->
<svg xmlns="http://www.w3.org/2000/svg" xml:space="preserve" width="120.65mm" height="603.238mm" version="1.1" style="shape-rendering:geometricPrecision; text-rendering:geometricPrecision; image-rendering:optimizeQuality; fill-rule:evenodd; clip-rule:evenodd"
viewBox="0 0 12065 60324"
 xmlns:xlink="http://www.w3.org/1999/xlink"
 enable-background="new 0 0 24 24">
 <defs>
  <style type="text/css">
   <![CDATA[
    .fil2 {fill:#30719E}
    .fil1 {fill:#CCCCCC}
    .fil0 {fill:white}
   ]]>
  </style>
 </defs>
 <g id="Camada_x0020_1">
  <metadata id="CorelCorpID_0Corel-Layer"/>
  <g id="_1488417607_conference.svg">
   <g>
    <circle class="fil0" cx="8081" cy="4078" r="836"/>
   </g>
   <g>
    <circle class="fil0" cx="3736" cy="4078" r="836"/>
   </g>
   <g>
    <circle class="fil0" cx="5909" cy="3576" r="1003"/>
   </g>
   <path class="fil0" d="M8081 5248c-167,0 -535,66 -668,167 0,0 167,367 167,835 0,0 -401,-1337 -1671,-1337 -1270,0 -1671,1337 -1671,1337 0,-468 167,-835 167,-835 -134,-101 -502,-167 -669,-167 -568,0 -1169,668 -1169,1102l0 1905c0,368 300,669 668,669l969 0c301,-301 836,-669 1705,-669 869,0 1403,368 1704,669l969 0c368,0 669,-301 669,-669l0 -1905c0,-434 -669,-1102 -1170,-1102zm-2172 2673c-468,0 -836,-367 -836,-835 0,-468 368,-836 836,-836 468,0 835,368 835,836 0,468 -367,835 -835,835z"/>
  </g>
  <g id="_1488417607_conference.svg_0">
   <g>
    <circle class="fil1" cx="8077" cy="27833" r="836"/>
   </g>
   <g>
    <circle class="fil1" cx="3732" cy="27833" r="836"/>
   </g>
   <g>
    <circle class="fil1" cx="5905" cy="27332" r="1003"/>
   </g>
   <path class="fil1" d="M8077 29003c-167,0 -535,67 -669,167 0,0 168,368 168,836 0,0 -401,-1337 -1671,-1337 -1270,0 -1672,1337 -1672,1337 0,-468 168,-836 168,-836 -134,-100 -502,-167 -669,-167 -568,0 -1170,669 -1170,1103l0 1905c0,368 301,669 669,669l969 0c301,-301 836,-669 1705,-669 868,0 1403,368 1704,669l969 0c368,0 669,-301 669,-669l0 -1905c0,-434 -669,-1103 -1170,-1103zm-2172 2674c-468,0 -836,-368 -836,-836 0,-468 368,-835 836,-835 467,0 835,367 835,835 0,468 -368,836 -835,836z"/>
  </g>
  <g id="_1488417607_conference.svg_1">
   <g>
    <circle class="fil2" cx="8077" cy="52048" r="836"/>
   </g>
   <g>
    <circle class="fil2" cx="3732" cy="52048" r="836"/>
   </g>
   <g>
    <circle class="fil2" cx="5905" cy="51547" r="1003"/>
   </g>
   <path class="fil2" d="M8077 53218c-167,0 -535,67 -669,167 0,0 168,368 168,836 0,0 -401,-1337 -1671,-1337 -1270,0 -1672,1337 -1672,1337 0,-468 168,-836 168,-836 -134,-100 -502,-167 -669,-167 -568,0 -1170,668 -1170,1103l0 1905c0,367 301,668 669,668l969 0c301,-301 836,-668 1705,-668 868,0 1403,367 1704,668l969 0c368,0 669,-301 669,-668l0 -1905c0,-435 -669,-1103 -1170,-1103zm-2172 2674c-468,0 -836,-368 -836,-836 0,-468 368,-835 836,-835 467,0 835,367 835,835 0,468 -368,836 -835,836z"/>
  </g>
 </g>
</svg>
