<svg xmlns="http://www.w3.org/2000/svg" xml:space="preserve" width="120.65mm" height="603.25mm" version="1.1" style="shape-rendering:geometricPrecision; text-rendering:geometricPrecision; image-rendering:optimizeQuality; fill-rule:evenodd; clip-rule:evenodd"
viewBox="0 0 9956 49779"
 xmlns:xlink="http://www.w3.org/1999/xlink">
 <!-- Created by: Treedbox, treedbox.com.br -->
 <defs>
  <style type="text/css">
   <![CDATA[
    .fil0 {fill:none}
    .fil3 {fill:#30719E}
    .fil2 {fill:#CCCBCB}
    .fil1 {fill:white}
   ]]>
  </style>
 </defs>
 <g id="geo">
  <polygon class="fil0" points="0,0 9956,0 9956,49779 0,49779 "/>
  <path class="fil1" d="M5217 3126c781,184 1380,1254 1380,2546 0,124 -6,246 -16,365l0 0c188,0 341,168 341,375l0 0c0,206 -153,375 -341,375l-1163 0c24,57 37,119 37,185 0,263 -213,477 -477,477 -264,0 -478,-214 -478,-477 0,-66 14,-128 37,-185l-1162 0c-188,0 -342,-169 -342,-375l0 0c0,-207 154,-375 342,-375l0 0c-11,-119 -16,-241 -16,-365 0,-1292 599,-2362 1379,-2546 -71,-65 -116,-159 -116,-263 0,-197 159,-356 356,-356 197,0 356,159 356,356 0,104 -45,198 -117,263zm-239 -405c78,0 142,63 142,142 0,78 -64,142 -142,142 -79,0 -142,-64 -142,-142 0,-79 63,-142 142,-142z"/>
  <path class="fil2" d="M5217 23038c781,184 1380,1254 1380,2546 0,124 -6,245 -16,364l0 0c188,0 341,169 341,375l0 0c0,207 -153,376 -341,376l-1163 0c24,56 37,119 37,184 0,264 -213,478 -477,478 -264,0 -478,-214 -478,-478 0,-65 14,-128 37,-184l-1162 0c-188,0 -342,-169 -342,-376l0 0c0,-206 154,-375 342,-375l0 0c-11,-119 -16,-240 -16,-364 0,-1292 599,-2362 1379,-2546 -71,-65 -116,-159 -116,-264 0,-196 159,-356 356,-356 197,0 356,160 356,356 0,105 -45,199 -117,264zm-239 -406c78,0 142,64 142,142 0,79 -64,142 -142,142 -79,0 -142,-63 -142,-142 0,-78 63,-142 142,-142z"/>
  <path class="fil3" d="M5217 42949c781,184 1380,1254 1380,2546 0,124 -6,246 -16,365l0 0c188,0 341,168 341,375l0 0c0,206 -153,375 -341,375l-1163 0c24,57 37,119 37,185 0,263 -213,477 -477,477 -264,0 -478,-214 -478,-477 0,-66 14,-128 37,-185l-1162 0c-188,0 -342,-169 -342,-375l0 0c0,-207 154,-375 342,-375l0 0c-11,-119 -16,-241 -16,-365 0,-1292 599,-2362 1379,-2546 -71,-65 -116,-159 -116,-263 0,-197 159,-356 356,-356 197,0 356,159 356,356 0,104 -45,198 -117,263zm-239 -405c78,0 142,63 142,142 0,78 -64,142 -142,142 -79,0 -142,-64 -142,-142 0,-79 63,-142 142,-142z"/>
 </g>
</svg>