<svg xmlns="http://www.w3.org/2000/svg" xml:space="preserve" width="120.65mm" height="603.238mm" version="1.1" style="fill-rule:evenodd"
viewBox="0 0 1277 6384"
 xmlns:xlink="http://www.w3.org/1999/xlink">
 <defs>
  <style type="text/css">
   <![CDATA[
    .fil0 {fill:none}
    .fil1 {fill:#FFF}
    .fil2 {fill:#CCC}
    .fil3 {fill:#000}
   ]]>
  </style>
 </defs>
 <g id="geo">
  <polygon class="fil0" points="0,0 1277,0 1277,6384 0,6384 "/>
  <path class="fil1" d="M744 786c28,-16 64,-6 80,22 16,27 7,63 -21,79 -28,17 -64,7 -80,-21 -16,-28 -7,-64 21,-80zm-153 -58c-113,-120 -178,-254 -181,-404l197 342 -16 62zm92 155l-53 -93 15 -54c0,-1 1,-2 1,-3l36 62c8,-19 22,-35 41,-46 48,-28 110,-11 138,37 28,49 11,110 -37,138 -48,28 -110,12 -138,-37 -1,-1 -2,-3 -3,-4zm-70 -164c5,-3 12,-2 15,3 3,6 1,12 -4,15 -5,3 -12,1 -15,-4 -2,-5 -1,-11 4,-14zm-22 174l43 -161 0 -1 0 -1c41,-74 69,-148 83,-223 12,-66 12,-132 -2,-199l-134 502 -3 11 -7 -9c-7,-7 -14,-14 -22,-19 -8,-5 -17,-9 -27,-12 -25,-7 -51,-2 -72,10l0 0c-21,12 -38,32 -45,58 -6,25 -2,51 10,72 12,21 32,37 58,44 25,7 51,3 72,-9l0 0c21,-13 37,-33 44,-58 1,-1 1,-2 1,-3 0,0 0,-1 0,-2l1 0zm-123 -70c28,-17 64,-7 80,21 16,28 7,64 -21,80 -28,16 -64,6 -80,-22 -16,-28 -7,-63 21,-79z"/>
  <path class="fil2" d="M744 3340c28,-16 64,-7 80,21 16,28 7,64 -21,80 -28,16 -64,7 -80,-21 -16,-28 -7,-64 21,-80zm-153 -58c-113,-121 -178,-254 -181,-405l197 342 -16 63zm92 154l-53 -92 15 -55c0,-1 1,-1 1,-2l36 61c8,-18 22,-34 41,-45 48,-28 110,-11 138,37 28,48 11,110 -37,138 -48,28 -110,11 -138,-37 -1,-2 -2,-3 -3,-5zm-70 -164c5,-3 12,-1 15,4 3,5 1,12 -4,15 -5,3 -12,1 -15,-4 -2,-5 -1,-12 4,-15zm-22 174l43 -161 0 0 0 -1c41,-74 69,-148 83,-223 12,-66 12,-132 -2,-199l-134 502 -3 11 -7 -9c-7,-7 -14,-14 -22,-19 -8,-5 -17,-9 -27,-12 -25,-7 -51,-3 -72,9l0 1c-21,12 -38,32 -45,57 -6,26 -2,51 10,73 12,21 32,37 58,44 25,7 51,3 72,-10l0 0c21,-12 37,-32 44,-57 1,-2 1,-2 1,-3 0,0 0,-1 0,-2l1 -1zm-123 -70c28,-16 64,-6 80,22 16,28 7,63 -21,80 -28,16 -64,6 -80,-22 -16,-28 -7,-64 21,-80z"/>
  <path class="fil3" d="M744 5894c28,-17 64,-7 80,21 16,28 7,64 -21,80 -28,16 -64,6 -80,-22 -16,-28 -7,-63 21,-79zm-153 -58c-113,-121 -178,-254 -181,-405l197 342 -16 63zm92 154l-53 -92 15 -55c0,-1 1,-2 1,-2l36 61c8,-18 22,-34 41,-45 48,-28 110,-12 138,37 28,48 11,110 -37,138 -48,28 -110,11 -138,-37 -1,-2 -2,-3 -3,-5zm-70 -164c5,-3 12,-1 15,4 3,5 1,11 -4,14 -5,3 -12,2 -15,-4 -2,-5 -1,-11 4,-14zm-22 174l43 -161 0 -1 0 0c41,-74 69,-149 83,-223 12,-66 12,-133 -2,-199l-134 502 -3 11 -7 -9c-7,-8 -14,-14 -22,-19 -8,-6 -17,-10 -27,-12 -25,-7 -51,-3 -72,9l0 0c-21,12 -38,33 -45,58 -6,25 -2,51 10,72 12,21 32,38 58,45 25,6 51,2 72,-10l0 0c21,-12 37,-32 44,-58 1,-1 1,-2 1,-2 0,-1 0,-1 0,-3l1 0zm-123 -70c28,-16 64,-7 80,21 16,28 7,64 -21,80 -28,16 -64,7 -80,-21 -16,-28 -7,-64 21,-80z"/>
 </g>
</svg>